<?xml version="1.0" encoding="utf-8"?>
<!-- Generator: Adobe Illustrator 22.0.0, SVG Export Plug-In . SVG Version: 6.00 Build 0)  -->
<svg version="1.1" id="Layer_1" xmlns="http://www.w3.org/2000/svg" xmlns:xlink="http://www.w3.org/1999/xlink" x="0px" y="0px"
	 viewBox="0 0 146.2 190.9" style="enable-background:new 0 0 146.2 190.9;" xml:space="preserve">
<style type="text/css">
	.st0{fill:#FCFF26;}
	.st1{clip-path:url(#SVGID_2_);}
	.st2{fill:#00AA5B;}
	.st3{fill:#F9D10B;}
	.st4{fill:#005E9E;}
	.st5{fill:#FFFFFF;}
	.st6{fill:#00A460;}
</style>
<g>
	<g>
		<path class="st0" d="M141.9,59.4c-13.7-76.5-124-76.5-137.7,0c-1.2,6.8-1.9,13.8-1.9,21c0,48.4,29.1,90.1,70.7,108.5
			c41.6-18.4,70.7-60,70.7-108.5C143.8,73.2,143.1,66.2,141.9,59.4z"/>
	</g>
	<g>
		<defs>
			<path id="SVGID_1_" d="M128.4,72.2c0,28.4-21.4,51.9-49,55c-2.1,0.2-4.2,0.4-6.3,0.4c-30.6,0-55.4-24.8-55.4-55.4
				c0-30.6,24.8-55.4,55.4-55.4c2.1,0,4.3,0.1,6.3,0.4C107,20.4,128.4,43.8,128.4,72.2z"/>
		</defs>
		<clipPath id="SVGID_2_">
			<use xlink:href="#SVGID_1_"  style="overflow:visible;"/>
		</clipPath>
		<g class="st1">
			<path class="st2" d="M151.8,120.5c0,4.1-3.3,7.4-7.4,7.4H0.9c-4.1,0-7.4-3.3-7.4-7.4v-96c0-4.1,3.3-7.4,7.4-7.4h143.6
				c4.1,0,7.4,3.3,7.4,7.4V120.5z"/>
			<g>
				<polygon class="st3" points="72.7,113.1 7.6,72.5 72.7,32 137.8,72.5 				"/>
				<path class="st4" d="M99.8,72.5c0,15-12.1,27.2-27.1,27.2c-15,0-27.1-12.1-27.1-27.2c0-15,12.2-27.1,27.2-27.2
					C87.7,45.3,99.8,57.5,99.8,72.5z"/>
				<path class="st5" d="M63.7,62.7c-6.5-0.9-11.8-0.7-15.4-0.3c-0.9,1.7-1.6,3.4-2.1,5.3c2.6-0.4,8.9-1.1,17.1,0
					c9,1.2,22,4.9,34.9,15.3c0.5-1.7,0.9-3.6,1.1-5.5C86,67.5,72.9,63.9,63.7,62.7z"/>
				<g>
					<path class="st6" d="M52.7,64.5c0,0.5-0.2,0.9-0.8,1c-0.5,0-0.8-0.4-0.8-0.9c0-0.5,0.3-0.9,0.8-1C52.4,63.6,52.7,64,52.7,64.5z
						 M53.1,64.5c0-0.5-0.3-1.2-1.2-1.2c-0.8,0-1.1,0.8-1.1,1.3c0,0.5,0.3,1.2,1.1,1.1C52.8,65.7,53.1,65,53.1,64.5z"/>
					<path class="st6" d="M53.8,63.6l0.7,0c0.2,0,0.4,0.1,0.4,0.4c0,0.3-0.2,0.4-0.5,0.4l-0.7,0L53.8,63.6z M53.8,64.7h0.7
						c0.4,0,0.4,0.2,0.4,0.4c0,0.1,0,0.4,0,0.6l0.4,0l0-0.1c-0.1-0.1-0.1-0.1-0.1-0.2l0-0.4c0-0.3-0.1-0.4-0.3-0.4
						c0.2-0.1,0.4-0.2,0.3-0.5c0-0.5-0.4-0.6-0.8-0.6l-1,0l0,2.3l0.3,0L53.8,64.7z"/>
					<path class="st6" d="M56.1,63.7l0.6,0c0.5,0,0.7,0.3,0.7,0.9c0,0.6-0.3,0.9-0.7,0.9l-0.6,0L56.1,63.7z M55.7,65.7l0.9,0
						c0.8,0,1-0.6,1-1.1c0-0.7-0.4-1.1-1-1.2l-0.9,0L55.7,65.7z"/>
					<path class="st6" d="M59.7,65.9L58,65.8l0.1-2.3l1.7,0.1l0,0.3l-1.4-0.1l0,0.7l1.2,0.1l0,0.3l-1.2-0.1l0,0.8l1.3,0.1L59.7,65.9
						z"/>
					<path class="st6" d="M61.9,66.1l0.2-1.3c0-0.1,0-0.4,0.1-0.6l0,0l-0.8,1.8L61,66l-0.4-2l0,0c0,0.2,0,0.5,0,0.6L60.3,66l-0.3,0
						l0.2-2.3l0.5,0l0.4,2l0,0l0.9-1.8l0.4,0.1l-0.2,2.3L61.9,66.1z"/>
					<path class="st6" d="M70.4,67.7l-1.6-0.4l0.5-2.2l1.6,0.3l0,0.3l-1.3-0.3l-0.1,0.7l1.2,0.3l-0.1,0.3l-1.2-0.3l-0.2,0.7l1.3,0.3
						L70.4,67.7z"/>
					<path class="st6" d="M77,67.5l0.5,0.2c0.2,0.1,0.4,0.2,0.3,0.5c-0.1,0.3-0.3,0.3-0.6,0.2l-0.6-0.2L77,67.5z M76.6,68.5l0.7,0.2
						c0.5,0.2,0.8-0.1,0.9-0.4c0.1-0.4,0-0.7-0.4-0.8l-0.9-0.3L76,69.3l0.3,0.1L76.6,68.5z"/>
					<path class="st6" d="M79,68.2l0.7,0.3c0.1,0.1,0.4,0.2,0.3,0.5c-0.1,0.3-0.4,0.3-0.6,0.2l-0.7-0.3L79,68.2z M78.6,69.2l0.7,0.3
						c0.4,0.1,0.3,0.3,0.2,0.5c0,0.1-0.2,0.4-0.2,0.6l0.4,0.1l0,0c-0.1-0.1-0.1-0.1,0-0.3l0.1-0.4c0.1-0.3,0-0.4-0.1-0.5
						c0.1,0,0.4-0.1,0.5-0.4c0.2-0.5-0.1-0.7-0.5-0.9l-1-0.4L78,70l0.3,0.1L78.6,69.2z"/>
					<path class="st6" d="M82.1,70.4c-0.2,0.5-0.6,0.7-1.1,0.5c-0.4-0.2-0.6-0.7-0.4-1.2c0.2-0.5,0.6-0.7,1-0.5
						C82.2,69.4,82.3,69.9,82.1,70.4z M82.4,70.5c0.2-0.5,0.2-1.2-0.6-1.5c-0.8-0.3-1.3,0.2-1.5,0.7c-0.2,0.4-0.3,1.2,0.5,1.5
						C81.7,71.5,82.2,71,82.4,70.5z"/>
					<path class="st6" d="M83.6,71l0.9,0.4L84,72.6l-0.2-0.1l0-0.3c-0.2,0.1-0.5,0.1-0.8,0c-0.3-0.2-0.4-0.4-0.5-0.5
						c-0.2-0.4,0-0.8,0.1-1c0.2-0.5,0.8-0.9,1.5-0.6c0.4,0.2,0.7,0.6,0.6,1.1L84.4,71c0.1-0.4-0.2-0.6-0.4-0.8c-0.4-0.1-0.8,0-1,0.6
						c-0.2,0.4-0.3,0.9,0.3,1.2c0.1,0,0.3,0.1,0.5,0.1c0.2-0.1,0.4-0.2,0.5-0.4l-0.7-0.3L83.6,71z"/>
					<path class="st6" d="M85.7,71.1l0.7,0.4c0.1,0.1,0.3,0.2,0.2,0.5c-0.2,0.3-0.4,0.3-0.6,0.1l-0.6-0.3L85.7,71.1z M85.2,72
						l0.6,0.3c0.4,0.2,0.3,0.4,0.2,0.6c-0.1,0.1-0.2,0.4-0.2,0.5l0.3,0.2l0,0c0-0.1,0-0.1,0-0.3l0.2-0.4c0.1-0.3,0-0.4,0-0.5
						c0.2,0,0.3,0,0.5-0.4c0.2-0.4-0.1-0.7-0.4-0.9l-0.9-0.5l-1,2l0.3,0.1L85.2,72z"/>
					<path class="st6" d="M88,74.6l-1.5-0.8l1.1-2l1.5,0.8l-0.1,0.2l-1.2-0.6l-0.3,0.6l1.1,0.6l-0.1,0.2L87.3,73l-0.3,0.7l1.2,0.7
						L88,74.6z"/>
					<path class="st6" d="M90.3,74c0.2-0.3,0-0.5-0.3-0.7c-0.2-0.1-0.5-0.2-0.7,0.1c-0.1,0.2,0,0.3,0.1,0.4l0.5,0.5
						c0.2,0.2,0.3,0.4,0.2,0.8c-0.3,0.5-0.8,0.4-1.1,0.1c-0.4-0.2-0.5-0.4-0.5-0.5c-0.1-0.2,0-0.4,0.1-0.6l0.3,0.1
						c-0.2,0.4,0,0.6,0.3,0.8c0.2,0.1,0.5,0.3,0.7,0c0.1-0.2,0.1-0.3-0.2-0.6L89.3,74c-0.1-0.1-0.3-0.4-0.2-0.7
						c0.2-0.3,0.6-0.5,1.1-0.2c0.7,0.4,0.5,0.8,0.4,1.1L90.3,74z"/>
					<path class="st6" d="M92.2,75.2c0.2-0.3,0-0.6-0.2-0.7c-0.2-0.1-0.5-0.2-0.7,0.1c-0.1,0.2,0,0.3,0.1,0.4l0.5,0.5
						c0.2,0.2,0.3,0.5,0.1,0.8c-0.3,0.4-0.7,0.3-1.1,0.1c-0.4-0.2-0.4-0.4-0.5-0.6c-0.1-0.3,0-0.4,0.1-0.6l0.2,0.1
						c-0.2,0.4,0,0.6,0.3,0.8c0.2,0.1,0.6,0.3,0.7,0c0.1-0.2,0.1-0.3-0.2-0.6l-0.4-0.4C91,75,90.8,74.8,91,74.4
						c0.2-0.3,0.6-0.5,1-0.2c0.7,0.4,0.5,0.9,0.3,1.1L92.2,75.2z"/>
					<path class="st6" d="M94.1,76.9c-0.3,0.4-0.7,0.6-1.2,0.3c-0.4-0.3-0.5-0.8-0.2-1.2c0.3-0.5,0.8-0.6,1.2-0.4
						C94.3,76,94.3,76.5,94.1,76.9z M94.3,77.1c0.3-0.4,0.4-1.1-0.3-1.6c-0.7-0.4-1.3,0-1.6,0.4c-0.3,0.4-0.4,1.1,0.3,1.6
						C93.5,78,94,77.5,94.3,77.1z"/>
				</g>
				<g>
					<polygon class="st5" points="80,54.9 80.4,56 81.6,56 80.6,56.7 81,57.9 80,57.2 79,57.9 79.4,56.7 78.4,56 79.6,56 					"/>
					<polygon class="st5" points="61.3,67.7 61.6,68.4 62.4,68.4 61.7,68.9 62,69.6 61.3,69.2 60.7,69.6 60.9,68.9 60.3,68.4 
						61.1,68.4 					"/>
					<polygon class="st5" points="49.7,61.3 50.1,62.4 51.1,62.3 50.3,63 50.6,64 49.7,63.4 48.8,64 49.2,63 48.3,62.4 49.4,62.4 
											"/>
					<polygon class="st5" points="54.6,71.2 54.8,72.1 55.8,72.1 55,72.7 55.3,73.6 54.5,73 53.8,73.6 54.1,72.7 53.3,72.1 
						54.2,72.1 					"/>
					<polygon class="st5" points="52.3,72.5 52.7,73.8 53.9,73.7 52.9,74.5 53.3,75.7 52.3,75 51.2,75.7 51.6,74.5 50.6,73.7 
						51.8,73.7 					"/>
					<polygon class="st5" points="49.4,75.8 49.6,76.4 50.2,76.4 49.7,76.8 49.9,77.4 49.4,77 48.8,77.4 49.1,76.8 48.5,76.4 
						49.2,76.4 					"/>
					<polygon class="st5" points="57.6,75.5 57.9,76.4 58.8,76.4 58,76.9 58.3,77.7 57.6,77.2 56.9,77.7 57.2,76.9 56.4,76.4 
						57.3,76.4 					"/>
					<polygon class="st5" points="57.1,78.8 57.4,79.5 58.2,79.5 57.5,80 57.7,80.8 57.1,80.3 56.4,80.8 56.7,80 56,79.5 56.8,79.5 
											"/>
					<polygon class="st5" points="60.7,81.1 61.1,82.2 62.2,82.2 61.3,82.9 61.7,84 60.7,83.3 59.8,84 60.2,82.9 59.3,82.2 
						60.4,82.2 					"/>
					<polygon class="st5" points="72.2,78.5 72.6,79.7 73.8,79.7 72.8,80.4 73.3,81.7 72.2,80.9 71.2,81.7 71.5,80.4 70.5,79.7 
						71.8,79.7 					"/>
					<polygon class="st5" points="70.8,75.6 71,76 71.4,76 71.1,76.3 71.2,76.8 70.8,76.5 70.5,76.7 70.6,76.3 70.3,76 70.7,76 
											"/>
					<polygon class="st5" points="68.6,73.8 68.9,74.5 69.6,74.5 69,74.9 69.2,75.6 68.6,75.2 68.1,75.6 68.3,74.9 67.7,74.5 
						68.4,74.5 					"/>
					<polygon class="st5" points="72.6,70.8 72.8,71.7 73.7,71.7 73,72.2 73.3,73.1 72.5,72.6 71.8,73.1 72.1,72.2 71.3,71.7 
						72.3,71.7 					"/>
					<polygon class="st5" points="78.6,64.6 78.9,65.4 79.7,65.4 79,65.8 79.3,66.6 78.6,66.1 78,66.6 78.2,65.8 77.6,65.4 
						78.4,65.4 					"/>
					<polygon class="st5" points="75.2,73.5 75.5,74.5 76.4,74.5 75.6,75 75.9,76 75.2,75.4 74.4,76 74.7,75 73.9,74.5 74.9,74.5 
											"/>
					<polygon class="st5" points="78.2,81.1 78.6,82.4 80,82.4 78.9,83.2 79.3,84.5 78.2,83.7 77.1,84.5 77.5,83.2 76.5,82.4 
						77.8,82.4 					"/>
					<polygon class="st5" points="80.3,85.5 80.7,86.5 81.7,86.5 80.8,87.1 81.2,88.1 80.4,87.5 79.5,88.1 79.8,87.1 79,86.5 
						80,86.5 					"/>
					<polygon class="st5" points="82.6,82.4 82.9,83.3 83.8,83.3 83.1,83.8 83.4,84.6 82.7,84.1 81.9,84.6 82.2,83.8 81.5,83.3 
						82.4,83.3 					"/>
					<polygon class="st5" points="85.9,80.5 86.3,81.4 87.2,81.4 86.4,82 86.7,82.9 86,82.4 85.1,83 85.4,82 84.6,81.4 85.6,81.4 
											"/>
					<polygon class="st5" points="86,84.8 86.3,85.6 87.1,85.6 86.4,86 86.7,86.8 86,86.4 85.4,86.8 85.6,86.1 85,85.6 85.8,85.6 
											"/>
					<polygon class="st5" points="85.9,87.6 86.1,88.2 86.9,88.2 86.3,88.6 86.5,89.2 85.9,88.8 85.4,89.3 85.6,88.6 85.1,88.2 
						85.7,88.2 					"/>
					<polygon class="st5" points="88.7,81.5 89,82.6 90.1,82.6 89.2,83.2 89.6,84.3 88.6,83.6 87.8,84.3 88.1,83.2 87.2,82.6 
						88.3,82.6 					"/>
					<polygon class="st5" points="91.8,81.2 92,81.9 92.8,81.9 92.2,82.4 92.4,83.1 91.8,82.7 91.2,83.1 91.4,82.4 90.8,82 
						91.5,81.9 					"/>
					<polygon class="st5" points="93,79.2 93.2,79.7 93.7,79.7 93.3,80.1 93.4,80.6 93,80.3 92.5,80.6 92.7,80.1 92.2,79.7 
						92.8,79.7 					"/>
					<polygon class="st5" points="91.5,75.5 91.7,76.1 92.3,76.1 91.8,76.5 92,77.2 91.4,76.8 90.9,77.2 91.1,76.5 90.6,76.1 
						91.3,76.1 					"/>
					<polygon class="st5" points="95.5,75 95.9,76.1 97.1,76.1 96.1,76.8 96.5,77.9 95.5,77.2 94.6,77.9 94.9,76.8 94,76.1 
						95.1,76.1 					"/>
					<polygon class="st5" points="72.5,88.3 72.7,89 73.5,89 72.9,89.4 73.1,90.1 72.5,89.7 72,90.1 72.2,89.4 71.6,89 72.3,89 
											"/>
				</g>
			</g>
		</g>
	</g>
</g>
</svg>
