<?xml version="1.0" encoding="utf-8"?>
<!-- Generator: Adobe Illustrator 22.0.0, SVG Export Plug-In . SVG Version: 6.00 Build 0)  -->
<svg version="1.1" id="Layer_1" xmlns="http://www.w3.org/2000/svg" xmlns:xlink="http://www.w3.org/1999/xlink" x="0px" y="0px"
	 viewBox="0 0 146.2 190.9" style="enable-background:new 0 0 146.2 190.9;" xml:space="preserve">
<style type="text/css">
	.st0{fill:#FF6B68;}
	.st1{clip-path:url(#SVGID_2_);}
	.st2{fill:#E6E7E8;}
	.st3{fill:#EC1C24;}
	.st4{fill:#FBE6EF;}
	.st5{fill:url(#SVGID_3_);}
</style>
<g>
	<g>
		<path class="st0" d="M141.9,59.3c-13.7-76.6-124.1-76.6-137.8,0c-1.2,6.8-1.9,13.8-1.9,21c0,48.5,29.1,90.2,70.8,108.5
			c41.7-18.4,70.8-60.1,70.8-108.5C143.8,73.2,143.1,66.1,141.9,59.3z"/>
	</g>
	<g>
		<defs>
			<path id="SVGID_1_" d="M128.4,72.2c0,28.5-21.4,51.9-49.1,55c-2.1,0.2-4.2,0.4-6.3,0.4c-30.6,0-55.4-24.8-55.4-55.4
				c0-30.6,24.8-55.4,55.4-55.4c2.1,0,4.3,0.1,6.3,0.4C107,20.3,128.4,43.7,128.4,72.2z"/>
		</defs>
		<clipPath id="SVGID_2_">
			<use xlink:href="#SVGID_1_"  style="overflow:visible;"/>
		</clipPath>
		<g class="st1">
			<g>
				<path class="st2" d="M153.5,120.4c0,4.1-3.3,7.5-7.5,7.5H0.5c-4.1,0-7.5-3.3-7.5-7.5V23.1c0-4.1,3.3-7.5,7.5-7.5H146
					c4.1,0,7.5,3.3,7.5,7.5V120.4z"/>
				<path class="st3" d="M0.5,15.6c-4.1,0-7.5,3.3-7.5,7.5v97.3c0,4.1,3.3,7.5,7.5,7.5H34V15.6H0.5z"/>
				<path class="st3" d="M153.5,120.4V23.1c0-4.1-3.3-7.5-7.5-7.5h-33.5v112.2H146C150.2,127.8,153.5,124.5,153.5,120.4z"/>
				<g>
					<path class="st4" d="M71.1,39.7c0,0-5,10.1-5.5,11c-0.9-0.5-7-3.8-7-3.8l0.4,1.3c4.7,15.8,3.3,17.3,3,17.5
						c-0.9,0.4-4.4-3.5-7.5-8.3l-1-1.6v1.9c0,1.6-0.5,2.7-1.5,3.4c-2.9,2-9-0.2-9-0.3l-1.4-0.5l0.7,1.3c3.2,6.1,2.9,8.8,2.1,10
						c-0.9,1.4-2.9,1.2-2.9,1.2L41.3,74c12.2,6.2,15,10.9,15.2,13.8c0.2,2.8-2.1,4.3-2.2,4.4l0.4,1c0,0,13.9-3,15.3-3.2
						c-0.1,1.3-1,15.8-1,15.8l2.7,0.3l2.7-0.3c0,0-1-14.4-1-15.8c1.3,0.3,15.3,3.2,15.3,3.2l0.4-1c-0.1-0.1-2.3-1.6-2.1-4.4
						C87,84.9,89.7,80.2,102,74l-0.3-1.1c0,0-2,0.2-2.9-1.2c-0.8-1.2-1.1-3.9,2.1-10l0.7-1.3l-1.4,0.5c-0.1,0-6.2,2.3-9,0.3
						c-1-0.7-1.5-1.8-1.5-3.4l0-1.9l-1,1.6c-3.1,4.8-6.6,8.7-7.5,8.3c-0.3-0.2-1.7-1.7,3-17.5l0.4-1.3c0,0-6.1,3.3-7,3.8
						c-0.5-0.9-6-12-6-12L71.1,39.7z"/>
					<path class="st3" d="M101.7,73.5c0,0-8.1,0.8-1.3-12c0,0-11.3,4.2-11.3-3.7c0,0-15.7,24.6-5.5-9.7l-6.3,3.4L71.6,40l-5.7,11.5
						l-6.3-3.4c10.2,34.3-5.5,9.7-5.5,9.7c0,7.9-11.3,3.7-11.3,3.7c6.8,12.8-1.3,12-1.3,12c23.8,12,13.1,19.1,13.1,19.1l16-3.4
						l-1.1,16l2.1,0.3l2.1-0.3l-1-16l16,3.4C88.6,92.6,77.9,85.5,101.7,73.5z"/>
				</g>
			</g>
			
				<radialGradient id="SVGID_3_" cx="-921.9489" cy="1850.6554" r="27.3796" gradientTransform="matrix(1.0148 0 0 1.0148 1008.8869 -1750.2144)" gradientUnits="userSpaceOnUse">
				<stop  offset="0" style="stop-color:#DDDFE0"/>
				<stop  offset="1" style="stop-color:#FFFFFF"/>
			</radialGradient>
			<rect x="34" y="127.8" class="st5" width="78.6" height="0"/>
		</g>
	</g>
</g>
</svg>
