<?xml version="1.0" encoding="utf-8"?>
<!-- Generator: Adobe Illustrator 22.0.0, SVG Export Plug-In . SVG Version: 6.00 Build 0)  -->
<svg version="1.1" id="Layer_1" xmlns="http://www.w3.org/2000/svg" xmlns:xlink="http://www.w3.org/1999/xlink" x="0px" y="0px"
	 viewBox="0 0 438.9 216.4" style="enable-background:new 0 0 438.9 216.4;" xml:space="preserve">
<style type="text/css">
	.st0{fill:#1E596D;}
	.st1{fill:#FF6B68;}
	.st2{clip-path:url(#SVGID_2_);}
	.st3{fill:#E6E7E8;}
	.st4{fill:#EC1C24;}
	.st5{fill:#FBE6EF;}
	.st6{fill:url(#SVGID_3_);}
	.st7{fill:#726658;}
	.st8{fill:#DED9D7;}
</style>
<g>
	<path class="st0" d="M420.5,18.4C397.1-5,359.2-5,335.8,18.4s-23.4,61.3,0,84.7c12.6,12.6,29.3,18.4,45.7,17.4
		c14.2-0.8,28.1-6.6,38.9-17.4s16.6-24.8,17.4-39C438.8,47.6,433,30.9,420.5,18.4z M406.3,88.9c-15.6,15.6-40.8,15.6-56.4,0
		s-15.6-40.8,0-56.4s40.8-15.6,56.4,0S421.9,73.3,406.3,88.9z"/>
	<g>
		<g id="XMLID_353_">
			<path id="XMLID_285_" class="st0" d="M338,56.5H108.3c-5.7,0-11.1-2.8-14.3-7.6c-3.9-5.8-10.5-9.5-18-9.3
				C65.1,40,56,48.9,55.6,59.8c-0.5,12,9.1,21.9,21,21.9c7.1,0,13.4-3.5,17.2-9c3.4-4.8,8.7-7.9,14.5-7.9H338V56.5z"/>
		</g>
		<g>
			<g>
				<path class="st0" d="M141.8,45h-16.5v-2.4l6.6-6.6c2-2,3.3-3.5,4-4.3c0.6-0.9,1.1-1.7,1.4-2.5s0.5-1.7,0.5-2.6
					c0-1.3-0.4-2.4-1.2-3.2c-0.8-0.8-1.9-1.2-3.4-1.2c-1,0-2,0.2-2.9,0.5c-0.9,0.3-2,1-3.1,1.9l-1.5-2.1c2.3-1.9,4.8-2.9,7.5-2.9
					c2.3,0,4.2,0.6,5.5,1.8s2,2.8,2,4.8c0,1.6-0.4,3.2-1.3,4.7c-0.9,1.5-2.6,3.5-5,5.9l-5.5,5.3v0.1h12.9V45z"/>
				<path class="st0" d="M161.9,32.4c0,4.3-0.7,7.5-2,9.7c-1.4,2.1-3.4,3.2-6.2,3.2c-2.7,0-4.7-1.1-6.1-3.3
					c-1.4-2.2-2.1-5.4-2.1-9.6c0-4.4,0.7-7.6,2-9.7c1.4-2.1,3.4-3.2,6.2-3.2c2.7,0,4.8,1.1,6.2,3.3
					C161.2,25.1,161.9,28.3,161.9,32.4z M148.3,32.4c0,3.6,0.4,6.3,1.3,7.9c0.9,1.7,2.2,2.5,4.1,2.5c1.9,0,3.3-0.8,4.1-2.5
					s1.3-4.3,1.3-7.9s-0.4-6.2-1.3-7.9c-0.8-1.7-2.2-2.5-4.1-2.5c-1.9,0-3.2,0.8-4.1,2.5C148.7,26.2,148.3,28.8,148.3,32.4z"/>
				<path class="st0" d="M175.9,45h-2.8V27.2c0-1.5,0-2.9,0.1-4.2c-0.2,0.2-0.5,0.5-0.8,0.8s-1.7,1.4-4.1,3.3l-1.5-1.9l6.6-5.1h2.4
					V45H175.9z"/>
				<path class="st0" d="M193.7,19.6c2.3,0,4.1,0.5,5.4,1.6s2,2.5,2,4.4c0,1.2-0.4,2.4-1.1,3.4c-0.8,1-2,1.9-3.7,2.8
					c2,1,3.5,2,4.3,3.1s1.3,2.3,1.3,3.7c0,2.1-0.7,3.7-2.2,5c-1.4,1.2-3.4,1.9-5.9,1.9c-2.7,0-4.7-0.6-6.2-1.8
					c-1.4-1.2-2.2-2.8-2.2-5c0-2.9,1.7-5.1,5.2-6.7c-1.6-0.9-2.7-1.8-3.4-2.9c-0.7-1-1-2.2-1-3.5c0-1.8,0.7-3.3,2-4.3
					C189.6,20.2,191.4,19.6,193.7,19.6z M188.3,38.7c0,1.4,0.5,2.4,1.4,3.2c1,0.8,2.3,1.1,4,1.1s3-0.4,4-1.2
					c0.9-0.8,1.4-1.9,1.4-3.3c0-1.1-0.4-2.1-1.3-2.9s-2.4-1.7-4.6-2.5c-1.7,0.7-2.9,1.5-3.7,2.4C188.6,36.4,188.3,37.4,188.3,38.7z
					 M193.6,21.9c-1.4,0-2.5,0.3-3.3,1s-1.2,1.6-1.2,2.7c0,1,0.3,1.9,1,2.7c0.7,0.8,1.9,1.5,3.7,2.3c1.6-0.7,2.8-1.4,3.5-2.2
					c0.7-0.8,1-1.7,1-2.8c0-1.2-0.4-2.1-1.2-2.7C196.2,22.3,195.1,21.9,193.6,21.9z"/>
				<path class="st0" d="M216.2,20l-9.3,25h-2.8l9.3-25H216.2z"/>
				<path class="st0" d="M234.7,45h-16.4v-2.4l6.6-6.6c2-2,3.3-3.5,4-4.3c0.6-0.9,1.1-1.7,1.4-2.5c0.3-0.8,0.5-1.7,0.5-2.6
					c0-1.3-0.4-2.4-1.2-3.2c-0.8-0.8-1.9-1.2-3.4-1.2c-1,0-2,0.2-2.9,0.5s-2,1-3.1,1.9l-1.5-1.9c2.3-1.9,4.8-2.9,7.5-2.9
					c2.3,0,4.2,0.6,5.5,1.8s2,2.8,2,4.8c0,1.6-0.4,3.2-1.3,4.7c-0.9,1.5-2.6,3.5-5,5.9l-5.5,5.3v0.1h12.8V45z"/>
				<path class="st0" d="M254.8,32.4c0,4.3-0.7,7.5-2,9.7c-1.4,2.1-3.4,3.2-6.2,3.2c-2.7,0-4.7-1.1-6.1-3.3s-2.1-5.4-2.1-9.6
					c0-4.4,0.7-7.6,2-9.7c1.4-2.1,3.4-3.2,6.2-3.2c2.7,0,4.8,1.1,6.2,3.3C254.1,25.1,254.8,28.3,254.8,32.4z M241.2,32.4
					c0,3.6,0.4,6.3,1.3,7.9c0.9,1.7,2.2,2.5,4.1,2.5c1.9,0,3.3-0.8,4.1-2.5s1.3-4.3,1.3-7.9s-0.4-6.2-1.3-7.9
					c-0.8-1.7-2.2-2.5-4.1-2.5c-1.9,0-3.2,0.8-4.1,2.5C241.6,26.2,241.2,28.8,241.2,32.4z"/>
				<path class="st0" d="M268.8,45H266V27.2c0-1.5,0-2.9,0.1-4.2c-0.2,0.2-0.5,0.5-0.8,0.8c-0.3,0.3-1.7,1.4-4.1,3.3l-1.5-1.9
					l6.6-5.1h2.4V45H268.8z"/>
				<path class="st0" d="M294.7,30.6c0,9.8-3.8,14.7-11.3,14.7c-1.3,0-2.4-0.1-3.1-0.3v-2.4c0.9,0.3,1.9,0.4,3.1,0.4
					c2.7,0,4.8-0.8,6.2-2.5s2.2-4.3,2.3-7.8h-0.2c-0.6,0.9-1.5,1.7-2.5,2.2s-2.2,0.7-3.5,0.7c-2.2,0-4-0.7-5.3-2
					c-1.3-1.3-1.9-3.2-1.9-5.5c0-2.6,0.7-4.6,2.2-6.2c1.5-1.5,3.4-2.3,5.7-2.3c1.7,0,3.2,0.4,4.5,1.3c1.3,0.9,2.2,2.1,2.9,3.8
					C294.5,26.4,294.7,28.4,294.7,30.6z M286.3,22.1c-1.6,0-2.9,0.5-3.8,1.6c-0.9,1-1.3,2.5-1.3,4.4c0,1.6,0.4,2.9,1.2,3.9
					c0.8,0.9,2.1,1.4,3.7,1.4c1,0,2-0.2,2.9-0.6c0.9-0.4,1.6-1,2.1-1.7s0.8-1.5,0.8-2.3c0-1.2-0.2-2.3-0.7-3.3s-1.1-1.8-2-2.4
					C288.3,22.3,287.4,22.1,286.3,22.1z"/>
			</g>
			<g>
				<path class="st0" d="M361,50.1c0-4,3.2-7.2,7.2-7.2s7.2,3.2,7.2,7.2V75c0,4-3.2,7.2-7.2,7.2S361,79,361,75V50.1z M364,75.1
					c0,2.3,1.9,4.2,4.2,4.2s4.2-1.9,4.2-4.2v-25c0-2.3-1.9-4.2-4.2-4.2s-4.2,1.9-4.2,4.2V75.1z"/>
				<path class="st0" d="M395.4,74.9c0,4.1-3.3,7.4-7.4,7.4s-7.4-3.3-7.4-7.4V50.3c0-4.1,3.3-7.4,7.4-7.4s7.4,3.3,7.4,7.4v3.2
					l-2.9,0.3v-3.5c0-2.4-2-4.4-4.4-4.4s-4.4,2-4.4,4.4v9.8c1.2-0.9,2.8-1.4,4.4-1.4c4.1,0,7.4,3.3,7.4,7.4v8.8H395.4z M392.5,66
					c0-2.4-2-4.4-4.4-4.4s-4.4,2-4.4,4.4v8.9c0,2.4,2,4.4,4.4,4.4s4.4-2,4.4-4.4V66z"/>
			</g>
		</g>
	</g>
</g>
<g>
	<g>
		<path class="st1" d="M42.9,46c-4-22.6-36.6-22.6-40.7,0c-0.4,2-0.5,4.1-0.5,6.2c0,14.3,8.6,26.6,20.9,32
			c12.3-5.4,20.9-17.7,20.9-32C43.5,50.1,43.3,48,42.9,46z"/>
	</g>
	<g>
		<defs>
			<path id="SVGID_1_" d="M38.9,49.8c0,8.4-6.3,15.3-14.5,16.2c-0.6,0.1-1.2,0.1-1.9,0.1c-9,0-16.3-7.3-16.3-16.3
				c0-9,7.3-16.3,16.3-16.3c0.6,0,1.3,0,1.9,0.1C32.6,34.5,38.9,41.4,38.9,49.8z"/>
		</defs>
		<clipPath id="SVGID_2_">
			<use xlink:href="#SVGID_1_"  style="overflow:visible;"/>
		</clipPath>
		<g class="st2">
			<g>
				<path class="st3" d="M46.3,64c0,1.2-1,2.2-2.2,2.2H1.2C0,66.2-1,65.2-1,64V35.3c0-1.2,1-2.2,2.2-2.2h42.9c1.2,0,2.2,1,2.2,2.2
					V64z"/>
				<path class="st4" d="M1.2,33.1c-1.2,0-2.2,1-2.2,2.2V64c0,1.2,1,2.2,2.2,2.2h9.9V33.1H1.2z"/>
				<path class="st4" d="M46.3,64V35.3c0-1.2-1-2.2-2.2-2.2h-9.9v33.1h9.9C45.4,66.2,46.3,65.2,46.3,64z"/>
				<g>
					<path class="st5" d="M22,40.2c0,0-1.5,3-1.6,3.2c-0.3-0.1-2.1-1.1-2.1-1.1l0.1,0.4c1.4,4.7,1,5.1,0.9,5.2
						c-0.3,0.1-1.3-1-2.2-2.4L16.8,45v0.6c0,0.5-0.1,0.8-0.4,1c-0.8,0.6-2.6-0.1-2.7-0.1l-0.4-0.1l0.2,0.4c0.9,1.8,0.9,2.6,0.6,2.9
						c-0.3,0.4-0.8,0.4-0.9,0.4l-0.1,0.3c3.6,1.8,4.4,3.2,4.5,4.1c0,0.8-0.6,1.3-0.6,1.3l0.1,0.3c0,0,4.1-0.9,4.5-1
						c0,0.4-0.3,4.6-0.3,4.6l0.8,0.1l0.8-0.1c0,0-0.3-4.3-0.3-4.7c0.4,0.1,4.5,1,4.5,1l0.1-0.3c0,0-0.7-0.5-0.6-1.3
						c0-0.8,0.9-2.2,4.5-4.1L31,50c0,0-0.6,0-0.9-0.4c-0.2-0.4-0.3-1.2,0.6-2.9l0.2-0.4l-0.4,0.1c0,0-1.8,0.7-2.7,0.1
						c-0.3-0.2-0.4-0.5-0.4-1l0-0.6l-0.3,0.5c-0.9,1.4-1.9,2.6-2.2,2.4c-0.1,0-0.5-0.5,0.9-5.2l0.1-0.4c0,0-1.8,1-2.1,1.1
						c-0.1-0.3-1.8-3.5-1.8-3.5L22,40.2z"/>
					<path class="st4" d="M31.1,50.2c0,0-2.4,0.2-0.4-3.6c0,0-3.3,1.2-3.3-1.1c0,0-4.6,7.3-1.6-2.9l-1.9,1l-1.7-3.4l-1.7,3.4l-1.9-1
						c3,10.1-1.6,2.9-1.6,2.9c0,2.3-3.3,1.1-3.3,1.1c2,3.8-0.4,3.6-0.4,3.6c7,3.6,3.9,5.6,3.9,5.6l4.7-1l-0.3,4.7l0.6,0.1l0.6-0.1
						l-0.3-4.7l4.7,1C27.2,55.8,24,53.7,31.1,50.2z"/>
				</g>
			</g>
			
				<radialGradient id="SVGID_3_" cx="-970.1284" cy="1789.0887" r="8.0788" gradientTransform="matrix(1.0148 0 0 1.0148 1007.1551 -1749.3431)" gradientUnits="userSpaceOnUse">
				<stop  offset="0" style="stop-color:#DDDFE0"/>
				<stop  offset="1" style="stop-color:#FFFFFF"/>
			</radialGradient>
			<rect x="11.1" y="66.2" class="st6" width="23.2" height="0"/>
		</g>
	</g>
</g>
<g id="XMLID_337_">
	<g>
		<g>
			<path class="st7" d="M47.7,154.8c1-0.1,2.1-0.3,3.4-0.3c2.3,0,3.9,0.5,5,1.5c1.1,1,1.7,2.4,1.7,4.4c0,2-0.6,3.6-1.8,4.8
				c-1.1,1.1-3,1.8-5.4,1.8c-1.1,0-2.1-0.1-2.9-0.1V154.8z M49.3,165.6c0.4,0.1,1,0.1,1.6,0.1c3.4,0,5.2-1.9,5.2-5.2
				c0-2.9-1.6-4.7-5-4.7c-0.8,0-1.4,0.1-1.9,0.2V165.6z"/>
			<path class="st7" d="M61.6,155.6c0,0.5-0.4,1-1,1c-0.6,0-1-0.4-1-1c0-0.6,0.4-1,1-1C61.2,154.6,61.6,155,61.6,155.6z M59.8,166.9
				v-8.8h1.6v8.8H59.8z"/>
			<path class="st7" d="M64,160.9c0-1.1,0-2-0.1-2.9h1.4l0.1,1.5h0c0.7-1.1,1.7-1.7,3.1-1.7c2.1,0,3.7,1.8,3.7,4.5
				c0,3.2-1.9,4.7-4,4.7c-1.2,0-2.2-0.5-2.7-1.4h0v4.8H64V160.9z M65.6,163.3c0,0.2,0,0.5,0.1,0.7c0.3,1.1,1.3,1.9,2.4,1.9
				c1.7,0,2.7-1.4,2.7-3.4c0-1.8-0.9-3.3-2.6-3.3c-1.1,0-2.1,0.8-2.4,2c-0.1,0.2-0.1,0.4-0.1,0.7V163.3z"/>
			<path class="st7" d="M74.4,153.9H76v12.9h-1.6V153.9z"/>
			<path class="st7" d="M86.7,162.4c0,3.3-2.3,4.7-4.4,4.7c-2.4,0-4.2-1.7-4.2-4.5c0-3,1.9-4.7,4.4-4.7
				C85,157.9,86.7,159.7,86.7,162.4z M79.7,162.5c0,1.9,1.1,3.4,2.7,3.4c1.5,0,2.7-1.4,2.7-3.4c0-1.5-0.7-3.4-2.6-3.4
				C80.5,159.1,79.7,160.8,79.7,162.5z"/>
			<path class="st7" d="M88.7,160.4c0-0.9,0-1.7-0.1-2.4H90l0.1,1.4h0.1c0.5-0.8,1.3-1.6,2.8-1.6c1.2,0,2.1,0.7,2.5,1.8h0
				c0.3-0.5,0.6-0.9,1-1.1c0.5-0.4,1.1-0.6,1.9-0.6c1.2,0,2.9,0.8,2.9,3.8v5.2h-1.6v-5c0-1.7-0.6-2.7-1.9-2.7
				c-0.9,0-1.6,0.7-1.9,1.5c-0.1,0.2-0.1,0.5-0.1,0.8v5.4h-1.6v-5.3c0-1.4-0.6-2.4-1.8-2.4c-1,0-1.7,0.8-2,1.6
				c-0.1,0.2-0.1,0.5-0.1,0.8v5.3h-1.6V160.4z"/>
			<path class="st7" d="M108.8,166.9l-0.1-1.1h-0.1c-0.5,0.7-1.4,1.3-2.7,1.3c-1.8,0-2.7-1.3-2.7-2.5c0-2.1,1.9-3.3,5.3-3.3v-0.2
				c0-0.7-0.2-2-2-2c-0.8,0-1.7,0.3-2.3,0.7l-0.4-1.1c0.7-0.5,1.8-0.8,2.9-0.8c2.7,0,3.4,1.8,3.4,3.6v3.3c0,0.8,0,1.5,0.1,2.1H108.8
				z M108.5,162.4c-1.7,0-3.7,0.3-3.7,2c0,1,0.7,1.5,1.5,1.5c1.1,0,1.9-0.7,2.1-1.5c0.1-0.2,0.1-0.3,0.1-0.5V162.4z"/>
			<path class="st7" d="M118.3,155.6c0,0.5-0.4,1-1,1c-0.6,0-1-0.4-1-1c0-0.6,0.4-1,1-1C117.9,154.6,118.3,155,118.3,155.6z
				 M116.5,166.9v-8.8h1.6v8.8H116.5z"/>
			<path class="st7" d="M120.8,160.4c0-0.9,0-1.7-0.1-2.4h1.4l0.1,1.5h0c0.4-0.8,1.5-1.7,2.9-1.7c1.2,0,3.1,0.7,3.1,3.8v5.3h-1.6
				v-5.1c0-1.4-0.5-2.6-2-2.6c-1.1,0-1.9,0.7-2.1,1.6c-0.1,0.2-0.1,0.5-0.1,0.7v5.3h-1.6V160.4z"/>
			<path class="st7" d="M136.4,154.6v12.3h-1.6v-12.3H136.4z"/>
			<path class="st7" d="M139.3,160.4c0-0.9,0-1.7-0.1-2.4h1.4l0.1,1.5h0c0.4-0.8,1.5-1.7,2.9-1.7c1.2,0,3.1,0.7,3.1,3.8v5.3h-1.6
				v-5.1c0-1.4-0.5-2.6-2-2.6c-1.1,0-1.9,0.7-2.1,1.6c-0.1,0.2-0.1,0.5-0.1,0.7v5.3h-1.6V160.4z"/>
			<path class="st7" d="M151.3,155.5v2.5h2.3v1.2h-2.3v4.8c0,1.1,0.3,1.7,1.2,1.7c0.4,0,0.7-0.1,0.9-0.1l0.1,1.2
				c-0.3,0.1-0.8,0.2-1.4,0.2c-0.7,0-1.3-0.2-1.7-0.7c-0.5-0.5-0.6-1.3-0.6-2.3v-4.8h-1.4v-1.2h1.4v-2.1L151.3,155.5z"/>
			<path class="st7" d="M156.2,162.8c0,2.2,1.4,3.1,3,3.1c1.1,0,1.8-0.2,2.4-0.5l0.3,1.1c-0.6,0.3-1.5,0.5-2.9,0.5
				c-2.7,0-4.3-1.8-4.3-4.4c0-2.7,1.6-4.8,4.1-4.8c2.9,0,3.6,2.5,3.6,4.2c0,0.3,0,0.6-0.1,0.7H156.2z M160.9,161.6
				c0-1-0.4-2.6-2.2-2.6c-1.6,0-2.3,1.5-2.5,2.6H160.9z"/>
			<path class="st7" d="M164.4,160.8c0-1,0-1.9-0.1-2.8h1.4l0.1,1.7h0.1c0.4-1.2,1.4-1.9,2.4-1.9c0.2,0,0.3,0,0.5,0.1v1.5
				c-0.2,0-0.3-0.1-0.5-0.1c-1.1,0-1.9,0.9-2.1,2.1c0,0.2-0.1,0.5-0.1,0.7v4.7h-1.6V160.8z"/>
			<path class="st7" d="M175.2,166.9l-0.1-1.1H175c-0.5,0.7-1.4,1.3-2.7,1.3c-1.8,0-2.7-1.3-2.7-2.5c0-2.1,1.9-3.3,5.3-3.3v-0.2
				c0-0.7-0.2-2-2-2c-0.8,0-1.7,0.3-2.3,0.7l-0.4-1.1c0.7-0.5,1.8-0.8,2.9-0.8c2.7,0,3.4,1.8,3.4,3.6v3.3c0,0.8,0,1.5,0.1,2.1H175.2
				z M174.9,162.4c-1.7,0-3.7,0.3-3.7,2c0,1,0.7,1.5,1.5,1.5c1.1,0,1.9-0.7,2.1-1.5c0.1-0.2,0.1-0.3,0.1-0.5V162.4z"/>
			<path class="st7" d="M185.3,166.5c-0.4,0.2-1.3,0.5-2.5,0.5c-2.7,0-4.4-1.8-4.4-4.5c0-2.7,1.9-4.7,4.7-4.7c0.9,0,1.8,0.2,2.2,0.5
				l-0.4,1.2c-0.4-0.2-1-0.4-1.9-0.4c-2,0-3.1,1.5-3.1,3.3c0,2,1.3,3.3,3.1,3.3c0.9,0,1.5-0.2,2-0.4L185.3,166.5z"/>
			<path class="st7" d="M189.4,155.5v2.5h2.3v1.2h-2.3v4.8c0,1.1,0.3,1.7,1.2,1.7c0.4,0,0.7-0.1,0.9-0.1l0.1,1.2
				c-0.3,0.1-0.8,0.2-1.4,0.2c-0.7,0-1.3-0.2-1.7-0.7c-0.5-0.5-0.6-1.3-0.6-2.3v-4.8h-1.4v-1.2h1.4v-2.1L189.4,155.5z"/>
			<path class="st7" d="M195.3,155.6c0,0.5-0.4,1-1,1c-0.6,0-1-0.4-1-1c0-0.6,0.4-1,1-1C194.9,154.6,195.3,155,195.3,155.6z
				 M193.5,166.9v-8.8h1.6v8.8H193.5z"/>
			<path class="st7" d="M198.4,158.1l1.7,5c0.3,0.8,0.5,1.5,0.7,2.3h0.1c0.2-0.7,0.5-1.5,0.7-2.3l1.7-5h1.7l-3.5,8.8H200l-3.4-8.8
				H198.4z"/>
			<path class="st7" d="M207.2,162.8c0,2.2,1.4,3.1,3,3.1c1.1,0,1.8-0.2,2.4-0.5l0.3,1.1c-0.6,0.3-1.5,0.5-2.9,0.5
				c-2.7,0-4.3-1.8-4.3-4.4c0-2.7,1.6-4.8,4.1-4.8c2.9,0,3.6,2.5,3.6,4.2c0,0.3,0,0.6-0.1,0.7H207.2z M211.9,161.6
				c0-1-0.4-2.6-2.2-2.6c-1.6,0-2.3,1.5-2.5,2.6H211.9z"/>
			<path class="st7" d="M24.1,183.3c-0.1-1.7-0.2-3.8-0.2-5.3h-0.1c-0.4,1.4-0.9,3-1.5,4.7l-2.2,6h-1.2l-2-5.8
				c-0.6-1.7-1.1-3.3-1.4-4.8h0c0,1.5-0.1,3.6-0.2,5.4l-0.3,5.3h-1.5l0.9-12.3h2l2.1,5.9c0.5,1.5,0.9,2.9,1.2,4.1h0.1
				c0.3-1.2,0.7-2.6,1.3-4.1l2.2-5.9h2l0.8,12.3h-1.5L24.1,183.3z"/>
			<path class="st7" d="M29.3,184.6c0,2.2,1.4,3.1,3,3.1c1.1,0,1.8-0.2,2.4-0.5l0.3,1.1c-0.6,0.3-1.5,0.5-2.9,0.5
				c-2.7,0-4.3-1.8-4.3-4.4c0-2.7,1.6-4.8,4.1-4.8c2.9,0,3.6,2.5,3.6,4.2c0,0.3,0,0.6-0.1,0.7H29.3z M34,183.5c0-1-0.4-2.6-2.2-2.6
				c-1.6,0-2.3,1.5-2.5,2.6H34z"/>
			<path class="st7" d="M45.2,175.8v10.7c0,0.8,0,1.7,0.1,2.3h-1.4l-0.1-1.5h0c-0.5,1-1.6,1.7-3,1.7c-2.1,0-3.8-1.8-3.8-4.5
				c0-2.9,1.8-4.7,4-4.7c1.3,0,2.3,0.6,2.7,1.3h0v-5.3H45.2z M43.6,183.5c0-0.2,0-0.5-0.1-0.7c-0.2-1-1.1-1.9-2.3-1.9
				c-1.7,0-2.6,1.5-2.6,3.4c0,1.8,0.9,3.3,2.6,3.3c1.1,0,2.1-0.7,2.4-1.9c0.1-0.2,0.1-0.4,0.1-0.7V183.5z"/>
			<path class="st7" d="M49.6,177.4c0,0.5-0.4,1-1,1c-0.6,0-1-0.4-1-1c0-0.6,0.4-1,1-1C49.2,176.4,49.6,176.9,49.6,177.4z
				 M47.8,188.7v-8.8h1.6v8.8H47.8z"/>
			<path class="st7" d="M57,188.7l-0.1-1.1h-0.1c-0.5,0.7-1.4,1.3-2.7,1.3c-1.8,0-2.7-1.3-2.7-2.5c0-2.1,1.9-3.3,5.3-3.3v-0.2
				c0-0.7-0.2-2-2-2c-0.8,0-1.7,0.3-2.3,0.7l-0.4-1.1c0.7-0.5,1.8-0.8,2.9-0.8c2.7,0,3.4,1.8,3.4,3.6v3.3c0,0.8,0,1.5,0.1,2.1H57z
				 M56.7,184.2c-1.7,0-3.7,0.3-3.7,2c0,1,0.7,1.5,1.5,1.5c1.1,0,1.9-0.7,2.1-1.5c0.1-0.2,0.1-0.3,0.1-0.5V184.2z"/>
			<path class="st7" d="M64.8,176.6c1-0.1,2.1-0.3,3.4-0.3c2.3,0,3.9,0.5,5,1.5c1.1,1,1.7,2.4,1.7,4.4c0,2-0.6,3.6-1.8,4.8
				c-1.1,1.1-3,1.8-5.4,1.8c-1.1,0-2.1-0.1-2.9-0.1V176.6z M66.4,187.5c0.4,0.1,1,0.1,1.6,0.1c3.4,0,5.2-1.9,5.2-5.2
				c0-2.9-1.6-4.7-5-4.7c-0.8,0-1.4,0.1-1.9,0.2V187.5z"/>
			<path class="st7" d="M77.8,184.6c0,2.2,1.4,3.1,3,3.1c1.1,0,1.8-0.2,2.4-0.5l0.3,1.1c-0.6,0.3-1.5,0.5-2.9,0.5
				c-2.7,0-4.3-1.8-4.3-4.4c0-2.7,1.6-4.8,4.1-4.8c2.9,0,3.6,2.5,3.6,4.2c0,0.3,0,0.6-0.1,0.7H77.8z M82.5,183.5
				c0-1-0.4-2.6-2.2-2.6c-1.6,0-2.3,1.5-2.5,2.6H82.5z"/>
			<path class="st7" d="M85.8,187.1c0.5,0.3,1.3,0.6,2.1,0.6c1.2,0,1.7-0.6,1.7-1.3c0-0.8-0.5-1.2-1.6-1.6c-1.6-0.6-2.3-1.4-2.3-2.5
				c0-1.4,1.1-2.6,3-2.6c0.9,0,1.7,0.3,2.2,0.5l-0.4,1.2c-0.3-0.2-1-0.5-1.8-0.5c-0.9,0-1.5,0.5-1.5,1.2c0,0.7,0.5,1.1,1.7,1.5
				c1.5,0.6,2.3,1.3,2.3,2.7c0,1.5-1.2,2.6-3.3,2.6c-1,0-1.9-0.2-2.5-0.6L85.8,187.1z"/>
			<path class="st7" d="M95.1,177.4c0,0.5-0.4,1-1,1c-0.6,0-1-0.4-1-1c0-0.6,0.4-1,1-1C94.7,176.4,95.1,176.9,95.1,177.4z
				 M93.3,188.7v-8.8h1.6v8.8H93.3z"/>
			<path class="st7" d="M105.1,179.9c0,0.6-0.1,1.3-0.1,2.4v5.1c0,2-0.4,3.3-1.3,4c-0.9,0.8-2.1,1.1-3.2,1.1c-1.1,0-2.2-0.3-2.9-0.7
				l0.4-1.2c0.6,0.4,1.5,0.7,2.6,0.7c1.6,0,2.8-0.9,2.8-3.1v-1h0c-0.5,0.8-1.4,1.5-2.8,1.5c-2.2,0-3.8-1.9-3.8-4.3
				c0-3,1.9-4.7,4-4.7c1.5,0,2.4,0.8,2.8,1.5h0l0.1-1.3H105.1z M103.5,183.4c0-0.3,0-0.5-0.1-0.7c-0.3-0.9-1.1-1.7-2.2-1.7
				c-1.5,0-2.6,1.3-2.6,3.3c0,1.7,0.9,3.2,2.6,3.2c1,0,1.9-0.6,2.2-1.6c0.1-0.3,0.1-0.6,0.1-0.9V183.4z"/>
			<path class="st7" d="M107.6,182.3c0-0.9,0-1.7-0.1-2.4h1.4l0.1,1.5h0c0.4-0.8,1.5-1.7,2.9-1.7c1.2,0,3.1,0.7,3.1,3.8v5.3h-1.6
				v-5.1c0-1.4-0.5-2.6-2-2.6c-1.1,0-1.9,0.7-2.1,1.6c-0.1,0.2-0.1,0.5-0.1,0.7v5.3h-1.6V182.3z"/>
			<path class="st7" d="M126.5,188.7l-0.1-1.1h-0.1c-0.5,0.7-1.4,1.3-2.7,1.3c-1.8,0-2.7-1.3-2.7-2.5c0-2.1,1.9-3.3,5.3-3.3v-0.2
				c0-0.7-0.2-2-2-2c-0.8,0-1.7,0.3-2.3,0.7l-0.4-1.1c0.7-0.5,1.8-0.8,2.9-0.8c2.7,0,3.4,1.8,3.4,3.6v3.3c0,0.8,0,1.5,0.1,2.1H126.5
				z M126.2,184.2c-1.7,0-3.7,0.3-3.7,2c0,1,0.7,1.5,1.5,1.5c1.1,0,1.9-0.7,2.1-1.5c0.1-0.2,0.1-0.3,0.1-0.5V184.2z"/>
			<path class="st7" d="M132.2,177.4v2.5h2.3v1.2h-2.3v4.8c0,1.1,0.3,1.7,1.2,1.7c0.4,0,0.7-0.1,0.9-0.1l0.1,1.2
				c-0.3,0.1-0.8,0.2-1.4,0.2c-0.7,0-1.3-0.2-1.7-0.7c-0.5-0.5-0.6-1.3-0.6-2.3v-4.8h-1.4v-1.2h1.4v-2.1L132.2,177.4z"/>
			<path class="st7" d="M140.3,176.5h6.6v1.3h-5v4.1h4.6v1.3h-4.6v5.6h-1.6V176.5z"/>
			<path class="st7" d="M153.1,188.7l-0.1-1.1H153c-0.5,0.7-1.4,1.3-2.7,1.3c-1.8,0-2.7-1.3-2.7-2.5c0-2.1,1.9-3.3,5.3-3.3v-0.2
				c0-0.7-0.2-2-2-2c-0.8,0-1.7,0.3-2.3,0.7l-0.4-1.1c0.7-0.5,1.8-0.8,2.9-0.8c2.7,0,3.4,1.8,3.4,3.6v3.3c0,0.8,0,1.5,0.1,2.1H153.1
				z M152.9,184.2c-1.7,0-3.7,0.3-3.7,2c0,1,0.7,1.5,1.5,1.5c1.1,0,1.9-0.7,2.1-1.5c0.1-0.2,0.1-0.3,0.1-0.5V184.2z"/>
			<path class="st7" d="M157,182.3c0-0.9,0-1.7-0.1-2.4h1.4l0.1,1.5h0c0.4-0.8,1.5-1.7,2.9-1.7c1.2,0,3.1,0.7,3.1,3.8v5.3h-1.6v-5.1
				c0-1.4-0.5-2.6-2-2.6c-1.1,0-1.9,0.7-2.1,1.6c-0.1,0.2-0.1,0.5-0.1,0.7v5.3H157V182.3z"/>
			<path class="st7" d="M166.9,187.1c0.5,0.3,1.3,0.6,2.1,0.6c1.2,0,1.7-0.6,1.7-1.3c0-0.8-0.5-1.2-1.6-1.6
				c-1.6-0.6-2.3-1.4-2.3-2.5c0-1.4,1.1-2.6,3-2.6c0.9,0,1.7,0.3,2.2,0.5l-0.4,1.2c-0.3-0.2-1-0.5-1.8-0.5c-0.9,0-1.5,0.5-1.5,1.2
				c0,0.7,0.5,1.1,1.7,1.5c1.5,0.6,2.3,1.3,2.3,2.7c0,1.5-1.2,2.6-3.3,2.6c-1,0-1.9-0.2-2.5-0.6L166.9,187.1z"/>
			<path class="st7" d="M174.4,175.8h1.6v5.5h0c0.3-0.5,0.7-0.9,1.1-1.1c0.5-0.3,1-0.5,1.6-0.5c1.2,0,3.1,0.7,3.1,3.8v5.2h-1.6v-5.1
				c0-1.4-0.5-2.6-2-2.6c-1,0-1.9,0.7-2.1,1.6c-0.1,0.2-0.1,0.5-0.1,0.8v5.3h-1.6V175.8z"/>
			<path class="st7" d="M189.4,188.7l-0.1-1.1h-0.1c-0.5,0.7-1.4,1.3-2.7,1.3c-1.8,0-2.7-1.3-2.7-2.5c0-2.1,1.9-3.3,5.3-3.3v-0.2
				c0-0.7-0.2-2-2-2c-0.8,0-1.7,0.3-2.3,0.7l-0.4-1.1c0.7-0.5,1.8-0.8,2.9-0.8c2.7,0,3.4,1.8,3.4,3.6v3.3c0,0.8,0,1.5,0.1,2.1H189.4
				z M189.1,184.2c-1.7,0-3.7,0.3-3.7,2c0,1,0.7,1.5,1.5,1.5c1.1,0,1.9-0.7,2.1-1.5c0.1-0.2,0.1-0.3,0.1-0.5V184.2z"/>
			<path class="st7" d="M193.7,179.9l1.2,4.5c0.3,1,0.5,1.9,0.7,2.8h0.1c0.2-0.9,0.5-1.8,0.8-2.8l1.4-4.5h1.3l1.4,4.4
				c0.3,1.1,0.6,2,0.8,2.9h0.1c0.1-0.9,0.4-1.8,0.7-2.9l1.3-4.4h1.6l-2.8,8.8h-1.5l-1.3-4.2c-0.3-1-0.6-1.9-0.8-2.9h0
				c-0.2,1.1-0.5,2-0.8,2.9l-1.4,4.2h-1.5l-2.7-8.8H193.7z"/>
			<path class="st7" d="M207.2,184.6c0,2.2,1.4,3.1,3,3.1c1.1,0,1.8-0.2,2.4-0.5l0.3,1.1c-0.6,0.3-1.5,0.5-2.9,0.5
				c-2.7,0-4.3-1.8-4.3-4.4c0-2.7,1.6-4.8,4.1-4.8c2.9,0,3.6,2.5,3.6,4.2c0,0.3,0,0.6-0.1,0.7H207.2z M211.9,183.5
				c0-1-0.4-2.6-2.2-2.6c-1.6,0-2.3,1.5-2.5,2.6H211.9z"/>
			<path class="st7" d="M66.3,210.2c-0.6,0.3-1.7,0.6-3.2,0.6c-3.5,0-6.1-2.2-6.1-6.2c0-3.8,2.6-6.5,6.4-6.5c1.5,0,2.5,0.3,2.9,0.5
				L66,200c-0.6-0.3-1.5-0.5-2.5-0.5c-2.9,0-4.8,1.8-4.8,5.1c0,3,1.7,4.9,4.7,4.9c1,0,1.9-0.2,2.6-0.5L66.3,210.2z"/>
			<path class="st7" d="M76.1,206.1c0,3.3-2.3,4.7-4.4,4.7c-2.4,0-4.2-1.7-4.2-4.5c0-3,1.9-4.7,4.4-4.7
				C74.3,201.6,76.1,203.4,76.1,206.1z M69.1,206.2c0,1.9,1.1,3.4,2.7,3.4c1.5,0,2.7-1.4,2.7-3.4c0-1.5-0.7-3.4-2.6-3.4
				C69.9,202.8,69.1,204.5,69.1,206.2z"/>
			<path class="st7" d="M78.1,197.7h1.6v12.9h-1.6V197.7z"/>
			<path class="st7" d="M82.4,197.7H84v12.9h-1.6V197.7z"/>
			<path class="st7" d="M87.6,206.5c0,2.2,1.4,3.1,3,3.1c1.1,0,1.8-0.2,2.4-0.5l0.3,1.1c-0.6,0.3-1.5,0.5-2.9,0.5
				c-2.7,0-4.3-1.8-4.3-4.4c0-2.7,1.6-4.8,4.1-4.8c2.9,0,3.6,2.5,3.6,4.2c0,0.3,0,0.6-0.1,0.7H87.6z M92.3,205.3
				c0-1-0.4-2.6-2.2-2.6c-1.6,0-2.3,1.5-2.5,2.6H92.3z"/>
			<path class="st7" d="M103.4,201.8c0,0.6-0.1,1.3-0.1,2.4v5.1c0,2-0.4,3.3-1.3,4c-0.9,0.8-2.1,1.1-3.2,1.1c-1.1,0-2.2-0.3-2.9-0.7
				l0.4-1.2c0.6,0.4,1.5,0.7,2.6,0.7c1.6,0,2.8-0.9,2.8-3.1v-1h0c-0.5,0.8-1.4,1.5-2.8,1.5c-2.2,0-3.8-1.9-3.8-4.3
				c0-3,1.9-4.7,4-4.7c1.5,0,2.4,0.8,2.8,1.5h0l0.1-1.3H103.4z M101.8,205.3c0-0.3,0-0.5-0.1-0.7c-0.3-0.9-1.1-1.7-2.2-1.7
				c-1.5,0-2.6,1.3-2.6,3.3c0,1.7,0.9,3.2,2.6,3.2c1,0,1.9-0.6,2.2-1.6c0.1-0.3,0.1-0.6,0.1-0.9V205.3z"/>
			<path class="st7" d="M106.9,206.5c0,2.2,1.4,3.1,3,3.1c1.1,0,1.8-0.2,2.4-0.5l0.3,1.1c-0.6,0.3-1.5,0.5-2.9,0.5
				c-2.7,0-4.3-1.8-4.3-4.4c0-2.7,1.6-4.8,4.1-4.8c2.9,0,3.6,2.5,3.6,4.2c0,0.3,0,0.6-0.1,0.7H106.9z M111.6,205.3
				c0-1-0.4-2.6-2.2-2.6c-1.6,0-2.3,1.5-2.5,2.6H111.6z"/>
			<path class="st7" d="M113.9,212.8c0.4-1.1,0.9-3,1.1-4.4l1.8-0.2c-0.4,1.5-1.2,3.6-1.7,4.4L113.9,212.8z"/>
			<path class="st7" d="M122.6,198.3h1.6v10.9h5.2v1.3h-6.8V198.3z"/>
			<path class="st7" d="M138.9,206.1c0,3.3-2.3,4.7-4.4,4.7c-2.4,0-4.2-1.7-4.2-4.5c0-3,1.9-4.7,4.4-4.7
				C137.2,201.6,138.9,203.4,138.9,206.1z M131.9,206.2c0,1.9,1.1,3.4,2.7,3.4c1.5,0,2.7-1.4,2.7-3.4c0-1.5-0.7-3.4-2.6-3.4
				C132.7,202.8,131.9,204.5,131.9,206.2z"/>
			<path class="st7" d="M140.9,204.2c0-0.9,0-1.7-0.1-2.4h1.4l0.1,1.5h0c0.4-0.8,1.5-1.7,2.9-1.7c1.2,0,3.1,0.7,3.1,3.8v5.3h-1.6
				v-5.1c0-1.4-0.5-2.6-2-2.6c-1.1,0-1.9,0.7-2.1,1.6c-0.1,0.2-0.1,0.5-0.1,0.7v5.3h-1.6V204.2z"/>
			<path class="st7" d="M158.6,197.7v10.7c0,0.8,0,1.7,0.1,2.3h-1.4l-0.1-1.5h0c-0.5,1-1.6,1.7-3,1.7c-2.1,0-3.8-1.8-3.8-4.5
				c0-2.9,1.8-4.7,4-4.7c1.3,0,2.3,0.6,2.7,1.3h0v-5.3H158.6z M157,205.4c0-0.2,0-0.5-0.1-0.7c-0.2-1-1.1-1.9-2.3-1.9
				c-1.7,0-2.6,1.5-2.6,3.4c0,1.8,0.9,3.3,2.6,3.3c1.1,0,2.1-0.7,2.4-1.9c0.1-0.2,0.1-0.4,0.1-0.7V205.4z"/>
			<path class="st7" d="M169.3,206.1c0,3.3-2.3,4.7-4.4,4.7c-2.4,0-4.2-1.7-4.2-4.5c0-3,1.9-4.7,4.4-4.7
				C167.5,201.6,169.3,203.4,169.3,206.1z M162.3,206.2c0,1.9,1.1,3.4,2.7,3.4c1.5,0,2.7-1.4,2.7-3.4c0-1.5-0.7-3.4-2.6-3.4
				C163.1,202.8,162.3,204.5,162.3,206.2z"/>
			<path class="st7" d="M171.3,204.2c0-0.9,0-1.7-0.1-2.4h1.4l0.1,1.5h0c0.4-0.8,1.5-1.7,2.9-1.7c1.2,0,3.1,0.7,3.1,3.8v5.3h-1.6
				v-5.1c0-1.4-0.5-2.6-2-2.6c-1.1,0-1.9,0.7-2.1,1.6c-0.1,0.2-0.1,0.5-0.1,0.7v5.3h-1.6V204.2z"/>
			<path class="st7" d="M180.4,212.8c0.4-1.1,0.9-3,1.1-4.4l1.8-0.2c-0.4,1.5-1.2,3.6-1.7,4.4L180.4,212.8z"/>
			<path class="st7" d="M199.6,204.3c0,4.2-2.6,6.5-5.7,6.5c-3.2,0-5.5-2.5-5.5-6.2c0-3.9,2.4-6.5,5.7-6.5
				C197.4,198.1,199.6,200.7,199.6,204.3z M190,204.5c0,2.6,1.4,5,3.9,5c2.5,0,3.9-2.3,3.9-5.1c0-2.4-1.3-5-3.9-5
				C191.4,199.4,190,201.8,190,204.5z"/>
			<path class="st7" d="M201.6,204.2c0-0.9,0-1.7-0.1-2.4h1.4l0.1,1.5h0c0.4-0.8,1.5-1.7,2.9-1.7c1.2,0,3.1,0.7,3.1,3.8v5.3h-1.6
				v-5.1c0-1.4-0.5-2.6-2-2.6c-1.1,0-1.9,0.7-2.1,1.6c-0.1,0.2-0.1,0.5-0.1,0.7v5.3h-1.6V204.2z"/>
			<path class="st7" d="M211.3,209.7c0-0.7,0.5-1.1,1.1-1.1s1.1,0.5,1.1,1.1c0,0.7-0.4,1.1-1.1,1.1
				C211.7,210.8,211.3,210.3,211.3,209.7z"/>
		</g>
	</g>
</g>
<g>
	<path class="st0" d="M10.6,128.4v-28h2.2v28H10.6z"/>
	<path class="st0" d="M16.9,100.4h2.6l6.6,21.2h0.1v-21.2h2.2v28h-2.2L19.2,106h-0.1v22.4h-2.2V100.4z"/>
	<path class="st0" d="M41.2,102.6h-3.9v25.8h-2.2v-25.8h-3.9v-2.2h10V102.6z"/>
	<path class="st0" d="M46.2,102.6v10.7h5v2.2h-5v10.7h7.1v2.2h-9.3v-28h9v2.2H46.2z"/>
	<path class="st0" d="M66.9,128.4h-2.2v-9.3c0-2-1.6-3.6-3.6-3.6h-2.6v12.9h-2.2v-28h4.8c3.2,0,5.8,2.6,5.8,5.8v3.4
		c0,1.9-1,3.7-2.4,4.7c1.5,1.1,2.4,2.8,2.4,4.7V128.4z M61.1,113.3c2,0,3.6-1.6,3.6-3.6v-3.4c0-2-1.6-3.6-3.6-3.6h-2.6v10.7H61.1z"
		/>
	<path class="st0" d="M81.2,128.4h-2.2l-1.1-7.2h-5.7l-1.1,7.2H69l4.3-28H77L81.2,128.4z M72.6,119.1h5l-2.4-16.3h-0.1L72.6,119.1z"
		/>
	<path class="st0" d="M92.3,109.8v-4.4c0-1.8-1.5-3.2-3.2-3.2s-3.2,1.5-3.2,3.2v18c0,1.8,1.5,3.2,3.2,3.2s3.2-1.5,3.2-3.2v-3.8h2.2
		v3.8c0,3-2.4,5.4-5.4,5.4c-3,0-5.4-2.4-5.4-5.4v-18c0-3,2.4-5.4,5.4-5.4c3,0,5.4,2.4,5.4,5.4v4.1L92.3,109.8z"/>
	<path class="st0" d="M106.6,102.6h-3.9v25.8h-2.2v-25.8h-3.9v-2.2h10V102.6z"/>
	<path class="st0" d="M109.4,128.4v-28h2.2v28H109.4z"/>
	<path class="st0" d="M124.2,100.4h2.2l-4.3,28h-3.6l-4.3-28h2.2l3.9,25.6h0.1L124.2,100.4z"/>
	<path class="st0" d="M131.2,102.6v10.7h5v2.2h-5v10.7h7.1v2.2H129v-28h9v2.2H131.2z"/>
	<path class="st0" d="M155.8,128.4h-2.4l-4.4-23.5h-0.1v23.5h-2.2v-28h3.2l4.6,24.7h0.1l4.6-24.7h3.3v28h-2.2v-23.7h-0.1
		L155.8,128.4z"/>
	<path class="st0" d="M168.9,102.6v10.7h5v2.2h-5v10.7h7.1v2.2h-9.3v-28h9v2.2H168.9z"/>
	<path class="st0" d="M189.7,122.6c0,3.2-2.6,5.8-5.8,5.8h-5v-28h5c3.2,0,5.8,2.6,5.8,5.8V122.6z M187.6,106.2c0-2-1.6-3.6-3.6-3.6
		h-2.8v23.7h2.8c2,0,3.6-1.6,3.6-3.7V106.2z"/>
	<path class="st0" d="M193.6,128.4v-28h2.2v28H193.6z"/>
	<path class="st0" d="M210.5,128.4h-2.2l-1.1-7.2h-5.7l-1.1,7.2h-2.2l4.3-28h3.6L210.5,128.4z M201.9,119.1h5l-2.4-16.3h-0.1
		L201.9,119.1z"/>
</g>
<rect id="XMLID_333_" x="8.6" y="135.4" class="st8" width="205.6" height="6.4"/>
</svg>
