<?xml version="1.0" encoding="utf-8"?>
<!-- Generator: Adobe Illustrator 22.0.0, SVG Export Plug-In . SVG Version: 6.00 Build 0)  -->
<svg version="1.1" id="Layer_1" xmlns="http://www.w3.org/2000/svg" xmlns:xlink="http://www.w3.org/1999/xlink" x="0px" y="0px"
	 viewBox="0 0 438.4 214.4" style="enable-background:new 0 0 438.4 214.4;" xml:space="preserve">
<style type="text/css">
	.st0{fill:#51C0C0;}
	.st1{fill:#FCFF26;}
	.st2{clip-path:url(#SVGID_2_);}
	.st3{fill:#00AA5B;}
	.st4{fill:#F9D10B;}
	.st5{fill:#005E9E;}
	.st6{fill:#FFFFFF;}
	.st7{fill:#00A460;}
	.st8{fill:#726658;}
	.st9{fill:#DED9D7;}
</style>
<g>
	<g>
		<path class="st0" d="M182.9,44.7h-18.6v-2.8l7.5-7.5c2.3-2.3,3.8-3.9,4.5-4.9s1.3-1.9,1.6-2.9c0.4-0.9,0.5-1.9,0.5-3
			c0-1.5-0.5-2.7-1.4-3.6s-2.2-1.3-3.8-1.3c-1.2,0-2.3,0.2-3.3,0.6c-1.1,0.4-2.2,1.1-3.5,2.1l-1.7-2.2c2.5-2.2,5.4-3.2,8.5-3.2
			c2.7,0,4.7,0.7,6.3,2c1.5,1.4,2.3,3.2,2.3,5.5c0,1.8-0.5,3.6-1.5,5.3s-2.9,4-5.7,6.7l-6.2,6.1v0.2H183v2.9
			C183,44.7,182.9,44.7,182.9,44.7z"/>
		<path class="st0" d="M205.7,30.5c0,4.9-0.8,8.6-2.3,11s-3.9,3.6-7.1,3.6c-3,0-5.4-1.2-7-3.7s-2.4-6.1-2.4-10.9
			c0-4.9,0.8-8.6,2.3-11s3.9-3.6,7-3.6s5.4,1.2,7,3.7S205.7,25.8,205.7,30.5z M190.3,30.5c0,4.1,0.5,7.1,1.5,9s2.5,2.8,4.6,2.8
			s3.7-1,4.7-2.9s1.4-4.9,1.4-9s-0.5-7-1.4-8.9c-1-1.9-2.5-2.8-4.7-2.8c-2.1,0-3.7,0.9-4.6,2.8C190.7,23.4,190.3,26.4,190.3,30.5z"
			/>
		<path class="st0" d="M221.6,44.7h-3.1V24.5c0-1.7,0.1-3.3,0.2-4.8c-0.3,0.3-0.6,0.6-0.9,0.9c-0.3,0.3-1.9,1.6-4.6,3.8l-1.7-2.2
			l7.5-5.8h2.7L221.6,44.7L221.6,44.7z"/>
		<path class="st0" d="M241.2,27.4c3,0,5.3,0.7,7,2.2s2.6,3.5,2.6,6.1c0,2.9-0.9,5.2-2.8,6.9c-1.9,1.7-4.4,2.5-7.7,2.5
			c-3.2,0-5.6-0.5-7.3-1.5v-3.1c0.9,0.6,2,1,3.4,1.4c1.3,0.3,2.7,0.5,4,0.5c2.3,0,4-0.5,5.3-1.6s1.9-2.6,1.9-4.7
			c0-4-2.4-5.9-7.3-5.9c-1.2,0-2.9,0.2-4.9,0.6l-1.7-1.1l1.1-13.3h14.1v3h-11.3l-0.7,8.5C238.2,27.5,239.7,27.4,241.2,27.4z"/>
	</g>
	<g>
		<g id="XMLID_351_">
			<path id="XMLID_282_" class="st0" d="M337.5,56.5H107.8c-5.7,0-11.1-2.8-14.3-7.6c-3.9-5.8-10.5-9.5-18-9.3
				c-10.9,0.4-20,9.3-20.4,20.2c-0.5,12,9.1,21.9,21,21.9c7.1,0,13.4-3.5,17.2-9c3.4-4.8,8.7-7.9,14.5-7.9h229.7V56.5z"/>
		</g>
		<path class="st0" d="M420,18.4C396.6-5,358.7-5,335.3,18.4s-23.4,61.3,0,84.7c12.6,12.6,29.3,18.4,45.7,17.4
			c14.2-0.8,28.1-6.6,38.9-17.4s16.6-24.8,17.4-39C438.3,47.6,432.5,30.9,420,18.4z M405.8,88.9c-15.6,15.6-40.8,15.6-56.4,0
			s-15.6-40.8,0-56.4s40.8-15.6,56.4,0S421.4,73.3,405.8,88.9z"/>
	</g>
	<g>
		<path class="st0" d="M359.7,48.2c0-4,3.2-7.2,7.2-7.2s7.2,3.2,7.2,7.2v24.9c0,4-3.2,7.2-7.2,7.2s-7.2-3.2-7.2-7.2V48.2z
			 M362.6,73.1c0,2.3,1.9,4.2,4.2,4.2s4.2-1.9,4.2-4.2V48.2c0-2.3-1.9-4.2-4.2-4.2s-4.2,1.9-4.2,4.2V73.1z"/>
		<path class="st0" d="M392.3,41.6V68h2.4v2.9h-2.4v8.8h-2.9v-8.8H378V68l11.4-26.4H392.3z M389.3,68V48.4L380.9,68H389.3z"/>
	</g>
</g>
<g>
	<g>
		<path class="st1" d="M42.8,45.1c-4-22.6-36.6-22.6-40.7,0c-0.4,2-0.5,4.1-0.5,6.2c0,14.3,8.6,26.6,20.9,32
			c12.3-5.4,20.9-17.7,20.9-32C43.4,49.2,43.2,47.1,42.8,45.1z"/>
	</g>
	<g>
		<g>
			<defs>
				<path id="SVGID_1_" d="M38.8,48.9c0,8.4-6.3,15.3-14.5,16.2c-0.6,0.1-1.2,0.1-1.9,0.1c-9,0-16.3-7.3-16.3-16.3
					s7.3-16.3,16.3-16.3c0.6,0,1.3,0,1.9,0.1C32.5,33.6,38.8,40.5,38.8,48.9z"/>
			</defs>
			<clipPath id="SVGID_2_">
				<use xlink:href="#SVGID_1_"  style="overflow:visible;"/>
			</clipPath>
			<g class="st2">
				<path class="st3" d="M45.7,63.1c0,1.2-1,2.2-2.2,2.2H1.2c-1.2,0-2.2-1-2.2-2.2V34.8c0-1.2,1-2.2,2.2-2.2h42.4
					c1.2,0,2.2,1,2.2,2.2v28.3H45.7z"/>
				<g>
					<polygon class="st4" points="22.4,60.9 3.1,49 22.4,37 41.6,49 					"/>
					<path class="st5" d="M30.4,49c0,4.4-3.6,8-8,8s-8-3.6-8-8s3.6-8,8-8C26.8,40.9,30.4,44.5,30.4,49z"/>
					<path class="st6" d="M19.7,46.1c-1.9-0.3-3.5-0.2-4.5-0.1c-0.3,0.5-0.5,1-0.6,1.6c0.8-0.1,2.6-0.3,5,0
						c2.6,0.4,6.5,1.5,10.3,4.5c0.2-0.5,0.3-1.1,0.3-1.6C26.3,47.5,22.4,46.4,19.7,46.1z"/>
					<g>
						<path class="st7" d="M16.5,46.6c0,0.2-0.1,0.3-0.2,0.3s-0.2-0.1-0.2-0.3s0.1-0.3,0.2-0.3S16.5,46.5,16.5,46.6z M16.6,46.6
							c0-0.1-0.1-0.4-0.3-0.3c-0.2,0-0.3,0.2-0.3,0.4c0,0.1,0.1,0.3,0.3,0.3S16.6,46.7,16.6,46.6z"/>
						<path class="st7" d="M16.8,46.3H17c0,0,0.1,0,0.1,0.1S17,46.5,17,46.5h-0.2V46.3z M16.8,46.7H17c0.1,0,0.1,0.1,0.1,0.1
							s0,0.1,0,0.2h0.1l0,0c0,0,0,0,0-0.1v-0.1c0-0.1,0-0.1-0.1-0.1c0.1,0,0.1-0.1,0.1-0.2c0-0.1-0.1-0.2-0.2-0.2h-0.3V47h0.1
							L16.8,46.7z"/>
						<path class="st7" d="M17.5,46.4h0.2c0.1,0,0.2,0.1,0.2,0.3S17.8,47,17.7,47h-0.2V46.4z M17.4,47h0.3c0.2,0,0.3-0.2,0.3-0.3
							c0-0.2-0.1-0.3-0.3-0.3h-0.3V47z"/>
						<path class="st7" d="M18.5,47H18v-0.7h0.5v0.1h-0.4v0.2h0.4v0.1h-0.4v0.2L18.5,47L18.5,47z"/>
						<path class="st7" d="M19.2,47.1v-0.4c0,0,0-0.1,0-0.2l0,0L19,47.1h-0.1l-0.1-0.6l0,0c0,0.1,0,0.1,0,0.2v0.4h-0.1l0.1-0.7h0.1
							L19,47l0,0l0.3-0.5h0.1L19.2,47.1L19.2,47.1z"/>
						<path class="st7" d="M21.7,47.5l-0.5-0.1l0.2-0.7l0.5,0.1v0.1l-0.4-0.1V47l0.4,0.1v0.1l-0.4-0.1v0.2L21.7,47.5L21.7,47.5z"/>
						<path class="st7" d="M23.6,47.5l0.2,0.1c0.1,0,0.1,0.1,0.1,0.2c0,0.1-0.1,0.1-0.2,0.1l-0.2-0.1L23.6,47.5z M23.5,47.8l0.2,0.1
							c0.1,0,0.2,0,0.3-0.1c0-0.1,0-0.2-0.1-0.2l-0.3-0.1L23.3,48h0.1L23.5,47.8z"/>
						<path class="st7" d="M24.2,47.7l0.2,0.1c0,0,0.1,0.1,0.1,0.2c0,0.1-0.1,0.1-0.2,0.1L24.1,48L24.2,47.7z M24.1,48l0.2,0.1
							c0.1,0,0.1,0.1,0.1,0.1s0,0.1,0,0.2h0.1l0,0c0,0,0,0,0-0.1v-0.1c0-0.1,0-0.1,0-0.1s0.1,0,0.1-0.1c0.1-0.1,0-0.2-0.1-0.3
							l-0.3-0.1L24,48.2h0.1L24.1,48z"/>
						<path class="st7" d="M25.1,48.3c-0.1,0.1-0.2,0.2-0.3,0.2c-0.1-0.1-0.2-0.2-0.1-0.3S24.9,48,25,48
							C25.2,48.1,25.2,48.2,25.1,48.3z M25.2,48.4c0.1-0.1,0.1-0.4-0.2-0.5c-0.2-0.1-0.4,0.1-0.4,0.2c-0.1,0.1-0.1,0.4,0.2,0.4
							C25,48.7,25.2,48.5,25.2,48.4z"/>
						<path class="st7" d="M25.6,48.5l0.3,0.1L25.7,49h-0.1v-0.1c-0.1,0-0.2,0-0.2,0c-0.1,0-0.1-0.1-0.1-0.2c-0.1-0.1,0-0.2,0-0.3
							c0.1-0.2,0.2-0.3,0.4-0.2c0.1,0.1,0.2,0.2,0.2,0.3h-0.1c0-0.1-0.1-0.2-0.1-0.2c-0.1,0-0.2,0-0.3,0.2c-0.1,0.1-0.1,0.3,0.1,0.3
							h0.1c0.1,0,0.1-0.1,0.1-0.1L25.6,48.5L25.6,48.5z"/>
						<path class="st7" d="M26.2,48.5l0.2,0.1c0,0,0.1,0.1,0.1,0.2c0,0.1-0.1,0.1-0.2,0l-0.2-0.1L26.2,48.5z M26.1,48.8l0.2,0.1
							c0.1,0.1,0.1,0.1,0.1,0.2c0,0-0.1,0.1-0.1,0.2l0.1,0.1l0,0c0,0,0,0,0-0.1l0.1-0.1c0-0.1,0-0.1,0-0.1s0.1,0,0.2-0.1
							s0-0.2-0.1-0.3l-0.3-0.1L25.9,49H26L26.1,48.8z"/>
						<path class="st7" d="M26.9,49.6l-0.4-0.2l0.3-0.6l0.4,0.2v0.1l-0.4-0.2L26.7,49l0.3,0.2v0.1l-0.3-0.2l-0.1,0.2L26.9,49.6
							L26.9,49.6z"/>
						<path class="st7" d="M27.6,49.4c0-0.1,0-0.2-0.1-0.2s-0.1-0.1-0.2,0c0,0.1,0,0.1,0,0.1L27.6,49.4c0,0.1,0,0.2-0.1,0.3
							s-0.2,0.1-0.3,0c-0.1-0.1-0.1-0.1-0.2-0.2c0-0.1,0-0.1,0-0.2h0.1c-0.1,0.1,0,0.2,0.1,0.2s0.1,0.1,0.2,0c0-0.1,0-0.1-0.1-0.2
							l-0.1-0.1c0,0-0.1-0.1-0.1-0.2c0.1-0.1,0.2-0.1,0.3-0.1C27.7,49.3,27.7,49.4,27.6,49.4L27.6,49.4z"/>
						<path class="st7" d="M28.1,49.7c0-0.1,0-0.2-0.1-0.2c0,0-0.1-0.1-0.2,0v0.1L28.1,49.7c0,0.1,0,0.2-0.1,0.3s-0.2,0.1-0.3,0
							c-0.1-0.1-0.1-0.1-0.1-0.2c0-0.1,0-0.1,0-0.2h0.1c-0.1,0.1,0,0.2,0.1,0.2S28,49.9,28.1,49.7c-0.1,0-0.1,0-0.2-0.1l-0.1-0.1
							c0,0-0.1-0.1,0-0.2c0.1-0.1,0.2-0.1,0.3-0.1C28.3,49.6,28.2,49.7,28.1,49.7L28.1,49.7z"/>
						<path class="st7" d="M28.7,50.3c-0.1,0.1-0.2,0.2-0.3,0.1c-0.1-0.1-0.1-0.2-0.1-0.4c0.1-0.1,0.2-0.2,0.3-0.1
							C28.8,50,28.8,50.1,28.7,50.3z M28.8,50.3c0.1-0.1,0.1-0.3-0.1-0.5c-0.2-0.1-0.4,0-0.5,0.1s-0.1,0.3,0.1,0.5
							S28.7,50.4,28.8,50.3z"/>
					</g>
					<g>
						<polygon class="st6" points="24.5,43.8 24.6,44.1 25,44.1 24.7,44.3 24.8,44.6 24.5,44.4 24.2,44.6 24.3,44.3 24.1,44.1 
							24.4,44.1 						"/>
						<polygon class="st6" points="19,47.5 19.1,47.8 19.3,47.8 19.1,47.9 19.2,48.1 19,48 18.8,48.1 18.9,47.9 18.7,47.8 
							18.9,47.8 						"/>
						<polygon class="st6" points="15.6,45.7 15.7,46 16,46 15.7,46.2 15.8,46.5 15.6,46.3 15.3,46.5 15.4,46.1 15.2,46 15.5,46 
													"/>
						<polygon class="st6" points="17,48.6 17.1,48.8 17.4,48.8 17.2,49 17.2,49.3 17,49.1 16.8,49.3 16.9,49 16.6,48.8 16.9,48.8 
													"/>
						<polygon class="st6" points="16.3,49 16.5,49.3 16.8,49.3 16.5,49.5 16.6,49.9 16.3,49.7 16,49.9 16.1,49.5 15.8,49.3 
							16.2,49.3 						"/>
						<polygon class="st6" points="15.5,49.9 15.5,50.1 15.7,50.1 15.6,50.2 15.6,50.4 15.5,50.3 15.3,50.4 15.4,50.2 15.2,50.1 
							15.4,50.1 						"/>
						<polygon class="st6" points="17.9,49.9 18,50.1 18.3,50.1 18,50.3 18.1,50.5 17.9,50.3 17.7,50.5 17.8,50.3 17.6,50.1 
							17.8,50.1 						"/>
						<polygon class="st6" points="17.8,50.8 17.8,51 18.1,51 17.9,51.2 18,51.4 17.8,51.3 17.6,51.4 17.6,51.2 17.4,51 17.7,51 
													"/>
						<polygon class="st6" points="18.8,51.5 18.9,51.8 19.3,51.8 19,52 19.1,52.3 18.8,52.1 18.6,52.3 18.7,52 18.4,51.8 
							18.7,51.8 						"/>
						<polygon class="st6" points="22.2,50.7 22.3,51.1 22.7,51.1 22.4,51.3 22.5,51.7 22.2,51.4 21.9,51.7 22,51.3 21.7,51.1 
							22.1,51.1 						"/>
						<polygon class="st6" points="21.8,49.9 21.9,50 22,50 21.9,50.1 21.9,50.2 21.8,50.1 21.7,50.2 21.8,50.1 21.6,50 21.8,50 
													"/>
						<polygon class="st6" points="21.2,49.3 21.2,49.5 21.5,49.5 21.3,49.7 21.4,49.9 21.2,49.7 21,49.9 21.1,49.7 20.9,49.5 
							21.1,49.5 						"/>
						<polygon class="st6" points="22.3,48.5 22.4,48.7 22.7,48.7 22.5,48.9 22.5,49.1 22.3,49 22.1,49.1 22.2,48.9 22,48.7 
							22.2,48.7 						"/>
						<polygon class="st6" points="24.1,46.6 24.2,46.9 24.4,46.8 24.2,47 24.3,47.2 24.1,47.1 23.9,47.2 24,47 23.8,46.8 
							24.1,46.9 						"/>
						<polygon class="st6" points="23.1,49.3 23.2,49.5 23.5,49.5 23.2,49.7 23.3,50 23.1,49.8 22.9,50 23,49.7 22.7,49.5 23,49.5 
													"/>
						<polygon class="st6" points="24,51.5 24.1,51.9 24.5,51.9 24.2,52.1 24.3,52.5 24,52.3 23.7,52.5 23.8,52.1 23.5,51.9 
							23.9,51.9 						"/>
						<polygon class="st6" points="24.6,52.8 24.7,53.1 25,53.1 24.8,53.3 24.9,53.6 24.6,53.4 24.4,53.6 24.5,53.3 24.2,53.1 
							24.5,53.1 						"/>
						<polygon class="st6" points="25.3,51.9 25.4,52.1 25.6,52.1 25.4,52.3 25.5,52.5 25.3,52.4 25.1,52.5 25.2,52.3 25,52.1 
							25.2,52.1 						"/>
						<polygon class="st6" points="26.3,51.3 26.4,51.6 26.7,51.6 26.4,51.8 26.5,52 26.3,51.9 26,52 26.1,51.8 25.9,51.6 
							26.2,51.6 						"/>
						<polygon class="st6" points="26.3,52.6 26.4,52.8 26.6,52.8 26.4,53 26.5,53.2 26.3,53 26.1,53.2 26.2,53 26,52.8 26.2,52.8 
													"/>
						<polygon class="st6" points="26.3,53.4 26.3,53.6 26.6,53.6 26.4,53.7 26.5,53.9 26.3,53.8 26.1,53.9 26.2,53.7 26,53.6 
							26.2,53.6 						"/>
						<polygon class="st6" points="27.1,51.6 27.2,51.9 27.5,51.9 27.3,52.1 27.4,52.4 27.1,52.2 26.8,52.4 26.9,52.1 26.7,51.9 
							27,51.9 						"/>
						<polygon class="st6" points="28,51.5 28.1,51.7 28.3,51.7 28.1,51.9 28.2,52.1 28,52 27.8,52.1 27.9,51.9 27.7,51.8 
							27.9,51.7 						"/>
						<polygon class="st6" points="28.4,50.9 28.4,51.1 28.6,51.1 28.4,51.2 28.5,51.4 28.4,51.3 28.2,51.4 28.3,51.2 28.1,51.1 
							28.3,51.1 						"/>
						<polygon class="st6" points="27.9,49.8 28,50 28.2,50 28,50.1 28.1,50.3 27.9,50.2 27.7,50.3 27.8,50.1 27.6,50 27.8,50 
													"/>
						<polygon class="st6" points="29.1,49.7 29.2,50 29.6,50 29.3,50.2 29.4,50.6 29.1,50.3 28.8,50.6 28.9,50.2 28.6,50 29,50 
													"/>
						<polygon class="st6" points="22.3,53.6 22.4,53.8 22.6,53.8 22.4,54 22.5,54.2 22.3,54 22.2,54.2 22.2,54 22,53.8 22.3,53.8 
													"/>
					</g>
				</g>
			</g>
		</g>
	</g>
</g>
<g id="XMLID_327_">
	<g>
		<g>
			<path class="st8" d="M5.5,162.1c0.3,0,0.7,0,1.3-0.1c0.9-0.1,1.8-0.5,2.5-1.1c0.8-0.7,1.3-1.7,1.6-3.2h-0.1
				c-0.7,0.8-1.6,1.3-2.8,1.3c-2.1,0-3.5-1.6-3.5-3.6c0-2.2,1.6-4.2,4-4.2c2.4,0,3.9,2,3.9,5c0,2.6-0.9,4.4-2,5.6
				c-0.9,0.9-2.2,1.4-3.4,1.6c-0.6,0.1-1.1,0.1-1.5,0.1V162.1z M6.1,155.3c0,1.5,0.9,2.5,2.3,2.5c1.1,0,1.9-0.5,2.3-1.2
				c0.1-0.1,0.1-0.3,0.1-0.6c0-2-0.7-3.6-2.4-3.6C7,152.4,6.1,153.6,6.1,155.3z"/>
			<path class="st8" d="M18.3,156.8c0-0.9,0-1.7-0.1-2.4h1.4l0.1,1.4h0.1c0.5-0.8,1.3-1.6,2.8-1.6c1.2,0,2.1,0.7,2.5,1.8h0
				c0.3-0.5,0.6-0.9,1-1.1c0.5-0.4,1.1-0.6,1.9-0.6c1.2,0,2.9,0.8,2.9,3.8v5.2h-1.6v-5c0-1.7-0.6-2.7-1.9-2.7
				c-0.9,0-1.6,0.7-1.9,1.5c-0.1,0.2-0.1,0.5-0.1,0.8v5.4h-1.6V158c0-1.4-0.6-2.4-1.8-2.4c-1,0-1.7,0.8-2,1.6
				c-0.1,0.2-0.1,0.5-0.1,0.8v5.3h-1.6V156.8z"/>
			<path class="st8" d="M41.5,158.8c0,3.3-2.3,4.7-4.4,4.7c-2.4,0-4.2-1.7-4.2-4.5c0-3,1.9-4.7,4.4-4.7
				C39.7,154.2,41.5,156.1,41.5,158.8z M34.5,158.9c0,1.9,1.1,3.4,2.7,3.4c1.5,0,2.7-1.4,2.7-3.4c0-1.5-0.7-3.4-2.6-3.4
				C35.3,155.4,34.5,157.2,34.5,158.9z"/>
			<path class="st8" d="M43.5,156.8c0-0.9,0-1.7-0.1-2.4h1.4l0.1,1.5h0c0.4-0.8,1.5-1.7,2.9-1.7c1.2,0,3.1,0.7,3.1,3.8v5.3h-1.6
				v-5.1c0-1.4-0.5-2.6-2-2.6c-1.1,0-1.9,0.7-2.1,1.6c-0.1,0.2-0.1,0.5-0.1,0.7v5.3h-1.6V156.8z"/>
			<path class="st8" d="M55.4,151.9v2.5h2.3v1.2h-2.3v4.8c0,1.1,0.3,1.7,1.2,1.7c0.4,0,0.7-0.1,0.9-0.1l0.1,1.2
				c-0.3,0.1-0.8,0.2-1.4,0.2c-0.7,0-1.3-0.2-1.7-0.7c-0.5-0.5-0.6-1.3-0.6-2.3v-4.8h-1.4v-1.2h1.4v-2.1L55.4,151.9z"/>
			<path class="st8" d="M59.5,150.3h1.6v5.5h0c0.3-0.5,0.7-0.9,1.1-1.1c0.5-0.3,1-0.5,1.6-0.5c1.2,0,3.1,0.7,3.1,3.8v5.2h-1.6v-5.1
				c0-1.4-0.5-2.6-2-2.6c-1,0-1.9,0.7-2.1,1.6c-0.1,0.2-0.1,0.5-0.1,0.8v5.3h-1.6V150.3z"/>
			<path class="st8" d="M69.4,161.6c0.5,0.3,1.3,0.6,2.1,0.6c1.2,0,1.7-0.6,1.7-1.3c0-0.8-0.5-1.2-1.6-1.6c-1.6-0.6-2.3-1.4-2.3-2.5
				c0-1.4,1.1-2.6,3-2.6c0.9,0,1.7,0.3,2.2,0.5l-0.4,1.2c-0.3-0.2-1-0.5-1.8-0.5c-0.9,0-1.5,0.5-1.5,1.2c0,0.7,0.5,1.1,1.7,1.5
				c1.5,0.6,2.3,1.3,2.3,2.7c0,1.5-1.2,2.6-3.3,2.6c-1,0-1.9-0.2-2.5-0.6L69.4,161.6z"/>
			<path class="st8" d="M85.6,163.3l-0.1-1.1h-0.1c-0.5,0.7-1.4,1.3-2.7,1.3c-1.8,0-2.7-1.3-2.7-2.5c0-2.1,1.9-3.3,5.3-3.3v-0.2
				c0-0.7-0.2-2-2-2c-0.8,0-1.7,0.3-2.3,0.7l-0.4-1.1c0.7-0.5,1.8-0.8,2.9-0.8c2.7,0,3.4,1.8,3.4,3.6v3.3c0,0.8,0,1.5,0.1,2.1H85.6z
				 M85.4,158.8c-1.7,0-3.7,0.3-3.7,2c0,1,0.7,1.5,1.5,1.5c1.1,0,1.9-0.7,2.1-1.5c0.1-0.2,0.1-0.3,0.1-0.5V158.8z"/>
			<path class="st8" d="M89.3,161.6c0.5,0.3,1.3,0.6,2.1,0.6c1.2,0,1.7-0.6,1.7-1.3c0-0.8-0.5-1.2-1.6-1.6c-1.6-0.6-2.3-1.4-2.3-2.5
				c0-1.4,1.1-2.6,3-2.6c0.9,0,1.7,0.3,2.2,0.5l-0.4,1.2c-0.3-0.2-1-0.5-1.8-0.5c-0.9,0-1.5,0.5-1.5,1.2c0,0.7,0.5,1.1,1.7,1.5
				c1.5,0.6,2.3,1.3,2.3,2.7c0,1.5-1.2,2.6-3.3,2.6c-1,0-1.9-0.2-2.5-0.6L89.3,161.6z"/>
			<path class="st8" d="M110,162.7c-0.7,0.3-2.1,0.7-3.8,0.7c-1.9,0-3.4-0.5-4.6-1.6c-1.1-1-1.7-2.7-1.7-4.6c0-3.7,2.5-6.3,6.6-6.3
				c1.4,0,2.5,0.3,3.1,0.6l-0.4,1.3c-0.7-0.3-1.5-0.5-2.7-0.5c-3,0-4.9,1.9-4.9,4.9c0,3.1,1.9,5,4.7,5c1,0,1.7-0.1,2.1-0.3v-3.7H106
				v-1.3h4V162.7z"/>
			<path class="st8" d="M112.4,157.2c0-1,0-1.9-0.1-2.8h1.4l0.1,1.7h0.1c0.4-1.2,1.4-1.9,2.4-1.9c0.2,0,0.3,0,0.5,0.1v1.5
				c-0.2,0-0.3-0.1-0.5-0.1c-1.1,0-1.9,0.9-2.1,2.1c0,0.2-0.1,0.5-0.1,0.7v4.7h-1.6V157.2z"/>
			<path class="st8" d="M123.1,163.3l-0.1-1.1h-0.1c-0.5,0.7-1.4,1.3-2.7,1.3c-1.8,0-2.7-1.3-2.7-2.5c0-2.1,1.9-3.3,5.3-3.3v-0.2
				c0-0.7-0.2-2-2-2c-0.8,0-1.7,0.3-2.3,0.7l-0.4-1.1c0.7-0.5,1.8-0.8,2.9-0.8c2.7,0,3.4,1.8,3.4,3.6v3.3c0,0.8,0,1.5,0.1,2.1H123.1
				z M122.9,158.8c-1.7,0-3.7,0.3-3.7,2c0,1,0.7,1.5,1.5,1.5c1.1,0,1.9-0.7,2.1-1.5c0.1-0.2,0.1-0.3,0.1-0.5V158.8z"/>
			<path class="st8" d="M127,157.3c0-1.1,0-2-0.1-2.9h1.4l0.1,1.5h0c0.7-1.1,1.7-1.7,3.1-1.7c2.1,0,3.7,1.8,3.7,4.5
				c0,3.2-1.9,4.7-4,4.7c-1.2,0-2.2-0.5-2.7-1.4h0v4.8H127V157.3z M128.6,159.7c0,0.2,0,0.5,0.1,0.7c0.3,1.1,1.3,1.9,2.4,1.9
				c1.7,0,2.7-1.4,2.7-3.4c0-1.8-0.9-3.3-2.6-3.3c-1.1,0-2.1,0.8-2.4,2c-0.1,0.2-0.1,0.4-0.1,0.7V159.7z"/>
			<path class="st8" d="M137.4,150.3h1.6v5.5h0c0.3-0.5,0.7-0.9,1.1-1.1c0.5-0.3,1-0.5,1.6-0.5c1.2,0,3.1,0.7,3.1,3.8v5.2h-1.6v-5.1
				c0-1.4-0.5-2.6-2-2.6c-1,0-1.9,0.7-2.1,1.6c-0.1,0.2-0.1,0.5-0.1,0.8v5.3h-1.6V150.3z"/>
			<path class="st8" d="M149.3,152c0,0.5-0.4,1-1,1c-0.6,0-1-0.4-1-1c0-0.6,0.4-1,1-1C148.9,151,149.3,151.4,149.3,152z
				 M147.5,163.3v-8.8h1.6v8.8H147.5z"/>
			<path class="st8" d="M158,162.9c-0.4,0.2-1.3,0.5-2.5,0.5c-2.7,0-4.4-1.8-4.4-4.5c0-2.7,1.9-4.7,4.7-4.7c0.9,0,1.8,0.2,2.2,0.5
				l-0.4,1.2c-0.4-0.2-1-0.4-1.9-0.4c-2,0-3.1,1.5-3.1,3.3c0,2,1.3,3.3,3.1,3.3c0.9,0,1.5-0.2,2-0.4L158,162.9z"/>
			<path class="st8" d="M21.3,173c1-0.1,2.1-0.3,3.4-0.3c2.3,0,3.9,0.5,5,1.5c1.1,1,1.7,2.4,1.7,4.4c0,2-0.6,3.6-1.8,4.8
				c-1.1,1.1-3,1.8-5.4,1.8c-1.1,0-2.1-0.1-2.9-0.1V173z M22.9,183.9c0.4,0.1,1,0.1,1.6,0.1c3.4,0,5.2-1.9,5.2-5.2
				c0-2.9-1.6-4.7-5-4.7c-0.8,0-1.4,0.1-1.9,0.2V183.9z"/>
			<path class="st8" d="M34.3,181c0,2.2,1.4,3.1,3,3.1c1.1,0,1.8-0.2,2.4-0.5l0.3,1.1c-0.6,0.3-1.5,0.5-2.9,0.5
				c-2.7,0-4.3-1.8-4.3-4.4c0-2.7,1.6-4.8,4.1-4.8c2.9,0,3.6,2.5,3.6,4.2c0,0.3,0,0.6-0.1,0.7H34.3z M39,179.8c0-1-0.4-2.6-2.2-2.6
				c-1.6,0-2.3,1.5-2.5,2.6H39z"/>
			<path class="st8" d="M42.3,183.5c0.5,0.3,1.3,0.6,2.1,0.6c1.2,0,1.7-0.6,1.7-1.3c0-0.8-0.5-1.2-1.6-1.6c-1.6-0.6-2.3-1.4-2.3-2.5
				c0-1.4,1.1-2.6,3-2.6c0.9,0,1.7,0.3,2.2,0.5l-0.4,1.2c-0.3-0.2-1-0.5-1.8-0.5c-0.9,0-1.5,0.5-1.5,1.2c0,0.7,0.5,1.1,1.7,1.5
				c1.5,0.6,2.3,1.3,2.3,2.7c0,1.5-1.2,2.6-3.3,2.6c-1,0-1.9-0.2-2.5-0.6L42.3,183.5z"/>
			<path class="st8" d="M51.6,173.8c0,0.5-0.4,1-1,1c-0.6,0-1-0.4-1-1c0-0.6,0.4-1,1-1C51.2,172.8,51.6,173.3,51.6,173.8z
				 M49.8,185.1v-8.8h1.6v8.8H49.8z"/>
			<path class="st8" d="M61.6,176.3c0,0.6-0.1,1.3-0.1,2.4v5.1c0,2-0.4,3.3-1.3,4c-0.9,0.8-2.1,1.1-3.2,1.1c-1.1,0-2.2-0.3-2.9-0.7
				l0.4-1.2c0.6,0.4,1.5,0.7,2.6,0.7c1.6,0,2.8-0.9,2.8-3.1v-1h0c-0.5,0.8-1.4,1.5-2.8,1.5c-2.2,0-3.8-1.9-3.8-4.3
				c0-3,1.9-4.7,4-4.7c1.5,0,2.4,0.8,2.8,1.5h0l0.1-1.3H61.6z M60,179.8c0-0.3,0-0.5-0.1-0.7c-0.3-0.9-1.1-1.7-2.2-1.7
				c-1.5,0-2.6,1.3-2.6,3.3c0,1.7,0.9,3.2,2.6,3.2c1,0,1.9-0.6,2.2-1.6c0.1-0.3,0.1-0.6,0.1-0.9V179.8z"/>
			<path class="st8" d="M64.1,178.7c0-0.9,0-1.7-0.1-2.4h1.4l0.1,1.5h0c0.4-0.8,1.5-1.7,2.9-1.7c1.2,0,3.1,0.7,3.1,3.8v5.3H70V180
				c0-1.4-0.5-2.6-2-2.6c-1.1,0-1.9,0.7-2.1,1.6c-0.1,0.2-0.1,0.5-0.1,0.7v5.3h-1.6V178.7z"/>
			<path class="st8" d="M75.1,181c0,2.2,1.4,3.1,3,3.1c1.1,0,1.8-0.2,2.4-0.5l0.3,1.1c-0.6,0.3-1.5,0.5-2.9,0.5
				c-2.7,0-4.3-1.8-4.3-4.4c0-2.7,1.6-4.8,4.1-4.8c2.9,0,3.6,2.5,3.6,4.2c0,0.3,0,0.6-0.1,0.7H75.1z M79.8,179.8
				c0-1-0.4-2.6-2.2-2.6c-1.6,0-2.3,1.5-2.5,2.6H79.8z"/>
			<path class="st8" d="M83.4,179c0-1,0-1.9-0.1-2.8h1.4l0.1,1.7h0.1c0.4-1.2,1.4-1.9,2.4-1.9c0.2,0,0.3,0,0.5,0.1v1.5
				c-0.2,0-0.3-0.1-0.5-0.1c-1.1,0-1.9,0.9-2.1,2.1c0,0.2-0.1,0.5-0.1,0.7v4.7h-1.6V179z"/>
			<path class="st8" d="M98.1,185.1l-0.1-1.1h-0.1c-0.5,0.7-1.4,1.3-2.7,1.3c-1.8,0-2.7-1.3-2.7-2.5c0-2.1,1.9-3.3,5.3-3.3v-0.2
				c0-0.7-0.2-2-2-2c-0.8,0-1.7,0.3-2.3,0.7l-0.4-1.1c0.7-0.5,1.8-0.8,2.9-0.8c2.7,0,3.4,1.8,3.4,3.6v3.3c0,0.8,0,1.5,0.1,2.1H98.1z
				 M97.8,180.6c-1.7,0-3.7,0.3-3.7,2c0,1,0.7,1.5,1.5,1.5c1.1,0,1.9-0.7,2.1-1.5c0.1-0.2,0.1-0.3,0.1-0.5V180.6z"/>
			<path class="st8" d="M103.8,173.8v2.5h2.3v1.2h-2.3v4.8c0,1.1,0.3,1.7,1.2,1.7c0.4,0,0.7-0.1,0.9-0.1l0.1,1.2
				c-0.3,0.1-0.8,0.2-1.4,0.2c-0.7,0-1.3-0.2-1.7-0.7c-0.5-0.5-0.6-1.3-0.6-2.3v-4.8h-1.4v-1.2h1.4v-2.1L103.8,173.8z"/>
			<path class="st8" d="M122.3,178.8c0,4.2-2.6,6.5-5.7,6.5c-3.2,0-5.5-2.5-5.5-6.2c0-3.9,2.4-6.5,5.7-6.5
				C120.2,172.6,122.3,175.2,122.3,178.8z M112.8,179c0,2.6,1.4,5,3.9,5c2.5,0,3.9-2.3,3.9-5.1c0-2.4-1.3-5-3.9-5
				C114.1,173.9,112.8,176.4,112.8,179z"/>
			<path class="st8" d="M131.8,182.7c0,0.9,0,1.7,0.1,2.4h-1.4l-0.1-1.4h0c-0.4,0.7-1.3,1.6-2.9,1.6c-1.4,0-3-0.8-3-3.9v-5.2h1.6
				v4.9c0,1.7,0.5,2.8,2,2.8c1.1,0,1.8-0.7,2.1-1.5c0.1-0.2,0.1-0.5,0.1-0.8v-5.4h1.6V182.7z"/>
			<path class="st8" d="M136.4,173.8v2.5h2.3v1.2h-2.3v4.8c0,1.1,0.3,1.7,1.2,1.7c0.4,0,0.7-0.1,0.9-0.1l0.1,1.2
				c-0.3,0.1-0.8,0.2-1.4,0.2c-0.7,0-1.3-0.2-1.7-0.7c-0.5-0.5-0.6-1.3-0.6-2.3v-4.8h-1.4v-1.2h1.4v-2.1L136.4,173.8z"/>
			<path class="st8" d="M140.5,172.2h1.6v12.9h-1.6V172.2z"/>
			<path class="st8" d="M145.7,181c0,2.2,1.4,3.1,3,3.1c1.1,0,1.8-0.2,2.4-0.5l0.3,1.1c-0.6,0.3-1.5,0.5-2.9,0.5
				c-2.7,0-4.3-1.8-4.3-4.4c0-2.7,1.6-4.8,4.1-4.8c2.9,0,3.6,2.5,3.6,4.2c0,0.3,0,0.6-0.1,0.7H145.7z M150.4,179.8
				c0-1-0.4-2.6-2.2-2.6c-1.6,0-2.3,1.5-2.5,2.6H150.4z"/>
			<path class="st8" d="M155.8,173.8v2.5h2.3v1.2h-2.3v4.8c0,1.1,0.3,1.7,1.2,1.7c0.4,0,0.7-0.1,0.9-0.1l0.1,1.2
				c-0.3,0.1-0.8,0.2-1.4,0.2c-0.7,0-1.3-0.2-1.7-0.7c-0.5-0.5-0.6-1.3-0.6-2.3v-4.8h-1.4v-1.2h1.4v-2.1L155.8,173.8z"/>
			<path class="st8" d="M94.7,194.7h1.6v10.9h5.2v1.3h-6.8V194.7z"/>
			<path class="st8" d="M105,195.7c0,0.5-0.4,1-1,1c-0.6,0-1-0.4-1-1c0-0.6,0.4-1,1-1C104.7,194.7,105,195.1,105,195.7z M103.3,207
				v-8.8h1.6v8.8H103.3z"/>
			<path class="st8" d="M107.5,200.5c0-0.9,0-1.7-0.1-2.4h1.4l0.1,1.5h0c0.4-0.8,1.5-1.7,2.9-1.7c1.2,0,3.1,0.7,3.1,3.8v5.3h-1.6
				v-5.1c0-1.4-0.5-2.6-2-2.6c-1.1,0-1.9,0.7-2.1,1.6c-0.1,0.2-0.1,0.5-0.1,0.7v5.3h-1.6V200.5z"/>
			<path class="st8" d="M125.2,198.2c0,0.6-0.1,1.3-0.1,2.4v5.1c0,2-0.4,3.3-1.3,4c-0.9,0.8-2.1,1.1-3.2,1.1c-1.1,0-2.2-0.3-2.9-0.7
				l0.4-1.2c0.6,0.4,1.5,0.7,2.6,0.7c1.6,0,2.8-0.9,2.8-3.1v-1h0c-0.5,0.8-1.4,1.5-2.8,1.5c-2.2,0-3.8-1.9-3.8-4.3
				c0-3,1.9-4.7,4-4.7c1.5,0,2.4,0.8,2.8,1.5h0l0.1-1.3H125.2z M123.6,201.6c0-0.3,0-0.5-0.1-0.7c-0.3-0.9-1.1-1.7-2.2-1.7
				c-1.5,0-2.6,1.3-2.6,3.3c0,1.7,0.9,3.2,2.6,3.2c1,0,1.9-0.6,2.2-1.6c0.1-0.3,0.1-0.6,0.1-0.9V201.6z"/>
			<path class="st8" d="M128.7,202.9c0,2.2,1.4,3.1,3,3.1c1.1,0,1.8-0.2,2.4-0.5l0.3,1.1c-0.6,0.3-1.5,0.5-2.9,0.5
				c-2.7,0-4.3-1.8-4.3-4.4c0-2.7,1.6-4.8,4.1-4.8c2.9,0,3.6,2.5,3.6,4.2c0,0.3,0,0.6-0.1,0.7H128.7z M133.4,201.7
				c0-1-0.4-2.6-2.2-2.6c-1.6,0-2.3,1.5-2.5,2.6H133.4z"/>
			<path class="st8" d="M136.9,200.9c0-1,0-1.9-0.1-2.8h1.4l0.1,1.7h0.1c0.4-1.2,1.4-1.9,2.4-1.9c0.2,0,0.3,0,0.5,0.1v1.5
				c-0.2,0-0.3-0.1-0.5-0.1c-1.1,0-1.9,0.9-2.1,2.1c0,0.2-0.1,0.5-0.1,0.7v4.7h-1.6V200.9z"/>
			<path class="st8" d="M144.8,195.7c0,0.5-0.4,1-1,1c-0.6,0-1-0.4-1-1c0-0.6,0.4-1,1-1C144.4,194.7,144.8,195.1,144.8,195.7z
				 M143,207v-8.8h1.6v8.8H143z"/>
			<path class="st8" d="M148.1,202.9c0,2.2,1.4,3.1,3,3.1c1.1,0,1.8-0.2,2.4-0.5l0.3,1.1c-0.6,0.3-1.5,0.5-2.9,0.5
				c-2.7,0-4.3-1.8-4.3-4.4c0-2.7,1.6-4.8,4.1-4.8c2.9,0,3.6,2.5,3.6,4.2c0,0.3,0,0.6-0.1,0.7H148.1z M152.8,201.7
				c0-1-0.4-2.6-2.2-2.6c-1.6,0-2.3,1.5-2.5,2.6H152.8z"/>
			<path class="st8" d="M155.8,206c0-0.7,0.5-1.1,1.1-1.1s1.1,0.5,1.1,1.1c0,0.7-0.4,1.1-1.1,1.1C156.2,207.2,155.8,206.7,155.8,206
				z"/>
		</g>
	</g>
</g>
<g>
	<path class="st0" d="M11.7,107.1c0,0-1.2-1.5-1.2-3.5v-1.9c0-3,2.4-5.4,5.4-5.4c3,0,5.4,2.4,5.4,5.4v3.5l-2.2,0.2v-3.7
		c0-1.8-1.5-3.2-3.2-3.2c-1.8,0-3.2,1.5-3.2,3.2v1.9c0,1.2,0.7,2.1,0.7,2.1l6.6,7.8c0,0,1.3,1.5,1.3,3.6v2.7c0,3-2.4,5.4-5.4,5.4
		c-3,0-5.4-2.4-5.4-5.4v-4.1l2.2-0.2v4.4c0,1.8,1.5,3.2,3.2,3.2c1.8,0,3.2-1.5,3.2-3.2v-2.7c0-1.2-0.8-2.2-0.8-2.2L11.7,107.1z"/>
	<path class="st0" d="M24.5,101.8c0-3,2.4-5.4,5.4-5.4c3,0,5.4,2.4,5.4,5.4v18c0,3-2.4,5.4-5.4,5.4c-3,0-5.4-2.4-5.4-5.4V101.8z
		 M26.6,119.8c0,1.8,1.5,3.2,3.2,3.2s3.2-1.5,3.2-3.2v-18c0-1.8-1.5-3.2-3.2-3.2s-3.2,1.5-3.2,3.2V119.8z"/>
	<path class="st0" d="M47.6,106.2v-4.4c0-1.8-1.5-3.2-3.2-3.2s-3.2,1.5-3.2,3.2v18c0,1.8,1.5,3.2,3.2,3.2s3.2-1.5,3.2-3.2V116h2.2
		v3.8c0,3-2.4,5.4-5.4,5.4c-3,0-5.4-2.4-5.4-5.4v-18c0-3,2.4-5.4,5.4-5.4c3,0,5.4,2.4,5.4,5.4v4.1L47.6,106.2z"/>
	<path class="st0" d="M53.3,124.8v-28h2.2v28H53.3z"/>
	<path class="st0" d="M70.2,124.8h-2.2l-1.1-7.2h-5.7l-1.1,7.2H58l4.3-28H66L70.2,124.8z M61.6,115.5h5l-2.4-16.3h-0.1L61.6,115.5z"
		/>
	<path class="st0" d="M81.8,122.6v2.2h-8.9v-28H75v25.8H81.8z"/>
	<path class="st0" d="M98.6,124.8h-2.4l-4.4-23.5h-0.1v23.5h-2.2v-28h3.2l4.6,24.7h0.1l4.6-24.7h3.3v28h-2.2v-23.7h-0.1L98.6,124.8z
		"/>
	<path class="st0" d="M111.7,98.9v10.7h5v2.2h-5v10.7h7.1v2.2h-9.3v-28h9v2.2H111.7z"/>
	<path class="st0" d="M132.5,119c0,3.2-2.6,5.8-5.8,5.8h-5v-28h5c3.2,0,5.8,2.6,5.8,5.8V119z M130.4,102.6c0-2-1.6-3.6-3.6-3.6h-2.8
		v23.7h2.8c2,0,3.6-1.6,3.6-3.7V102.6z"/>
	<path class="st0" d="M136.4,124.8v-28h2.2v28H136.4z"/>
	<path class="st0" d="M153.3,124.8h-2.2l-1.1-7.2h-5.7l-1.1,7.2h-2.2l4.3-28h3.6L153.3,124.8z M144.7,115.5h5l-2.4-16.3h-0.1
		L144.7,115.5z"/>
</g>
<rect id="XMLID_323_" x="6" y="131.7" class="st9" width="152.6" height="6.4"/>
</svg>
