<?xml version="1.0" encoding="utf-8"?>
<!-- Generator: Adobe Illustrator 22.0.0, SVG Export Plug-In . SVG Version: 6.00 Build 0)  -->
<svg version="1.1" id="Layer_1" xmlns="http://www.w3.org/2000/svg" xmlns:xlink="http://www.w3.org/1999/xlink" x="0px" y="0px"
	 viewBox="0 0 453.6 237.4" style="enable-background:new 0 0 453.6 237.4;" xml:space="preserve">
<style type="text/css">
	.st0{fill:#1E596D;}
	.st1{fill:#FCFF26;}
	.st2{clip-path:url(#SVGID_2_);}
	.st3{fill:#00AA5B;}
	.st4{fill:#F9D10B;}
	.st5{fill:#005E9E;}
	.st6{fill:#FFFFFF;}
	.st7{fill:#00A460;}
	.st8{fill:#726658;}
	.st9{fill:#DED9D7;}
</style>
<g>
	<path class="st0" d="M435.2,18.4C411.8-5,373.9-5,350.5,18.4s-23.4,61.3,0,84.7c12.6,12.6,29.3,18.4,45.7,17.4
		c14.2-0.8,28.1-6.6,38.9-17.4s16.6-24.8,17.4-39C453.5,47.6,447.7,30.9,435.2,18.4z M421,88.9c-15.6,15.6-40.8,15.6-56.4,0
		s-15.6-40.8,0-56.4s40.8-15.6,56.4,0S436.6,73.3,421,88.9z"/>
	<g>
		<g>
			<path class="st0" d="M196.1,43.7h-18.6v-2.8l7.5-7.5c2.3-2.3,3.8-3.9,4.5-4.9s1.3-1.9,1.6-2.9c0.4-0.9,0.5-1.9,0.5-3
				c0-1.5-0.5-2.7-1.4-3.6s-2.2-1.3-3.8-1.3c-1.2,0-2.3,0.2-3.3,0.6c-1.1,0.4-2.2,1.1-3.5,2.1l-1.7-2.2c2.5-2.2,5.4-3.2,8.5-3.2
				c2.7,0,4.7,0.7,6.3,2c1.5,1.4,2.3,3.2,2.3,5.5c0,1.8-0.5,3.6-1.5,5.3s-2.9,4-5.7,6.7l-6.2,6.1v0.2h14.6v2.9
				C196.2,43.7,196.1,43.7,196.1,43.7z"/>
			<path class="st0" d="M218.9,29.5c0,4.9-0.8,8.6-2.3,11s-3.9,3.6-7.1,3.6c-3,0-5.4-1.2-7-3.7s-2.4-6.1-2.4-10.9
				c0-4.9,0.8-8.6,2.3-11s3.9-3.6,7-3.6s5.4,1.2,7,3.7S218.9,24.8,218.9,29.5z M203.5,29.5c0,4.1,0.5,7.1,1.5,9s2.5,2.8,4.6,2.8
				s3.7-1,4.7-2.9s1.4-4.9,1.4-9s-0.5-7-1.4-8.9c-1-1.9-2.5-2.8-4.7-2.8c-2.1,0-3.7,0.9-4.6,2.8C203.9,22.4,203.5,25.4,203.5,29.5z"
				/>
			<path class="st0" d="M234.8,43.7h-3.1V23.5c0-1.7,0.1-3.3,0.2-4.8c-0.3,0.3-0.6,0.6-0.9,0.9c-0.3,0.3-1.9,1.6-4.6,3.8l-1.7-2.2
				l7.5-5.8h2.7L234.8,43.7L234.8,43.7z"/>
			<path class="st0" d="M263.1,22c0,1.8-0.5,3.3-1.5,4.4s-2.5,1.9-4.3,2.3v0.2c2.3,0.3,4,1,5.1,2.2c1.1,1.2,1.6,2.7,1.6,4.6
				c0,2.7-0.9,4.8-2.8,6.2c-1.9,1.5-4.5,2.2-8,2.2c-1.5,0-2.9-0.1-4.1-0.3c-1.2-0.2-2.5-0.6-3.6-1.2v-3.1c1.2,0.6,2.5,1.1,3.9,1.4
				s2.7,0.5,3.9,0.5c4.9,0,7.3-1.9,7.3-5.8c0-3.4-2.7-5.2-8.1-5.2h-2.8v-2.8h2.8c2.2,0,4-0.5,5.3-1.5s1.9-2.3,1.9-4.1
				c0-1.4-0.5-2.5-1.4-3.3s-2.2-1.2-3.9-1.2c-1.2,0-2.4,0.2-3.5,0.5s-2.4,1-3.8,1.9l-1.6-2.2c1.2-0.9,2.5-1.6,4-2.2
				c1.5-0.5,3.1-0.8,4.8-0.8c2.8,0,4.9,0.6,6.4,1.9C262.3,18.1,263.1,19.8,263.1,22z"/>
		</g>
		<g id="XMLID_349_">
			<path id="XMLID_284_" class="st0" d="M352.7,56.5H123c-5.7,0-11.1-2.8-14.3-7.6c-3.9-5.8-10.5-9.5-18-9.3
				c-10.9,0.4-20,9.3-20.4,20.2c-0.5,12,9.1,21.9,21,21.9c7.1,0,13.4-3.5,17.2-9c3.4-4.8,8.7-7.9,14.5-7.9h229.7V56.5z"/>
		</g>
		<g>
			<path class="st0" d="M374.8,48.7c0-4,3.2-7.2,7.2-7.2s7.2,3.2,7.2,7.2v24.9c0,4-3.2,7.2-7.2,7.2s-7.2-3.2-7.2-7.2V48.7z
				 M377.7,73.7c0,2.3,1.9,4.2,4.2,4.2c2.3,0,4.2-1.9,4.2-4.2v-25c0-2.3-1.9-4.2-4.2-4.2c-2.3,0-4.2,1.9-4.2,4.2V73.7z"/>
			<path class="st0" d="M405.5,48.9c0-2.4-2-4.4-4.4-4.4s-4.4,2-4.4,4.4v4.6l-2.9,0.3v-5c0-4.1,3.3-7.4,7.4-7.4s7.4,3.3,7.4,7.4v3.6
				c0,1.4-1.5,4.3-1.5,4.3l-9.2,17.1c0,0-1,1.9-1,3.5h11.5v2.9H394v-2.9c0-2.3,1.4-4.8,1.4-4.8l9.2-17.2c0,0,1.2-2.2,1.2-2.9v-3.5
				L405.5,48.9L405.5,48.9z"/>
		</g>
	</g>
</g>
<g>
	<g>
		<path class="st1" d="M56.8,47c-4-22.6-36.6-22.6-40.7,0c-0.4,2-0.5,4.1-0.5,6.2c0,14.3,8.6,26.6,20.9,32
			c12.3-5.4,20.9-17.7,20.9-32C57.4,51.1,57.2,49,56.8,47z"/>
	</g>
	<g>
		<g>
			<defs>
				<path id="SVGID_1_" d="M52.9,50.8c0,8.4-6.3,15.3-14.5,16.2c-0.6,0.1-1.2,0.1-1.9,0.1c-9,0-16.3-7.3-16.3-16.3
					s7.3-16.3,16.3-16.3c0.6,0,1.3,0,1.9,0.1C46.5,35.5,52.9,42.4,52.9,50.8z"/>
			</defs>
			<clipPath id="SVGID_2_">
				<use xlink:href="#SVGID_1_"  style="overflow:visible;"/>
			</clipPath>
			<g class="st2">
				<path class="st3" d="M59.8,65c0,1.2-1,2.2-2.2,2.2H15.2c-1.2,0-2.2-1-2.2-2.2V36.7c0-1.2,1-2.2,2.2-2.2h42.4
					c1.2,0,2.2,1,2.2,2.2C59.8,36.7,59.8,65,59.8,65z"/>
				<g>
					<polygon class="st4" points="36.4,62.8 17.2,50.9 36.4,38.9 55.6,50.9 					"/>
					<path class="st5" d="M44.4,50.9c0,4.4-3.6,8-8,8s-8-3.6-8-8s3.6-8,8-8S44.4,46.4,44.4,50.9z"/>
					<path class="st6" d="M33.7,48c-1.9-0.3-3.5-0.2-4.5-0.1c-0.3,0.5-0.5,1-0.6,1.6c0.8-0.1,2.6-0.3,5,0c2.6,0.4,6.5,1.5,10.3,4.5
						c0.2-0.5,0.3-1.1,0.3-1.6C40.3,49.4,36.5,48.3,33.7,48z"/>
					<g>
						<path class="st7" d="M30.5,48.5c0,0.2-0.1,0.3-0.2,0.3s-0.2-0.1-0.2-0.3s0.1-0.3,0.2-0.3C30.4,48.3,30.5,48.4,30.5,48.5z
							 M30.6,48.5c0-0.1-0.1-0.4-0.3-0.3c-0.2,0-0.3,0.2-0.3,0.4c0,0.1,0.1,0.3,0.3,0.3S30.6,48.7,30.6,48.5z"/>
						<path class="st7" d="M30.8,48.3H31c0,0,0.1,0,0.1,0.1S31,48.5,31,48.5h-0.2V48.3z M30.8,48.6H31c0.1,0,0.1,0.1,0.1,0.1
							s0,0.1,0,0.2h0.1l0,0c0,0,0,0,0-0.1v-0.1c0-0.1,0-0.1-0.1-0.1c0.1,0,0.1-0.1,0.1-0.2c0-0.1-0.1-0.2-0.2-0.2h-0.3v0.7h0.1
							L30.8,48.6z"/>
						<path class="st7" d="M31.5,48.3h0.2c0.1,0,0.2,0.1,0.2,0.3s-0.1,0.3-0.2,0.3h-0.2V48.3z M31.4,48.9h0.3c0.2,0,0.3-0.2,0.3-0.3
							c0-0.2-0.1-0.3-0.3-0.3h-0.3V48.9z"/>
						<path class="st7" d="M32.6,48.9h-0.5v-0.7h0.5v0.1h-0.4v0.2h0.4v0.1h-0.4v0.2L32.6,48.9L32.6,48.9z"/>
						<path class="st7" d="M33.2,49v-0.4c0,0,0-0.1,0-0.2l0,0L33,49h-0.1l-0.1-0.6l0,0c0,0.1,0,0.1,0,0.2V49h-0.1l0.1-0.7h0.1
							l0.1,0.6l0,0l0.3-0.5h0.1L33.2,49L33.2,49z"/>
						<path class="st7" d="M35.7,49.5l-0.5-0.1l0.2-0.7l0.5,0.1v0.1l-0.4-0.1V49l0.4,0.1v0.1l-0.4-0.1v0.2L35.7,49.5L35.7,49.5z"/>
						<path class="st7" d="M37.7,49.4l0.2,0.1c0.1,0,0.1,0.1,0.1,0.2c0,0.1-0.1,0.1-0.2,0.1l-0.2-0.1L37.7,49.4z M37.6,49.7l0.2,0.1
							c0.1,0,0.2,0,0.3-0.1c0-0.1,0-0.2-0.1-0.2l-0.3-0.1L37.5,50h0.1V49.7z"/>
						<path class="st7" d="M38.3,49.6l0.2,0.1c0,0,0.1,0.1,0.1,0.2c0,0.1-0.1,0.1-0.2,0.1l-0.2-0.1L38.3,49.6z M38.1,49.9l0.2,0.1
							c0.1,0,0.1,0.1,0.1,0.1s0,0.1,0,0.2h0.1l0,0c0,0,0,0,0-0.1v-0.1c0-0.1,0-0.1,0-0.1s0.1,0,0.1-0.1c0.1-0.1,0-0.2-0.1-0.3
							l-0.3-0.1L38,50.1h0.1V49.9z"/>
						<path class="st7" d="M39.2,50.3c-0.1,0.1-0.2,0.2-0.3,0.2c-0.1-0.1-0.2-0.2-0.1-0.3c0.1-0.1,0.2-0.2,0.3-0.2
							S39.2,50.1,39.2,50.3z M39.3,50.3c0.1-0.1,0.1-0.4-0.2-0.5c-0.2-0.1-0.4,0.1-0.4,0.2c-0.1,0.1-0.1,0.4,0.2,0.4
							C39.1,50.6,39.2,50.4,39.3,50.3z"/>
						<path class="st7" d="M39.6,50.4l0.3,0.1l-0.2,0.3h-0.1v-0.1c-0.1,0-0.2,0-0.2,0c-0.1,0-0.1-0.1-0.1-0.2c-0.1-0.1,0-0.2,0-0.3
							c0.1-0.2,0.2-0.3,0.4-0.2c0.1,0.1,0.2,0.2,0.2,0.3h-0.1c0-0.1-0.1-0.2-0.1-0.2c-0.1,0-0.2,0-0.3,0.2c-0.1,0.1-0.1,0.3,0.1,0.3
							h0.1c0.1,0,0.1-0.1,0.1-0.1L39.6,50.4L39.6,50.4z"/>
						<path class="st7" d="M40.2,50.5l0.2,0.1c0,0,0.1,0.1,0.1,0.2c0,0.1-0.1,0.1-0.2,0l-0.2-0.1L40.2,50.5z M40.1,50.7l0.2,0.1
							c0.1,0.1,0.1,0.1,0.1,0.2c0,0-0.1,0.1-0.1,0.2l0.1,0.1l0,0c0,0,0,0,0-0.1l0.1-0.1c0-0.1,0-0.1,0-0.1s0.1,0,0.2-0.1
							c0.1-0.1,0-0.2-0.1-0.3l-0.3-0.1L39.9,51H40L40.1,50.7z"/>
						<path class="st7" d="M40.9,51.5l-0.4-0.2l0.3-0.6l0.4,0.2V51l-0.4-0.2L40.7,51l0.3,0.2v0.1L40.7,51l-0.1,0.2L40.9,51.5
							L40.9,51.5z"/>
						<path class="st7" d="M41.6,51.3c0-0.1,0-0.2-0.1-0.2s-0.1-0.1-0.2,0c0,0.1,0,0.1,0,0.1L41.6,51.3c0,0.1,0,0.2-0.1,0.3
							s-0.2,0.1-0.3,0s-0.1-0.1-0.2-0.2c0-0.1,0-0.1,0-0.2h0.1c-0.1,0.1,0,0.2,0.1,0.2s0.1,0.1,0.2,0c0-0.1,0-0.1-0.1-0.2l-0.1-0.1
							c0,0-0.1-0.1-0.1-0.2c0.1-0.1,0.2-0.1,0.3-0.1C41.8,51.2,41.7,51.3,41.6,51.3L41.6,51.3z"/>
						<path class="st7" d="M42.2,51.7c0-0.1,0-0.2-0.1-0.2c0,0-0.1-0.1-0.2,0v0.1L42.2,51.7c0,0.1,0,0.2-0.1,0.3s-0.2,0.1-0.3,0
							s-0.1-0.1-0.1-0.2c0-0.1,0-0.1,0-0.2h0.1c-0.1,0.1,0,0.2,0.1,0.2S42.1,51.9,42.2,51.7c-0.1,0-0.1,0-0.2-0.1l-0.1-0.1
							c0,0-0.1-0.1,0-0.2c0.1-0.1,0.2-0.1,0.3-0.1C42.3,51.5,42.3,51.6,42.2,51.7L42.2,51.7z"/>
						<path class="st7" d="M42.7,52.2c-0.1,0.1-0.2,0.2-0.3,0.1c-0.1-0.1-0.1-0.2-0.1-0.4c0.1-0.1,0.2-0.2,0.3-0.1
							C42.8,51.9,42.8,52.1,42.7,52.2z M42.8,52.2c0.1-0.1,0.1-0.3-0.1-0.5c-0.2-0.1-0.4,0-0.5,0.1s-0.1,0.3,0.1,0.5
							C42.5,52.5,42.7,52.4,42.8,52.2z"/>
					</g>
					<g>
						<polygon class="st6" points="38.6,45.7 38.7,46 39,46 38.7,46.2 38.8,46.5 38.6,46.3 38.3,46.6 38.4,46.2 38.1,46 38.5,46 
													"/>
						<polygon class="st6" points="33,49.5 33.1,49.7 33.3,49.7 33.2,49.8 33.2,50 33,49.9 32.9,50 32.9,49.8 32.7,49.7 33,49.7 
													"/>
						<polygon class="st6" points="29.6,47.6 29.7,47.9 30,47.9 29.8,48.1 29.9,48.4 29.6,48.2 29.4,48.4 29.5,48.1 29.2,47.9 
							29.5,47.9 						"/>
						<polygon class="st6" points="31,50.5 31.1,50.8 31.4,50.8 31.2,50.9 31.3,51.2 31,51 30.8,51.2 30.9,50.9 30.7,50.8 31,50.8 
													"/>
						<polygon class="st6" points="30.4,50.9 30.5,51.2 30.9,51.2 30.6,51.5 30.7,51.8 30.4,51.6 30.1,51.8 30.2,51.5 29.9,51.2 
							30.2,51.2 						"/>
						<polygon class="st6" points="29.5,51.8 29.6,52 29.8,52 29.6,52.1 29.7,52.3 29.5,52.2 29.4,52.3 29.4,52.1 29.3,52 29.5,52 
													"/>
						<polygon class="st6" points="31.9,51.8 32,52 32.3,52 32.1,52.2 32.2,52.4 31.9,52.3 31.7,52.4 31.8,52.2 31.6,52 31.9,52 
													"/>
						<polygon class="st6" points="31.8,52.7 31.9,53 32.1,53 31.9,53.1 32,53.3 31.8,53.2 31.6,53.3 31.7,53.1 31.5,53 31.7,53 
													"/>
						<polygon class="st6" points="32.9,53.4 33,53.7 33.3,53.7 33,53.9 33.1,54.3 32.9,54.1 32.6,54.3 32.7,53.9 32.4,53.7 
							32.8,53.7 						"/>
						<polygon class="st6" points="36.3,52.6 36.4,53 36.7,53 36.4,53.2 36.6,53.6 36.3,53.4 36,53.6 36.1,53.2 35.8,53 36.1,53 
													"/>
						<polygon class="st6" points="35.8,51.8 35.9,51.9 36,51.9 35.9,52 36,52.1 35.8,52.1 35.7,52.1 35.8,52 35.7,51.9 35.8,51.9 
													"/>
						<polygon class="st6" points="35.2,51.3 35.3,51.5 35.5,51.5 35.3,51.6 35.4,51.8 35.2,51.7 35,51.8 35.1,51.6 34.9,51.5 
							35.1,51.5 						"/>
						<polygon class="st6" points="36.4,50.4 36.4,50.6 36.7,50.6 36.5,50.8 36.6,51.1 36.4,50.9 36.1,51.1 36.2,50.8 36,50.6 
							36.3,50.6 						"/>
						<polygon class="st6" points="38.2,48.5 38.2,48.8 38.5,48.8 38.3,48.9 38.3,49.1 38.2,49 38,49.1 38,48.9 37.9,48.8 
							38.1,48.8 						"/>
						<polygon class="st6" points="37.1,51.2 37.2,51.5 37.5,51.5 37.3,51.6 37.4,51.9 37.1,51.7 36.9,51.9 37,51.6 36.8,51.5 
							37,51.5 						"/>
						<polygon class="st6" points="38,53.4 38.2,53.8 38.6,53.8 38.2,54 38.4,54.4 38,54.2 37.7,54.4 37.8,54 37.5,53.8 37.9,53.8 
													"/>
						<polygon class="st6" points="38.7,54.7 38.8,55 39.1,55 38.8,55.2 38.9,55.5 38.7,55.3 38.4,55.5 38.5,55.2 38.3,55 38.6,55 
													"/>
						<polygon class="st6" points="39.3,53.8 39.4,54 39.7,54.1 39.5,54.2 39.6,54.5 39.3,54.3 39.1,54.5 39.2,54.2 39,54 
							39.3,54.1 						"/>
						<polygon class="st6" points="40.3,53.2 40.4,53.5 40.7,53.5 40.5,53.7 40.5,54 40.3,53.8 40.1,54 40.2,53.7 39.9,53.5 
							40.2,53.5 						"/>
						<polygon class="st6" points="40.3,54.5 40.4,54.7 40.6,54.7 40.5,54.9 40.5,55.1 40.3,55 40.1,55.1 40.2,54.9 40,54.7 
							40.3,54.7 						"/>
						<polygon class="st6" points="40.3,55.3 40.4,55.5 40.6,55.5 40.4,55.6 40.5,55.8 40.3,55.7 40.2,55.8 40.2,55.6 40.1,55.5 
							40.2,55.5 						"/>
						<polygon class="st6" points="41.1,53.5 41.2,53.8 41.5,53.8 41.3,54 41.4,54.4 41.1,54.2 40.9,54.4 41,54 40.7,53.9 41,53.8 
													"/>
						<polygon class="st6" points="42,53.5 42.1,53.7 42.3,53.7 42.2,53.8 42.2,54 42,53.9 41.9,54 41.9,53.8 41.7,53.7 42,53.7 
													"/>
						<polygon class="st6" points="42.4,52.9 42.4,53 42.6,53 42.5,53.1 42.5,53.3 42.4,53.2 42.3,53.3 42.3,53.1 42.2,53 42.3,53 
													"/>
						<polygon class="st6" points="41.9,51.8 42,51.9 42.2,51.9 42,52.1 42.1,52.3 41.9,52.1 41.8,52.3 41.8,52.1 41.7,51.9 
							41.9,51.9 						"/>
						<polygon class="st6" points="43.1,51.6 43.3,51.9 43.6,51.9 43.3,52.1 43.4,52.5 43.1,52.3 42.9,52.5 43,52.1 42.7,51.9 
							43,51.9 						"/>
						<polygon class="st6" points="36.4,55.5 36.4,55.8 36.6,55.8 36.5,55.9 36.5,56.1 36.4,56 36.2,56.1 36.2,55.9 36.1,55.8 
							36.3,55.7 						"/>
					</g>
				</g>
			</g>
		</g>
	</g>
</g>
<g id="XMLID_319_">
	<g>
		<g>
			<path class="st8" d="M75.4,163.5c-0.7,0.3-2.1,0.7-3.8,0.7c-1.9,0-3.4-0.5-4.6-1.6c-1.1-1-1.7-2.7-1.7-4.6c0-3.7,2.5-6.3,6.6-6.3
				c1.4,0,2.5,0.3,3.1,0.6l-0.4,1.3c-0.7-0.3-1.5-0.5-2.7-0.5c-3,0-4.9,1.9-4.9,4.9c0,3.1,1.9,5,4.7,5c1,0,1.7-0.1,2.1-0.3v-3.7
				h-2.5v-1.3h4V163.5z"/>
			<path class="st8" d="M77.8,158c0-1,0-1.9-0.1-2.8h1.4l0.1,1.7h0.1c0.4-1.2,1.4-1.9,2.4-1.9c0.2,0,0.3,0,0.5,0.1v1.5
				c-0.2,0-0.3-0.1-0.5-0.1c-1.1,0-1.9,0.9-2.1,2.1c0,0.2-0.1,0.5-0.1,0.7v4.7h-1.6V158z"/>
			<path class="st8" d="M88.6,164.1l-0.1-1.1h-0.1c-0.5,0.7-1.4,1.3-2.7,1.3c-1.8,0-2.7-1.3-2.7-2.5c0-2.1,1.9-3.3,5.3-3.3v-0.2
				c0-0.7-0.2-2-2-2c-0.8,0-1.7,0.3-2.3,0.7l-0.4-1.1c0.7-0.5,1.8-0.8,2.9-0.8c2.7,0,3.4,1.8,3.4,3.6v3.3c0,0.8,0,1.5,0.1,2.1H88.6z
				 M88.3,159.6c-1.7,0-3.7,0.3-3.7,2c0,1,0.7,1.5,1.5,1.5c1.1,0,1.9-0.7,2.1-1.5c0.1-0.2,0.1-0.3,0.1-0.5V159.6z"/>
			<path class="st8" d="M92.5,158.1c0-1.1,0-2-0.1-2.9h1.4l0.1,1.5h0c0.7-1.1,1.7-1.7,3.1-1.7c2.1,0,3.7,1.8,3.7,4.5
				c0,3.2-1.9,4.7-4,4.7c-1.2,0-2.2-0.5-2.7-1.4h0v4.8h-1.6V158.1z M94,160.5c0,0.2,0,0.5,0.1,0.7c0.3,1.1,1.3,1.9,2.4,1.9
				c1.7,0,2.7-1.4,2.7-3.4c0-1.8-0.9-3.3-2.6-3.3c-1.1,0-2.1,0.8-2.4,2c-0.1,0.2-0.1,0.4-0.1,0.7V160.5z"/>
			<path class="st8" d="M102.8,151.1h1.6v5.5h0c0.3-0.5,0.7-0.9,1.1-1.1c0.5-0.3,1-0.5,1.6-0.5c1.2,0,3.1,0.7,3.1,3.8v5.2h-1.6V159
				c0-1.4-0.5-2.6-2-2.6c-1,0-1.9,0.7-2.1,1.6c-0.1,0.2-0.1,0.5-0.1,0.8v5.3h-1.6V151.1z"/>
			<path class="st8" d="M114.7,152.8c0,0.5-0.4,1-1,1c-0.6,0-1-0.4-1-1c0-0.6,0.4-1,1-1C114.3,151.8,114.7,152.2,114.7,152.8z
				 M112.9,164.1v-8.8h1.6v8.8H112.9z"/>
			<path class="st8" d="M123.5,163.7c-0.4,0.2-1.3,0.5-2.5,0.5c-2.7,0-4.4-1.8-4.4-4.5c0-2.7,1.9-4.7,4.7-4.7c0.9,0,1.8,0.2,2.2,0.5
				l-0.4,1.2c-0.4-0.2-1-0.4-1.9-0.4c-2,0-3.1,1.5-3.1,3.3c0,2,1.3,3.3,3.1,3.3c0.9,0,1.5-0.2,2-0.4L123.5,163.7z"/>
			<path class="st8" d="M129.3,152c1-0.1,2.1-0.3,3.4-0.3c2.3,0,3.9,0.5,5,1.5c1.1,1,1.7,2.4,1.7,4.4c0,2-0.6,3.6-1.8,4.8
				c-1.1,1.1-3,1.8-5.4,1.8c-1.1,0-2.1-0.1-2.9-0.1V152z M130.9,162.8c0.4,0.1,1,0.1,1.6,0.1c3.4,0,5.2-1.9,5.2-5.2
				c0-2.9-1.6-4.7-5-4.7c-0.8,0-1.4,0.1-1.9,0.2V162.8z"/>
			<path class="st8" d="M142.3,160c0,2.2,1.4,3.1,3,3.1c1.1,0,1.8-0.2,2.4-0.5l0.3,1.1c-0.6,0.3-1.5,0.5-2.9,0.5
				c-2.7,0-4.3-1.8-4.3-4.4c0-2.7,1.6-4.8,4.1-4.8c2.9,0,3.6,2.5,3.6,4.2c0,0.3,0,0.6-0.1,0.7H142.3z M147,158.8
				c0-1-0.4-2.6-2.2-2.6c-1.6,0-2.3,1.5-2.5,2.6H147z"/>
			<path class="st8" d="M150.3,162.4c0.5,0.3,1.3,0.6,2.1,0.6c1.2,0,1.7-0.6,1.7-1.3c0-0.8-0.5-1.2-1.6-1.6
				c-1.6-0.6-2.3-1.4-2.3-2.5c0-1.4,1.1-2.6,3-2.6c0.9,0,1.7,0.3,2.2,0.5l-0.4,1.2c-0.3-0.2-1-0.5-1.8-0.5c-0.9,0-1.5,0.5-1.5,1.2
				c0,0.7,0.5,1.1,1.7,1.5c1.5,0.6,2.3,1.3,2.3,2.7c0,1.5-1.2,2.6-3.3,2.6c-1,0-1.9-0.2-2.5-0.6L150.3,162.4z"/>
			<path class="st8" d="M159.6,152.8c0,0.5-0.4,1-1,1c-0.6,0-1-0.4-1-1c0-0.6,0.4-1,1-1C159.2,151.8,159.6,152.2,159.6,152.8z
				 M157.8,164.1v-8.8h1.6v8.8H157.8z"/>
			<path class="st8" d="M169.6,155.3c0,0.6-0.1,1.3-0.1,2.4v5.1c0,2-0.4,3.3-1.3,4c-0.9,0.8-2.1,1.1-3.2,1.1c-1.1,0-2.2-0.3-2.9-0.7
				l0.4-1.2c0.6,0.4,1.5,0.7,2.6,0.7c1.6,0,2.8-0.9,2.8-3.1v-1h0c-0.5,0.8-1.4,1.5-2.8,1.5c-2.2,0-3.8-1.9-3.8-4.3
				c0-3,1.9-4.7,4-4.7c1.5,0,2.4,0.8,2.8,1.5h0l0.1-1.3H169.6z M168,158.7c0-0.3,0-0.5-0.1-0.7c-0.3-0.9-1.1-1.7-2.2-1.7
				c-1.5,0-2.6,1.3-2.6,3.3c0,1.7,0.9,3.2,2.6,3.2c1,0,1.9-0.6,2.2-1.6c0.1-0.3,0.1-0.6,0.1-0.9V158.7z"/>
			<path class="st8" d="M172.1,157.6c0-0.9,0-1.7-0.1-2.4h1.4l0.1,1.5h0c0.4-0.8,1.5-1.7,2.9-1.7c1.2,0,3.1,0.7,3.1,3.8v5.3H178V159
				c0-1.4-0.5-2.6-2-2.6c-1.1,0-1.9,0.7-2.1,1.6c-0.1,0.2-0.1,0.5-0.1,0.7v5.3h-1.6V157.6z"/>
			<path class="st8" d="M27.8,173.8c0.7-0.1,1.8-0.3,2.9-0.3c1.6,0,2.6,0.3,3.4,0.9c0.6,0.5,1,1.2,1,2.2c0,1.2-0.8,2.2-2.1,2.7v0
				c1.2,0.3,2.5,1.3,2.5,3.1c0,1.1-0.4,1.9-1,2.5c-0.9,0.8-2.2,1.1-4.2,1.1c-1.1,0-1.9-0.1-2.5-0.1V173.8z M29.4,178.9h1.4
				c1.7,0,2.7-0.9,2.7-2.1c0-1.4-1.1-2-2.7-2c-0.7,0-1.1,0.1-1.4,0.1V178.9z M29.4,184.7c0.3,0.1,0.8,0.1,1.3,0.1
				c1.6,0,3.2-0.6,3.2-2.4c0-1.7-1.4-2.4-3.2-2.4h-1.3V184.7z"/>
			<path class="st8" d="M42.5,185.9l-0.1-1.1h-0.1c-0.5,0.7-1.4,1.3-2.7,1.3c-1.8,0-2.7-1.3-2.7-2.5c0-2.1,1.9-3.3,5.3-3.3v-0.2
				c0-0.7-0.2-2-2-2c-0.8,0-1.7,0.3-2.3,0.7l-0.4-1.1c0.7-0.5,1.8-0.8,2.9-0.8c2.7,0,3.4,1.8,3.4,3.6v3.3c0,0.8,0,1.5,0.1,2.1H42.5z
				 M42.3,181.4c-1.7,0-3.7,0.3-3.7,2c0,1,0.7,1.5,1.5,1.5c1.1,0,1.9-0.7,2.1-1.5c0.1-0.2,0.1-0.3,0.1-0.5V181.4z"/>
			<path class="st8" d="M52.7,185.6c-0.4,0.2-1.3,0.5-2.5,0.5c-2.7,0-4.4-1.8-4.4-4.5c0-2.7,1.9-4.7,4.7-4.7c0.9,0,1.8,0.2,2.2,0.5
				l-0.4,1.2c-0.4-0.2-1-0.4-1.9-0.4c-2,0-3.1,1.5-3.1,3.3c0,2,1.3,3.3,3.1,3.3c0.9,0,1.5-0.2,2-0.4L52.7,185.6z"/>
			<path class="st8" d="M54.6,173h1.6v5.5h0c0.3-0.5,0.7-0.9,1.1-1.1c0.5-0.3,1-0.5,1.6-0.5c1.2,0,3.1,0.7,3.1,3.8v5.2h-1.6v-5.1
				c0-1.4-0.5-2.6-2-2.6c-1,0-1.9,0.7-2.1,1.6c-0.1,0.2-0.1,0.5-0.1,0.8v5.3h-1.6V173z"/>
			<path class="st8" d="M65.6,181.8c0,2.2,1.4,3.1,3,3.1c1.1,0,1.8-0.2,2.4-0.5l0.3,1.1c-0.6,0.3-1.5,0.5-2.9,0.5
				c-2.7,0-4.3-1.8-4.3-4.4c0-2.7,1.6-4.8,4.1-4.8c2.9,0,3.6,2.5,3.6,4.2c0,0.3,0,0.6-0.1,0.7H65.6z M70.3,180.7
				c0-1-0.4-2.6-2.2-2.6c-1.6,0-2.3,1.5-2.5,2.6H70.3z"/>
			<path class="st8" d="M73.8,173h1.6v12.9h-1.6V173z"/>
			<path class="st8" d="M86.1,181.5c0,3.3-2.3,4.7-4.4,4.7c-2.4,0-4.2-1.7-4.2-4.5c0-3,1.9-4.7,4.4-4.7
				C84.4,176.9,86.1,178.8,86.1,181.5z M79.1,181.5c0,1.9,1.1,3.4,2.7,3.4c1.5,0,2.7-1.4,2.7-3.4c0-1.5-0.7-3.4-2.6-3.4
				C79.9,178.1,79.1,179.9,79.1,181.5z"/>
			<path class="st8" d="M88.1,179.9c0-1,0-1.9-0.1-2.8h1.4l0.1,1.7h0.1c0.4-1.2,1.4-1.9,2.4-1.9c0.2,0,0.3,0,0.5,0.1v1.5
				c-0.2,0-0.3-0.1-0.5-0.1c-1.1,0-1.9,0.9-2.1,2.1c0,0.2-0.1,0.5-0.1,0.7v4.7h-1.6V179.9z"/>
			<path class="st8" d="M96.7,173.5c-0.4,1.5-1.2,3.5-1.7,4.3l-1,0.1c0.4-1.1,0.9-3,1.1-4.3L96.7,173.5z"/>
			<path class="st8" d="M96.9,184.3c0.5,0.3,1.3,0.6,2.1,0.6c1.2,0,1.7-0.6,1.7-1.3c0-0.8-0.5-1.2-1.6-1.6c-1.6-0.6-2.3-1.4-2.3-2.5
				c0-1.4,1.1-2.6,3-2.6c0.9,0,1.7,0.3,2.2,0.5l-0.4,1.2c-0.3-0.2-1-0.5-1.8-0.5c-0.9,0-1.5,0.5-1.5,1.2c0,0.7,0.5,1.1,1.7,1.5
				c1.5,0.6,2.3,1.3,2.3,2.7c0,1.5-1.2,2.6-3.3,2.6c-1,0-1.9-0.2-2.5-0.6L96.9,184.3z"/>
			<path class="st8" d="M108.2,173.8c1-0.1,2.1-0.3,3.4-0.3c2.3,0,3.9,0.5,5,1.5c1.1,1,1.7,2.4,1.7,4.4c0,2-0.6,3.6-1.8,4.8
				c-1.1,1.1-3,1.8-5.4,1.8c-1.1,0-2.1-0.1-2.9-0.1V173.8z M109.8,184.7c0.4,0.1,1,0.1,1.6,0.1c3.4,0,5.2-1.9,5.2-5.2
				c0-2.9-1.6-4.7-5-4.7c-0.8,0-1.4,0.1-1.9,0.2V184.7z"/>
			<path class="st8" d="M121.3,181.8c0,2.2,1.4,3.1,3,3.1c1.1,0,1.8-0.2,2.4-0.5l0.3,1.1c-0.6,0.3-1.5,0.5-2.9,0.5
				c-2.7,0-4.3-1.8-4.3-4.4c0-2.7,1.6-4.8,4.1-4.8c2.9,0,3.6,2.5,3.6,4.2c0,0.3,0,0.6-0.1,0.7H121.3z M126,180.7
				c0-1-0.4-2.6-2.2-2.6c-1.6,0-2.3,1.5-2.5,2.6H126z"/>
			<path class="st8" d="M137.1,177.1c0,0.6-0.1,1.3-0.1,2.4v5.1c0,2-0.4,3.3-1.3,4c-0.9,0.8-2.1,1.1-3.2,1.1c-1.1,0-2.2-0.3-2.9-0.7
				l0.4-1.2c0.6,0.4,1.5,0.7,2.6,0.7c1.6,0,2.8-0.9,2.8-3.1v-1h0c-0.5,0.8-1.4,1.5-2.8,1.5c-2.2,0-3.8-1.9-3.8-4.3
				c0-3,1.9-4.7,4-4.7c1.5,0,2.4,0.8,2.8,1.5h0l0.1-1.3H137.1z M135.5,180.6c0-0.3,0-0.5-0.1-0.7c-0.3-0.9-1.1-1.7-2.2-1.7
				c-1.5,0-2.6,1.3-2.6,3.3c0,1.7,0.9,3.2,2.6,3.2c1,0,1.9-0.6,2.2-1.6c0.1-0.3,0.1-0.6,0.1-0.9V180.6z"/>
			<path class="st8" d="M139.6,179.9c0-1,0-1.9-0.1-2.8h1.4l0.1,1.7h0.1c0.4-1.2,1.4-1.9,2.4-1.9c0.2,0,0.3,0,0.5,0.1v1.5
				c-0.2,0-0.3-0.1-0.5-0.1c-1.1,0-1.9,0.9-2.1,2.1c0,0.2-0.1,0.5-0.1,0.7v4.7h-1.6V179.9z"/>
			<path class="st8" d="M146.3,181.8c0,2.2,1.4,3.1,3,3.1c1.1,0,1.8-0.2,2.4-0.5l0.3,1.1c-0.6,0.3-1.5,0.5-2.9,0.5
				c-2.7,0-4.3-1.8-4.3-4.4c0-2.7,1.6-4.8,4.1-4.8c2.9,0,3.6,2.5,3.6,4.2c0,0.3,0,0.6-0.1,0.7H146.3z M151,180.7
				c0-1-0.4-2.6-2.2-2.6c-1.6,0-2.3,1.5-2.5,2.6H151z"/>
			<path class="st8" d="M155.4,181.8c0,2.2,1.4,3.1,3,3.1c1.1,0,1.8-0.2,2.4-0.5l0.3,1.1c-0.6,0.3-1.5,0.5-2.9,0.5
				c-2.7,0-4.3-1.8-4.3-4.4c0-2.7,1.6-4.8,4.1-4.8c2.9,0,3.6,2.5,3.6,4.2c0,0.3,0,0.6-0.1,0.7H155.4z M160.1,180.7
				c0-1-0.4-2.6-2.2-2.6c-1.6,0-2.3,1.5-2.5,2.6H160.1z"/>
			<path class="st8" d="M172.4,185.9l-0.1-1.1h-0.1c-0.5,0.7-1.4,1.3-2.7,1.3c-1.8,0-2.7-1.3-2.7-2.5c0-2.1,1.9-3.3,5.3-3.3v-0.2
				c0-0.7-0.2-2-2-2c-0.8,0-1.7,0.3-2.3,0.7l-0.4-1.1c0.7-0.5,1.8-0.8,2.9-0.8c2.7,0,3.4,1.8,3.4,3.6v3.3c0,0.8,0,1.5,0.1,2.1H172.4
				z M172.1,181.4c-1.7,0-3.7,0.3-3.7,2c0,1,0.7,1.5,1.5,1.5c1.1,0,1.9-0.7,2.1-1.5c0.1-0.2,0.1-0.3,0.1-0.5V181.4z"/>
			<path class="st8" d="M178.1,174.6v2.5h2.3v1.2h-2.3v4.8c0,1.1,0.3,1.7,1.2,1.7c0.4,0,0.7-0.1,0.9-0.1l0.1,1.2
				c-0.3,0.1-0.8,0.2-1.4,0.2c-0.7,0-1.3-0.2-1.7-0.7c-0.5-0.5-0.6-1.3-0.6-2.3v-4.8h-1.4v-1.2h1.4V175L178.1,174.6z"/>
			<path class="st8" d="M39.2,207.4c-0.6,0.3-1.7,0.6-3.2,0.6c-3.5,0-6.1-2.2-6.1-6.2c0-3.8,2.6-6.5,6.4-6.5c1.5,0,2.5,0.3,2.9,0.5
				l-0.4,1.3c-0.6-0.3-1.5-0.5-2.5-0.5c-2.9,0-4.8,1.8-4.8,5.1c0,3,1.7,4.9,4.7,4.9c1,0,1.9-0.2,2.6-0.5L39.2,207.4z"/>
			<path class="st8" d="M41.9,203.7c0,2.2,1.4,3.1,3,3.1c1.1,0,1.8-0.2,2.4-0.5l0.3,1.1c-0.6,0.3-1.5,0.5-2.9,0.5
				c-2.7,0-4.3-1.8-4.3-4.4c0-2.7,1.6-4.8,4.1-4.8c2.9,0,3.6,2.5,3.6,4.2c0,0.3,0,0.6-0.1,0.7H41.9z M46.6,202.5
				c0-1-0.4-2.6-2.2-2.6c-1.6,0-2.3,1.5-2.5,2.6H46.6z"/>
			<path class="st8" d="M50.1,201.4c0-0.9,0-1.7-0.1-2.4h1.4l0.1,1.5h0c0.4-0.8,1.5-1.7,2.9-1.7c1.2,0,3.1,0.7,3.1,3.8v5.3H56v-5.1
				c0-1.4-0.5-2.6-2-2.6c-1.1,0-1.9,0.7-2.1,1.6c-0.1,0.2-0.1,0.5-0.1,0.7v5.3h-1.6V201.4z"/>
			<path class="st8" d="M62.1,196.5v2.5h2.3v1.2h-2.3v4.8c0,1.1,0.3,1.7,1.2,1.7c0.4,0,0.7-0.1,0.9-0.1l0.1,1.2
				c-0.3,0.1-0.8,0.2-1.4,0.2c-0.7,0-1.3-0.2-1.7-0.7c-0.5-0.5-0.6-1.3-0.6-2.3v-4.8h-1.4V199h1.4v-2.1L62.1,196.5z"/>
			<path class="st8" d="M66.2,201.7c0-1,0-1.9-0.1-2.8h1.4l0.1,1.7h0.1c0.4-1.2,1.4-1.9,2.4-1.9c0.2,0,0.3,0,0.5,0.1v1.5
				c-0.2,0-0.3-0.1-0.5-0.1c-1.1,0-1.9,0.9-2.1,2.1c0,0.2-0.1,0.5-0.1,0.7v4.7h-1.6V201.7z"/>
			<path class="st8" d="M79.9,203.3c0,3.3-2.3,4.7-4.4,4.7c-2.4,0-4.2-1.7-4.2-4.5c0-3,1.9-4.7,4.4-4.7
				C78.2,198.8,79.9,200.6,79.9,203.3z M72.9,203.4c0,1.9,1.1,3.4,2.7,3.4c1.5,0,2.7-1.4,2.7-3.4c0-1.5-0.7-3.4-2.6-3.4
				C73.7,200,72.9,201.7,72.9,203.4z"/>
			<path class="st8" d="M87.4,195.5v7.3c0,2.8,1.2,3.9,2.9,3.9c1.8,0,3-1.2,3-3.9v-7.3h1.6v7.2c0,3.8-2,5.3-4.6,5.3
				c-2.5,0-4.4-1.4-4.4-5.2v-7.2H87.4z"/>
			<path class="st8" d="M97.6,201.4c0-0.9,0-1.7-0.1-2.4h1.4l0.1,1.5h0c0.4-0.8,1.5-1.7,2.9-1.7c1.2,0,3.1,0.7,3.1,3.8v5.3h-1.6
				v-5.1c0-1.4-0.5-2.6-2-2.6c-1.1,0-1.9,0.7-2.1,1.6c-0.1,0.2-0.1,0.5-0.1,0.7v5.3h-1.6V201.4z"/>
			<path class="st8" d="M109.5,196.5c0,0.5-0.4,1-1,1c-0.6,0-1-0.4-1-1c0-0.6,0.4-1,1-1C109.1,195.5,109.5,195.9,109.5,196.5z
				 M107.7,207.8V199h1.6v8.8H107.7z"/>
			<path class="st8" d="M112.6,199l1.7,5c0.3,0.8,0.5,1.5,0.7,2.3h0.1c0.2-0.7,0.5-1.5,0.7-2.3l1.7-5h1.7l-3.5,8.8h-1.5l-3.4-8.8
				H112.6z"/>
			<path class="st8" d="M121.4,203.7c0,2.2,1.4,3.1,3,3.1c1.1,0,1.8-0.2,2.4-0.5l0.3,1.1c-0.6,0.3-1.5,0.5-2.9,0.5
				c-2.7,0-4.3-1.8-4.3-4.4c0-2.7,1.6-4.8,4.1-4.8c2.9,0,3.6,2.5,3.6,4.2c0,0.3,0,0.6-0.1,0.7H121.4z M126.1,202.5
				c0-1-0.4-2.6-2.2-2.6c-1.6,0-2.3,1.5-2.5,2.6H126.1z"/>
			<path class="st8" d="M129.7,201.7c0-1,0-1.9-0.1-2.8h1.4l0.1,1.7h0.1c0.4-1.2,1.4-1.9,2.4-1.9c0.2,0,0.3,0,0.5,0.1v1.5
				c-0.2,0-0.3-0.1-0.5-0.1c-1.1,0-1.9,0.9-2.1,2.1c0,0.2-0.1,0.5-0.1,0.7v4.7h-1.6V201.7z"/>
			<path class="st8" d="M135.4,206.2c0.5,0.3,1.3,0.6,2.1,0.6c1.2,0,1.7-0.6,1.7-1.3c0-0.8-0.5-1.2-1.6-1.6
				c-1.6-0.6-2.3-1.4-2.3-2.5c0-1.4,1.1-2.6,3-2.6c0.9,0,1.7,0.3,2.2,0.5l-0.4,1.2c-0.3-0.2-1-0.5-1.8-0.5c-0.9,0-1.5,0.5-1.5,1.2
				c0,0.7,0.5,1.1,1.7,1.5c1.5,0.6,2.3,1.3,2.3,2.7c0,1.5-1.2,2.6-3.3,2.6c-1,0-1.9-0.2-2.5-0.6L135.4,206.2z"/>
			<path class="st8" d="M144.6,196.5c0,0.5-0.4,1-1,1c-0.6,0-1-0.4-1-1c0-0.6,0.4-1,1-1C144.3,195.5,144.6,195.9,144.6,196.5z
				 M142.9,207.8V199h1.6v8.8H142.9z"/>
			<path class="st8" d="M149,196.5v2.5h2.3v1.2H149v4.8c0,1.1,0.3,1.7,1.2,1.7c0.4,0,0.7-0.1,0.9-0.1l0.1,1.2
				c-0.3,0.1-0.8,0.2-1.4,0.2c-0.7,0-1.3-0.2-1.7-0.7c-0.5-0.5-0.6-1.3-0.6-2.3v-4.8h-1.4V199h1.4v-2.1L149,196.5z"/>
			<path class="st8" d="M158,207.8l-0.1-1.1h-0.1c-0.5,0.7-1.4,1.3-2.7,1.3c-1.8,0-2.7-1.3-2.7-2.5c0-2.1,1.9-3.3,5.3-3.3V202
				c0-0.7-0.2-2-2-2c-0.8,0-1.7,0.3-2.3,0.7l-0.4-1.1c0.7-0.5,1.8-0.8,2.9-0.8c2.7,0,3.4,1.8,3.4,3.6v3.3c0,0.8,0,1.5,0.1,2.1H158z
				 M157.8,203.3c-1.7,0-3.7,0.3-3.7,2c0,1,0.7,1.5,1.5,1.5c1.1,0,1.9-0.7,2.1-1.5c0.1-0.2,0.1-0.3,0.1-0.5V203.3z"/>
			<path class="st8" d="M161.9,201.7c0-1,0-1.9-0.1-2.8h1.4l0.1,1.7h0.1c0.4-1.2,1.4-1.9,2.4-1.9c0.2,0,0.3,0,0.5,0.1v1.5
				c-0.2,0-0.3-0.1-0.5-0.1c-1.1,0-1.9,0.9-2.1,2.1c0,0.2-0.1,0.5-0.1,0.7v4.7h-1.6V201.7z"/>
			<path class="st8" d="M169.7,196.5c0,0.5-0.4,1-1,1c-0.6,0-1-0.4-1-1c0-0.6,0.4-1,1-1C169.4,195.5,169.7,195.9,169.7,196.5z
				 M168,207.8V199h1.6v8.8H168z"/>
			<path class="st8" d="M180.2,203.3c0,3.3-2.3,4.7-4.4,4.7c-2.4,0-4.2-1.7-4.2-4.5c0-3,1.9-4.7,4.4-4.7
				C178.5,198.8,180.2,200.6,180.2,203.3z M173.2,203.4c0,1.9,1.1,3.4,2.7,3.4c1.5,0,2.7-1.4,2.7-3.4c0-1.5-0.7-3.4-2.6-3.4
				C174,200,173.2,201.7,173.2,203.4z"/>
			<path class="st8" d="M4.2,227.7c0.7,0.4,1.7,0.8,2.8,0.8c1.6,0,2.6-0.9,2.6-2.1c0-1.1-0.7-1.8-2.3-2.4c-2-0.7-3.2-1.7-3.2-3.5
				c0-1.9,1.6-3.3,4-3.3c1.3,0,2.2,0.3,2.7,0.6l-0.4,1.3c-0.4-0.2-1.2-0.6-2.3-0.6c-1.7,0-2.3,1-2.3,1.8c0,1.1,0.7,1.7,2.4,2.4
				c2.1,0.8,3.1,1.8,3.1,3.6c0,1.9-1.4,3.5-4.3,3.5c-1.2,0-2.5-0.3-3.1-0.8L4.2,227.7z"/>
			<path class="st8" d="M14.4,225.6c0,2.2,1.4,3.1,3,3.1c1.1,0,1.8-0.2,2.4-0.5l0.3,1.1c-0.6,0.3-1.5,0.5-2.9,0.5
				c-2.7,0-4.3-1.8-4.3-4.4c0-2.7,1.6-4.8,4.1-4.8c2.9,0,3.6,2.5,3.6,4.2c0,0.3,0,0.6-0.1,0.7H14.4z M19.1,224.4
				c0-1-0.4-2.6-2.2-2.6c-1.6,0-2.3,1.5-2.5,2.6H19.1z"/>
			<path class="st8" d="M22.6,223.2c0-0.9,0-1.7-0.1-2.4h1.4l0.1,1.5h0c0.4-0.8,1.5-1.7,2.9-1.7c1.2,0,3.1,0.7,3.1,3.8v5.3h-1.6
				v-5.1c0-1.4-0.5-2.6-2-2.6c-1.1,0-1.9,0.7-2.1,1.6c-0.1,0.2-0.1,0.5-0.1,0.7v5.3h-1.6V223.2z"/>
			<path class="st8" d="M37.6,229.7l-0.1-1.1h-0.1c-0.5,0.7-1.4,1.3-2.7,1.3c-1.8,0-2.7-1.3-2.7-2.5c0-2.1,1.9-3.3,5.3-3.3v-0.2
				c0-0.7-0.2-2-2-2c-0.8,0-1.7,0.3-2.3,0.7l-0.4-1.1c0.7-0.5,1.8-0.8,2.9-0.8c2.7,0,3.4,1.8,3.4,3.6v3.3c0,0.8,0,1.5,0.1,2.1H37.6z
				 M37.4,225.2c-1.7,0-3.7,0.3-3.7,2c0,1,0.7,1.5,1.5,1.5c1.1,0,1.9-0.7,2.1-1.5c0.1-0.2,0.1-0.3,0.1-0.5V225.2z"/>
			<path class="st8" d="M47.8,229.3c-0.4,0.2-1.3,0.5-2.5,0.5c-2.7,0-4.4-1.8-4.4-4.5c0-2.7,1.9-4.7,4.7-4.7c0.9,0,1.8,0.2,2.2,0.5
				l-0.4,1.2c-0.4-0.2-1-0.4-1.9-0.4c-2,0-3.1,1.5-3.1,3.3c0,2,1.3,3.3,3.1,3.3c0.9,0,1.5-0.2,2-0.4L47.8,229.3z"/>
			<path class="st8" d="M48.4,231.9c0.4-1.1,0.9-3,1.1-4.4l1.8-0.2c-0.4,1.5-1.2,3.6-1.7,4.4L48.4,231.9z"/>
			<path class="st8" d="M56.9,227.7c0.7,0.4,1.7,0.8,2.8,0.8c1.6,0,2.6-0.9,2.6-2.1c0-1.1-0.7-1.8-2.3-2.4c-2-0.7-3.2-1.7-3.2-3.5
				c0-1.9,1.6-3.3,4-3.3c1.3,0,2.2,0.3,2.7,0.6l-0.4,1.3c-0.4-0.2-1.2-0.6-2.3-0.6c-1.7,0-2.3,1-2.3,1.8c0,1.1,0.7,1.7,2.4,2.4
				c2.1,0.8,3.1,1.8,3.1,3.6c0,1.9-1.4,3.5-4.3,3.5c-1.2,0-2.5-0.3-3.1-0.8L56.9,227.7z"/>
			<path class="st8" d="M71,229.7l-0.1-1.1h-0.1c-0.5,0.7-1.4,1.3-2.7,1.3c-1.8,0-2.7-1.3-2.7-2.5c0-2.1,1.9-3.3,5.3-3.3v-0.2
				c0-0.7-0.2-2-2-2c-0.8,0-1.7,0.3-2.3,0.7l-0.4-1.1c0.7-0.5,1.8-0.8,2.9-0.8c2.7,0,3.4,1.8,3.4,3.6v3.3c0,0.8,0,1.5,0.1,2.1H71z
				 M70.8,225.2c-1.7,0-3.7,0.3-3.7,2c0,1,0.7,1.5,1.5,1.5c1.1,0,1.9-0.7,2.1-1.5c0.1-0.2,0.1-0.3,0.1-0.5V225.2z"/>
			<path class="st8" d="M82.9,225.2c0,3.3-2.3,4.7-4.4,4.7c-2.4,0-4.2-1.7-4.2-4.5c0-3,1.9-4.7,4.4-4.7
				C81.2,220.7,82.9,222.5,82.9,225.2z M75.9,225.3c0,1.9,1.1,3.4,2.7,3.4c1.5,0,2.7-1.4,2.7-3.4c0-1.5-0.7-3.4-2.6-3.4
				C76.7,221.9,75.9,223.6,75.9,225.3z"/>
			<path class="st8" d="M88.8,217.5c0.8-0.1,1.8-0.2,3-0.2c1.6,0,2.7,0.4,3.4,1c0.7,0.6,1.1,1.5,1.1,2.6c0,1.1-0.3,2-0.9,2.6
				c-0.8,0.9-2.2,1.3-3.8,1.3c-0.5,0-0.9,0-1.3-0.1v4.9h-1.6V217.5z M90.4,223.5c0.3,0.1,0.8,0.1,1.3,0.1c1.9,0,3.1-0.9,3.1-2.6
				c0-1.6-1.1-2.4-2.9-2.4c-0.7,0-1.2,0.1-1.5,0.1V223.5z"/>
			<path class="st8" d="M102.9,229.7l-0.1-1.1h-0.1c-0.5,0.7-1.4,1.3-2.7,1.3c-1.8,0-2.7-1.3-2.7-2.5c0-2.1,1.9-3.3,5.3-3.3v-0.2
				c0-0.7-0.2-2-2-2c-0.8,0-1.7,0.3-2.3,0.7l-0.4-1.1c0.7-0.5,1.8-0.8,2.9-0.8c2.7,0,3.4,1.8,3.4,3.6v3.3c0,0.8,0,1.5,0.1,2.1H102.9
				z M102.7,225.2c-1.7,0-3.7,0.3-3.7,2c0,1,0.7,1.5,1.5,1.5c1.1,0,1.9-0.7,2.1-1.5c0.1-0.2,0.1-0.3,0.1-0.5V225.2z"/>
			<path class="st8" d="M114.2,227.3c0,0.9,0,1.7,0.1,2.4h-1.4l-0.1-1.4h0c-0.4,0.7-1.3,1.6-2.9,1.6c-1.4,0-3-0.8-3-3.9v-5.2h1.6
				v4.9c0,1.7,0.5,2.8,2,2.8c1.1,0,1.8-0.7,2.1-1.5c0.1-0.2,0.1-0.5,0.1-0.8v-5.4h1.6V227.3z"/>
			<path class="st8" d="M116.8,216.7h1.6v12.9h-1.6V216.7z"/>
			<path class="st8" d="M129.1,225.2c0,3.3-2.3,4.7-4.4,4.7c-2.4,0-4.2-1.7-4.2-4.5c0-3,1.9-4.7,4.4-4.7
				C127.4,220.7,129.1,222.5,129.1,225.2z M122.1,225.3c0,1.9,1.1,3.4,2.7,3.4c1.5,0,2.7-1.4,2.7-3.4c0-1.5-0.7-3.4-2.6-3.4
				C122.9,221.9,122.1,223.6,122.1,225.3z"/>
			<path class="st8" d="M129.7,231.9c0.4-1.1,0.9-3,1.1-4.4l1.8-0.2c-0.4,1.5-1.2,3.6-1.7,4.4L129.7,231.9z"/>
			<path class="st8" d="M138.4,217.6c0.7-0.1,1.8-0.3,2.9-0.3c1.6,0,2.6,0.3,3.4,0.9c0.6,0.5,1,1.2,1,2.2c0,1.2-0.8,2.2-2.1,2.7v0
				c1.2,0.3,2.5,1.3,2.5,3.1c0,1.1-0.4,1.9-1,2.5c-0.9,0.8-2.2,1.1-4.2,1.1c-1.1,0-1.9-0.1-2.5-0.1V217.6z M140,222.6h1.4
				c1.7,0,2.7-0.9,2.7-2.1c0-1.4-1.1-2-2.7-2c-0.7,0-1.1,0.1-1.4,0.1V222.6z M140,228.5c0.3,0.1,0.8,0.1,1.3,0.1
				c1.6,0,3.2-0.6,3.2-2.4c0-1.7-1.4-2.4-3.2-2.4H140V228.5z"/>
			<path class="st8" d="M148.2,223.6c0-1,0-1.9-0.1-2.8h1.4l0.1,1.7h0.1c0.4-1.2,1.4-1.9,2.4-1.9c0.2,0,0.3,0,0.5,0.1v1.5
				c-0.2,0-0.3-0.1-0.5-0.1c-1.1,0-1.9,0.9-2.1,2.1c0,0.2-0.1,0.5-0.1,0.7v4.7h-1.6V223.6z"/>
			<path class="st8" d="M159,229.7l-0.1-1.1h-0.1c-0.5,0.7-1.4,1.3-2.7,1.3c-1.8,0-2.7-1.3-2.7-2.5c0-2.1,1.9-3.3,5.3-3.3v-0.2
				c0-0.7-0.2-2-2-2c-0.8,0-1.7,0.3-2.3,0.7l-0.4-1.1c0.7-0.5,1.8-0.8,2.9-0.8c2.7,0,3.4,1.8,3.4,3.6v3.3c0,0.8,0,1.5,0.1,2.1H159z
				 M158.7,225.2c-1.7,0-3.7,0.3-3.7,2c0,1,0.7,1.5,1.5,1.5c1.1,0,1.9-0.7,2.1-1.5c0.1-0.2,0.1-0.3,0.1-0.5V225.2z"/>
			<path class="st8" d="M162.6,228c0.5,0.3,1.3,0.6,2.1,0.6c1.2,0,1.7-0.6,1.7-1.3c0-0.8-0.5-1.2-1.6-1.6c-1.6-0.6-2.3-1.4-2.3-2.5
				c0-1.4,1.1-2.6,3-2.6c0.9,0,1.7,0.3,2.2,0.5l-0.4,1.2c-0.3-0.2-1-0.5-1.8-0.5c-0.9,0-1.5,0.5-1.5,1.2c0,0.7,0.5,1.1,1.7,1.5
				c1.5,0.6,2.3,1.3,2.3,2.7c0,1.5-1.2,2.6-3.3,2.6c-1,0-1.9-0.2-2.5-0.6L162.6,228z"/>
			<path class="st8" d="M171.9,218.4c0,0.5-0.4,1-1,1c-0.6,0-1-0.4-1-1c0-0.6,0.4-1,1-1C171.5,217.4,171.9,217.8,171.9,218.4z
				 M170.1,229.7v-8.8h1.6v8.8H170.1z"/>
			<path class="st8" d="M174.3,216.7h1.6v12.9h-1.6V216.7z"/>
			<path class="st8" d="M178.1,228.7c0-0.7,0.5-1.1,1.1-1.1s1.1,0.5,1.1,1.1c0,0.7-0.4,1.1-1.1,1.1
				C178.5,229.9,178.1,229.4,178.1,228.7z"/>
		</g>
	</g>
</g>
<g>
	<path class="st0" d="M15.7,111.3h5.4V126l-1.8-0.4v-1c-1,0.8-2.2,1.3-3.6,1.3c-3,0-5.4-2.4-5.4-5.4v-18c0-3,2.4-5.4,5.4-5.4
		c3,0,5.4,2.4,5.4,5.4v3.3l-2.2,0.2v-3.6c0-1.8-1.5-3.2-3.2-3.2s-3.2,1.5-3.2,3.2v18c0,1.8,1.5,3.2,3.2,3.2s3.2-1.5,3.2-3.2v-7.2
		h-3.2V111.3z"/>
	<path class="st0" d="M35.4,125.6h-2.2v-9.3c0-2-1.6-3.6-3.6-3.6H27v12.9h-2.2v-28h4.8c3.2,0,5.8,2.6,5.8,5.8v3.4
		c0,1.9-1,3.7-2.4,4.7c1.5,1.1,2.4,2.8,2.4,4.7V125.6z M29.6,110.5c2,0,3.6-1.6,3.6-3.6v-3.4c0-2-1.6-3.6-3.6-3.6H27v10.7H29.6z"/>
	<path class="st0" d="M49.7,125.6h-2.2l-1.1-7.2h-5.7l-1.1,7.2h-2.2l4.3-28h3.6L49.7,125.6z M41.1,116.3h5L43.7,100h-0.1L41.1,116.3
		z"/>
	<path class="st0" d="M54.5,113.4v12.2h-2.2v-28h4.8c3.2,0,5.8,2.6,5.8,5.8v4.2c0,3.2-2.6,5.8-5.8,5.8H54.5z M57.1,111.3
		c2,0,3.6-1.6,3.6-3.6v-4.2c0-2-1.6-3.6-3.6-3.6h-2.6v11.5H57.1z"/>
	<path class="st0" d="M76.8,97.6v28h-2.2v-12.9h-6.5v12.9H66v-28h2.2v12.9h6.5V97.6H76.8z"/>
	<path class="st0" d="M80.9,125.6v-28h2.2v28H80.9z"/>
	<path class="st0" d="M95.6,107v-4.4c0-1.8-1.5-3.2-3.2-3.2s-3.2,1.5-3.2,3.2v18c0,1.8,1.5,3.2,3.2,3.2s3.2-1.5,3.2-3.2v-3.8h2.2
		v3.8c0,3-2.4,5.4-5.4,5.4c-3,0-5.4-2.4-5.4-5.4v-18c0-3,2.4-5.4,5.4-5.4c3,0,5.4,2.4,5.4,5.4v4.1L95.6,107z"/>
	<path class="st0" d="M117.5,119.8c0,3.2-2.6,5.8-5.8,5.8h-5v-28h5c3.2,0,5.8,2.6,5.8,5.8V119.8z M115.4,103.4c0-2-1.6-3.6-3.6-3.6
		h-2.8v23.7h2.8c2,0,3.6-1.6,3.6-3.7V103.4z"/>
	<path class="st0" d="M123.6,99.8v10.7h5v2.2h-5v10.7h7.1v2.2h-9.3v-28h9v2.2H123.6z"/>
	<path class="st0" d="M134.2,107.9c0,0-1.2-1.5-1.2-3.5v-1.9c0-3,2.4-5.4,5.4-5.4c3,0,5.4,2.4,5.4,5.4v3.5l-2.2,0.2v-3.7
		c0-1.8-1.5-3.2-3.2-3.2c-1.8,0-3.2,1.5-3.2,3.2v1.9c0,1.2,0.7,2.1,0.7,2.1l6.6,7.8c0,0,1.3,1.5,1.3,3.6v2.7c0,3-2.4,5.4-5.4,5.4
		c-3,0-5.4-2.4-5.4-5.4v-4.1l2.2-0.2v4.4c0,1.8,1.5,3.2,3.2,3.2c1.8,0,3.2-1.5,3.2-3.2v-2.7c0-1.2-0.8-2.2-0.8-2.2L134.2,107.9z"/>
	<path class="st0" d="M147.2,125.6v-28h2.2v28H147.2z"/>
	<path class="st0" d="M158.7,111.3h5.4V126l-1.8-0.4v-1c-1,0.8-2.2,1.3-3.6,1.3c-3,0-5.4-2.4-5.4-5.4v-18c0-3,2.4-5.4,5.4-5.4
		c3,0,5.4,2.4,5.4,5.4v3.3l-2.2,0.2v-3.6c0-1.8-1.5-3.2-3.2-3.2s-3.2,1.5-3.2,3.2v18c0,1.8,1.5,3.2,3.2,3.2s3.2-1.5,3.2-3.2v-7.2
		h-3.2V111.3z"/>
	<path class="st0" d="M167.8,97.6h2.6l6.6,21.2h0.1V97.6h2.2v28h-2.2l-7.1-22.4H170v22.4h-2.2V97.6z"/>
</g>
<rect id="XMLID_316_" x="8.4" y="132.6" class="st9" width="172.5" height="6.4"/>
</svg>
