<?xml version="1.0" encoding="utf-8"?>
<!-- Generator: Adobe Illustrator 22.0.0, SVG Export Plug-In . SVG Version: 6.00 Build 0)  -->
<svg version="1.1" id="Layer_1" xmlns="http://www.w3.org/2000/svg" xmlns:xlink="http://www.w3.org/1999/xlink" x="0px" y="0px"
	 viewBox="0 0 648 185.6" style="enable-background:new 0 0 648 185.6;" xml:space="preserve">
<style type="text/css">
	.st0{fill:#726658;}
	.st1{fill:#1E596D;}
	.st2{fill:#DED9D7;}
	.st3{fill:#FCFF26;}
	.st4{clip-path:url(#SVGID_2_);}
	.st5{fill:#00AA5B;}
	.st6{fill:#F9D10B;}
	.st7{fill:#005E9E;}
	.st8{fill:#FFFFFF;}
	.st9{fill:#00A460;}
</style>
<g>
	<g id="XMLID_319_">
		<g>
			<g>
				<path class="st0" d="M124.1,115.4c-0.7,0.3-2.1,0.7-3.8,0.7c-1.9,0-3.4-0.5-4.6-1.6c-1.1-1-1.7-2.7-1.7-4.6
					c0-3.7,2.5-6.3,6.6-6.3c1.4,0,2.5,0.3,3.1,0.6l-0.4,1.3c-0.7-0.3-1.5-0.5-2.7-0.5c-3,0-4.9,1.9-4.9,4.9c0,3.1,1.9,5,4.7,5
					c1,0,1.7-0.1,2.1-0.3v-3.7h-2.5v-1.3h4V115.4z"/>
				<path class="st0" d="M126.5,109.9c0-1,0-1.9-0.1-2.8h1.4l0.1,1.7h0.1c0.4-1.2,1.4-1.9,2.4-1.9c0.2,0,0.3,0,0.5,0.1v1.5
					c-0.2,0-0.3-0.1-0.5-0.1c-1.1,0-1.9,0.9-2.1,2.1c0,0.2-0.1,0.5-0.1,0.7v4.7h-1.6V109.9z"/>
				<path class="st0" d="M137.2,116l-0.1-1.1H137c-0.5,0.7-1.4,1.3-2.7,1.3c-1.8,0-2.7-1.3-2.7-2.5c0-2.1,1.9-3.3,5.3-3.3v-0.2
					c0-0.7-0.2-2-2-2c-0.8,0-1.7,0.3-2.3,0.7l-0.4-1.1c0.7-0.5,1.8-0.8,2.9-0.8c2.7,0,3.4,1.8,3.4,3.6v3.3c0,0.8,0,1.5,0.1,2.1
					H137.2z M137,111.5c-1.7,0-3.7,0.3-3.7,2c0,1,0.7,1.5,1.5,1.5c1.1,0,1.9-0.7,2.1-1.5c0.1-0.2,0.1-0.3,0.1-0.5V111.5z"/>
				<path class="st0" d="M141.1,110c0-1.1,0-2-0.1-2.9h1.4l0.1,1.5h0c0.7-1.1,1.7-1.7,3.1-1.7c2.1,0,3.7,1.8,3.7,4.5
					c0,3.2-1.9,4.7-4,4.7c-1.2,0-2.2-0.5-2.7-1.4h0v4.8h-1.6V110z M142.7,112.4c0,0.2,0,0.5,0.1,0.7c0.3,1.1,1.3,1.9,2.4,1.9
					c1.7,0,2.7-1.4,2.7-3.4c0-1.8-0.9-3.3-2.6-3.3c-1.1,0-2.1,0.8-2.4,2c-0.1,0.2-0.1,0.4-0.1,0.7V112.4z"/>
				<path class="st0" d="M151.5,103h1.6v5.5h0c0.3-0.5,0.7-0.9,1.1-1.1c0.5-0.3,1-0.5,1.6-0.5c1.2,0,3.1,0.7,3.1,3.8v5.2h-1.6v-5.1
					c0-1.4-0.5-2.6-2-2.6c-1,0-1.9,0.7-2.1,1.6c-0.1,0.2-0.1,0.5-0.1,0.8v5.3h-1.6V103z"/>
				<path class="st0" d="M163.4,104.7c0,0.5-0.4,1-1,1c-0.6,0-1-0.4-1-1c0-0.6,0.4-1,1-1C163,103.7,163.4,104.1,163.4,104.7z
					 M161.6,116v-8.8h1.6v8.8H161.6z"/>
				<path class="st0" d="M172.1,115.6c-0.4,0.2-1.3,0.5-2.5,0.5c-2.7,0-4.4-1.8-4.4-4.5c0-2.7,1.9-4.7,4.7-4.7
					c0.9,0,1.8,0.2,2.2,0.5l-0.4,1.2c-0.4-0.2-1-0.4-1.9-0.4c-2,0-3.1,1.5-3.1,3.3c0,2,1.3,3.3,3.1,3.3c0.9,0,1.5-0.2,2-0.4
					L172.1,115.6z"/>
				<path class="st0" d="M177.9,103.8c1-0.1,2.1-0.3,3.4-0.3c2.3,0,3.9,0.5,5,1.5c1.1,1,1.7,2.4,1.7,4.4c0,2-0.6,3.6-1.8,4.8
					c-1.1,1.1-3,1.8-5.4,1.8c-1.1,0-2.1-0.1-2.9-0.1V103.8z M179.5,114.7c0.4,0.1,1,0.1,1.6,0.1c3.4,0,5.2-1.9,5.2-5.2
					c0-2.9-1.6-4.7-5-4.7c-0.8,0-1.4,0.1-1.9,0.2V114.7z"/>
				<path class="st0" d="M191,111.8c0,2.2,1.4,3.1,3,3.1c1.1,0,1.8-0.2,2.4-0.5l0.3,1.1c-0.6,0.3-1.5,0.5-2.9,0.5
					c-2.7,0-4.3-1.8-4.3-4.4c0-2.7,1.6-4.8,4.1-4.8c2.9,0,3.6,2.5,3.6,4.2c0,0.3,0,0.6-0.1,0.7H191z M195.7,110.7
					c0-1-0.4-2.6-2.2-2.6c-1.6,0-2.3,1.5-2.5,2.6H195.7z"/>
				<path class="st0" d="M199,114.3c0.5,0.3,1.3,0.6,2.1,0.6c1.2,0,1.7-0.6,1.7-1.3c0-0.8-0.5-1.2-1.6-1.6c-1.6-0.6-2.3-1.4-2.3-2.5
					c0-1.4,1.1-2.6,3-2.6c0.9,0,1.7,0.3,2.2,0.5l-0.4,1.2c-0.3-0.2-1-0.5-1.8-0.5c-0.9,0-1.5,0.5-1.5,1.2c0,0.7,0.5,1.1,1.7,1.5
					c1.5,0.6,2.3,1.3,2.3,2.7c0,1.5-1.2,2.6-3.3,2.6c-1,0-1.9-0.2-2.5-0.6L199,114.3z"/>
				<path class="st0" d="M208.2,104.7c0,0.5-0.4,1-1,1c-0.6,0-1-0.4-1-1c0-0.6,0.4-1,1-1C207.8,103.7,208.2,104.1,208.2,104.7z
					 M206.4,116v-8.8h1.6v8.8H206.4z"/>
				<path class="st0" d="M218.3,107.1c0,0.6-0.1,1.3-0.1,2.4v5.1c0,2-0.4,3.3-1.3,4c-0.9,0.8-2.1,1.1-3.2,1.1
					c-1.1,0-2.2-0.3-2.9-0.7l0.4-1.2c0.6,0.4,1.5,0.7,2.6,0.7c1.6,0,2.8-0.9,2.8-3.1v-1h0c-0.5,0.8-1.4,1.5-2.8,1.5
					c-2.2,0-3.8-1.9-3.8-4.3c0-3,1.9-4.7,4-4.7c1.5,0,2.4,0.8,2.8,1.5h0l0.1-1.3H218.3z M216.6,110.6c0-0.3,0-0.5-0.1-0.7
					c-0.3-0.9-1.1-1.7-2.2-1.7c-1.5,0-2.6,1.3-2.6,3.3c0,1.7,0.9,3.2,2.6,3.2c1,0,1.9-0.6,2.2-1.6c0.1-0.3,0.1-0.6,0.1-0.9V110.6z"
					/>
				<path class="st0" d="M220.8,109.5c0-0.9,0-1.7-0.1-2.4h1.4l0.1,1.5h0c0.4-0.8,1.5-1.7,2.9-1.7c1.2,0,3.1,0.7,3.1,3.8v5.3h-1.6
					v-5.1c0-1.4-0.5-2.6-2-2.6c-1.1,0-1.9,0.7-2.1,1.6c-0.1,0.2-0.1,0.5-0.1,0.7v5.3h-1.6V109.5z"/>
				<path class="st0" d="M76.5,125.7c0.7-0.1,1.8-0.3,2.9-0.3c1.6,0,2.6,0.3,3.4,0.9c0.6,0.5,1,1.2,1,2.2c0,1.2-0.8,2.2-2.1,2.7v0
					c1.2,0.3,2.5,1.3,2.5,3.1c0,1.1-0.4,1.9-1,2.5c-0.9,0.8-2.2,1.1-4.2,1.1c-1.1,0-1.9-0.1-2.5-0.1V125.7z M78.1,130.7h1.4
					c1.7,0,2.7-0.9,2.7-2.1c0-1.4-1.1-2-2.7-2c-0.7,0-1.1,0.1-1.4,0.1V130.7z M78.1,136.6c0.3,0.1,0.8,0.1,1.3,0.1
					c1.6,0,3.2-0.6,3.2-2.4c0-1.7-1.4-2.4-3.2-2.4h-1.3V136.6z"/>
				<path class="st0" d="M91.2,137.8l-0.1-1.1H91c-0.5,0.7-1.4,1.3-2.7,1.3c-1.8,0-2.7-1.3-2.7-2.5c0-2.1,1.9-3.3,5.3-3.3V132
					c0-0.7-0.2-2-2-2c-0.8,0-1.7,0.3-2.3,0.7l-0.4-1.1c0.7-0.5,1.8-0.8,2.9-0.8c2.7,0,3.4,1.8,3.4,3.6v3.3c0,0.8,0,1.5,0.1,2.1H91.2
					z M91,133.3c-1.7,0-3.7,0.3-3.7,2c0,1,0.7,1.5,1.5,1.5c1.1,0,1.9-0.7,2.1-1.5c0.1-0.2,0.1-0.3,0.1-0.5V133.3z"/>
				<path class="st0" d="M101.4,137.5c-0.4,0.2-1.3,0.5-2.5,0.5c-2.7,0-4.4-1.8-4.4-4.5c0-2.7,1.9-4.7,4.7-4.7
					c0.9,0,1.8,0.2,2.2,0.5l-0.4,1.2c-0.4-0.2-1-0.4-1.9-0.4c-2,0-3.1,1.5-3.1,3.3c0,2,1.3,3.3,3.1,3.3c0.9,0,1.5-0.2,2-0.4
					L101.4,137.5z"/>
				<path class="st0" d="M103.3,124.9h1.6v5.5h0c0.3-0.5,0.7-0.9,1.1-1.1c0.5-0.3,1-0.5,1.6-0.5c1.2,0,3.1,0.7,3.1,3.8v5.2h-1.6
					v-5.1c0-1.4-0.5-2.6-2-2.6c-1,0-1.9,0.7-2.1,1.6c-0.1,0.2-0.1,0.5-0.1,0.8v5.3h-1.6V124.9z"/>
				<path class="st0" d="M114.3,133.7c0,2.2,1.4,3.1,3,3.1c1.1,0,1.8-0.2,2.4-0.5l0.3,1.1c-0.6,0.3-1.5,0.5-2.9,0.5
					c-2.7,0-4.3-1.8-4.3-4.4c0-2.7,1.6-4.8,4.1-4.8c2.9,0,3.6,2.5,3.6,4.2c0,0.3,0,0.6-0.1,0.7H114.3z M119,132.6
					c0-1-0.4-2.6-2.2-2.6c-1.6,0-2.3,1.5-2.5,2.6H119z"/>
				<path class="st0" d="M122.5,124.9h1.6v12.9h-1.6V124.9z"/>
				<path class="st0" d="M134.8,133.3c0,3.3-2.3,4.7-4.4,4.7c-2.4,0-4.2-1.7-4.2-4.5c0-3,1.9-4.7,4.4-4.7
					C133.1,128.8,134.8,130.6,134.8,133.3z M127.8,133.4c0,1.9,1.1,3.4,2.7,3.4c1.5,0,2.7-1.4,2.7-3.4c0-1.5-0.7-3.4-2.6-3.4
					C128.6,130,127.8,131.8,127.8,133.4z"/>
				<path class="st0" d="M136.8,131.8c0-1,0-1.9-0.1-2.8h1.4l0.1,1.7h0.1c0.4-1.2,1.4-1.9,2.4-1.9c0.2,0,0.3,0,0.5,0.1v1.5
					c-0.2,0-0.3-0.1-0.5-0.1c-1.1,0-1.9,0.9-2.1,2.1c0,0.2-0.1,0.5-0.1,0.7v4.7h-1.6V131.8z"/>
				<path class="st0" d="M145.3,125.3c-0.4,1.5-1.2,3.5-1.7,4.3l-1,0.1c0.4-1.1,0.9-3,1.1-4.3L145.3,125.3z"/>
				<path class="st0" d="M145.5,136.2c0.5,0.3,1.3,0.6,2.1,0.6c1.2,0,1.7-0.6,1.7-1.3c0-0.8-0.5-1.2-1.6-1.6
					c-1.6-0.6-2.3-1.4-2.3-2.5c0-1.4,1.1-2.6,3-2.6c0.9,0,1.7,0.3,2.2,0.5l-0.4,1.2c-0.3-0.2-1-0.5-1.8-0.5c-0.9,0-1.5,0.5-1.5,1.2
					c0,0.7,0.5,1.1,1.7,1.5c1.5,0.6,2.3,1.3,2.3,2.7c0,1.5-1.2,2.6-3.3,2.6c-1,0-1.9-0.2-2.5-0.6L145.5,136.2z"/>
				<path class="st0" d="M156.9,125.7c1-0.1,2.1-0.3,3.4-0.3c2.3,0,3.9,0.5,5,1.5c1.1,1,1.7,2.4,1.7,4.4c0,2-0.6,3.6-1.8,4.8
					c-1.1,1.1-3,1.8-5.4,1.8c-1.1,0-2.1-0.1-2.9-0.1V125.7z M158.5,136.6c0.4,0.1,1,0.1,1.6,0.1c3.4,0,5.2-1.9,5.2-5.2
					c0-2.9-1.6-4.7-5-4.7c-0.8,0-1.4,0.1-1.9,0.2V136.6z"/>
				<path class="st0" d="M169.9,133.7c0,2.2,1.4,3.1,3,3.1c1.1,0,1.8-0.2,2.4-0.5l0.3,1.1c-0.6,0.3-1.5,0.5-2.9,0.5
					c-2.7,0-4.3-1.8-4.3-4.4c0-2.7,1.6-4.8,4.1-4.8c2.9,0,3.6,2.5,3.6,4.2c0,0.3,0,0.6-0.1,0.7H169.9z M174.6,132.6
					c0-1-0.4-2.6-2.2-2.6c-1.6,0-2.3,1.5-2.5,2.6H174.6z"/>
				<path class="st0" d="M185.8,129c0,0.6-0.1,1.3-0.1,2.4v5.1c0,2-0.4,3.3-1.3,4c-0.9,0.8-2.1,1.1-3.2,1.1c-1.1,0-2.2-0.3-2.9-0.7
					l0.4-1.2c0.6,0.4,1.5,0.7,2.6,0.7c1.6,0,2.8-0.9,2.8-3.1v-1h0c-0.5,0.8-1.4,1.5-2.8,1.5c-2.2,0-3.8-1.9-3.8-4.3
					c0-3,1.9-4.7,4-4.7c1.5,0,2.4,0.8,2.8,1.5h0l0.1-1.3H185.8z M184.1,132.5c0-0.3,0-0.5-0.1-0.7c-0.3-0.9-1.1-1.7-2.2-1.7
					c-1.5,0-2.6,1.3-2.6,3.3c0,1.7,0.9,3.2,2.6,3.2c1,0,1.9-0.6,2.2-1.6c0.1-0.3,0.1-0.6,0.1-0.9V132.5z"/>
				<path class="st0" d="M188.3,131.8c0-1,0-1.9-0.1-2.8h1.4l0.1,1.7h0.1c0.4-1.2,1.4-1.9,2.4-1.9c0.2,0,0.3,0,0.5,0.1v1.5
					c-0.2,0-0.3-0.1-0.5-0.1c-1.1,0-1.9,0.9-2.1,2.1c0,0.2-0.1,0.5-0.1,0.7v4.7h-1.6V131.8z"/>
				<path class="st0" d="M194.9,133.7c0,2.2,1.4,3.1,3,3.1c1.1,0,1.8-0.2,2.4-0.5l0.3,1.1c-0.6,0.3-1.5,0.5-2.9,0.5
					c-2.7,0-4.3-1.8-4.3-4.4c0-2.7,1.6-4.8,4.1-4.8c2.9,0,3.6,2.5,3.6,4.2c0,0.3,0,0.6-0.1,0.7H194.9z M199.6,132.6
					c0-1-0.4-2.6-2.2-2.6c-1.6,0-2.3,1.5-2.5,2.6H199.6z"/>
				<path class="st0" d="M204,133.7c0,2.2,1.4,3.1,3,3.1c1.1,0,1.8-0.2,2.4-0.5l0.3,1.1c-0.6,0.3-1.5,0.5-2.9,0.5
					c-2.7,0-4.3-1.8-4.3-4.4c0-2.7,1.6-4.8,4.1-4.8c2.9,0,3.6,2.5,3.6,4.2c0,0.3,0,0.6-0.1,0.7H204z M208.7,132.6
					c0-1-0.4-2.6-2.2-2.6c-1.6,0-2.3,1.5-2.5,2.6H208.7z"/>
				<path class="st0" d="M221,137.8l-0.1-1.1h-0.1c-0.5,0.7-1.4,1.3-2.7,1.3c-1.8,0-2.7-1.3-2.7-2.5c0-2.1,1.9-3.3,5.3-3.3V132
					c0-0.7-0.2-2-2-2c-0.8,0-1.7,0.3-2.3,0.7l-0.4-1.1c0.7-0.5,1.8-0.8,2.9-0.8c2.7,0,3.4,1.8,3.4,3.6v3.3c0,0.8,0,1.5,0.1,2.1H221z
					 M220.8,133.3c-1.7,0-3.7,0.3-3.7,2c0,1,0.7,1.5,1.5,1.5c1.1,0,1.9-0.7,2.1-1.5c0.1-0.2,0.1-0.3,0.1-0.5V133.3z"/>
				<path class="st0" d="M226.8,126.5v2.5h2.3v1.2h-2.3v4.8c0,1.1,0.3,1.7,1.2,1.7c0.4,0,0.7-0.1,0.9-0.1l0.1,1.2
					c-0.3,0.1-0.8,0.2-1.4,0.2c-0.7,0-1.3-0.2-1.7-0.7c-0.5-0.5-0.6-1.3-0.6-2.3v-4.8h-1.4V129h1.4v-2.1L226.8,126.5z"/>
				<path class="st0" d="M87.9,159.3c-0.6,0.3-1.7,0.6-3.2,0.6c-3.5,0-6.1-2.2-6.1-6.2c0-3.8,2.6-6.5,6.4-6.5c1.5,0,2.5,0.3,2.9,0.5
					l-0.4,1.3c-0.6-0.3-1.5-0.5-2.5-0.5c-2.9,0-4.8,1.8-4.8,5.1c0,3,1.7,4.9,4.7,4.9c1,0,1.9-0.2,2.6-0.5L87.9,159.3z"/>
				<path class="st0" d="M90.5,155.6c0,2.2,1.4,3.1,3,3.1c1.1,0,1.8-0.2,2.4-0.5l0.3,1.1c-0.6,0.3-1.5,0.5-2.9,0.5
					c-2.7,0-4.3-1.8-4.3-4.4c0-2.7,1.6-4.8,4.1-4.8c2.9,0,3.6,2.5,3.6,4.2c0,0.3,0,0.6-0.1,0.7H90.5z M95.2,154.4
					c0-1-0.4-2.6-2.2-2.6c-1.6,0-2.3,1.5-2.5,2.6H95.2z"/>
				<path class="st0" d="M98.8,153.3c0-0.9,0-1.7-0.1-2.4h1.4l0.1,1.5h0c0.4-0.8,1.5-1.7,2.9-1.7c1.2,0,3.1,0.7,3.1,3.8v5.3h-1.6
					v-5.1c0-1.4-0.5-2.6-2-2.6c-1.1,0-1.9,0.7-2.1,1.6c-0.1,0.2-0.1,0.5-0.1,0.7v5.3h-1.6V153.3z"/>
				<path class="st0" d="M110.7,148.3v2.5h2.3v1.2h-2.3v4.8c0,1.1,0.3,1.7,1.2,1.7c0.4,0,0.7-0.1,0.9-0.1l0.1,1.2
					c-0.3,0.1-0.8,0.2-1.4,0.2c-0.7,0-1.3-0.2-1.7-0.7c-0.5-0.5-0.6-1.3-0.6-2.3v-4.8h-1.4v-1.2h1.4v-2.1L110.7,148.3z"/>
				<path class="st0" d="M114.8,153.6c0-1,0-1.9-0.1-2.8h1.4l0.1,1.7h0.1c0.4-1.2,1.4-1.9,2.4-1.9c0.2,0,0.3,0,0.5,0.1v1.5
					c-0.2,0-0.3-0.1-0.5-0.1c-1.1,0-1.9,0.9-2.1,2.1c0,0.2-0.1,0.5-0.1,0.7v4.7h-1.6V153.6z"/>
				<path class="st0" d="M128.6,155.2c0,3.3-2.3,4.7-4.4,4.7c-2.4,0-4.2-1.7-4.2-4.5c0-3,1.9-4.7,4.4-4.7
					C126.9,150.7,128.6,152.5,128.6,155.2z M121.6,155.3c0,1.9,1.1,3.4,2.7,3.4c1.5,0,2.7-1.4,2.7-3.4c0-1.5-0.7-3.4-2.6-3.4
					C122.4,151.9,121.6,153.6,121.6,155.3z"/>
				<path class="st0" d="M136.1,147.4v7.3c0,2.8,1.2,3.9,2.9,3.9c1.8,0,3-1.2,3-3.9v-7.3h1.6v7.2c0,3.8-2,5.3-4.6,5.3
					c-2.5,0-4.4-1.4-4.4-5.2v-7.2H136.1z"/>
				<path class="st0" d="M146.3,153.3c0-0.9,0-1.7-0.1-2.4h1.4l0.1,1.5h0c0.4-0.8,1.5-1.7,2.9-1.7c1.2,0,3.1,0.7,3.1,3.8v5.3h-1.6
					v-5.1c0-1.4-0.5-2.6-2-2.6c-1.1,0-1.9,0.7-2.1,1.6c-0.1,0.2-0.1,0.5-0.1,0.7v5.3h-1.6V153.3z"/>
				<path class="st0" d="M158.2,148.4c0,0.5-0.4,1-1,1c-0.6,0-1-0.4-1-1c0-0.6,0.4-1,1-1C157.8,147.4,158.2,147.8,158.2,148.4z
					 M156.4,159.7v-8.8h1.6v8.8H156.4z"/>
				<path class="st0" d="M161.2,150.9l1.7,5c0.3,0.8,0.5,1.5,0.7,2.3h0.1c0.2-0.7,0.5-1.5,0.7-2.3l1.7-5h1.7l-3.5,8.8h-1.5l-3.4-8.8
					H161.2z"/>
				<path class="st0" d="M170.1,155.6c0,2.2,1.4,3.1,3,3.1c1.1,0,1.8-0.2,2.4-0.5l0.3,1.1c-0.6,0.3-1.5,0.5-2.9,0.5
					c-2.7,0-4.3-1.8-4.3-4.4c0-2.7,1.6-4.8,4.1-4.8c2.9,0,3.6,2.5,3.6,4.2c0,0.3,0,0.6-0.1,0.7H170.1z M174.8,154.4
					c0-1-0.4-2.6-2.2-2.6c-1.6,0-2.3,1.5-2.5,2.6H174.8z"/>
				<path class="st0" d="M178.3,153.6c0-1,0-1.9-0.1-2.8h1.4l0.1,1.7h0.1c0.4-1.2,1.4-1.9,2.4-1.9c0.2,0,0.3,0,0.5,0.1v1.5
					c-0.2,0-0.3-0.1-0.5-0.1c-1.1,0-1.9,0.9-2.1,2.1c0,0.2-0.1,0.5-0.1,0.7v4.7h-1.6V153.6z"/>
				<path class="st0" d="M184.1,158c0.5,0.3,1.3,0.6,2.1,0.6c1.2,0,1.7-0.6,1.7-1.3c0-0.8-0.5-1.2-1.6-1.6c-1.6-0.6-2.3-1.4-2.3-2.5
					c0-1.4,1.1-2.6,3-2.6c0.9,0,1.7,0.3,2.2,0.5l-0.4,1.2c-0.3-0.2-1-0.5-1.8-0.5c-0.9,0-1.5,0.5-1.5,1.2c0,0.7,0.5,1.1,1.7,1.5
					c1.5,0.6,2.3,1.3,2.3,2.7c0,1.5-1.2,2.6-3.3,2.6c-1,0-1.9-0.2-2.5-0.6L184.1,158z"/>
				<path class="st0" d="M193.3,148.4c0,0.5-0.4,1-1,1c-0.6,0-1-0.4-1-1c0-0.6,0.4-1,1-1C192.9,147.4,193.3,147.8,193.3,148.4z
					 M191.5,159.7v-8.8h1.6v8.8H191.5z"/>
				<path class="st0" d="M197.7,148.3v2.5h2.3v1.2h-2.3v4.8c0,1.1,0.3,1.7,1.2,1.7c0.4,0,0.7-0.1,0.9-0.1l0.1,1.2
					c-0.3,0.1-0.8,0.2-1.4,0.2c-0.7,0-1.3-0.2-1.7-0.7c-0.5-0.5-0.6-1.3-0.6-2.3v-4.8h-1.4v-1.2h1.4v-2.1L197.7,148.3z"/>
				<path class="st0" d="M206.7,159.7l-0.1-1.1h-0.1c-0.5,0.7-1.4,1.3-2.7,1.3c-1.8,0-2.7-1.3-2.7-2.5c0-2.1,1.9-3.3,5.3-3.3v-0.2
					c0-0.7-0.2-2-2-2c-0.8,0-1.7,0.3-2.3,0.7l-0.4-1.1c0.7-0.5,1.8-0.8,2.9-0.8c2.7,0,3.4,1.8,3.4,3.6v3.3c0,0.8,0,1.5,0.1,2.1
					H206.7z M206.5,155.2c-1.7,0-3.7,0.3-3.7,2c0,1,0.7,1.5,1.5,1.5c1.1,0,1.9-0.7,2.1-1.5c0.1-0.2,0.1-0.3,0.1-0.5V155.2z"/>
				<path class="st0" d="M210.6,153.6c0-1,0-1.9-0.1-2.8h1.4l0.1,1.7h0.1c0.4-1.2,1.4-1.9,2.4-1.9c0.2,0,0.3,0,0.5,0.1v1.5
					c-0.2,0-0.3-0.1-0.5-0.1c-1.1,0-1.9,0.9-2.1,2.1c0,0.2-0.1,0.5-0.1,0.7v4.7h-1.6V153.6z"/>
				<path class="st0" d="M218.4,148.4c0,0.5-0.4,1-1,1c-0.6,0-1-0.4-1-1c0-0.6,0.4-1,1-1C218,147.4,218.4,147.8,218.4,148.4z
					 M216.6,159.7v-8.8h1.6v8.8H216.6z"/>
				<path class="st0" d="M228.9,155.2c0,3.3-2.3,4.7-4.4,4.7c-2.4,0-4.2-1.7-4.2-4.5c0-3,1.9-4.7,4.4-4.7
					C227.2,150.7,228.9,152.5,228.9,155.2z M221.9,155.3c0,1.9,1.1,3.4,2.7,3.4c1.5,0,2.7-1.4,2.7-3.4c0-1.5-0.7-3.4-2.6-3.4
					C222.7,151.9,221.9,153.6,221.9,155.3z"/>
				<path class="st0" d="M52.9,179.6c0.7,0.4,1.7,0.8,2.8,0.8c1.6,0,2.6-0.9,2.6-2.1c0-1.1-0.7-1.8-2.3-2.4c-2-0.7-3.2-1.7-3.2-3.5
					c0-1.9,1.6-3.3,4-3.3c1.3,0,2.2,0.3,2.7,0.6L59,171c-0.4-0.2-1.2-0.6-2.3-0.6c-1.7,0-2.3,1-2.3,1.8c0,1.1,0.7,1.7,2.4,2.4
					c2.1,0.8,3.1,1.8,3.1,3.6c0,1.9-1.4,3.5-4.3,3.5c-1.2,0-2.5-0.3-3.1-0.8L52.9,179.6z"/>
				<path class="st0" d="M63,177.4c0,2.2,1.4,3.1,3,3.1c1.1,0,1.8-0.2,2.4-0.5l0.3,1.1c-0.6,0.3-1.5,0.5-2.9,0.5
					c-2.7,0-4.3-1.8-4.3-4.4c0-2.7,1.6-4.8,4.1-4.8c2.9,0,3.6,2.5,3.6,4.2c0,0.3,0,0.6-0.1,0.7H63z M67.7,176.3c0-1-0.4-2.6-2.2-2.6
					c-1.6,0-2.3,1.5-2.5,2.6H67.7z"/>
				<path class="st0" d="M71.3,175.1c0-0.9,0-1.7-0.1-2.4h1.4l0.1,1.5h0c0.4-0.8,1.5-1.7,2.9-1.7c1.2,0,3.1,0.7,3.1,3.8v5.3h-1.6
					v-5.1c0-1.4-0.5-2.6-2-2.6c-1.1,0-1.9,0.7-2.1,1.6c-0.1,0.2-0.1,0.5-0.1,0.7v5.3h-1.6V175.1z"/>
				<path class="st0" d="M86.3,181.5l-0.1-1.1h-0.1c-0.5,0.7-1.4,1.3-2.7,1.3c-1.8,0-2.7-1.3-2.7-2.5c0-2.1,1.9-3.3,5.3-3.3v-0.2
					c0-0.7-0.2-2-2-2c-0.8,0-1.7,0.3-2.3,0.7l-0.4-1.1c0.7-0.5,1.8-0.8,2.9-0.8c2.7,0,3.4,1.8,3.4,3.6v3.3c0,0.8,0,1.5,0.1,2.1H86.3
					z M86,177c-1.7,0-3.7,0.3-3.7,2c0,1,0.7,1.5,1.5,1.5c1.1,0,1.9-0.7,2.1-1.5c0.1-0.2,0.1-0.3,0.1-0.5V177z"/>
				<path class="st0" d="M96.4,181.2c-0.4,0.2-1.3,0.5-2.5,0.5c-2.7,0-4.4-1.8-4.4-4.5c0-2.7,1.9-4.7,4.7-4.7c0.9,0,1.8,0.2,2.2,0.5
					l-0.4,1.2c-0.4-0.2-1-0.4-1.9-0.4c-2,0-3.1,1.5-3.1,3.3c0,2,1.3,3.3,3.1,3.3c0.9,0,1.5-0.2,2-0.4L96.4,181.2z"/>
				<path class="st0" d="M97.1,183.8c0.4-1.1,0.9-3,1.1-4.4l1.8-0.2c-0.4,1.5-1.2,3.6-1.7,4.4L97.1,183.8z"/>
				<path class="st0" d="M105.6,179.6c0.7,0.4,1.7,0.8,2.8,0.8c1.6,0,2.6-0.9,2.6-2.1c0-1.1-0.7-1.8-2.3-2.4c-2-0.7-3.2-1.7-3.2-3.5
					c0-1.9,1.6-3.3,4-3.3c1.3,0,2.2,0.3,2.7,0.6l-0.4,1.3c-0.4-0.2-1.2-0.6-2.3-0.6c-1.7,0-2.3,1-2.3,1.8c0,1.1,0.7,1.7,2.4,2.4
					c2.1,0.8,3.1,1.8,3.1,3.6c0,1.9-1.4,3.5-4.3,3.5c-1.2,0-2.5-0.3-3.1-0.8L105.6,179.6z"/>
				<path class="st0" d="M119.7,181.5l-0.1-1.1h-0.1c-0.5,0.7-1.4,1.3-2.7,1.3c-1.8,0-2.7-1.3-2.7-2.5c0-2.1,1.9-3.3,5.3-3.3v-0.2
					c0-0.7-0.2-2-2-2c-0.8,0-1.7,0.3-2.3,0.7l-0.4-1.1c0.7-0.5,1.8-0.8,2.9-0.8c2.7,0,3.4,1.8,3.4,3.6v3.3c0,0.8,0,1.5,0.1,2.1
					H119.7z M119.5,177c-1.7,0-3.7,0.3-3.7,2c0,1,0.7,1.5,1.5,1.5c1.1,0,1.9-0.7,2.1-1.5c0.1-0.2,0.1-0.3,0.1-0.5V177z"/>
				<path class="st0" d="M131.6,177.1c0,3.3-2.3,4.7-4.4,4.7c-2.4,0-4.2-1.7-4.2-4.5c0-3,1.9-4.7,4.4-4.7
					C129.9,172.5,131.6,174.4,131.6,177.1z M124.6,177.2c0,1.9,1.1,3.4,2.7,3.4c1.5,0,2.7-1.4,2.7-3.4c0-1.5-0.7-3.4-2.6-3.4
					C125.4,173.7,124.6,175.5,124.6,177.2z"/>
				<path class="st0" d="M137.5,169.4c0.8-0.1,1.8-0.2,3-0.2c1.6,0,2.7,0.4,3.4,1c0.7,0.6,1.1,1.5,1.1,2.6c0,1.1-0.3,2-0.9,2.6
					c-0.8,0.9-2.2,1.3-3.8,1.3c-0.5,0-0.9,0-1.3-0.1v4.9h-1.6V169.4z M139.1,175.3c0.3,0.1,0.8,0.1,1.3,0.1c1.9,0,3.1-0.9,3.1-2.6
					c0-1.6-1.1-2.4-2.9-2.4c-0.7,0-1.2,0.1-1.5,0.1V175.3z"/>
				<path class="st0" d="M151.6,181.5l-0.1-1.1h-0.1c-0.5,0.7-1.4,1.3-2.7,1.3c-1.8,0-2.7-1.3-2.7-2.5c0-2.1,1.9-3.3,5.3-3.3v-0.2
					c0-0.7-0.2-2-2-2c-0.8,0-1.7,0.3-2.3,0.7l-0.4-1.1c0.7-0.5,1.8-0.8,2.9-0.8c2.7,0,3.4,1.8,3.4,3.6v3.3c0,0.8,0,1.5,0.1,2.1
					H151.6z M151.3,177c-1.7,0-3.7,0.3-3.7,2c0,1,0.7,1.5,1.5,1.5c1.1,0,1.9-0.7,2.1-1.5c0.1-0.2,0.1-0.3,0.1-0.5V177z"/>
				<path class="st0" d="M162.8,179.1c0,0.9,0,1.7,0.1,2.4h-1.4l-0.1-1.4h0c-0.4,0.7-1.3,1.6-2.9,1.6c-1.4,0-3-0.8-3-3.9v-5.2h1.6
					v4.9c0,1.7,0.5,2.8,2,2.8c1.1,0,1.8-0.7,2.1-1.5c0.1-0.2,0.1-0.5,0.1-0.8v-5.4h1.6V179.1z"/>
				<path class="st0" d="M165.5,168.6h1.6v12.9h-1.6V168.6z"/>
				<path class="st0" d="M177.8,177.1c0,3.3-2.3,4.7-4.4,4.7c-2.4,0-4.2-1.7-4.2-4.5c0-3,1.9-4.7,4.4-4.7
					C176.1,172.5,177.8,174.4,177.8,177.1z M170.8,177.2c0,1.9,1.1,3.4,2.7,3.4c1.5,0,2.7-1.4,2.7-3.4c0-1.5-0.7-3.4-2.6-3.4
					C171.6,173.7,170.8,175.5,170.8,177.2z"/>
				<path class="st0" d="M178.3,183.8c0.4-1.1,0.9-3,1.1-4.4l1.8-0.2c-0.4,1.5-1.2,3.6-1.7,4.4L178.3,183.8z"/>
				<path class="st0" d="M187,169.4c0.7-0.1,1.8-0.3,2.9-0.3c1.6,0,2.6,0.3,3.4,0.9c0.6,0.5,1,1.2,1,2.2c0,1.2-0.8,2.2-2.1,2.7v0
					c1.2,0.3,2.5,1.3,2.5,3.1c0,1.1-0.4,1.9-1,2.5c-0.9,0.8-2.2,1.1-4.2,1.1c-1.1,0-1.9-0.1-2.5-0.1V169.4z M188.6,174.5h1.4
					c1.7,0,2.7-0.9,2.7-2.1c0-1.4-1.1-2-2.7-2c-0.7,0-1.1,0.1-1.4,0.1V174.5z M188.6,180.3c0.3,0.1,0.8,0.1,1.3,0.1
					c1.6,0,3.2-0.6,3.2-2.4c0-1.7-1.4-2.4-3.2-2.4h-1.3V180.3z"/>
				<path class="st0" d="M196.9,175.5c0-1,0-1.9-0.1-2.8h1.4l0.1,1.7h0.1c0.4-1.2,1.4-1.9,2.4-1.9c0.2,0,0.3,0,0.5,0.1v1.5
					c-0.2,0-0.3-0.1-0.5-0.1c-1.1,0-1.9,0.9-2.1,2.1c0,0.2-0.1,0.5-0.1,0.7v4.7h-1.6V175.5z"/>
				<path class="st0" d="M207.6,181.5l-0.1-1.1h-0.1c-0.5,0.7-1.4,1.3-2.7,1.3c-1.8,0-2.7-1.3-2.7-2.5c0-2.1,1.9-3.3,5.3-3.3v-0.2
					c0-0.7-0.2-2-2-2c-0.8,0-1.7,0.3-2.3,0.7l-0.4-1.1c0.7-0.5,1.8-0.8,2.9-0.8c2.7,0,3.4,1.8,3.4,3.6v3.3c0,0.8,0,1.5,0.1,2.1
					H207.6z M207.4,177c-1.7,0-3.7,0.3-3.7,2c0,1,0.7,1.5,1.5,1.5c1.1,0,1.9-0.7,2.1-1.5c0.1-0.2,0.1-0.3,0.1-0.5V177z"/>
				<path class="st0" d="M211.3,179.9c0.5,0.3,1.3,0.6,2.1,0.6c1.2,0,1.7-0.6,1.7-1.3c0-0.8-0.5-1.2-1.6-1.6
					c-1.6-0.6-2.3-1.4-2.3-2.5c0-1.4,1.1-2.6,3-2.6c0.9,0,1.7,0.3,2.2,0.5l-0.4,1.2c-0.3-0.2-1-0.5-1.8-0.5c-0.9,0-1.5,0.5-1.5,1.2
					c0,0.7,0.5,1.1,1.7,1.5c1.5,0.6,2.3,1.3,2.3,2.7c0,1.5-1.2,2.6-3.3,2.6c-1,0-1.9-0.2-2.5-0.6L211.3,179.9z"/>
				<path class="st0" d="M220.5,170.3c0,0.5-0.4,1-1,1c-0.6,0-1-0.4-1-1c0-0.6,0.4-1,1-1C220.1,169.3,220.5,169.7,220.5,170.3z
					 M218.7,181.5v-8.8h1.6v8.8H218.7z"/>
				<path class="st0" d="M223,168.6h1.6v12.9H223V168.6z"/>
				<path class="st0" d="M226.7,180.6c0-0.7,0.5-1.1,1.1-1.1s1.1,0.5,1.1,1.1c0,0.7-0.4,1.1-1.1,1.1
					C227.2,181.7,226.7,181.3,226.7,180.6z"/>
			</g>
		</g>
	</g>
	<g>
		<path class="st1" d="M64.3,63.1h5.4v14.8l-1.8-0.4v-1c-1,0.8-2.2,1.3-3.6,1.3c-3,0-5.4-2.4-5.4-5.4v-18c0-3,2.4-5.4,5.4-5.4
			c3,0,5.4,2.4,5.4,5.4v3.3L67.6,58v-3.6c0-1.8-1.5-3.2-3.2-3.2c-1.8,0-3.2,1.5-3.2,3.2v18c0,1.8,1.5,3.2,3.2,3.2
			c1.8,0,3.2-1.5,3.2-3.2v-7.2h-3.2V63.1z"/>
		<path class="st1" d="M84,77.5h-2.2v-9.3c0-2-1.6-3.6-3.6-3.6h-2.6v12.9h-2.2v-28h4.8c3.2,0,5.8,2.6,5.8,5.8v3.4
			c0,1.9-1,3.7-2.4,4.7c1.5,1.1,2.4,2.8,2.4,4.7V77.5z M78.2,62.4c2,0,3.6-1.6,3.6-3.6v-3.4c0-2-1.6-3.6-3.6-3.6h-2.6v10.7H78.2z"/>
		<path class="st1" d="M98.4,77.5h-2.2l-1.1-7.2h-5.7l-1.1,7.2h-2.2l4.3-28h3.6L98.4,77.5z M89.8,68.2h5l-2.4-16.3h-0.1L89.8,68.2z"
			/>
		<path class="st1" d="M103.2,65.3v12.2H101v-28h4.8c3.2,0,5.8,2.6,5.8,5.8v4.2c0,3.2-2.6,5.8-5.8,5.8H103.2z M105.8,63.1
			c2,0,3.6-1.6,3.6-3.6v-4.2c0-2-1.6-3.6-3.6-3.6h-2.6v11.5H105.8z"/>
		<path class="st1" d="M125.4,49.5v28h-2.2V64.6h-6.5v12.9h-2.2v-28h2.2v12.9h6.5V49.5H125.4z"/>
		<path class="st1" d="M129.6,77.5v-28h2.2v28H129.6z"/>
		<path class="st1" d="M144.3,58.9v-4.4c0-1.8-1.5-3.2-3.2-3.2s-3.2,1.5-3.2,3.2v18c0,1.8,1.5,3.2,3.2,3.2s3.2-1.5,3.2-3.2v-3.8h2.2
			v3.8c0,3-2.4,5.4-5.4,5.4c-3,0-5.4-2.4-5.4-5.4v-18c0-3,2.4-5.4,5.4-5.4c3,0,5.4,2.4,5.4,5.4v4.1L144.3,58.9z"/>
		<path class="st1" d="M166.2,71.7c0,3.2-2.6,5.8-5.8,5.8h-5v-28h5c3.2,0,5.8,2.6,5.8,5.8V71.7z M164,55.3c0-2-1.6-3.6-3.6-3.6h-2.8
			v23.7h2.8c2,0,3.6-1.6,3.6-3.7V55.3z"/>
		<path class="st1" d="M172.2,51.7v10.7h5v2.2h-5v10.7h7.1v2.2h-9.3v-28h9v2.2H172.2z"/>
		<path class="st1" d="M182.9,59.8c0,0-1.2-1.5-1.2-3.5v-1.9c0-3,2.4-5.4,5.4-5.4c3,0,5.4,2.4,5.4,5.4V58l-2.2,0.2v-3.7
			c0-1.8-1.5-3.2-3.2-3.2c-1.8,0-3.2,1.5-3.2,3.2v1.9c0,1.2,0.7,2.1,0.7,2.1l6.6,7.8c0,0,1.3,1.5,1.3,3.6v2.7c0,3-2.4,5.4-5.4,5.4
			c-3,0-5.4-2.4-5.4-5.4v-4.1l2.2-0.2v4.4c0,1.8,1.5,3.2,3.2,3.2c1.8,0,3.2-1.5,3.2-3.2v-2.7c0-1.2-0.8-2.2-0.8-2.2L182.9,59.8z"/>
		<path class="st1" d="M195.9,77.5v-28h2.2v28H195.9z"/>
		<path class="st1" d="M207.4,63.1h5.4v14.8l-1.8-0.4v-1c-1,0.8-2.2,1.3-3.6,1.3c-3,0-5.4-2.4-5.4-5.4v-18c0-3,2.4-5.4,5.4-5.4
			c3,0,5.4,2.4,5.4,5.4v3.3l-2.2,0.2v-3.6c0-1.8-1.5-3.2-3.2-3.2s-3.2,1.5-3.2,3.2v18c0,1.8,1.5,3.2,3.2,3.2s3.2-1.5,3.2-3.2v-7.2
			h-3.2V63.1z"/>
		<path class="st1" d="M216.5,49.5h2.6l6.6,21.2h0.1V49.5h2.2v28h-2.2l-7.1-22.4h-0.1v22.4h-2.2V49.5z"/>
	</g>
	<rect id="XMLID_316_" x="57.1" y="84.5" class="st2" width="172.5" height="6.4"/>
	<g>
		<path class="st1" d="M628.4,19.4C605-4,567.1-4,543.7,19.4c-23.4,23.4-23.4,61.3,0,84.7c12.6,12.6,29.3,18.4,45.7,17.4
			c14.2-0.8,28.1-6.6,38.9-17.4c10.8-10.8,16.6-24.8,17.4-39C646.8,48.7,641,31.9,628.4,19.4z M614.2,89.9
			c-15.6,15.6-40.8,15.6-56.4,0c-15.6-15.6-15.6-40.8,0-56.4c15.6-15.6,40.8-15.6,56.4,0C629.8,49.1,629.8,74.3,614.2,89.9z"/>
		<g>
			<g>
				<path class="st1" d="M389.3,44.7h-18.6v-2.8l7.5-7.5c2.3-2.3,3.8-3.9,4.5-4.9c0.7-1,1.3-1.9,1.6-2.9c0.4-0.9,0.5-1.9,0.5-3
					c0-1.5-0.5-2.7-1.4-3.6c-0.9-0.9-2.2-1.3-3.8-1.3c-1.2,0-2.3,0.2-3.3,0.6c-1.1,0.4-2.2,1.1-3.5,2.1l-1.7-2.2
					c2.6-2.2,5.5-3.3,8.5-3.3c2.7,0,4.7,0.7,6.3,2c1.5,1.4,2.3,3.2,2.3,5.5c0,1.8-0.5,3.6-1.5,5.3s-2.9,4-5.7,6.7l-6.2,6.1v0.2h14.6
					V44.7z"/>
				<path class="st1" d="M412.2,30.5c0,4.9-0.8,8.6-2.3,11c-1.5,2.4-3.9,3.6-7.1,3.6c-3,0-5.4-1.2-7-3.7s-2.4-6.1-2.4-10.9
					c0-4.9,0.8-8.6,2.3-11c1.5-2.4,3.9-3.6,7-3.6c3.1,0,5.4,1.2,7,3.7S412.2,25.8,412.2,30.5z M396.7,30.5c0,4.1,0.5,7.1,1.5,9
					c1,1.9,2.5,2.8,4.6,2.8c2.1,0,3.7-1,4.7-2.9c1-1.9,1.4-4.9,1.4-9s-0.5-7-1.4-8.9c-1-1.9-2.5-2.8-4.7-2.8c-2.1,0-3.7,0.9-4.6,2.8
					C397.2,23.4,396.7,26.4,396.7,30.5z"/>
				<path class="st1" d="M428,44.7h-3.1V24.5c0-1.7,0.1-3.3,0.2-4.8c-0.3,0.3-0.6,0.6-0.9,0.9c-0.3,0.3-1.9,1.6-4.6,3.8l-1.7-2.2
					l7.5-5.8h2.7V44.7z"/>
				<path class="st1" d="M456.3,23c0,1.8-0.5,3.3-1.5,4.4c-1,1.1-2.5,1.9-4.3,2.3v0.2c2.3,0.3,4,1,5.1,2.2c1.1,1.2,1.6,2.7,1.6,4.6
					c0,2.7-0.9,4.8-2.8,6.2c-1.9,1.5-4.5,2.2-8,2.2c-1.5,0-2.9-0.1-4.1-0.3c-1.2-0.2-2.5-0.6-3.6-1.2v-3.1c1.2,0.6,2.5,1.1,3.9,1.4
					s2.7,0.5,3.9,0.5c4.9,0,7.3-1.9,7.3-5.8c0-3.4-2.7-5.2-8.1-5.2H443v-2.8h2.8c2.2,0,4-0.5,5.3-1.5s1.9-2.3,1.9-4.1
					c0-1.4-0.5-2.5-1.4-3.3c-0.9-0.8-2.2-1.2-3.9-1.2c-1.2,0-2.4,0.2-3.5,0.5c-1.1,0.3-2.4,1-3.8,1.9l-1.6-2.2
					c1.2-0.9,2.5-1.6,4-2.2c1.5-0.5,3.1-0.8,4.8-0.8c2.8,0,4.9,0.6,6.4,1.9C455.6,19.1,456.3,20.8,456.3,23z"/>
			</g>
			<g id="XMLID_349_">
				<path id="XMLID_284_" class="st1" d="M545.9,57.6H316.2c-5.7,0-11.1-2.8-14.3-7.6c-3.9-5.8-10.5-9.5-18-9.3
					c-10.9,0.3-19.9,9.2-20.4,20.1c-0.5,12,9.1,21.9,21,21.9c7.1,0,13.4-3.5,17.2-9c3.4-4.8,8.7-7.9,14.5-7.9h229.7V57.6z"/>
			</g>
			<g>
				<path class="st1" d="M568,49.7c0-4,3.2-7.2,7.2-7.2c4,0,7.2,3.2,7.2,7.2v24.9c0,4-3.2,7.2-7.2,7.2c-4,0-7.2-3.2-7.2-7.2V49.7z
					 M571,74.7c0,2.3,1.9,4.2,4.2,4.2c2.3,0,4.2-1.9,4.2-4.2V49.7c0-2.3-1.9-4.2-4.2-4.2c-2.3,0-4.2,1.9-4.2,4.2V74.7z"/>
				<path class="st1" d="M598.7,49.9c0-2.4-2-4.4-4.4-4.4c-2.4,0-4.4,2-4.4,4.4v4.6l-2.9,0.3v-5c0-4.1,3.3-7.4,7.4-7.4
					s7.4,3.3,7.4,7.4v3.6c0,1.4-1.5,4.3-1.5,4.3l-9.2,17.1c0,0-1,1.9-1,3.5h11.5v2.9H587v-2.9c0-2.3,1.4-4.8,1.4-4.8l9.2-17.2
					c0,0,1.2-2.2,1.2-2.9V49.9z"/>
			</g>
		</g>
	</g>
	<g>
		<g>
			<path class="st3" d="M43.3,50.3c-4-22.6-36.6-22.6-40.7,0c-0.4,2-0.5,4.1-0.5,6.2c0,14.3,8.6,26.6,20.9,32
				c12.3-5.4,20.9-17.7,20.9-32C43.8,54.3,43.6,52.3,43.3,50.3z"/>
		</g>
		<g>
			<defs>
				<path id="SVGID_1_" d="M39.3,54c0,8.4-6.3,15.3-14.5,16.2c-0.6,0.1-1.2,0.1-1.9,0.1c-9,0-16.3-7.3-16.3-16.3
					c0-9,7.3-16.3,16.3-16.3c0.6,0,1.3,0,1.9,0.1C33,38.7,39.3,45.7,39.3,54z"/>
			</defs>
			<clipPath id="SVGID_2_">
				<use xlink:href="#SVGID_1_"  style="overflow:visible;"/>
			</clipPath>
			<g class="st4">
				<path class="st5" d="M46.2,68.3c0,1.2-1,2.2-2.2,2.2H1.6c-1.2,0-2.2-1-2.2-2.2V39.9c0-1.2,1-2.2,2.2-2.2H44c1.2,0,2.2,1,2.2,2.2
					V68.3z"/>
				<g>
					<polygon class="st6" points="22.8,66.1 3.6,54.1 22.8,42.2 42,54.1 					"/>
					<path class="st7" d="M30.8,54.1c0,4.4-3.6,8-8,8c-4.4,0-8-3.6-8-8c0-4.4,3.6-8,8-8C27.2,46.1,30.8,49.7,30.8,54.1z"/>
					<path class="st8" d="M20.2,51.2c-1.9-0.3-3.5-0.2-4.5-0.1c-0.3,0.5-0.5,1-0.6,1.6c0.8-0.1,2.6-0.3,5,0
						c2.6,0.4,6.5,1.5,10.3,4.5c0.2-0.5,0.3-1.1,0.3-1.6C26.8,52.6,22.9,51.6,20.2,51.2z"/>
					<g>
						<path class="st9" d="M16.9,51.8c0,0.2-0.1,0.3-0.2,0.3c-0.1,0-0.2-0.1-0.2-0.3c0-0.2,0.1-0.3,0.2-0.3
							C16.8,51.5,16.9,51.6,16.9,51.8z M17,51.8c0-0.1-0.1-0.4-0.3-0.3c-0.2,0-0.3,0.2-0.3,0.4c0,0.1,0.1,0.3,0.3,0.3
							C17,52.1,17,51.9,17,51.8z"/>
						<path class="st9" d="M17.2,51.5l0.2,0c0,0,0.1,0,0.1,0.1c0,0.1-0.1,0.1-0.1,0.1l-0.2,0L17.2,51.5z M17.2,51.8h0.2
							c0.1,0,0.1,0.1,0.1,0.1c0,0,0,0.1,0,0.2l0.1,0l0,0c0,0,0,0,0-0.1l0-0.1c0-0.1,0-0.1-0.1-0.1c0.1,0,0.1-0.1,0.1-0.2
							c0-0.1-0.1-0.2-0.2-0.2l-0.3,0l0,0.7l0.1,0L17.2,51.8z"/>
						<path class="st9" d="M17.9,51.5l0.2,0c0.1,0,0.2,0.1,0.2,0.3c0,0.2-0.1,0.3-0.2,0.3l-0.2,0L17.9,51.5z M17.8,52.1l0.3,0
							c0.2,0,0.3-0.2,0.3-0.3c0-0.2-0.1-0.3-0.3-0.3l-0.3,0L17.8,52.1z"/>
						<path class="st9" d="M19,52.2l-0.5,0l0-0.7l0.5,0l0,0.1l-0.4,0l0,0.2l0.4,0l0,0.1l-0.4,0l0,0.2L19,52.2L19,52.2z"/>
						<path class="st9" d="M19.6,52.2l0-0.4c0,0,0-0.1,0-0.2l0,0l-0.2,0.5l-0.1,0l-0.1-0.6l0,0c0,0.1,0,0.1,0,0.2l0,0.4l-0.1,0
							l0.1-0.7l0.1,0l0.1,0.6l0,0l0.3-0.5l0.1,0L19.6,52.2L19.6,52.2z"/>
						<path class="st9" d="M22.2,52.7l-0.5-0.1l0.2-0.7l0.5,0.1l0,0.1L21.9,52l0,0.2l0.4,0.1l0,0.1l-0.4-0.1l0,0.2L22.2,52.7
							L22.2,52.7z"/>
						<path class="st9" d="M24.1,52.6l0.2,0.1c0.1,0,0.1,0.1,0.1,0.2c0,0.1-0.1,0.1-0.2,0.1L24,52.9L24.1,52.6z M24,52.9l0.2,0.1
							c0.1,0,0.2,0,0.3-0.1c0-0.1,0-0.2-0.1-0.2L24,52.5l-0.2,0.6l0.1,0L24,52.9z"/>
						<path class="st9" d="M24.7,52.9l0.2,0.1c0,0,0.1,0.1,0.1,0.2c0,0.1-0.1,0.1-0.2,0.1l-0.2-0.1L24.7,52.9z M24.6,53.1l0.2,0.1
							c0.1,0,0.1,0.1,0.1,0.1c0,0,0,0.1,0,0.2l0.1,0l0,0c0,0,0,0,0-0.1l0-0.1c0-0.1,0-0.1,0-0.1c0,0,0.1,0,0.1-0.1
							c0.1-0.1,0-0.2-0.1-0.3l-0.3-0.1l-0.2,0.6l0.1,0L24.6,53.1z"/>
						<path class="st9" d="M25.6,53.5c-0.1,0.1-0.2,0.2-0.3,0.2c-0.1-0.1-0.2-0.2-0.1-0.3c0.1-0.1,0.2-0.2,0.3-0.2
							C25.6,53.2,25.7,53.4,25.6,53.5z M25.7,53.5c0.1-0.1,0.1-0.4-0.2-0.5c-0.2-0.1-0.4,0.1-0.4,0.2c-0.1,0.1-0.1,0.4,0.2,0.4
							C25.5,53.8,25.6,53.7,25.7,53.5z"/>
						<path class="st9" d="M26.1,53.7l0.3,0.1l-0.2,0.3l-0.1,0l0-0.1c-0.1,0-0.2,0-0.2,0c-0.1,0-0.1-0.1-0.1-0.2
							c-0.1-0.1,0-0.2,0-0.3c0.1-0.2,0.2-0.3,0.4-0.2c0.1,0.1,0.2,0.2,0.2,0.3l-0.1,0c0-0.1-0.1-0.2-0.1-0.2c-0.1,0-0.2,0-0.3,0.2
							c-0.1,0.1-0.1,0.3,0.1,0.3c0,0,0.1,0,0.1,0c0.1,0,0.1-0.1,0.1-0.1L26.1,53.7L26.1,53.7z"/>
						<path class="st9" d="M26.7,53.7l0.2,0.1c0,0,0.1,0.1,0.1,0.2c0,0.1-0.1,0.1-0.2,0l-0.2-0.1L26.7,53.7z M26.5,54l0.2,0.1
							c0.1,0.1,0.1,0.1,0.1,0.2c0,0-0.1,0.1-0.1,0.2l0.1,0.1l0,0c0,0,0,0,0-0.1l0.1-0.1c0-0.1,0-0.1,0-0.1c0,0,0.1,0,0.2-0.1
							c0.1-0.1,0-0.2-0.1-0.3l-0.3-0.1l-0.3,0.6l0.1,0L26.5,54z"/>
						<path class="st9" d="M27.3,54.7l-0.4-0.2l0.3-0.6l0.4,0.2l0,0.1L27.3,54l-0.1,0.2l0.3,0.2l0,0.1l-0.3-0.2L27,54.5L27.3,54.7
							L27.3,54.7z"/>
						<path class="st9" d="M28,54.6c0-0.1,0-0.2-0.1-0.2c-0.1,0-0.1-0.1-0.2,0c0,0.1,0,0.1,0,0.1L28,54.6c0,0.1,0,0.2-0.1,0.3
							c-0.1,0.1-0.2,0.1-0.3,0c-0.1-0.1-0.1-0.1-0.2-0.2c0-0.1,0-0.1,0-0.2l0.1,0c-0.1,0.1,0,0.2,0.1,0.2c0.1,0,0.1,0.1,0.2,0
							c0-0.1,0-0.1-0.1-0.2l-0.1-0.1c0,0-0.1-0.1-0.1-0.2c0.1-0.1,0.2-0.1,0.3-0.1C28.2,54.4,28.1,54.6,28,54.6L28,54.6z"/>
						<path class="st9" d="M28.6,54.9c0-0.1,0-0.2-0.1-0.2c0,0-0.1-0.1-0.2,0c0,0,0,0.1,0,0.1L28.6,54.9c0,0.1,0,0.2-0.1,0.3
							c-0.1,0.1-0.2,0.1-0.3,0c-0.1-0.1-0.1-0.1-0.1-0.2c0-0.1,0-0.1,0-0.2l0.1,0c-0.1,0.1,0,0.2,0.1,0.2c0.1,0,0.2,0.1,0.2,0
							c0-0.1,0-0.1-0.1-0.2l-0.1-0.1c0,0-0.1-0.1,0-0.2c0.1-0.1,0.2-0.1,0.3-0.1C28.7,54.8,28.7,54.9,28.6,54.9L28.6,54.9z"/>
						<path class="st9" d="M29.1,55.4c-0.1,0.1-0.2,0.2-0.3,0.1c-0.1-0.1-0.1-0.2-0.1-0.4c0.1-0.1,0.2-0.2,0.3-0.1
							C29.2,55.2,29.2,55.3,29.1,55.4z M29.2,55.5c0.1-0.1,0.1-0.3-0.1-0.5c-0.2-0.1-0.4,0-0.5,0.1c-0.1,0.1-0.1,0.3,0.1,0.5
							C29,55.7,29.1,55.6,29.2,55.5z"/>
					</g>
					<g>
						<polygon class="st8" points="25,48.9 25.1,49.3 25.4,49.3 25.2,49.5 25.3,49.8 25,49.6 24.7,49.8 24.8,49.5 24.5,49.3 
							24.9,49.3 						"/>
						<polygon class="st8" points="19.5,52.7 19.5,52.9 19.8,52.9 19.6,53.1 19.7,53.3 19.5,53.1 19.3,53.3 19.4,53.1 19.2,52.9 
							19.4,52.9 						"/>
						<polygon class="st8" points="16,50.8 16.1,51.1 16.5,51.1 16.2,51.3 16.3,51.6 16,51.4 15.8,51.6 15.9,51.3 15.6,51.1 
							15.9,51.1 						"/>
						<polygon class="st8" points="17.5,53.7 17.6,54 17.8,54 17.6,54.2 17.7,54.4 17.5,54.3 17.2,54.4 17.3,54.2 17.1,54 17.4,54 
													"/>
						<polygon class="st8" points="16.8,54.1 16.9,54.5 17.3,54.5 17,54.7 17.1,55.1 16.8,54.9 16.5,55.1 16.6,54.7 16.3,54.5 
							16.7,54.5 						"/>
						<polygon class="st8" points="15.9,55.1 16,55.3 16.2,55.3 16,55.4 16.1,55.6 15.9,55.5 15.8,55.6 15.8,55.4 15.7,55.3 
							15.9,55.3 						"/>
						<polygon class="st8" points="18.4,55 18.4,55.3 18.7,55.3 18.5,55.4 18.6,55.7 18.4,55.5 18.2,55.7 18.2,55.4 18,55.3 
							18.3,55.3 						"/>
						<polygon class="st8" points="18.2,56 18.3,56.2 18.5,56.2 18.3,56.3 18.4,56.6 18.2,56.4 18,56.6 18.1,56.3 17.9,56.2 
							18.1,56.2 						"/>
						<polygon class="st8" points="19.3,56.7 19.4,57 19.7,57 19.5,57.2 19.6,57.5 19.3,57.3 19,57.5 19.1,57.2 18.9,57 19.2,57 
													"/>
						<polygon class="st8" points="22.7,55.9 22.8,56.3 23.2,56.2 22.9,56.5 23,56.8 22.7,56.6 22.4,56.8 22.5,56.5 22.2,56.2 
							22.6,56.2 						"/>
						<polygon class="st8" points="22.3,55 22.3,55.2 22.4,55.2 22.3,55.3 22.4,55.4 22.3,55.3 22.2,55.4 22.2,55.3 22.1,55.2 
							22.2,55.2 						"/>
						<polygon class="st8" points="21.6,54.5 21.7,54.7 21.9,54.7 21.7,54.8 21.8,55 21.6,54.9 21.5,55 21.5,54.8 21.3,54.7 
							21.6,54.7 						"/>
						<polygon class="st8" points="22.8,53.6 22.9,53.9 23.1,53.9 22.9,54 23,54.3 22.8,54.1 22.6,54.3 22.6,54 22.4,53.9 
							22.7,53.9 						"/>
						<polygon class="st8" points="24.6,51.8 24.6,52 24.9,52 24.7,52.2 24.8,52.4 24.6,52.2 24.4,52.4 24.5,52.2 24.3,52 24.5,52 
													"/>
						<polygon class="st8" points="23.6,54.4 23.6,54.7 23.9,54.7 23.7,54.9 23.8,55.1 23.6,55 23.3,55.1 23.4,54.9 23.2,54.7 
							23.5,54.7 						"/>
						<polygon class="st8" points="24.4,56.7 24.6,57 25,57 24.6,57.3 24.8,57.7 24.5,57.4 24.1,57.7 24.3,57.3 23.9,57 24.3,57 
													"/>
						<polygon class="st8" points="25.1,58 25.2,58.3 25.5,58.3 25.2,58.4 25.3,58.7 25.1,58.6 24.8,58.7 24.9,58.4 24.7,58.3 
							25,58.3 						"/>
						<polygon class="st8" points="25.8,57.1 25.8,57.3 26.1,57.3 25.9,57.5 26,57.7 25.8,57.6 25.5,57.7 25.6,57.5 25.4,57.3 
							25.7,57.3 						"/>
						<polygon class="st8" points="26.7,56.5 26.8,56.8 27.1,56.8 26.9,56.9 27,57.2 26.7,57 26.5,57.2 26.6,56.9 26.3,56.8 
							26.6,56.8 						"/>
						<polygon class="st8" points="26.8,57.8 26.8,58 27.1,58 26.9,58.1 27,58.4 26.8,58.2 26.6,58.4 26.6,58.1 26.4,58 26.7,58 
													"/>
						<polygon class="st8" points="26.7,58.6 26.8,58.8 27,58.8 26.8,58.9 26.9,59.1 26.7,58.9 26.6,59.1 26.6,58.9 26.5,58.8 
							26.7,58.8 						"/>
						<polygon class="st8" points="27.5,56.8 27.6,57.1 28,57.1 27.7,57.3 27.8,57.6 27.5,57.4 27.3,57.6 27.4,57.3 27.1,57.1 
							27.4,57.1 						"/>
						<polygon class="st8" points="28.5,56.7 28.5,56.9 28.7,56.9 28.6,57 28.6,57.3 28.5,57.1 28.3,57.3 28.4,57 28.2,56.9 
							28.4,56.9 						"/>
						<polygon class="st8" points="28.8,56.1 28.9,56.3 29,56.3 28.9,56.4 29,56.5 28.8,56.4 28.7,56.5 28.7,56.4 28.6,56.3 
							28.8,56.3 						"/>
						<polygon class="st8" points="28.4,55 28.4,55.2 28.6,55.2 28.5,55.3 28.5,55.5 28.4,55.4 28.2,55.5 28.3,55.3 28.1,55.2 
							28.3,55.2 						"/>
						<polygon class="st8" points="29.6,54.9 29.7,55.2 30,55.2 29.7,55.4 29.8,55.7 29.6,55.5 29.3,55.7 29.4,55.4 29.1,55.2 
							29.5,55.2 						"/>
						<polygon class="st8" points="22.8,58.8 22.8,59 23.1,59 22.9,59.1 22.9,59.3 22.8,59.2 22.6,59.3 22.7,59.1 22.5,59 22.7,59 
													"/>
					</g>
				</g>
			</g>
		</g>
	</g>
</g>
</svg>
