<?xml version="1.0" encoding="utf-8"?>
<!-- Generator: Adobe Illustrator 22.0.0, SVG Export Plug-In . SVG Version: 6.00 Build 0)  -->
<svg version="1.1" id="Layer_1" xmlns="http://www.w3.org/2000/svg" xmlns:xlink="http://www.w3.org/1999/xlink" x="0px" y="0px"
	 viewBox="0 0 634.5 185.6" style="enable-background:new 0 0 634.5 185.6;" xml:space="preserve">
<style type="text/css">
	.st0{fill:#C7C004;}
	.st1{fill:#FCFF26;}
	.st2{clip-path:url(#SVGID_2_);}
	.st3{fill:#00AA5B;}
	.st4{fill:#F9D10B;}
	.st5{fill:#005E9E;}
	.st6{fill:#FFFFFF;}
	.st7{fill:#00A460;}
	.st8{fill:#726658;}
	.st9{fill:#DED9D7;}
</style>
<g>
	<g>
		<g id="XMLID_350_">
			<path id="XMLID_281_" class="st0" d="M99.7,65.2h229.7c5.7,0,11.1,2.8,14.3,7.6c3.9,5.8,10.5,9.5,18,9.3
				c10.9-0.3,19.9-9.2,20.4-20.1c0.5-12-9.1-21.9-21-21.9c-7.1,0-13.4,3.5-17.2,9c-3.4,4.8-8.7,7.9-14.5,7.9H99.7V65.2z"/>
		</g>
		<path class="st0" d="M102.2,18.8c-23.4-23.4-61.3-23.4-84.7,0s-23.4,61.3,0,84.7c12.6,12.6,29.3,18.4,45.7,17.4
			c14.2-0.8,28.1-6.6,38.9-17.4s16.6-24.8,17.4-39C120.6,48,114.8,31.3,102.2,18.8z M88.1,89.3c-15.6,15.6-40.8,15.6-56.4,0
			s-15.6-40.8,0-56.4s40.8-15.6,56.4,0C103.6,48.5,103.6,73.7,88.1,89.3z"/>
	</g>
	<g>
		<path class="st0" d="M40.7,48.9c0-4,3.2-7.2,7.2-7.2s7.2,3.2,7.2,7.2v24.9c0,4-3.2,7.2-7.2,7.2s-7.2-3.2-7.2-7.2V48.9z M43.6,73.8
			c0,2.3,1.9,4.2,4.2,4.2s4.2-1.9,4.2-4.2V48.9c0-2.3-1.9-4.2-4.2-4.2s-4.2,1.9-4.2,4.2V73.8z"/>
		<path class="st0" d="M67,59.8c2.4,0,4.4-2,4.4-4.4V49c0-2.4-2-4.4-4.4-4.4s-4.4,2-4.4,4.4v3.7L59.7,53v-4c0-4.1,3.3-7.4,7.4-7.4
			s7.4,3.3,7.4,7.4v6.4c0,2.4-1.7,5.1-3.5,5.9c1.8,0.8,3.5,3.5,3.5,5.9v6.4c0,4.1-3.3,7.4-7.4,7.4s-7.4-3.3-7.4-7.4V70l2.9-0.3v4
			c0,2.4,2,4.4,4.4,4.4s4.4-2,4.4-4.4v-6.4c0-2.4-2-4.4-4.4-4.4h-0.8V60H67V59.8z"/>
	</g>
	<g>
		<path class="st0" d="M202.4,46.1h-18.6v-2.8l7.5-7.5c2.3-2.3,3.8-3.9,4.5-4.9s1.3-1.9,1.6-2.9c0.4-0.9,0.5-1.9,0.5-3
			c0-1.5-0.5-2.7-1.4-3.6s-2.2-1.3-3.8-1.3c-1.2,0-2.3,0.2-3.3,0.6c-1.1,0.4-2.2,1.1-3.5,2.1l-1.7-2.2c2.6-2.2,5.5-3.3,8.5-3.3
			c2.7,0,4.7,0.7,6.3,2c1.5,1.4,2.3,3.2,2.3,5.5c0,1.8-0.5,3.6-1.5,5.3s-2.9,4-5.7,6.7l-6.2,6.1v0.2h14.6v3
			C202.5,46.1,202.4,46.1,202.4,46.1z"/>
		<path class="st0" d="M225.2,31.9c0,4.9-0.8,8.6-2.3,11s-3.9,3.6-7.1,3.6c-3,0-5.4-1.2-7-3.7s-2.4-6.1-2.4-10.9
			c0-4.9,0.8-8.6,2.3-11s3.9-3.6,7-3.6s5.4,1.2,7,3.7S225.2,27.2,225.2,31.9z M209.8,31.9c0,4.1,0.5,7.1,1.5,9s2.5,2.8,4.6,2.8
			s3.7-1,4.7-2.9s1.4-4.9,1.4-9s-0.5-7-1.4-8.9c-1-1.9-2.5-2.8-4.7-2.8c-2.1,0-3.7,0.9-4.6,2.8C210.2,24.8,209.8,27.8,209.8,31.9z"
			/>
		<path class="st0" d="M241.1,46.1H238V25.9c0-1.7,0.1-3.3,0.2-4.8c-0.3,0.3-0.6,0.6-0.9,0.9c-0.3,0.3-1.9,1.6-4.6,3.8l-1.7-2.2
			l7.5-5.8h2.7L241.1,46.1L241.1,46.1z"/>
		<path class="st0" d="M271.8,39.6h-4.2v6.5h-3.1v-6.5h-13.8v-2.8l13.4-19.2h3.4v19h4.2v3H271.8z M264.5,36.7v-9.4
			c0-1.8,0.1-3.9,0.2-6.3h-0.2c-0.6,1.2-1.2,2.3-1.7,3.1L254,36.7H264.5z"/>
	</g>
</g>
<g>
	<g>
		<path class="st1" d="M634,44.5c-4-22.6-36.6-22.6-40.7,0c-0.4,2-0.5,4.1-0.5,6.2c0,14.3,8.6,26.6,20.9,32
			c12.3-5.4,20.9-17.7,20.9-32C634.5,48.6,634.3,46.5,634,44.5z"/>
	</g>
	<g>
		<g>
			<g>
				<defs>
					<path id="SVGID_1_" d="M630,48.3c0,8.4-6.3,15.3-14.5,16.2c-0.6,0.1-1.2,0.1-1.9,0.1c-9,0-16.3-7.3-16.3-16.3
						S604.6,32,613.6,32c0.6,0,1.3,0,1.9,0.1C623.7,33,630,39.9,630,48.3z"/>
				</defs>
				<clipPath id="SVGID_2_">
					<use xlink:href="#SVGID_1_"  style="overflow:visible;"/>
				</clipPath>
				<g class="st2">
					<path class="st3" d="M636.9,62.5c0,1.2-1,2.2-2.2,2.2h-42.4c-1.2,0-2.2-1-2.2-2.2V34.2c0-1.2,1-2.2,2.2-2.2h42.4
						c1.2,0,2.2,1,2.2,2.2V62.5z"/>
					<g>
						<polygon class="st4" points="613.5,60.3 594.3,48.4 613.5,36.4 632.7,48.4 						"/>
						<path class="st5" d="M621.5,48.4c0,4.4-3.6,8-8,8s-8-3.6-8-8s3.6-8,8-8C617.9,40.3,621.5,43.9,621.5,48.4z"/>
						<path class="st6" d="M610.9,45.5c-1.9-0.3-3.5-0.2-4.5-0.1c-0.3,0.5-0.5,1-0.6,1.6c0.8-0.1,2.6-0.3,5,0
							c2.6,0.4,6.5,1.5,10.3,4.5c0.2-0.5,0.3-1.1,0.3-1.6C617.5,46.9,613.6,45.8,610.9,45.5z"/>
						<g>
							<path class="st7" d="M607.6,46c0,0.2-0.1,0.3-0.2,0.3c-0.1,0-0.2-0.1-0.2-0.3s0.1-0.3,0.2-0.3S607.6,45.9,607.6,46z
								 M607.7,46c0-0.1-0.1-0.4-0.3-0.3c-0.2,0-0.3,0.2-0.3,0.4c0,0.1,0.1,0.3,0.3,0.3C607.7,46.4,607.7,46.2,607.7,46z"/>
							<path class="st7" d="M607.9,45.7h0.2c0,0,0.1,0,0.1,0.1s-0.1,0.1-0.1,0.1h-0.2V45.7z M607.9,46.1h0.2c0.1,0,0.1,0.1,0.1,0.1
								s0,0.1,0,0.2h0.1l0,0c0,0,0,0,0-0.1v-0.1c0-0.1,0-0.1-0.1-0.1c0.1,0,0.1-0.1,0.1-0.2c0-0.1-0.1-0.2-0.2-0.2h-0.3v0.7h0.1
								L607.9,46.1z"/>
							<path class="st7" d="M608.6,45.8h0.2c0.1,0,0.2,0.1,0.2,0.3s-0.1,0.3-0.2,0.3h-0.2V45.8z M608.5,46.4h0.3
								c0.2,0,0.3-0.2,0.3-0.3c0-0.2-0.1-0.3-0.3-0.3h-0.3V46.4z"/>
							<path class="st7" d="M609.7,46.4h-0.5v-0.7h0.5v0.1h-0.4V46h0.4v0.1h-0.4v0.2L609.7,46.4L609.7,46.4z"/>
							<path class="st7" d="M610.3,46.5v-0.4c0,0,0-0.1,0-0.2l0,0l-0.2,0.5H610l-0.1-0.6l0,0c0,0.1,0,0.1,0,0.2v0.4h-0.1l0.1-0.7
								h0.1l0.1,0.6l0,0l0.3-0.5h0.1L610.3,46.5L610.3,46.5z"/>
							<path class="st7" d="M612.9,46.9l-0.5-0.1l0.2-0.7l0.5,0.1v0.1l-0.4-0.1v0.2l0.4,0.1v0.1l-0.4-0.1v0.2L612.9,46.9L612.9,46.9
								z"/>
							<path class="st7" d="M614.8,46.9L615,47c0.1,0,0.1,0.1,0.1,0.2c0,0.1-0.1,0.1-0.2,0.1l-0.2-0.1L614.8,46.9z M614.7,47.2
								l0.2,0.1c0.1,0,0.2,0,0.3-0.1c0-0.1,0-0.2-0.1-0.2l-0.3-0.1l-0.2,0.6h0.1V47.2z"/>
							<path class="st7" d="M615.4,47.1l0.2,0.1c0,0,0.1,0.1,0.1,0.2c0,0.1-0.1,0.1-0.2,0.1l-0.2-0.1L615.4,47.1z M615.3,47.4
								l0.2,0.1c0.1,0,0.1,0.1,0.1,0.1s0,0.1,0,0.2h0.1l0,0c0,0,0,0,0-0.1v-0.1c0-0.1,0-0.1,0-0.1s0.1,0,0.1-0.1
								c0.1-0.1,0-0.2-0.1-0.3l-0.3-0.1l-0.2,0.6h0.1L615.3,47.4z"/>
							<path class="st7" d="M616.3,47.7c-0.1,0.1-0.2,0.2-0.3,0.2c-0.1-0.1-0.2-0.2-0.1-0.3c0.1-0.1,0.2-0.2,0.3-0.2
								C616.3,47.5,616.4,47.6,616.3,47.7z M616.4,47.8c0.1-0.1,0.1-0.4-0.2-0.5c-0.2-0.1-0.4,0.1-0.4,0.2c-0.1,0.1-0.1,0.4,0.2,0.4
								C616.2,48.1,616.3,47.9,616.4,47.8z"/>
							<path class="st7" d="M616.8,47.9L617,48l-0.2,0.3h-0.1v-0.1c-0.1,0-0.2,0-0.2,0c-0.1,0-0.1-0.1-0.1-0.2c-0.1-0.1,0-0.2,0-0.3
								c0.1-0.2,0.2-0.3,0.4-0.2c0.1,0.1,0.2,0.2,0.2,0.3h-0.1c0-0.1-0.1-0.2-0.1-0.2c-0.1,0-0.2,0-0.3,0.2
								c-0.1,0.1-0.1,0.3,0.1,0.3h0.1C616.8,48.1,616.8,48,616.8,47.9L616.8,47.9L616.8,47.9z"/>
							<path class="st7" d="M617.4,47.9l0.2,0.1c0,0,0.1,0.1,0.1,0.2c0,0.1-0.1,0.1-0.2,0l-0.2-0.1L617.4,47.9z M617.2,48.2l0.2,0.1
								c0.1,0.1,0.1,0.1,0.1,0.2c0,0-0.1,0.1-0.1,0.2l0.1,0.1l0,0c0,0,0,0,0-0.1l0.1-0.1c0-0.1,0-0.1,0-0.1s0.1,0,0.2-0.1
								c0.1-0.1,0-0.2-0.1-0.3l-0.3-0.1l-0.3,0.6h0.1V48.2z"/>
							<path class="st7" d="M618,49l-0.4-0.2l0.3-0.6l0.4,0.2v0.1l-0.4-0.2l-0.1,0.2l0.3,0.2v0.1l-0.3-0.2l-0.1,0.2L618,49L618,49z"
								/>
							<path class="st7" d="M618.7,48.8c0-0.1,0-0.2-0.1-0.2s-0.1-0.1-0.2,0c0,0.1,0,0.1,0,0.1L618.7,48.8c0,0.1,0,0.2-0.1,0.3
								s-0.2,0.1-0.3,0s-0.1-0.1-0.2-0.2c0-0.1,0-0.1,0-0.2h0.1c-0.1,0.1,0,0.2,0.1,0.2s0.1,0.1,0.2,0c0-0.1,0-0.1-0.1-0.2l-0.1-0.1
								c0,0-0.1-0.1-0.1-0.2c0.1-0.1,0.2-0.1,0.3-0.1C618.9,48.7,618.8,48.8,618.7,48.8L618.7,48.8z"/>
							<path class="st7" d="M619.3,49.1c0-0.1,0-0.2-0.1-0.2c0,0-0.1-0.1-0.2,0V49L619.3,49.1c0,0.1,0,0.2-0.1,0.3s-0.2,0.1-0.3,0
								s-0.1-0.1-0.1-0.2c0-0.1,0-0.1,0-0.2h0.1c-0.1,0.1,0,0.2,0.1,0.2S619.2,49.3,619.3,49.1c-0.1,0-0.1,0-0.2-0.1l-0.1-0.1
								c0,0-0.1-0.1,0-0.2c0.1-0.1,0.2-0.1,0.3-0.1C619.4,49,619.4,49.1,619.3,49.1L619.3,49.1z"/>
							<path class="st7" d="M619.8,49.7c-0.1,0.1-0.2,0.2-0.3,0.1c-0.1-0.1-0.1-0.2-0.1-0.4c0.1-0.1,0.2-0.2,0.3-0.1
								C619.9,49.4,619.9,49.5,619.8,49.7z M619.9,49.7c0.1-0.1,0.1-0.3-0.1-0.5c-0.2-0.1-0.4,0-0.5,0.1s-0.1,0.3,0.1,0.5
								C619.7,50,619.8,49.8,619.9,49.7z"/>
						</g>
						<g>
							<polygon class="st6" points="615.7,43.2 615.8,43.5 616.1,43.5 615.9,43.7 616,44 615.7,43.8 615.4,44 615.5,43.7 
								615.2,43.5 615.6,43.5 							"/>
							<polygon class="st6" points="610.2,46.9 610.2,47.2 610.5,47.2 610.3,47.3 610.4,47.5 610.2,47.4 610,47.5 610.1,47.3 
								609.9,47.2 610.1,47.2 							"/>
							<polygon class="st6" points="606.7,45.1 606.8,45.4 607.2,45.4 606.9,45.6 607,45.9 606.7,45.7 606.5,45.9 606.6,45.5 
								606.3,45.4 606.6,45.4 							"/>
							<polygon class="st6" points="608.2,48 608.3,48.2 608.5,48.2 608.3,48.4 608.4,48.7 608.2,48.5 607.9,48.7 608,48.4 
								607.8,48.2 608.1,48.2 							"/>
							<polygon class="st6" points="607.5,48.4 607.6,48.7 608,48.7 607.7,49 607.8,49.3 607.5,49.1 607.2,49.3 607.3,49 607,48.7 
								607.4,48.7 							"/>
							<polygon class="st6" points="606.6,49.3 606.7,49.5 606.9,49.5 606.7,49.6 606.8,49.8 606.6,49.7 606.5,49.8 606.5,49.6 
								606.4,49.5 606.6,49.5 							"/>
							<polygon class="st6" points="609.1,49.3 609.1,49.5 609.4,49.5 609.2,49.7 609.3,49.9 609.1,49.8 608.9,49.9 608.9,49.7 
								608.7,49.5 609,49.5 							"/>
							<polygon class="st6" points="608.9,50.2 609,50.4 609.2,50.4 609,50.6 609.1,50.8 608.9,50.7 608.7,50.8 608.8,50.6 
								608.6,50.4 608.8,50.4 							"/>
							<polygon class="st6" points="610,50.9 610.1,51.2 610.4,51.2 610.2,51.4 610.3,51.8 610,51.6 609.7,51.8 609.8,51.4 
								609.6,51.2 609.9,51.2 							"/>
							<polygon class="st6" points="613.4,50.1 613.5,50.5 613.9,50.5 613.6,50.7 613.7,51.1 613.4,50.8 613.1,51.1 613.2,50.7 
								612.9,50.5 613.3,50.5 							"/>
							<polygon class="st6" points="613,49.3 613,49.4 613.1,49.4 613,49.5 613.1,49.6 613,49.5 612.9,49.6 612.9,49.5 612.8,49.4 
								612.9,49.4 							"/>
							<polygon class="st6" points="612.3,48.7 612.4,48.9 612.6,48.9 612.4,49.1 612.5,49.3 612.3,49.1 612.2,49.3 612.2,49.1 
								612,48.9 612.3,48.9 							"/>
							<polygon class="st6" points="613.5,47.9 613.6,48.1 613.8,48.1 613.6,48.3 613.7,48.5 613.5,48.4 613.3,48.5 613.3,48.3 
								613.1,48.1 613.4,48.1 							"/>
							<polygon class="st6" points="615.3,46 615.4,46.3 615.6,46.3 615.4,46.4 615.5,46.6 615.3,46.5 615.1,46.6 615.2,46.4 
								615,46.3 615.2,46.3 							"/>
							<polygon class="st6" points="614.3,48.7 614.3,48.9 614.6,48.9 614.4,49.1 614.5,49.4 614.3,49.2 614,49.4 614.1,49.1 
								613.9,48.9 614.2,48.9 							"/>
							<polygon class="st6" points="615.2,50.9 615.3,51.3 615.7,51.3 615.4,51.5 615.5,51.9 615.2,51.7 614.8,51.9 615,51.5 
								614.6,51.3 615,51.3 							"/>
							<polygon class="st6" points="615.8,52.2 615.9,52.5 616.2,52.5 615.9,52.7 616,53 615.8,52.8 615.5,53 615.6,52.7 
								615.4,52.5 615.7,52.5 							"/>
							<polygon class="st6" points="616.5,51.3 616.5,51.5 616.8,51.5 616.6,51.7 616.7,51.9 616.5,51.8 616.3,51.9 616.3,51.7 
								616.1,51.5 616.4,51.5 							"/>
							<polygon class="st6" points="617.4,50.7 617.5,51 617.8,51 617.6,51.2 617.7,51.4 617.4,51.3 617.2,51.4 617.3,51.2 
								617.1,51 617.3,51 							"/>
							<polygon class="st6" points="617.5,52 617.5,52.2 617.8,52.2 617.6,52.4 617.7,52.6 617.5,52.5 617.3,52.6 617.3,52.4 
								617.1,52.2 617.4,52.2 							"/>
							<polygon class="st6" points="617.4,52.8 617.5,53 617.7,53 617.5,53.1 617.6,53.3 617.4,53.2 617.3,53.3 617.3,53.1 
								617.2,53 617.4,53 							"/>
							<polygon class="st6" points="618.2,51 618.3,51.3 618.7,51.3 618.4,51.5 618.5,51.8 618.2,51.7 618,51.8 618.1,51.5 
								617.8,51.3 618.1,51.3 							"/>
							<polygon class="st6" points="619.2,50.9 619.2,51.2 619.5,51.2 619.3,51.3 619.3,51.5 619.2,51.4 619,51.5 619.1,51.3 
								618.9,51.2 619.1,51.2 							"/>
							<polygon class="st6" points="619.5,50.3 619.6,50.5 619.7,50.5 619.6,50.6 619.7,50.8 619.5,50.7 619.4,50.8 619.4,50.6 
								619.3,50.5 619.5,50.5 							"/>
							<polygon class="st6" points="619.1,49.2 619.1,49.4 619.3,49.4 619.2,49.5 619.2,49.7 619.1,49.6 618.9,49.7 619,49.6 
								618.8,49.4 619,49.4 							"/>
							<polygon class="st6" points="620.3,49.1 620.4,49.4 620.7,49.4 620.4,49.6 620.5,50 620.3,49.8 620,50 620.1,49.6 
								619.8,49.4 620.2,49.4 							"/>
							<polygon class="st6" points="613.5,53 613.5,53.2 613.8,53.2 613.6,53.4 613.6,53.6 613.5,53.4 613.3,53.6 613.4,53.4 
								613.2,53.2 613.4,53.2 							"/>
						</g>
					</g>
				</g>
			</g>
		</g>
	</g>
</g>
<g id="XMLID_2_">
	<g>
		<g>
			<path class="st8" d="M410.5,102.9H406l-0.5,3c0.3,0,0.5-0.1,1-0.1c0.9,0,1.8,0.2,2.6,0.6c0.9,0.5,1.7,1.5,1.7,3
				c0,2.3-1.8,4-4.4,4c-1.3,0-2.4-0.4-3-0.7l0.4-1.2c0.5,0.3,1.5,0.7,2.5,0.7c1.5,0,2.8-1,2.8-2.6c0-1.5-1-2.6-3.4-2.6
				c-0.7,0-1.2,0.1-1.6,0.1l0.8-5.7h5.7V102.9z"/>
			<path class="st8" d="M417.1,106.9c0-0.9,0-1.7-0.1-2.4h1.4l0.1,1.4h0.1c0.5-0.8,1.3-1.6,2.8-1.6c1.2,0,2.1,0.7,2.5,1.8h0
				c0.3-0.5,0.6-0.9,1-1.1c0.5-0.4,1.1-0.6,1.9-0.6c1.2,0,2.9,0.8,2.9,3.8v5.2h-1.6v-5c0-1.7-0.6-2.7-1.9-2.7
				c-0.9,0-1.6,0.7-1.9,1.5c-0.1,0.2-0.1,0.5-0.1,0.8v5.4h-1.6v-5.3c0-1.4-0.6-2.4-1.8-2.4c-1,0-1.7,0.8-2,1.6
				c-0.1,0.2-0.1,0.5-0.1,0.8v5.3h-1.6V106.9z"/>
			<path class="st8" d="M440.3,108.9c0,3.3-2.3,4.7-4.4,4.7c-2.4,0-4.2-1.7-4.2-4.5c0-3,1.9-4.7,4.4-4.7
				C438.6,104.3,440.3,106.2,440.3,108.9z M433.3,109c0,1.9,1.1,3.4,2.7,3.4c1.5,0,2.7-1.4,2.7-3.4c0-1.5-0.7-3.4-2.6-3.4
				S433.3,107.3,433.3,109z"/>
			<path class="st8" d="M442.3,106.9c0-0.9,0-1.7-0.1-2.4h1.4l0.1,1.5h0c0.4-0.8,1.5-1.7,2.9-1.7c1.2,0,3.1,0.7,3.1,3.8v5.3h-1.6
				v-5.1c0-1.4-0.5-2.6-2-2.6c-1.1,0-1.9,0.7-2.1,1.6c-0.1,0.2-0.1,0.5-0.1,0.7v5.3h-1.6V106.9z"/>
			<path class="st8" d="M454.3,102v2.5h2.3v1.2h-2.3v4.8c0,1.1,0.3,1.7,1.2,1.7c0.4,0,0.7-0.1,0.9-0.1l0.1,1.2
				c-0.3,0.1-0.8,0.2-1.4,0.2c-0.7,0-1.3-0.2-1.7-0.7c-0.5-0.5-0.6-1.3-0.6-2.3v-4.8h-1.4v-1.2h1.4v-2.1L454.3,102z"/>
			<path class="st8" d="M458.4,100.4h1.6v5.5h0c0.3-0.5,0.7-0.9,1.1-1.1c0.5-0.3,1-0.5,1.6-0.5c1.2,0,3.1,0.7,3.1,3.8v5.2h-1.6v-5.1
				c0-1.4-0.5-2.6-2-2.6c-1,0-1.9,0.7-2.1,1.6c-0.1,0.2-0.1,0.5-0.1,0.8v5.3h-1.6V100.4z"/>
			<path class="st8" d="M477.3,113.4l-0.1-1.1h-0.1c-0.5,0.7-1.4,1.3-2.7,1.3c-1.8,0-2.7-1.3-2.7-2.5c0-2.1,1.9-3.3,5.3-3.3v-0.2
				c0-0.7-0.2-2-2-2c-0.8,0-1.7,0.3-2.3,0.7l-0.4-1.1c0.7-0.5,1.8-0.8,2.9-0.8c2.7,0,3.4,1.8,3.4,3.6v3.3c0,0.8,0,1.5,0.1,2.1H477.3
				z M477,108.9c-1.7,0-3.7,0.3-3.7,2c0,1,0.7,1.5,1.5,1.5c1.1,0,1.9-0.7,2.1-1.5c0.1-0.2,0.1-0.3,0.1-0.5V108.9z"/>
			<path class="st8" d="M480.9,111.7c0.5,0.3,1.3,0.6,2.1,0.6c1.2,0,1.7-0.6,1.7-1.3c0-0.8-0.5-1.2-1.6-1.6
				c-1.6-0.6-2.3-1.4-2.3-2.5c0-1.4,1.1-2.6,3-2.6c0.9,0,1.7,0.3,2.2,0.5l-0.4,1.2c-0.3-0.2-1-0.5-1.8-0.5c-0.9,0-1.5,0.5-1.5,1.2
				c0,0.7,0.5,1.1,1.7,1.5c1.5,0.6,2.3,1.3,2.3,2.7c0,1.5-1.2,2.6-3.3,2.6c-1,0-1.9-0.2-2.5-0.6L480.9,111.7z"/>
			<path class="st8" d="M501.6,112.8c-0.7,0.3-2.1,0.7-3.8,0.7c-1.9,0-3.4-0.5-4.6-1.6c-1.1-1-1.7-2.7-1.7-4.6
				c0-3.7,2.5-6.3,6.6-6.3c1.4,0,2.5,0.3,3.1,0.6l-0.4,1.3c-0.7-0.3-1.5-0.5-2.7-0.5c-3,0-4.9,1.9-4.9,4.9c0,3.1,1.9,5,4.7,5
				c1,0,1.7-0.1,2.1-0.3v-3.7h-2.5v-1.3h4V112.8z"/>
			<path class="st8" d="M504,107.3c0-1,0-1.9-0.1-2.8h1.4l0.1,1.7h0.1c0.4-1.2,1.4-1.9,2.4-1.9c0.2,0,0.3,0,0.5,0.1v1.5
				c-0.2,0-0.3-0.1-0.5-0.1c-1.1,0-1.9,0.9-2.1,2.1c0,0.2-0.1,0.5-0.1,0.7v4.7H504V107.3z"/>
			<path class="st8" d="M514.8,113.4l-0.1-1.1h-0.1c-0.5,0.7-1.4,1.3-2.7,1.3c-1.8,0-2.7-1.3-2.7-2.5c0-2.1,1.9-3.3,5.3-3.3v-0.2
				c0-0.7-0.2-2-2-2c-0.8,0-1.7,0.3-2.3,0.7l-0.4-1.1c0.7-0.5,1.8-0.8,2.9-0.8c2.7,0,3.4,1.8,3.4,3.6v3.3c0,0.8,0,1.5,0.1,2.1H514.8
				z M514.5,108.9c-1.7,0-3.7,0.3-3.7,2c0,1,0.7,1.5,1.5,1.5c1.1,0,1.9-0.7,2.1-1.5c0.1-0.2,0.1-0.3,0.1-0.5V108.9z"/>
			<path class="st8" d="M518.7,107.4c0-1.1,0-2-0.1-2.9h1.4l0.1,1.5h0c0.7-1.1,1.7-1.7,3.1-1.7c2.1,0,3.7,1.8,3.7,4.5
				c0,3.2-1.9,4.7-4,4.7c-1.2,0-2.2-0.5-2.7-1.4h0v4.8h-1.6V107.4z M520.3,109.8c0,0.2,0,0.5,0.1,0.7c0.3,1.1,1.3,1.9,2.4,1.9
				c1.7,0,2.7-1.4,2.7-3.4c0-1.8-0.9-3.3-2.6-3.3c-1.1,0-2.1,0.8-2.4,2c-0.1,0.2-0.1,0.4-0.1,0.7V109.8z"/>
			<path class="st8" d="M529,100.4h1.6v5.5h0c0.3-0.5,0.7-0.9,1.1-1.1c0.5-0.3,1-0.5,1.6-0.5c1.2,0,3.1,0.7,3.1,3.8v5.2h-1.6v-5.1
				c0-1.4-0.5-2.6-2-2.6c-1,0-1.9,0.7-2.1,1.6c-0.1,0.2-0.1,0.5-0.1,0.8v5.3H529V100.4z"/>
			<path class="st8" d="M540.9,102.1c0,0.5-0.4,1-1,1c-0.6,0-1-0.4-1-1c0-0.6,0.4-1,1-1C540.5,101.1,540.9,101.5,540.9,102.1z
				 M539.1,113.4v-8.8h1.6v8.8H539.1z"/>
			<path class="st8" d="M549.7,113c-0.4,0.2-1.3,0.5-2.5,0.5c-2.7,0-4.4-1.8-4.4-4.5c0-2.7,1.9-4.7,4.7-4.7c0.9,0,1.8,0.2,2.2,0.5
				l-0.4,1.2c-0.4-0.2-1-0.4-1.9-0.4c-2,0-3.1,1.5-3.1,3.3c0,2,1.3,3.3,3.1,3.3c0.9,0,1.5-0.2,2-0.4L549.7,113z"/>
			<path class="st8" d="M404,123.1c1-0.1,2.1-0.3,3.4-0.3c2.3,0,3.9,0.5,5,1.5c1.1,1,1.7,2.4,1.7,4.4c0,2-0.6,3.6-1.8,4.8
				c-1.1,1.1-3,1.8-5.4,1.8c-1.1,0-2.1-0.1-2.9-0.1V123.1z M405.6,134c0.4,0.1,1,0.1,1.6,0.1c3.4,0,5.2-1.9,5.2-5.2
				c0-2.9-1.6-4.7-5-4.7c-0.8,0-1.4,0.1-1.9,0.2V134z"/>
			<path class="st8" d="M417,131.1c0,2.2,1.4,3.1,3,3.1c1.1,0,1.8-0.2,2.4-0.5l0.3,1.1c-0.6,0.3-1.5,0.5-2.9,0.5
				c-2.7,0-4.3-1.8-4.3-4.4c0-2.7,1.6-4.8,4.1-4.8c2.9,0,3.6,2.5,3.6,4.2c0,0.3,0,0.6-0.1,0.7H417z M421.7,129.9
				c0-1-0.4-2.6-2.2-2.6c-1.6,0-2.3,1.5-2.5,2.6H421.7z"/>
			<path class="st8" d="M425,133.6c0.5,0.3,1.3,0.6,2.1,0.6c1.2,0,1.7-0.6,1.7-1.3c0-0.8-0.5-1.2-1.6-1.6c-1.6-0.6-2.3-1.4-2.3-2.5
				c0-1.4,1.1-2.6,3-2.6c0.9,0,1.7,0.3,2.2,0.5l-0.4,1.2c-0.3-0.2-1-0.5-1.8-0.5c-0.9,0-1.5,0.5-1.5,1.2c0,0.7,0.5,1.1,1.7,1.5
				c1.5,0.6,2.3,1.3,2.3,2.7c0,1.5-1.2,2.6-3.3,2.6c-1,0-1.9-0.2-2.5-0.6L425,133.6z"/>
			<path class="st8" d="M434.3,123.9c0,0.5-0.4,1-1,1c-0.6,0-1-0.4-1-1c0-0.6,0.4-1,1-1C433.9,122.9,434.3,123.4,434.3,123.9z
				 M432.5,135.2v-8.8h1.6v8.8H432.5z"/>
			<path class="st8" d="M444.3,126.4c0,0.6-0.1,1.3-0.1,2.4v5.1c0,2-0.4,3.3-1.3,4c-0.9,0.8-2.1,1.1-3.2,1.1c-1.1,0-2.2-0.3-2.9-0.7
				l0.4-1.2c0.6,0.4,1.5,0.7,2.6,0.7c1.6,0,2.8-0.9,2.8-3.1v-1h0c-0.5,0.8-1.4,1.5-2.8,1.5c-2.2,0-3.8-1.9-3.8-4.3
				c0-3,1.9-4.7,4-4.7c1.5,0,2.4,0.8,2.8,1.5h0l0.1-1.3H444.3z M442.7,129.9c0-0.3,0-0.5-0.1-0.7c-0.3-0.9-1.1-1.7-2.2-1.7
				c-1.5,0-2.6,1.3-2.6,3.3c0,1.7,0.9,3.2,2.6,3.2c1,0,1.9-0.6,2.2-1.6c0.1-0.3,0.1-0.6,0.1-0.9V129.9z"/>
			<path class="st8" d="M446.8,128.8c0-0.9,0-1.7-0.1-2.4h1.4l0.1,1.5h0c0.4-0.8,1.5-1.7,2.9-1.7c1.2,0,3.1,0.7,3.1,3.8v5.3h-1.6
				v-5.1c0-1.4-0.5-2.6-2-2.6c-1.1,0-1.9,0.7-2.1,1.6c-0.1,0.2-0.1,0.5-0.1,0.7v5.3h-1.6V128.8z"/>
			<path class="st8" d="M457.8,131.1c0,2.2,1.4,3.1,3,3.1c1.1,0,1.8-0.2,2.4-0.5l0.3,1.1c-0.6,0.3-1.5,0.5-2.9,0.5
				c-2.7,0-4.3-1.8-4.3-4.4c0-2.7,1.6-4.8,4.1-4.8c2.9,0,3.6,2.5,3.6,4.2c0,0.3,0,0.6-0.1,0.7H457.8z M462.5,129.9
				c0-1-0.4-2.6-2.2-2.6c-1.6,0-2.3,1.5-2.5,2.6H462.5z"/>
			<path class="st8" d="M466.1,129.1c0-1,0-1.9-0.1-2.8h1.4l0.1,1.7h0.1c0.4-1.2,1.4-1.9,2.4-1.9c0.2,0,0.3,0,0.5,0.1v1.5
				c-0.2,0-0.3-0.1-0.5-0.1c-1.1,0-1.9,0.9-2.1,2.1c0,0.2-0.1,0.5-0.1,0.7v4.7h-1.6V129.1z"/>
			<path class="st8" d="M480.8,135.2l-0.1-1.1h-0.1c-0.5,0.7-1.4,1.3-2.7,1.3c-1.8,0-2.7-1.3-2.7-2.5c0-2.1,1.9-3.3,5.3-3.3v-0.2
				c0-0.7-0.2-2-2-2c-0.8,0-1.7,0.3-2.3,0.7l-0.4-1.1c0.7-0.5,1.8-0.8,2.9-0.8c2.7,0,3.4,1.8,3.4,3.6v3.3c0,0.8,0,1.5,0.1,2.1H480.8
				z M480.5,130.7c-1.7,0-3.7,0.3-3.7,2c0,1,0.7,1.5,1.5,1.5c1.1,0,1.9-0.7,2.1-1.5c0.1-0.2,0.1-0.3,0.1-0.5V130.7z"/>
			<path class="st8" d="M486.5,123.9v2.5h2.3v1.2h-2.3v4.8c0,1.1,0.3,1.7,1.2,1.7c0.4,0,0.7-0.1,0.9-0.1l0.1,1.2
				c-0.3,0.1-0.8,0.2-1.4,0.2c-0.7,0-1.3-0.2-1.7-0.7c-0.5-0.5-0.6-1.3-0.6-2.3v-4.8h-1.4v-1.2h1.4v-2.1L486.5,123.9z"/>
			<path class="st8" d="M494.5,123.1c0.8-0.1,1.8-0.2,3-0.2c1.6,0,2.7,0.4,3.4,1c0.7,0.6,1.1,1.5,1.1,2.6c0,1.1-0.3,2-0.9,2.6
				c-0.8,0.9-2.2,1.3-3.8,1.3c-0.5,0-0.9,0-1.3-0.1v4.9h-1.6V123.1z M496.1,129c0.3,0.1,0.8,0.1,1.3,0.1c1.9,0,3.1-0.9,3.1-2.6
				c0-1.6-1.1-2.4-2.9-2.4c-0.7,0-1.2,0.1-1.5,0.1V129z"/>
			<path class="st8" d="M511.7,130.7c0,3.3-2.3,4.7-4.4,4.7c-2.4,0-4.2-1.7-4.2-4.5c0-3,1.9-4.7,4.4-4.7
				C510,126.2,511.7,128,511.7,130.7z M504.7,130.8c0,1.9,1.1,3.4,2.7,3.4c1.5,0,2.7-1.4,2.7-3.4c0-1.5-0.7-3.4-2.6-3.4
				S504.7,129.1,504.7,130.8z"/>
			<path class="st8" d="M514.6,131.1c0,2.2,1.4,3.1,3,3.1c1.1,0,1.8-0.2,2.4-0.5l0.3,1.1c-0.6,0.3-1.5,0.5-2.9,0.5
				c-2.7,0-4.3-1.8-4.3-4.4c0-2.7,1.6-4.8,4.1-4.8c2.9,0,3.6,2.5,3.6,4.2c0,0.3,0,0.6-0.1,0.7H514.6z M519.3,129.9
				c0-1-0.4-2.6-2.2-2.6c-1.6,0-2.3,1.5-2.5,2.6H519.3z"/>
			<path class="st8" d="M524.6,123.9c0,0.5-0.4,1-1,1c-0.6,0-1-0.4-1-1c0-0.6,0.4-1,1-1C524.3,122.9,524.6,123.4,524.6,123.9z
				 M522.9,135.2v-8.8h1.6v8.8H522.9z"/>
			<path class="st8" d="M527.1,129.1c0-1,0-1.9-0.1-2.8h1.4l0.1,1.7h0.1c0.4-1.2,1.4-1.9,2.4-1.9c0.2,0,0.3,0,0.5,0.1v1.5
				c-0.2,0-0.3-0.1-0.5-0.1c-1.1,0-1.9,0.9-2.1,2.1c0,0.2-0.1,0.5-0.1,0.7v4.7h-1.6V129.1z"/>
			<path class="st8" d="M537.9,135.2l-0.1-1.1h-0.1c-0.5,0.7-1.4,1.3-2.7,1.3c-1.8,0-2.7-1.3-2.7-2.5c0-2.1,1.9-3.3,5.3-3.3v-0.2
				c0-0.7-0.2-2-2-2c-0.8,0-1.7,0.3-2.3,0.7l-0.4-1.1c0.7-0.5,1.8-0.8,2.9-0.8c2.7,0,3.4,1.8,3.4,3.6v3.3c0,0.8,0,1.5,0.1,2.1H537.9
				z M537.6,130.7c-1.7,0-3.7,0.3-3.7,2c0,1,0.7,1.5,1.5,1.5c1.1,0,1.9-0.7,2.1-1.5c0.1-0.2,0.1-0.3,0.1-0.5V130.7z"/>
			<path class="st8" d="M405.6,144.8v12.3H404v-12.3H405.6z"/>
			<path class="st8" d="M408.5,150.6c0-0.9,0-1.7-0.1-2.4h1.4l0.1,1.5h0c0.4-0.8,1.5-1.7,2.9-1.7c1.2,0,3.1,0.7,3.1,3.8v5.3h-1.6
				V152c0-1.4-0.5-2.6-2-2.6c-1.1,0-1.9,0.7-2.1,1.6c-0.1,0.2-0.1,0.5-0.1,0.7v5.3h-1.6V150.6z"/>
			<path class="st8" d="M420.4,145.7v2.5h2.3v1.2h-2.3v4.8c0,1.1,0.3,1.7,1.2,1.7c0.4,0,0.7-0.1,0.9-0.1l0.1,1.2
				c-0.3,0.1-0.8,0.2-1.4,0.2c-0.7,0-1.3-0.2-1.7-0.7c-0.5-0.5-0.6-1.3-0.6-2.3v-4.8h-1.4v-1.2h1.4v-2.1L420.4,145.7z"/>
			<path class="st8" d="M425.3,153c0,2.2,1.4,3.1,3,3.1c1.1,0,1.8-0.2,2.4-0.5l0.3,1.1c-0.6,0.3-1.5,0.5-2.9,0.5
				c-2.7,0-4.3-1.8-4.3-4.4c0-2.7,1.6-4.8,4.1-4.8c2.9,0,3.6,2.5,3.6,4.2c0,0.3,0,0.6-0.1,0.7H425.3z M430,151.8
				c0-1-0.4-2.6-2.2-2.6c-1.6,0-2.3,1.5-2.5,2.6H430z"/>
			<path class="st8" d="M433.6,151c0-1,0-1.9-0.1-2.8h1.4l0.1,1.7h0.1c0.4-1.2,1.4-1.9,2.4-1.9c0.2,0,0.3,0,0.5,0.1v1.5
				c-0.2,0-0.3-0.1-0.5-0.1c-1.1,0-1.9,0.9-2.1,2.1c0,0.2-0.1,0.5-0.1,0.7v4.7h-1.6V151z"/>
			<path class="st8" d="M441.4,145.8c0,0.5-0.4,1-1,1c-0.6,0-1-0.4-1-1c0-0.6,0.4-1,1-1C441,144.8,441.4,145.2,441.4,145.8z
				 M439.6,157.1v-8.8h1.6v8.8H439.6z"/>
			<path class="st8" d="M451.8,152.6c0,3.3-2.3,4.7-4.4,4.7c-2.4,0-4.2-1.7-4.2-4.5c0-3,1.9-4.7,4.4-4.7
				C450.1,148.1,451.8,149.9,451.8,152.6z M444.8,152.7c0,1.9,1.1,3.4,2.7,3.4c1.5,0,2.7-1.4,2.7-3.4c0-1.5-0.7-3.4-2.6-3.4
				S444.8,151,444.8,152.7z"/>
			<path class="st8" d="M453.9,151c0-1,0-1.9-0.1-2.8h1.4l0.1,1.7h0.1c0.4-1.2,1.4-1.9,2.4-1.9c0.2,0,0.3,0,0.5,0.1v1.5
				c-0.2,0-0.3-0.1-0.5-0.1c-1.1,0-1.9,0.9-2.1,2.1c0,0.2-0.1,0.5-0.1,0.7v4.7h-1.6V151z"/>
			<path class="st8" d="M463.7,145c1-0.1,2.1-0.3,3.4-0.3c2.3,0,3.9,0.5,5,1.5c1.1,1,1.7,2.4,1.7,4.4c0,2-0.6,3.6-1.8,4.8
				c-1.1,1.1-3,1.8-5.4,1.8c-1.1,0-2.1-0.1-2.9-0.1V145z M465.3,155.8c0.4,0.1,1,0.1,1.6,0.1c3.4,0,5.2-1.9,5.2-5.2
				c0-2.9-1.6-4.7-5-4.7c-0.8,0-1.4,0.1-1.9,0.2V155.8z"/>
			<path class="st8" d="M476.8,153c0,2.2,1.4,3.1,3,3.1c1.1,0,1.8-0.2,2.4-0.5l0.3,1.1c-0.6,0.3-1.5,0.5-2.9,0.5
				c-2.7,0-4.3-1.8-4.3-4.4c0-2.7,1.6-4.8,4.1-4.8c2.9,0,3.6,2.5,3.6,4.2c0,0.3,0,0.6-0.1,0.7H476.8z M481.5,151.8
				c0-1-0.4-2.6-2.2-2.6c-1.6,0-2.3,1.5-2.5,2.6H481.5z"/>
			<path class="st8" d="M484.8,155.4c0.5,0.3,1.3,0.6,2.1,0.6c1.2,0,1.7-0.6,1.7-1.3c0-0.8-0.5-1.2-1.6-1.6
				c-1.6-0.6-2.3-1.4-2.3-2.5c0-1.4,1.1-2.6,3-2.6c0.9,0,1.7,0.3,2.2,0.5l-0.4,1.2c-0.3-0.2-1-0.5-1.8-0.5c-0.9,0-1.5,0.5-1.5,1.2
				c0,0.7,0.5,1.1,1.7,1.5c1.5,0.6,2.3,1.3,2.3,2.7c0,1.5-1.2,2.6-3.3,2.6c-1,0-1.9-0.2-2.5-0.6L484.8,155.4z"/>
			<path class="st8" d="M494,145.8c0,0.5-0.4,1-1,1c-0.6,0-1-0.4-1-1c0-0.6,0.4-1,1-1C493.6,144.8,494,145.2,494,145.8z
				 M492.2,157.1v-8.8h1.6v8.8H492.2z"/>
			<path class="st8" d="M504.1,148.3c0,0.6-0.1,1.3-0.1,2.4v5.1c0,2-0.4,3.3-1.3,4c-0.9,0.8-2.1,1.1-3.2,1.1c-1.1,0-2.2-0.3-2.9-0.7
				l0.4-1.2c0.6,0.4,1.5,0.7,2.6,0.7c1.6,0,2.8-0.9,2.8-3.1v-1h0c-0.5,0.8-1.4,1.5-2.8,1.5c-2.2,0-3.8-1.9-3.8-4.3
				c0-3,1.9-4.7,4-4.7c1.5,0,2.4,0.8,2.8,1.5h0l0.1-1.3H504.1z M502.4,151.7c0-0.3,0-0.5-0.1-0.7c-0.3-0.9-1.1-1.7-2.2-1.7
				c-1.5,0-2.6,1.3-2.6,3.3c0,1.7,0.9,3.2,2.6,3.2c1,0,1.9-0.6,2.2-1.6c0.1-0.3,0.1-0.6,0.1-0.9V151.7z"/>
			<path class="st8" d="M506.6,150.6c0-0.9,0-1.7-0.1-2.4h1.4l0.1,1.5h0c0.4-0.8,1.5-1.7,2.9-1.7c1.2,0,3.1,0.7,3.1,3.8v5.3h-1.6
				V152c0-1.4-0.5-2.6-2-2.6c-1.1,0-1.9,0.7-2.1,1.6c-0.1,0.2-0.1,0.5-0.1,0.7v5.3h-1.6V150.6z"/>
			<path class="st8" d="M516.3,156.1c0-0.7,0.5-1.1,1.1-1.1c0.6,0,1.1,0.5,1.1,1.1c0,0.7-0.4,1.1-1.1,1.1
				C516.7,157.3,516.3,156.8,516.3,156.1z"/>
		</g>
	</g>
</g>
<g>
	<path class="st0" d="M404.7,74.9v-28h2.2v28H404.7z"/>
	<path class="st0" d="M411,46.9h2.6l6.6,21.2h0.1V46.9h2.2v28h-2.2l-7-22.4h-0.1v22.4H411V46.9z"/>
	<path class="st0" d="M435.2,49h-3.9v25.8h-2.2V49h-3.9v-2.2h10V49z"/>
	<path class="st0" d="M440.3,49v10.7h5V62h-5v10.7h7.1v2.2h-9.3v-28h9V49H440.3z"/>
	<path class="st0" d="M460.9,74.9h-2.2v-9.3c0-2-1.6-3.6-3.7-3.6h-2.6v12.9h-2.2v-28h4.8c3.2,0,5.8,2.6,5.8,5.8v3.4
		c0,1.9-1,3.7-2.4,4.7c1.5,1.1,2.4,2.8,2.4,4.7V74.9z M455.1,59.8c2,0,3.7-1.6,3.7-3.6v-3.4c0-2-1.6-3.6-3.7-3.6h-2.6v10.7H455.1z"
		/>
	<path class="st0" d="M464.6,74.9v-28h2.2v28H464.6z"/>
	<path class="st0" d="M470.7,51.9c0-3,2.4-5.4,5.4-5.4s5.4,2.4,5.4,5.4v18c0,3-2.4,5.4-5.4,5.4s-5.4-2.4-5.4-5.4V51.9z M472.9,69.9
		c0,1.8,1.5,3.2,3.2,3.2s3.2-1.5,3.2-3.2v-18c0-1.8-1.5-3.2-3.2-3.2s-3.2,1.5-3.2,3.2V69.9z"/>
	<path class="st0" d="M496,74.9h-2.2v-9.3c0-2-1.6-3.6-3.7-3.6h-2.6v12.9h-2.2v-28h4.8c3.2,0,5.8,2.6,5.8,5.8v3.4
		c0,1.9-1,3.7-2.4,4.7c1.5,1.1,2.4,2.8,2.4,4.7V74.9z M490.2,59.8c2,0,3.7-1.6,3.7-3.6v-3.4c0-2-1.6-3.6-3.7-3.6h-2.6v10.7H490.2z"
		/>
	<path class="st0" d="M515.9,69.1c0,3.2-2.6,5.8-5.8,5.8h-5v-28h5c3.2,0,5.8,2.6,5.8,5.8V69.1z M513.8,52.7c0-2-1.6-3.6-3.6-3.6
		h-2.8v23.7h2.8c2,0,3.6-1.6,3.6-3.7V52.7z"/>
	<path class="st0" d="M522,49v10.7h5V62h-5v10.7h7.1v2.2h-9.3v-28h9V49H522z"/>
	<path class="st0" d="M532.6,57.2c0,0-1.2-1.5-1.2-3.5v-1.9c0-3,2.4-5.4,5.4-5.4s5.4,2.4,5.4,5.4v3.5l-2.2,0.2v-3.7
		c0-1.8-1.5-3.2-3.2-3.2s-3.2,1.5-3.2,3.2v1.9c0,1.2,0.7,2.1,0.7,2.1l6.6,7.8c0,0,1.3,1.5,1.3,3.6v2.7c0,3-2.4,5.4-5.4,5.4
		s-5.4-2.4-5.4-5.4v-4.1l2.2-0.2v4.4c0,1.8,1.5,3.2,3.2,3.2s3.2-1.5,3.2-3.2v-2.7c0-1.2-0.8-2.2-0.8-2.2L532.6,57.2z"/>
	<path class="st0" d="M545.6,74.9v-28h2.2v28H545.6z"/>
	<path class="st0" d="M557.1,60.5h5.4v14.8l-1.8-0.4v-1c-1,0.8-2.2,1.3-3.6,1.3c-3,0-5.4-2.4-5.4-5.4v-18c0-3,2.4-5.4,5.4-5.4
		s5.4,2.4,5.4,5.4v3.3l-2.2,0.2v-3.6c0-1.8-1.5-3.2-3.2-3.2s-3.2,1.5-3.2,3.2v18c0,1.8,1.5,3.2,3.2,3.2s3.2-1.5,3.2-3.2v-7.2h-3.2
		V60.5z"/>
	<path class="st0" d="M566.3,46.9h2.6l6.6,21.2h0.1V46.9h2.2v28h-2.2l-7-22.4h-0.1v22.4h-2.2V46.9z"/>
</g>
<rect id="XMLID_1_" x="402.6" y="81.8" class="st9" width="176.3" height="6.4"/>
</svg>
