<?xml version="1.0" encoding="utf-8"?>
<!-- Generator: Adobe Illustrator 22.0.0, SVG Export Plug-In . SVG Version: 6.00 Build 0)  -->
<svg version="1.1" id="Layer_1" xmlns="http://www.w3.org/2000/svg" xmlns:xlink="http://www.w3.org/1999/xlink" x="0px" y="0px"
	 viewBox="0 0 655 185.6" style="enable-background:new 0 0 655 185.6;" xml:space="preserve">
<style type="text/css">
	.st0{fill:#DD5361;}
	.st1{fill:#FCFF26;}
	.st2{clip-path:url(#SVGID_2_);}
	.st3{fill:#00AA5B;}
	.st4{fill:#F9D10B;}
	.st5{fill:#005E9E;}
	.st6{fill:#FFFFFF;}
	.st7{fill:#00A460;}
	.st8{fill:#726658;}
	.st9{fill:#DED9D7;}
</style>
<g>
	<g>
		<path class="st0" d="M165.5,45.5h-16.4v-2.4l6.6-6.6c2-2,3.3-3.5,4-4.3c0.6-0.9,1.1-1.7,1.4-2.5c0.3-0.8,0.5-1.7,0.5-2.6
			c0-1.3-0.4-2.4-1.2-3.2c-0.8-0.8-1.9-1.2-3.4-1.2c-1,0-2,0.2-2.9,0.5s-2,1-3.1,1.9l-1.5-1.9c2.3-1.9,4.8-2.9,7.5-2.9
			c2.3,0,4.2,0.6,5.5,1.8s2,2.8,2,4.8c0,1.6-0.4,3.2-1.3,4.7c-0.9,1.5-2.6,3.5-5,5.9l-5.5,5.3v0.1h12.9v2.6
			C165.6,45.5,165.5,45.5,165.5,45.5z"/>
		<path class="st0" d="M185.7,33c0,4.3-0.7,7.5-2,9.7c-1.4,2.1-3.4,3.2-6.2,3.2c-2.7,0-4.7-1.1-6.1-3.3s-2.1-5.4-2.1-9.6
			c0-4.4,0.7-7.6,2-9.7c1.4-2.1,3.4-3.2,6.2-3.2c2.7,0,4.8,1.1,6.2,3.3C185,25.6,185.7,28.8,185.7,33z M172,33
			c0,3.6,0.4,6.3,1.3,7.9c0.9,1.7,2.2,2.5,4.1,2.5c1.9,0,3.3-0.8,4.1-2.5s1.3-4.3,1.3-7.9s-0.4-6.2-1.3-7.9
			c-0.8-1.7-2.2-2.5-4.1-2.5c-1.9,0-3.2,0.8-4.1,2.5C172.5,26.7,172,29.3,172,33z"/>
		<path class="st0" d="M199.6,45.5h-2.8V27.7c0-1.5,0-2.9,0.1-4.2c-0.2,0.2-0.5,0.5-0.8,0.8s-1.7,1.4-4.1,3.3l-1.5-1.9l6.6-5.1h2.4
			v24.9H199.6z"/>
		<path class="st0" d="M209.4,34.8c0-4.9,1-8.6,2.9-11s4.7-3.6,8.5-3.6c1.3,0,2.3,0.1,3,0.3v2.4c-0.9-0.3-1.9-0.4-3-0.4
			c-2.7,0-4.7,0.8-6.1,2.5c-1.4,1.7-2.2,4.3-2.3,7.9h0.2c1.3-2,3.2-2.9,5.9-2.9c2.2,0,4,0.7,5.3,2c1.3,1.4,1.9,3.2,1.9,5.5
			c0,2.6-0.7,4.6-2.1,6.1c-1.4,1.5-3.3,2.2-5.8,2.2c-2.6,0-4.6-1-6.2-2.9C210.2,41,209.4,38.3,209.4,34.8z M217.8,43.4
			c1.6,0,2.9-0.5,3.8-1.5c0.9-1,1.3-2.5,1.3-4.4c0-1.7-0.4-3-1.2-3.9s-2.1-1.4-3.7-1.4c-1,0-2,0.2-2.8,0.6c-0.9,0.4-1.5,1-2,1.7
			s-0.8,1.5-0.8,2.3c0,1.2,0.2,2.3,0.7,3.3s1.1,1.8,1.9,2.4C215.8,43.1,216.8,43.4,217.8,43.4z"/>
		<path class="st0" d="M239.9,20.5l-9.3,25h-2.8l9.3-25H239.9z"/>
		<path class="st0" d="M258.4,45.5H242v-2.4l6.6-6.6c2-2,3.3-3.5,4-4.3c0.6-0.9,1.1-1.7,1.4-2.5c0.3-0.8,0.5-1.7,0.5-2.6
			c0-1.3-0.4-2.4-1.2-3.2c-0.8-0.8-1.9-1.2-3.4-1.2c-1,0-2,0.2-2.9,0.5s-2,1-3.1,1.9l-1.5-1.9c2.3-1.9,4.8-2.9,7.5-2.9
			c2.3,0,4.2,0.6,5.5,1.8s2,2.8,2,4.8c0,1.6-0.4,3.2-1.3,4.7s-2.6,3.5-5,5.9l-5.5,5.3v0.1h12.9v2.6
			C258.5,45.5,258.4,45.5,258.4,45.5z"/>
		<path class="st0" d="M278.6,33c0,4.3-0.7,7.5-2,9.7c-1.4,2.1-3.4,3.2-6.2,3.2c-2.7,0-4.7-1.1-6.1-3.3s-2.1-5.4-2.1-9.6
			c0-4.4,0.7-7.6,2-9.7c1.4-2.1,3.4-3.2,6.2-3.2c2.7,0,4.8,1.1,6.2,3.3C277.9,25.6,278.6,28.8,278.6,33z M264.9,33
			c0,3.6,0.4,6.3,1.3,7.9c0.9,1.7,2.2,2.5,4.1,2.5s3.3-0.8,4.1-2.5c0.8-1.7,1.3-4.3,1.3-7.9s-0.4-6.2-1.3-7.9
			c-0.8-1.7-2.2-2.5-4.1-2.5s-3.2,0.8-4.1,2.5C265.4,26.7,264.9,29.3,264.9,33z"/>
		<path class="st0" d="M292.5,45.5h-2.8V27.7c0-1.5,0-2.9,0.1-4.2c-0.2,0.2-0.5,0.5-0.8,0.8s-1.7,1.4-4.1,3.3l-1.5-1.9l6.6-5.1h2.4
			L292.5,45.5L292.5,45.5z"/>
		<path class="st0" d="M305.2,45.5l10.4-22.4H302v-2.6h16.6v2.3l-10.2,22.7H305.2z"/>
	</g>
	<g>
		<g id="XMLID_352_">
			<path id="XMLID_283_" class="st0" d="M100.5,65h229.7c5.7,0,11.1,2.8,14.3,7.6c3.9,5.8,10.5,9.5,18,9.3
				c10.9-0.3,19.9-9.2,20.4-20.1c0.5-12-9.1-21.9-21-21.9c-7.1,0-13.4,3.5-17.2,9c-3.4,4.8-8.7,7.9-14.5,7.9H100.5V65z"/>
		</g>
		<path class="st0" d="M103,18.5c-23.4-23.4-61.3-23.4-84.7,0s-23.4,61.3,0,84.7c12.6,12.6,29.3,18.4,45.7,17.4
			c14.2-0.8,28.1-6.6,38.9-17.4s16.6-24.8,17.4-39C121.4,47.8,115.5,31,103,18.5z M88.8,89c-15.6,15.6-40.8,15.6-56.4,0
			s-15.6-40.8,0-56.4s40.8-15.6,56.4,0S104.4,73.4,88.8,89z"/>
	</g>
	<g>
		<path class="st0" d="M41.6,48.6c0-4,3.2-7.2,7.2-7.2s7.2,3.2,7.2,7.2v24.9c0,4-3.2,7.2-7.2,7.2s-7.2-3.2-7.2-7.2V48.6z M44.5,73.6
			c0,2.3,1.9,4.2,4.2,4.2s4.2-1.9,4.2-4.2v-25c0-2.3-1.9-4.2-4.2-4.2s-4.2,1.9-4.2,4.2V73.6z"/>
		<path class="st0" d="M63.8,44.9v12.6c1.2-0.9,2.8-1.4,4.4-1.4c4.1,0,7.4,3.3,7.4,7.4v9.9c0,4.1-3.3,7.4-7.4,7.4s-7.4-3.3-7.4-7.4
			v-3.5l2.9-0.3v3.8c0,2.4,2,4.4,4.4,4.4s4.4-2,4.4-4.4v-9.9c0-2.4-2-4.4-4.4-4.4c-2.1,0-4,1.6-4.4,3.7l-3-0.6V42h13.6v2.9H63.8z"/>
	</g>
</g>
<g>
	<g>
		<path class="st1" d="M652.1,51.6c-4-22.6-36.6-22.6-40.7,0c-0.4,2-0.5,4.1-0.5,6.2c0,14.3,8.6,26.6,20.9,32
			c12.3-5.4,20.9-17.7,20.9-32C652.6,55.7,652.4,53.6,652.1,51.6z"/>
	</g>
	<g>
		<g>
			<g>
				<g>
					<defs>
						<path id="SVGID_1_" d="M648.1,55.4c0,8.4-6.3,15.3-14.5,16.2c-0.6,0.1-1.2,0.1-1.9,0.1c-9,0-16.3-7.3-16.3-16.3
							s7.3-16.3,16.3-16.3c0.6,0,1.3,0,1.9,0.1C641.7,40.1,648.1,47,648.1,55.4z"/>
					</defs>
					<clipPath id="SVGID_2_">
						<use xlink:href="#SVGID_1_"  style="overflow:visible;"/>
					</clipPath>
					<g class="st2">
						<path class="st3" d="M655,69.6c0,1.2-1,2.2-2.2,2.2h-42.4c-1.2,0-2.2-1-2.2-2.2V41.3c0-1.2,1-2.2,2.2-2.2h42.4
							c1.2,0,2.2,1,2.2,2.2V69.6z"/>
						<g>
							<polygon class="st4" points="631.6,67.4 612.4,55.5 631.6,43.5 650.8,55.5 							"/>
							<path class="st5" d="M639.6,55.5c0,4.4-3.6,8-8,8s-8-3.6-8-8s3.6-8,8-8C636,47.4,639.6,51,639.6,55.5z"/>
							<path class="st6" d="M628.9,52.6c-1.9-0.3-3.5-0.2-4.5-0.1c-0.3,0.5-0.5,1-0.6,1.6c0.8-0.1,2.6-0.3,5,0
								c2.6,0.4,6.5,1.5,10.3,4.5c0.2-0.5,0.3-1.1,0.3-1.6C635.5,54,631.7,52.9,628.9,52.6z"/>
							<g>
								<path class="st7" d="M625.7,53.1c0,0.2-0.1,0.3-0.2,0.3c-0.1,0-0.2-0.1-0.2-0.3s0.1-0.3,0.2-0.3
									C625.6,52.8,625.7,53,625.7,53.1z M625.8,53.1c0-0.1-0.1-0.4-0.3-0.3c-0.2,0-0.3,0.2-0.3,0.4c0,0.1,0.1,0.3,0.3,0.3
									S625.8,53.3,625.8,53.1z"/>
								<path class="st7" d="M626,52.9h0.2c0,0,0.1,0,0.1,0.1s-0.1,0.1-0.1,0.1H626V52.9z M626,53.2h0.2c0.1,0,0.1,0.1,0.1,0.1
									s0,0.1,0,0.2h0.1l0,0c0,0,0,0,0-0.1v-0.1c0-0.1,0-0.1-0.1-0.1c0.1,0,0.1-0.1,0.1-0.2c0-0.1-0.1-0.2-0.2-0.2h-0.3v0.7h0.1
									L626,53.2z"/>
								<path class="st7" d="M626.7,52.9h0.2c0.1,0,0.2,0.1,0.2,0.3s-0.1,0.3-0.2,0.3h-0.2V52.9z M626.6,53.5h0.3
									c0.2,0,0.3-0.2,0.3-0.3c0-0.2-0.1-0.3-0.3-0.3h-0.3V53.5z"/>
								<path class="st7" d="M627.8,53.5h-0.5v-0.7h0.5v0.1h-0.4v0.2h0.4v0.1h-0.4v0.2L627.8,53.5L627.8,53.5z"/>
								<path class="st7" d="M628.4,53.6v-0.4c0,0,0-0.1,0-0.2l0,0l-0.2,0.5h-0.1L628,53l0,0c0,0.1,0,0.1,0,0.2v0.4h-0.1l0.1-0.7
									h0.1l0.1,0.6l0,0l0.3-0.5h0.1L628.4,53.6L628.4,53.6z"/>
								<path class="st7" d="M630.9,54l-0.5-0.1l0.2-0.7l0.5,0.1v0.1l-0.4-0.1v0.2l0.4,0.1v0.1l-0.4-0.1v0.2L630.9,54L630.9,54z"/>
								<path class="st7" d="M632.9,54L632.9,54c0.2,0,0.2,0.1,0.2,0.2c0,0.1-0.1,0.1-0.2,0.1l-0.2-0.1L632.9,54z M632.8,54.3
									l0.2,0.1c0.1,0,0.2,0,0.3-0.1c0-0.1,0-0.2-0.1-0.2l-0.3-0.1l-0.2,0.6h0.1V54.3z"/>
								<path class="st7" d="M633.5,54.2l0.2,0.1c0,0,0.1,0.1,0.1,0.2c0,0.1-0.1,0.1-0.2,0.1l-0.2-0.1L633.5,54.2z M633.4,54.5
									l0.2,0.1c0.1,0,0.1,0.1,0.1,0.1s0,0.1,0,0.2h0.1l0,0c0,0,0,0,0-0.1v-0.1c0-0.1,0-0.1,0-0.1s0.1,0,0.1-0.1
									c0.1-0.1,0-0.2-0.1-0.3l-0.3-0.1l-0.2,0.6h0.1L633.4,54.5z"/>
								<path class="st7" d="M634.4,54.9c-0.1,0.1-0.2,0.2-0.3,0.2c-0.1-0.1-0.2-0.2-0.1-0.3c0.1-0.1,0.2-0.2,0.3-0.2
									C634.4,54.6,634.4,54.7,634.4,54.9z M634.5,54.9c0.1-0.1,0.1-0.4-0.2-0.5c-0.2-0.1-0.4,0.1-0.4,0.2
									c-0.1,0.1-0.1,0.4,0.2,0.4C634.3,55.2,634.4,55,634.5,54.9z"/>
								<path class="st7" d="M634.8,55l0.3,0.1l-0.2,0.3h-0.1v-0.1c-0.1,0-0.2,0-0.2,0c-0.1,0-0.1-0.1-0.1-0.2c-0.1-0.1,0-0.2,0-0.3
									c0.1-0.2,0.2-0.3,0.4-0.2c0.1,0.1,0.2,0.2,0.2,0.3H635c0-0.1-0.1-0.2-0.1-0.2c-0.1,0-0.2,0-0.3,0.2
									c-0.1,0.1-0.1,0.3,0.1,0.3h0.1C634.9,55.2,634.9,55.1,634.8,55L634.8,55L634.8,55z"/>
								<path class="st7" d="M635.4,55l0.2,0.1c0,0,0.1,0.1,0.1,0.2c0,0.1-0.1,0.1-0.2,0l-0.2-0.1L635.4,55z M635.3,55.3l0.2,0.1
									c0.1,0.1,0.1,0.1,0.1,0.2c0,0-0.1,0.1-0.1,0.2l0.1,0.1l0,0c0,0,0,0,0-0.1l0.1-0.1c0-0.1,0-0.1,0-0.1s0.1,0,0.2-0.1
									c0.1-0.1,0-0.2-0.1-0.3l-0.3-0.1l-0.3,0.6h0.1V55.3z"/>
								<path class="st7" d="M636.1,56.1l-0.4-0.2l0.3-0.6l0.4,0.2v0.1l-0.4-0.2l-0.1,0.2l0.3,0.2v0.1l-0.3-0.2l-0.1,0.2L636.1,56.1
									L636.1,56.1z"/>
								<path class="st7" d="M636.8,55.9c0-0.1,0-0.2-0.1-0.2s-0.1-0.1-0.2,0c0,0.1,0,0.1,0,0.1L636.8,55.9c0,0.1,0,0.2-0.1,0.3
									s-0.2,0.1-0.3,0s-0.1-0.1-0.2-0.2c0-0.1,0-0.1,0-0.2h0.1c-0.1,0.1,0,0.2,0.1,0.2s0.1,0.1,0.2,0c0-0.1,0-0.1-0.1-0.2
									l-0.1-0.1c0,0-0.1-0.1-0.1-0.2c0.1-0.1,0.2-0.1,0.3-0.1C637,55.8,636.9,55.9,636.8,55.9L636.8,55.9z"/>
								<path class="st7" d="M637.4,56.3c0-0.1,0-0.2-0.1-0.2c0,0-0.1-0.1-0.2,0v0.1L637.4,56.3c0,0.1,0,0.2-0.1,0.3s-0.2,0.1-0.3,0
									s-0.1-0.1-0.1-0.2c0-0.1,0-0.1,0-0.2h0.1c-0.1,0.1,0,0.2,0.1,0.2S637.3,56.5,637.4,56.3c-0.1,0-0.1,0-0.2-0.1l-0.1-0.1
									c0,0-0.1-0.1,0-0.2c0.1-0.1,0.2-0.1,0.3-0.1C637.5,56.1,637.5,56.2,637.4,56.3L637.4,56.3z"/>
								<path class="st7" d="M637.9,56.8c-0.1,0.1-0.2,0.2-0.3,0.1c-0.1-0.1-0.1-0.2-0.1-0.4c0.1-0.1,0.2-0.2,0.3-0.1
									C638,56.5,638,56.6,637.9,56.8z M638,56.8c0.1-0.1,0.1-0.3-0.1-0.5c-0.2-0.1-0.4,0-0.5,0.1s-0.1,0.3,0.1,0.5
									C637.7,57.1,637.9,56.9,638,56.8z"/>
							</g>
							<g>
								<polygon class="st6" points="633.8,50.3 633.9,50.6 634.2,50.6 633.9,50.8 634.1,51.1 633.8,50.9 633.5,51.1 633.6,50.8 
									633.3,50.6 633.7,50.6 								"/>
								<polygon class="st6" points="628.3,54.1 628.3,54.3 628.6,54.3 628.4,54.4 628.4,54.6 628.3,54.5 628.1,54.6 628.1,54.4 
									628,54.3 628.2,54.3 								"/>
								<polygon class="st6" points="624.8,52.2 624.9,52.5 625.2,52.5 625,52.7 625.1,53 624.8,52.8 624.6,53 624.7,52.7 
									624.4,52.5 624.7,52.5 								"/>
								<polygon class="st6" points="626.3,55.1 626.3,55.4 626.6,55.3 626.4,55.5 626.5,55.8 626.2,55.6 626,55.8 626.1,55.5 
									625.9,55.3 626.2,55.3 								"/>
								<polygon class="st6" points="625.6,55.5 625.7,55.8 626.1,55.8 625.8,56.1 625.9,56.4 625.6,56.2 625.3,56.4 625.4,56.1 
									625.1,55.8 625.5,55.8 								"/>
								<polygon class="st6" points="624.7,56.4 624.8,56.6 625,56.6 624.8,56.7 624.9,56.9 624.7,56.8 624.6,56.9 624.6,56.7 
									624.5,56.6 624.7,56.6 								"/>
								<polygon class="st6" points="627.1,56.4 627.2,56.6 627.5,56.6 627.3,56.8 627.4,57 627.2,56.9 626.9,57 627,56.8 
									626.8,56.6 627.1,56.6 								"/>
								<polygon class="st6" points="627,57.3 627.1,57.5 627.3,57.5 627.1,57.7 627.2,57.9 627,57.8 626.8,57.9 626.9,57.7 
									626.7,57.5 626.9,57.5 								"/>
								<polygon class="st6" points="628.1,58 628.2,58.3 628.5,58.3 628.3,58.5 628.4,58.9 628.1,58.7 627.8,58.9 627.9,58.5 
									627.6,58.3 628,58.3 								"/>
								<polygon class="st6" points="631.5,57.2 631.6,57.6 631.9,57.6 631.6,57.8 631.8,58.2 631.5,57.9 631.2,58.2 631.3,57.8 
									631,57.6 631.3,57.6 								"/>
								<polygon class="st6" points="631.1,56.4 631.1,56.5 631.2,56.5 631.1,56.6 631.2,56.7 631.1,56.6 631,56.7 631,56.6 
									630.9,56.5 631,56.5 								"/>
								<polygon class="st6" points="630.4,55.8 630.5,56.1 630.7,56.1 630.5,56.2 630.6,56.4 630.4,56.3 630.2,56.4 630.3,56.2 
									630.1,56.1 630.3,56.1 								"/>
								<polygon class="st6" points="631.6,55 631.6,55.2 631.9,55.2 631.7,55.4 631.8,55.6 631.6,55.5 631.3,55.6 631.4,55.4 
									631.2,55.2 631.5,55.2 								"/>
								<polygon class="st6" points="633.4,53.1 633.4,53.4 633.7,53.4 633.5,53.5 633.6,53.7 633.4,53.6 633.2,53.7 633.2,53.5 
									633.1,53.4 633.3,53.4 								"/>
								<polygon class="st6" points="632.3,55.8 632.4,56 632.7,56 632.5,56.2 632.6,56.5 632.3,56.3 632.1,56.5 632.2,56.2 632,56 
									632.3,56 								"/>
								<polygon class="st6" points="633.2,58 633.4,58.4 633.8,58.4 633.4,58.6 633.6,59 633.2,58.8 632.9,59 633,58.6 632.7,58.4 
									633.1,58.4 								"/>
								<polygon class="st6" points="633.9,59.3 634,59.6 634.3,59.6 634,59.8 634.1,60.1 633.9,59.9 633.6,60.1 633.7,59.8 
									633.5,59.6 633.8,59.6 								"/>
								<polygon class="st6" points="634.5,58.4 634.6,58.6 634.9,58.6 634.7,58.8 634.8,59.1 634.6,58.9 634.3,59 634.4,58.8 
									634.2,58.6 634.5,58.6 								"/>
								<polygon class="st6" points="635.5,57.8 635.6,58.1 635.9,58.1 635.7,58.3 635.8,58.6 635.5,58.4 635.3,58.6 635.4,58.3 
									635.1,58.1 635.4,58.1 								"/>
								<polygon class="st6" points="635.5,59.1 635.6,59.3 635.8,59.3 635.7,59.5 635.7,59.7 635.5,59.6 635.4,59.7 635.4,59.5 
									635.2,59.3 635.5,59.3 								"/>
								<polygon class="st6" points="635.5,59.9 635.6,60.1 635.8,60.1 635.6,60.2 635.7,60.4 635.5,60.3 635.4,60.4 635.4,60.2 
									635.3,60.1 635.4,60.1 								"/>
								<polygon class="st6" points="636.3,58.1 636.4,58.4 636.7,58.4 636.5,58.6 636.6,58.9 636.3,58.8 636.1,58.9 636.2,58.6 
									635.9,58.4 636.2,58.4 								"/>
								<polygon class="st6" points="637.2,58.1 637.3,58.3 637.5,58.3 637.4,58.4 637.4,58.6 637.3,58.5 637.1,58.6 637.1,58.4 
									637,58.3 637.2,58.3 								"/>
								<polygon class="st6" points="637.6,57.4 637.6,57.6 637.8,57.6 637.7,57.7 637.7,57.9 637.6,57.8 637.5,57.9 637.5,57.7 
									637.4,57.6 637.6,57.6 								"/>
								<polygon class="st6" points="637.2,56.4 637.2,56.5 637.4,56.5 637.2,56.7 637.3,56.8 637.1,56.7 637,56.8 637,56.7 
									636.9,56.5 637.1,56.5 								"/>
								<polygon class="st6" points="638.4,56.2 638.5,56.5 638.8,56.5 638.5,56.7 638.6,57.1 638.4,56.9 638.1,57.1 638.2,56.7 
									637.9,56.5 638.2,56.5 								"/>
								<polygon class="st6" points="631.6,60.1 631.6,60.3 631.8,60.3 631.7,60.5 631.7,60.7 631.6,60.6 631.4,60.7 631.5,60.5 
									631.3,60.3 631.5,60.3 								"/>
							</g>
						</g>
					</g>
				</g>
			</g>
		</g>
	</g>
</g>
<g>
	<g id="XMLID_312_">
		<g>
			<g>
				<path class="st8" d="M407,103.9L407,103.9l-2.1,1.1l-0.3-1.2l2.6-1.4h1.4v11.8H407V103.9z"/>
				<path class="st8" d="M417.8,105.4l1.9,5.2c0.2,0.6,0.4,1.3,0.6,1.8h0c0.2-0.5,0.3-1.2,0.6-1.8l1.7-5.2h1.7l-2.4,6.3
					c-1.1,3-1.9,4.6-3,5.5c-0.8,0.7-1.6,1-2,1l-0.4-1.3c0.4-0.1,0.9-0.4,1.4-0.8c0.4-0.3,1-1,1.3-1.8c0.1-0.2,0.1-0.3,0.1-0.4
					s0-0.2-0.1-0.4l-3.3-8.1H417.8z"/>
				<path class="st8" d="M426.5,110.1c0,2.2,1.4,3.1,3,3.1c1.1,0,1.8-0.2,2.4-0.5l0.3,1.1c-0.6,0.3-1.5,0.5-2.9,0.5
					c-2.7,0-4.3-1.8-4.3-4.4c0-2.7,1.6-4.8,4.1-4.8c2.9,0,3.6,2.5,3.6,4.2c0,0.3,0,0.6-0.1,0.7H426.5z M431.2,109
					c0-1-0.4-2.6-2.2-2.6c-1.6,0-2.3,1.5-2.5,2.6H431.2z"/>
				<path class="st8" d="M439.6,114.3l-0.1-1.1h-0.1c-0.5,0.7-1.4,1.3-2.7,1.3c-1.8,0-2.7-1.3-2.7-2.5c0-2.1,1.9-3.3,5.3-3.3v-0.2
					c0-0.7-0.2-2-2-2c-0.8,0-1.7,0.3-2.3,0.7l-0.4-1.1c0.7-0.5,1.8-0.8,2.9-0.8c2.7,0,3.4,1.8,3.4,3.6v3.3c0,0.8,0,1.5,0.1,2.1
					H439.6z M439.4,109.8c-1.7,0-3.7,0.3-3.7,2c0,1,0.7,1.5,1.5,1.5c1.1,0,1.9-0.7,2.1-1.5c0.1-0.2,0.1-0.3,0.1-0.5V109.8z"/>
				<path class="st8" d="M443.5,108.2c0-1,0-1.9-0.1-2.8h1.4l0.1,1.7h0.1c0.4-1.2,1.4-1.9,2.4-1.9c0.2,0,0.3,0,0.5,0.1v1.5
					c-0.2,0-0.3-0.1-0.5-0.1c-1.1,0-1.9,0.9-2.1,2.1c0,0.2-0.1,0.5-0.1,0.7v4.7h-1.6V108.2z"/>
				<path class="st8" d="M461.3,109.8c0,3.3-2.3,4.7-4.4,4.7c-2.4,0-4.2-1.7-4.2-4.5c0-3,1.9-4.7,4.4-4.7
					C459.6,105.2,461.3,107.1,461.3,109.8z M454.3,109.9c0,1.9,1.1,3.4,2.7,3.4c1.5,0,2.7-1.4,2.7-3.4c0-1.5-0.7-3.4-2.6-3.4
					S454.3,108.2,454.3,109.9z"/>
				<path class="st8" d="M463.4,107.8c0-0.9,0-1.7-0.1-2.4h1.4l0.1,1.5h0c0.4-0.8,1.5-1.7,2.9-1.7c1.2,0,3.1,0.7,3.1,3.8v5.3h-1.6
					v-5.1c0-1.4-0.5-2.6-2-2.6c-1.1,0-1.9,0.7-2.1,1.6c-0.1,0.2-0.1,0.5-0.1,0.7v5.3h-1.6V107.8z"/>
				<path class="st8" d="M482.2,114.3l-0.1-1.1H482c-0.5,0.7-1.4,1.3-2.7,1.3c-1.8,0-2.7-1.3-2.7-2.5c0-2.1,1.9-3.3,5.3-3.3v-0.2
					c0-0.7-0.2-2-2-2c-0.8,0-1.7,0.3-2.3,0.7l-0.4-1.1c0.7-0.5,1.8-0.8,2.9-0.8c2.7,0,3.4,1.8,3.4,3.6v3.3c0,0.8,0,1.5,0.1,2.1
					H482.2z M482,109.8c-1.7,0-3.7,0.3-3.7,2c0,1,0.7,1.5,1.5,1.5c1.1,0,1.9-0.7,2.1-1.5c0.1-0.2,0.1-0.3,0.1-0.5V109.8z"/>
				<path class="st8" d="M491.6,103.3h-3.7V102h9.1v1.3h-3.8v10.9h-1.6V103.3z"/>
				<path class="st8" d="M497.5,108.2c0-1,0-1.9-0.1-2.8h1.4l0.1,1.7h0.1c0.4-1.2,1.4-1.9,2.4-1.9c0.2,0,0.3,0,0.5,0.1v1.5
					c-0.2,0-0.3-0.1-0.5-0.1c-1.1,0-1.9,0.9-2.1,2.1c0,0.2-0.1,0.5-0.1,0.7v4.7h-1.6V108.2z"/>
				<path class="st8" d="M508.2,114.3l-0.1-1.1H508c-0.5,0.7-1.4,1.3-2.7,1.3c-1.8,0-2.7-1.3-2.7-2.5c0-2.1,1.9-3.3,5.3-3.3v-0.2
					c0-0.7-0.2-2-2-2c-0.8,0-1.7,0.3-2.3,0.7l-0.4-1.1c0.7-0.5,1.8-0.8,2.9-0.8c2.7,0,3.4,1.8,3.4,3.6v3.3c0,0.8,0,1.5,0.1,2.1
					H508.2z M508,109.8c-1.7,0-3.7,0.3-3.7,2c0,1,0.7,1.5,1.5,1.5c1.1,0,1.9-0.7,2.1-1.5c0.1-0.2,0.1-0.3,0.1-0.5V109.8z"/>
				<path class="st8" d="M519.7,101.3V112c0,0.8,0,1.7,0.1,2.3h-1.4l-0.1-1.5h0c-0.5,1-1.6,1.7-3,1.7c-2.1,0-3.8-1.8-3.8-4.5
					c0-2.9,1.8-4.7,4-4.7c1.3,0,2.3,0.6,2.7,1.3h0v-5.3H519.7z M518.1,109c0-0.2,0-0.5-0.1-0.7c-0.2-1-1.1-1.9-2.3-1.9
					c-1.7,0-2.6,1.5-2.6,3.4c0,1.8,0.9,3.3,2.6,3.3c1.1,0,2.1-0.7,2.4-1.9c0.1-0.2,0.1-0.4,0.1-0.7V109z"/>
				<path class="st8" d="M523.3,110.1c0,2.2,1.4,3.1,3,3.1c1.1,0,1.8-0.2,2.4-0.5l0.3,1.1c-0.6,0.3-1.5,0.5-2.9,0.5
					c-2.7,0-4.3-1.8-4.3-4.4c0-2.7,1.6-4.8,4.1-4.8c2.9,0,3.6,2.5,3.6,4.2c0,0.3,0,0.6-0.1,0.7H523.3z M528,109c0-1-0.4-2.6-2.2-2.6
					c-1.6,0-2.3,1.5-2.5,2.6H528z"/>
				<path class="st8" d="M414.4,130.7c-0.1-1.7-0.2-3.8-0.2-5.3h-0.1c-0.4,1.4-0.9,3-1.5,4.7l-2.2,6h-1.2l-2-5.8
					c-0.6-1.7-1.1-3.3-1.4-4.8h0c0,1.5-0.1,3.6-0.2,5.4l-0.3,5.3h-1.5l0.9-12.3h2l2.1,5.9c0.5,1.5,0.9,2.9,1.2,4.1h0.1
					c0.3-1.2,0.7-2.6,1.3-4.1l2.2-5.9h2l0.8,12.3h-1.5L414.4,130.7z"/>
				<path class="st8" d="M423.7,136.1l-0.1-1.1h-0.1c-0.5,0.7-1.4,1.3-2.7,1.3c-1.8,0-2.7-1.3-2.7-2.5c0-2.1,1.9-3.3,5.3-3.3v-0.2
					c0-0.7-0.2-2-2-2c-0.8,0-1.7,0.3-2.3,0.7l-0.4-1.1c0.7-0.5,1.8-0.8,2.9-0.8c2.7,0,3.4,1.8,3.4,3.6v3.3c0,0.8,0,1.5,0.1,2.1
					H423.7z M423.4,131.6c-1.7,0-3.7,0.3-3.7,2c0,1,0.7,1.5,1.5,1.5c1.1,0,1.9-0.7,2.1-1.5c0.1-0.2,0.1-0.3,0.1-0.5V131.6z"/>
				<path class="st8" d="M427.6,130.1c0-1,0-1.9-0.1-2.8h1.4l0.1,1.7h0.1c0.4-1.2,1.4-1.9,2.4-1.9c0.2,0,0.3,0,0.5,0.1v1.5
					c-0.2,0-0.3-0.1-0.5-0.1c-1.1,0-1.9,0.9-2.1,2.1c0,0.2-0.1,0.5-0.1,0.7v4.7h-1.6V130.1z"/>
				<path class="st8" d="M435.2,131.4L435.2,131.4c0.3-0.3,0.6-0.7,0.8-1l2.6-3h1.9l-3.4,3.6l3.9,5.2H439l-3-4.2l-0.8,0.9v3.3h-1.6
					v-12.9h1.6V131.4z"/>
				<path class="st8" d="M443,132c0,2.2,1.4,3.1,3,3.1c1.1,0,1.8-0.2,2.4-0.5l0.3,1.1c-0.6,0.3-1.5,0.5-2.9,0.5
					c-2.7,0-4.3-1.8-4.3-4.4c0-2.7,1.6-4.8,4.1-4.8c2.9,0,3.6,2.5,3.6,4.2c0,0.3,0,0.6-0.1,0.7H443z M447.7,130.9
					c0-1-0.4-2.6-2.2-2.6c-1.6,0-2.3,1.5-2.5,2.6H447.7z"/>
				<path class="st8" d="M453.2,124.8v2.5h2.3v1.2h-2.3v4.8c0,1.1,0.3,1.7,1.2,1.7c0.4,0,0.7-0.1,0.9-0.1l0.1,1.2
					c-0.3,0.1-0.8,0.2-1.4,0.2c-0.7,0-1.3-0.2-1.7-0.7c-0.5-0.5-0.6-1.3-0.6-2.3v-4.8h-1.4v-1.2h1.4v-2.1L453.2,124.8z"/>
				<path class="st8" d="M459.1,124.8c0,0.5-0.4,1-1,1c-0.6,0-1-0.4-1-1c0-0.6,0.4-1,1-1C458.7,123.8,459.1,124.3,459.1,124.8z
					 M457.3,136.1v-8.8h1.6v8.8H457.3z"/>
				<path class="st8" d="M461.5,129.7c0-0.9,0-1.7-0.1-2.4h1.4l0.1,1.5h0c0.4-0.8,1.5-1.7,2.9-1.7c1.2,0,3.1,0.7,3.1,3.8v5.3h-1.6
					V131c0-1.4-0.5-2.6-2-2.6c-1.1,0-1.9,0.7-2.1,1.6c-0.1,0.2-0.1,0.5-0.1,0.7v5.3h-1.6V129.7z"/>
				<path class="st8" d="M479.3,127.3c0,0.6-0.1,1.3-0.1,2.4v5.1c0,2-0.4,3.3-1.3,4c-0.9,0.8-2.1,1.1-3.2,1.1
					c-1.1,0-2.2-0.3-2.9-0.7l0.4-1.2c0.6,0.4,1.5,0.7,2.6,0.7c1.6,0,2.8-0.9,2.8-3.1v-1h0c-0.5,0.8-1.4,1.5-2.8,1.5
					c-2.2,0-3.8-1.9-3.8-4.3c0-3,1.9-4.7,4-4.7c1.5,0,2.4,0.8,2.8,1.5h0l0.1-1.3H479.3z M477.6,130.8c0-0.3,0-0.5-0.1-0.7
					c-0.3-0.9-1.1-1.7-2.2-1.7c-1.5,0-2.6,1.3-2.6,3.3c0,1.7,0.9,3.2,2.6,3.2c1,0,1.9-0.6,2.2-1.6c0.1-0.3,0.1-0.6,0.1-0.9V130.8z"
					/>
				<path class="st8" d="M494.3,135.7c-0.6,0.3-1.7,0.6-3.2,0.6c-3.5,0-6.1-2.2-6.1-6.2c0-3.8,2.6-6.5,6.4-6.5
					c1.5,0,2.5,0.3,2.9,0.5l-0.4,1.3c-0.6-0.3-1.5-0.5-2.5-0.5c-2.9,0-4.8,1.8-4.8,5.1c0,3,1.7,4.9,4.7,4.9c1,0,1.9-0.2,2.6-0.5
					L494.3,135.7z"/>
				<path class="st8" d="M504.1,131.6c0,3.3-2.3,4.7-4.4,4.7c-2.4,0-4.2-1.7-4.2-4.5c0-3,1.9-4.7,4.4-4.7
					C502.3,127.1,504.1,129,504.1,131.6z M497.1,131.7c0,1.9,1.1,3.4,2.7,3.4c1.5,0,2.7-1.4,2.7-3.4c0-1.5-0.7-3.4-2.6-3.4
					S497.1,130.1,497.1,131.7z"/>
				<path class="st8" d="M510.1,130.6v1.2h-4.5v-1.2H510.1z"/>
				<path class="st8" d="M520.3,131.6c0,3.3-2.3,4.7-4.4,4.7c-2.4,0-4.2-1.7-4.2-4.5c0-3,1.9-4.7,4.4-4.7
					C518.5,127.1,520.3,129,520.3,131.6z M513.3,131.7c0,1.9,1.1,3.4,2.7,3.4c1.5,0,2.7-1.4,2.7-3.4c0-1.5-0.7-3.4-2.6-3.4
					S513.3,130.1,513.3,131.7z"/>
				<path class="st8" d="M522.3,130.2c0-1.1,0-2-0.1-2.9h1.4l0.1,1.5h0c0.7-1.1,1.7-1.7,3.1-1.7c2.1,0,3.7,1.8,3.7,4.5
					c0,3.2-1.9,4.7-4,4.7c-1.2,0-2.2-0.5-2.7-1.4h0v4.8h-1.6V130.2z M523.9,132.5c0,0.2,0,0.5,0.1,0.7c0.3,1.1,1.3,1.9,2.4,1.9
					c1.7,0,2.7-1.4,2.7-3.4c0-1.8-0.9-3.3-2.6-3.3c-1.1,0-2.1,0.8-2.4,2c-0.1,0.2-0.1,0.4-0.1,0.7V132.5z"/>
				<path class="st8" d="M541.4,136.1l-0.1-1.1h-0.1c-0.5,0.7-1.4,1.3-2.7,1.3c-1.8,0-2.7-1.3-2.7-2.5c0-2.1,1.9-3.3,5.3-3.3v-0.2
					c0-0.7-0.2-2-2-2c-0.8,0-1.7,0.3-2.3,0.7l-0.4-1.1c0.7-0.5,1.8-0.8,2.9-0.8c2.7,0,3.4,1.8,3.4,3.6v3.3c0,0.8,0,1.5,0.1,2.1
					H541.4z M541.2,131.6c-1.7,0-3.7,0.3-3.7,2c0,1,0.7,1.5,1.5,1.5c1.1,0,1.9-0.7,2.1-1.5c0.1-0.2,0.1-0.3,0.1-0.5V131.6z"/>
				<path class="st8" d="M547.1,124.8v2.5h2.3v1.2h-2.3v4.8c0,1.1,0.3,1.7,1.2,1.7c0.4,0,0.7-0.1,0.9-0.1l0.1,1.2
					c-0.3,0.1-0.8,0.2-1.4,0.2c-0.7,0-1.3-0.2-1.7-0.7c-0.5-0.5-0.6-1.3-0.6-2.3v-4.8h-1.4v-1.2h1.4v-2.1L547.1,124.8z"/>
				<path class="st8" d="M405.6,145.7v5.1h5.9v-5.1h1.6V158h-1.6v-5.8h-5.9v5.8h-1.6v-12.3H405.6z"/>
				<path class="st8" d="M420.8,158l-0.1-1.1h-0.1c-0.5,0.7-1.4,1.3-2.7,1.3c-1.8,0-2.7-1.3-2.7-2.5c0-2.1,1.9-3.3,5.3-3.3v-0.2
					c0-0.7-0.2-2-2-2c-0.8,0-1.7,0.3-2.3,0.7l-0.4-1.1c0.7-0.5,1.8-0.8,2.9-0.8c2.7,0,3.4,1.8,3.4,3.6v3.3c0,0.8,0,1.5,0.1,2.1
					H420.8z M420.5,153.5c-1.7,0-3.7,0.3-3.7,2c0,1,0.7,1.5,1.5,1.5c1.1,0,1.9-0.7,2.1-1.5c0.1-0.2,0.1-0.3,0.1-0.5V153.5z"/>
				<path class="st8" d="M424.5,156.4c0.5,0.3,1.3,0.6,2.1,0.6c1.2,0,1.7-0.6,1.7-1.3c0-0.8-0.5-1.2-1.6-1.6
					c-1.6-0.6-2.3-1.4-2.3-2.5c0-1.4,1.1-2.6,3-2.6c0.9,0,1.7,0.3,2.2,0.5l-0.4,1.2c-0.3-0.2-1-0.5-1.8-0.5c-0.9,0-1.5,0.5-1.5,1.2
					c0,0.7,0.5,1.1,1.7,1.5c1.5,0.6,2.3,1.3,2.3,2.7c0,1.5-1.2,2.6-3.3,2.6c-1,0-1.9-0.2-2.5-0.6L424.5,156.4z"/>
				<path class="st8" d="M431.8,158c0-0.6,0.1-1.5,0.1-2.3v-10.7h1.6v5.5h0c0.6-1,1.6-1.6,3-1.6c2.2,0,3.7,1.8,3.7,4.5
					c0,3.2-2,4.7-4,4.7c-1.3,0-2.3-0.5-3-1.7h-0.1l-0.1,1.5H431.8z M433.5,154.5c0,0.2,0,0.4,0.1,0.6c0.3,1.1,1.2,1.9,2.4,1.9
					c1.7,0,2.7-1.4,2.7-3.4c0-1.8-0.9-3.3-2.6-3.3c-1.1,0-2.1,0.7-2.4,2c0,0.2-0.1,0.4-0.1,0.7V154.5z"/>
				<path class="st8" d="M442.3,151.9c0-1,0-1.9-0.1-2.8h1.4l0.1,1.7h0.1c0.4-1.2,1.4-1.9,2.4-1.9c0.2,0,0.3,0,0.5,0.1v1.5
					c-0.2,0-0.3-0.1-0.5-0.1c-1.1,0-1.9,0.9-2.1,2.1c0,0.2-0.1,0.5-0.1,0.7v4.7h-1.6V151.9z"/>
				<path class="st8" d="M456,153.5c0,3.3-2.3,4.7-4.4,4.7c-2.4,0-4.2-1.7-4.2-4.5c0-3,1.9-4.7,4.4-4.7
					C454.3,149,456,150.8,456,153.5z M449,153.6c0,1.9,1.1,3.4,2.7,3.4c1.5,0,2.7-1.4,2.7-3.4c0-1.5-0.7-3.4-2.6-3.4
					S449,151.9,449,153.6z"/>
				<path class="st8" d="M457.2,157c0-0.7,0.5-1.1,1.1-1.1c0.6,0,1.1,0.5,1.1,1.1c0,0.7-0.4,1.1-1.1,1.1
					C457.7,158.2,457.2,157.7,457.2,157z"/>
			</g>
		</g>
	</g>
	<g>
		<path class="st0" d="M413.4,50h-3.9v25.8h-2.2V50h-3.9v-2.2h10V50z"/>
		<path class="st0" d="M426.9,75.8h-2.2v-9.3c0-2-1.6-3.6-3.7-3.6h-2.6v12.9h-2.2v-28h4.8c3.2,0,5.8,2.6,5.8,5.8v3.4
			c0,1.9-1,3.7-2.4,4.7c1.5,1.1,2.4,2.8,2.4,4.7V75.8z M421.1,60.7c2,0,3.7-1.6,3.7-3.6v-3.4c0-2-1.6-3.6-3.7-3.6h-2.6v10.7H421.1z"
			/>
		<path class="st0" d="M441.2,75.8h-2.2l-1.1-7.2h-5.7l-1.1,7.2H429l4.3-28h3.7L441.2,75.8z M432.6,66.5h5l-2.4-16.3h-0.1
			L432.6,66.5z"/>
		<path class="st0" d="M454.6,70c0,3.2-2.6,5.8-5.8,5.8h-5v-28h5c3.2,0,5.8,2.6,5.8,5.8V70z M452.4,53.6c0-2-1.6-3.6-3.6-3.6H446
			v23.7h2.8c2,0,3.6-1.6,3.6-3.7V53.6z"/>
		<path class="st0" d="M460.6,50v10.7h5v2.2h-5v10.7h7.1v2.2h-9.3v-28h9V50H460.6z"/>
		<path class="st0" d="M485.3,75.8h-2.4l-4.4-23.5h-0.1v23.5h-2.2v-28h3.2l4.6,24.7h0.1l4.6-24.7h3.3v28h-2.2V52.1h-0.1L485.3,75.8z
			"/>
		<path class="st0" d="M506.8,75.8h-2.2l-1.1-7.2h-5.7l-1.1,7.2h-2.2l4.3-28h3.7L506.8,75.8z M498.2,66.5h5l-2.4-16.3h-0.1
			L498.2,66.5z"/>
		<path class="st0" d="M520,75.8h-2.2v-9.3c0-2-1.6-3.6-3.7-3.6h-2.6v12.9h-2.2v-28h4.8c3.2,0,5.8,2.6,5.8,5.8v3.4
			c0,1.9-1,3.7-2.4,4.7c1.5,1.1,2.4,2.8,2.4,4.7V75.8z M514.2,60.7c2,0,3.7-1.6,3.7-3.6v-3.4c0-2-1.6-3.6-3.7-3.6h-2.6v10.7H514.2z"
			/>
		<path class="st0" d="M523.7,47.8h2.2v12.9h2.1l4.7-12.9h2.2l-5.1,14l5.1,14h-2.2l-4.7-12.9h-2.1v12.9h-2.2V47.8z"/>
		<path class="st0" d="M539.5,50v10.7h5v2.2h-5v10.7h7.1v2.2h-9.3v-28h9V50H539.5z"/>
		<path class="st0" d="M558.3,50h-3.9v25.8h-2.2V50h-3.9v-2.2h10V50z"/>
		<path class="st0" d="M561.1,75.8v-28h2.2v28H561.1z"/>
		<path class="st0" d="M567.5,47.8h2.6l6.6,21.2h0.1V47.8h2.2v28h-2.2l-7-22.4h-0.1v22.4h-2.2V47.8z"/>
		<path class="st0" d="M588.2,61.5h5.4v14.8l-1.8-0.4v-1c-1,0.8-2.2,1.3-3.6,1.3c-3,0-5.4-2.4-5.4-5.4v-18c0-3,2.4-5.4,5.4-5.4
			s5.4,2.4,5.4,5.4v3.3l-2.2,0.2v-3.6c0-1.8-1.5-3.2-3.2-3.2S585,51,585,52.8v18c0,1.8,1.5,3.2,3.2,3.2s3.2-1.5,3.2-3.2v-7.2h-3.2
			V61.5z"/>
	</g>
	<rect id="XMLID_309_" x="402.7" y="82.8" class="st9" width="196.3" height="6.4"/>
</g>
</svg>
