<?xml version="1.0" encoding="utf-8"?>
<!-- Generator: Adobe Illustrator 22.0.0, SVG Export Plug-In . SVG Version: 6.00 Build 0)  -->
<svg version="1.1" id="Layer_1" xmlns="http://www.w3.org/2000/svg" xmlns:xlink="http://www.w3.org/1999/xlink" x="0px" y="0px"
	 viewBox="0 0 662 185.6" style="enable-background:new 0 0 662 185.6;" xml:space="preserve">
<style type="text/css">
	.st0{fill:#FF6B68;}
	.st1{clip-path:url(#SVGID_2_);}
	.st2{fill:#E6E7E8;}
	.st3{fill:#EC1C24;}
	.st4{fill:#FBE6EF;}
	.st5{fill:url(#SVGID_3_);}
	.st6{fill:#1E596D;}
	.st7{fill:#726658;}
	.st8{fill:#DED9D7;}
</style>
<g>
	<g>
		<path class="st0" d="M42.2,40.4c-4-22.6-36.6-22.6-40.7,0c-0.4,2-0.5,4.1-0.5,6.2c0,14.3,8.6,26.6,20.9,32
			c12.3-5.4,20.9-17.7,20.9-32C42.8,44.5,42.6,42.4,42.2,40.4z"/>
	</g>
	<g>
		<g>
			<g>
				<defs>
					<path id="SVGID_1_" d="M38.2,44.2c0,8.4-6.3,15.3-14.5,16.2c-0.6,0.1-1.2,0.1-1.9,0.1c-9,0-16.3-7.3-16.3-16.3
						s7.3-16.3,16.3-16.3c0.6,0,1.3,0,1.9,0.1C31.9,28.9,38.2,35.8,38.2,44.2z"/>
				</defs>
				<clipPath id="SVGID_2_">
					<use xlink:href="#SVGID_1_"  style="overflow:visible;"/>
				</clipPath>
				<g class="st1">
					<g>
						<path class="st2" d="M45.6,58.4c0,1.2-1,2.2-2.2,2.2H0.5c-1.2,0-2.2-1-2.2-2.2V29.7c0-1.2,1-2.2,2.2-2.2h42.9
							c1.2,0,2.2,1,2.2,2.2C45.6,29.7,45.6,58.4,45.6,58.4z"/>
						<path class="st3" d="M0.5,27.5c-1.2,0-2.2,1-2.2,2.2v28.7c0,1.2,1,2.2,2.2,2.2h9.9V27.5H0.5z"/>
						<path class="st3" d="M45.6,58.4V29.7c0-1.2-1-2.2-2.2-2.2h-9.9v33.1h9.9C44.6,60.6,45.6,59.6,45.6,58.4z"/>
						<g>
							<path class="st4" d="M21.3,34.6c0,0-1.5,3-1.6,3.2c-0.3-0.1-2.1-1.1-2.1-1.1l0.1,0.4c1.4,4.7,1,5.1,0.9,5.2
								c-0.3,0.1-1.3-1-2.2-2.4l-0.3-0.5V40c0,0.5-0.1,0.8-0.4,1c-0.8,0.6-2.6-0.1-2.7-0.1l-0.4-0.1l0.2,0.4
								c0.9,1.8,0.9,2.6,0.6,2.9c-0.3,0.4-0.8,0.4-0.9,0.4l-0.1,0.3c3.6,1.8,4.4,3.2,4.5,4.1c0,0.8-0.6,1.3-0.6,1.3l0.1,0.3
								c0,0,4.1-0.9,4.5-1c0,0.4-0.3,4.6-0.3,4.6l0.8,0.1l0.8-0.1c0,0-0.3-4.3-0.3-4.7c0.4,0.1,4.5,1,4.5,1l0.1-0.3
								c0,0-0.7-0.5-0.6-1.3c0-0.8,0.9-2.2,4.5-4.1l-0.1-0.3c0,0-0.6,0-0.9-0.4c-0.2-0.4-0.3-1.2,0.6-2.9l0.2-0.4l-0.4,0.1
								c0,0-1.8,0.7-2.7,0.1c-0.3-0.2-0.4-0.5-0.4-1v-0.6l-0.3,0.5c-0.9,1.4-1.9,2.6-2.2,2.4c-0.1,0-0.5-0.5,0.9-5.2l0.1-0.4
								c0,0-1.8,1-2.1,1.1c-0.1-0.3-1.8-3.5-1.8-3.5L21.3,34.6z"/>
							<path class="st3" d="M30.4,44.6c0,0-2.4,0.2-0.4-3.6c0,0-3.3,1.2-3.3-1.1c0,0-4.6,7.3-1.6-2.9l-1.9,1l-1.7-3.4L19.8,38
								l-1.9-1c3,10.1-1.6,2.9-1.6,2.9c0,2.3-3.3,1.1-3.3,1.1c2,3.8-0.4,3.6-0.4,3.6c7,3.6,3.9,5.6,3.9,5.6l4.7-1l-0.3,4.7l0.6,0.1
								l0.6-0.1l-0.3-4.7l4.7,1C26.5,50.2,23.3,48.1,30.4,44.6z"/>
						</g>
					</g>
					
						<radialGradient id="SVGID_3_" cx="-987.7496" cy="3022.4209" r="8.0788" gradientTransform="matrix(1.0148 0 0 1.0148 1024.3331 -3006.5527)" gradientUnits="userSpaceOnUse">
						<stop  offset="0" style="stop-color:#DDDFE0"/>
						<stop  offset="1" style="stop-color:#FFFFFF"/>
					</radialGradient>
					<polygon class="st5" points="10.4,60.6 33.6,60.6 33.6,60.6 					"/>
				</g>
			</g>
		</g>
	</g>
</g>
<g>
	<path class="st6" d="M644.9,17.9c-23.4-23.4-61.3-23.4-84.7,0s-23.4,61.3,0,84.7c12.6,12.6,29.3,18.4,45.7,17.4
		c14.2-0.8,28.1-6.6,38.9-17.4c10.8-10.8,16.6-24.8,17.4-39C663.3,47.2,657.5,30.5,644.9,17.9z M630.8,88.4
		c-15.6,15.6-40.8,15.6-56.4,0c-15.6-15.6-15.6-40.8,0-56.4s40.8-15.6,56.4,0C646.3,47.6,646.3,72.9,630.8,88.4z"/>
	<g>
		<g id="XMLID_353_">
			<path id="XMLID_285_" class="st6" d="M562.5,56.1H332.7c-5.7,0-11.1-2.8-14.3-7.6c-3.9-5.8-10.5-9.5-18-9.3
				c-10.9,0.3-19.9,9.2-20.4,20.1c-0.5,12,9.1,21.9,21,21.9c7.1,0,13.4-3.5,17.2-9c3.4-4.8,8.7-7.9,14.5-7.9h229.7L562.5,56.1
				L562.5,56.1z"/>
		</g>
		<g>
			<g>
				<path class="st6" d="M366.2,44.5h-16.4v-2.4l6.6-6.6c2-2,3.3-3.5,4-4.3c0.6-0.9,1.1-1.7,1.4-2.5s0.5-1.7,0.5-2.6
					c0-1.3-0.4-2.4-1.2-3.2c-0.8-0.8-1.9-1.2-3.4-1.2c-1,0-2,0.2-2.9,0.5s-2,1-3.1,1.9l-1.5-1.9c2.3-1.9,4.8-2.9,7.5-2.9
					c2.3,0,4.2,0.6,5.5,1.8s2,2.8,2,4.8c0,1.6-0.4,3.2-1.3,4.7s-2.6,3.5-5,5.9l-5.5,5.3v0.1h12.9v2.6
					C366.3,44.5,366.2,44.5,366.2,44.5z"/>
				<path class="st6" d="M386.4,32c0,4.3-0.7,7.5-2,9.7c-1.4,2.1-3.4,3.2-6.2,3.2c-2.7,0-4.7-1.1-6.1-3.3S370,36.2,370,32
					c0-4.4,0.7-7.6,2-9.7c1.4-2.1,3.4-3.2,6.2-3.2c2.7,0,4.8,1.1,6.2,3.3C385.7,24.6,386.4,27.8,386.4,32z M372.7,32
					c0,3.6,0.4,6.3,1.3,7.9c0.9,1.7,2.2,2.5,4.1,2.5s3.3-0.8,4.1-2.5c0.8-1.7,1.3-4.3,1.3-7.9s-0.4-6.2-1.3-7.9
					c-0.8-1.7-2.2-2.5-4.1-2.5s-3.2,0.8-4.1,2.5C373.1,25.7,372.7,28.4,372.7,32z"/>
				<path class="st6" d="M400.3,44.5h-2.8V26.7c0-1.5,0-2.9,0.1-4.2c-0.2,0.2-0.5,0.5-0.8,0.8s-1.7,1.4-4.1,3.3l-1.5-1.9l6.6-5.1
					h2.4L400.3,44.5L400.3,44.5z"/>
				<path class="st6" d="M418.1,19.2c2.3,0,4.1,0.5,5.4,1.6s2,2.5,2,4.4c0,1.2-0.4,2.4-1.1,3.4c-0.8,1-2,1.9-3.7,2.8
					c2,1,3.5,2,4.3,3.1s1.3,2.3,1.3,3.7c0,2.1-0.7,3.7-2.2,5c-1.4,1.2-3.4,1.9-5.9,1.9c-2.7,0-4.7-0.6-6.2-1.8
					c-1.4-1.2-2.2-2.8-2.2-5c0-2.9,1.7-5.1,5.2-6.7c-1.6-0.9-2.7-1.8-3.4-2.9c-0.7-1-1-2.2-1-3.5c0-1.8,0.7-3.3,2-4.3
					C414.1,19.7,415.9,19.2,418.1,19.2z M412.7,38.2c0,1.4,0.5,2.4,1.4,3.2c1,0.8,2.3,1.1,4,1.1s3-0.4,4-1.2
					c0.9-0.8,1.4-1.9,1.4-3.3c0-1.1-0.4-2.1-1.3-2.9s-2.4-1.7-4.6-2.5c-1.7,0.7-2.9,1.5-3.7,2.4C413.1,35.9,412.7,37,412.7,38.2z
					 M418.1,21.5c-1.4,0-2.5,0.3-3.3,1s-1.2,1.6-1.2,2.7c0,1,0.3,1.9,1,2.7c0.7,0.8,1.9,1.5,3.7,2.3c1.6-0.7,2.8-1.4,3.5-2.2
					c0.7-0.8,1-1.7,1-2.8c0-1.2-0.4-2.1-1.2-2.7C420.6,21.8,419.5,21.5,418.1,21.5z"/>
				<path class="st6" d="M440.6,19.5l-9.3,25h-2.8l9.3-25H440.6z"/>
				<path class="st6" d="M459.1,44.5h-16.4v-2.4l6.6-6.6c2-2,3.3-3.5,4-4.3c0.6-0.9,1.1-1.7,1.4-2.5s0.5-1.7,0.5-2.6
					c0-1.3-0.4-2.4-1.2-3.2c-0.8-0.8-1.9-1.2-3.4-1.2c-1,0-2,0.2-2.9,0.5s-2,1-3.1,1.9L443,22c2.3-1.9,4.8-2.9,7.5-2.9
					c2.3,0,4.2,0.6,5.5,1.8s2,2.8,2,4.8c0,1.6-0.4,3.2-1.3,4.7s-2.6,3.5-5,5.9l-5.5,5.3v0.1h12.9V44.5z"/>
				<path class="st6" d="M479.3,32c0,4.3-0.7,7.5-2,9.7c-1.4,2.1-3.4,3.2-6.2,3.2c-2.7,0-4.7-1.1-6.1-3.3s-2.1-5.4-2.1-9.6
					c0-4.4,0.7-7.6,2-9.7c1.4-2.1,3.4-3.2,6.2-3.2c2.7,0,4.8,1.1,6.2,3.3C478.6,24.6,479.3,27.8,479.3,32z M465.6,32
					c0,3.6,0.4,6.3,1.3,7.9c0.9,1.7,2.2,2.5,4.1,2.5s3.3-0.8,4.1-2.5c0.8-1.7,1.3-4.3,1.3-7.9s-0.4-6.2-1.3-7.9
					c-0.8-1.7-2.2-2.5-4.1-2.5s-3.2,0.8-4.1,2.5C466,25.7,465.6,28.4,465.6,32z"/>
				<path class="st6" d="M493.2,44.5h-2.8V26.7c0-1.5,0-2.9,0.1-4.2c-0.2,0.2-0.5,0.5-0.8,0.8s-1.7,1.4-4.1,3.3l-1.5-1.9l6.6-5.1
					h2.4L493.2,44.5L493.2,44.5z"/>
				<path class="st6" d="M519.2,30.2c0,9.8-3.8,14.7-11.3,14.7c-1.3,0-2.4-0.1-3.1-0.3v-2.4c0.9,0.3,1.9,0.4,3.1,0.4
					c2.7,0,4.8-0.8,6.2-2.5s2.2-4.3,2.3-7.8H516c-0.6,0.9-1.5,1.7-2.5,2.2s-2.2,0.7-3.5,0.7c-2.2,0-4-0.7-5.3-2s-1.9-3.2-1.9-5.5
					c0-2.6,0.7-4.6,2.2-6.2c1.5-1.5,3.4-2.3,5.7-2.3c1.7,0,3.2,0.4,4.5,1.3c1.3,0.9,2.2,2.1,2.9,3.8S519.2,27.9,519.2,30.2z
					 M510.7,21.6c-1.6,0-2.9,0.5-3.8,1.6c-0.9,1-1.3,2.5-1.3,4.4c0,1.6,0.4,2.9,1.2,3.9c0.8,0.9,2.1,1.4,3.7,1.4c1,0,2-0.2,2.9-0.6
					c0.9-0.4,1.6-1,2.1-1.7s0.8-1.5,0.8-2.3c0-1.2-0.2-2.3-0.7-3.3s-1.1-1.8-2-2.4C512.8,21.9,511.8,21.6,510.7,21.6z"/>
			</g>
			<g>
				<path class="st6" d="M585.5,49.7c0-4,3.2-7.2,7.2-7.2s7.2,3.2,7.2,7.2v24.9c0,4-3.2,7.2-7.2,7.2s-7.2-3.2-7.2-7.2V49.7z
					 M588.4,74.6c0,2.3,1.9,4.2,4.2,4.2s4.2-1.9,4.2-4.2V49.7c0-2.3-1.9-4.2-4.2-4.2s-4.2,1.9-4.2,4.2V74.6z"/>
				<path class="st6" d="M619.9,74.4c0,4.1-3.3,7.4-7.4,7.4c-4.1,0-7.4-3.3-7.4-7.4V49.8c0-4.1,3.3-7.4,7.4-7.4
					c4.1,0,7.4,3.3,7.4,7.4V53l-2.9,0.3v-3.5c0-2.4-2-4.4-4.4-4.4s-4.4,2-4.4,4.4v9.8c1.2-0.9,2.8-1.4,4.4-1.4
					c4.1,0,7.4,3.3,7.4,7.4L619.9,74.4L619.9,74.4z M616.9,65.6c0-2.4-2-4.4-4.4-4.4s-4.4,2-4.4,4.4v8.9c0,2.4,2,4.4,4.4,4.4
					s4.4-2,4.4-4.4V65.6z"/>
			</g>
		</g>
	</g>
</g>
<g id="XMLID_2_">
	<g>
		<g>
			<path class="st7" d="M93.8,96.9c1-0.1,2.1-0.3,3.4-0.3c2.3,0,3.9,0.5,5,1.5c1.1,1,1.7,2.4,1.7,4.4c0,2-0.6,3.6-1.8,4.8
				c-1.1,1.1-3,1.8-5.4,1.8c-1.1,0-2.1-0.1-2.9-0.1V96.9z M95.3,107.8c0.4,0.1,1,0.1,1.6,0.1c3.4,0,5.2-1.9,5.2-5.2
				c0-2.9-1.6-4.7-5-4.7c-0.8,0-1.4,0.1-1.9,0.2V107.8z"/>
			<path class="st7" d="M107.6,97.8c0,0.5-0.4,1-1,1c-0.6,0-1-0.4-1-1c0-0.6,0.4-1,1-1C107.2,96.8,107.6,97.2,107.6,97.8z
				 M105.8,109.1v-8.8h1.6v8.8H105.8z"/>
			<path class="st7" d="M110.1,103.1c0-1.1,0-2-0.1-2.9h1.4l0.1,1.5h0c0.7-1.1,1.7-1.7,3.1-1.7c2.1,0,3.7,1.8,3.7,4.5
				c0,3.2-1.9,4.7-4,4.7c-1.2,0-2.2-0.5-2.7-1.4h0v4.8h-1.6V103.1z M111.7,105.5c0,0.2,0,0.5,0.1,0.7c0.3,1.1,1.3,1.9,2.4,1.9
				c1.7,0,2.7-1.4,2.7-3.4c0-1.8-0.9-3.3-2.6-3.3c-1.1,0-2.1,0.8-2.4,2c-0.1,0.2-0.1,0.4-0.1,0.7V105.5z"/>
			<path class="st7" d="M120.5,96.1h1.6v12.9h-1.6V96.1z"/>
			<path class="st7" d="M132.7,104.6c0,3.3-2.3,4.7-4.4,4.7c-2.4,0-4.2-1.7-4.2-4.5c0-3,1.9-4.7,4.4-4.7
				C131,100,132.7,101.9,132.7,104.6z M125.7,104.7c0,1.9,1.1,3.4,2.7,3.4c1.5,0,2.7-1.4,2.7-3.4c0-1.5-0.7-3.4-2.6-3.4
				C126.6,101.2,125.7,103,125.7,104.7z"/>
			<path class="st7" d="M134.8,102.6c0-0.9,0-1.7-0.1-2.4h1.4l0.1,1.4h0.1c0.5-0.8,1.3-1.6,2.8-1.6c1.2,0,2.1,0.7,2.5,1.8h0
				c0.3-0.5,0.6-0.9,1-1.1c0.5-0.4,1.1-0.6,1.9-0.6c1.2,0,2.9,0.8,2.9,3.8v5.2h-1.6v-5c0-1.7-0.6-2.7-1.9-2.7
				c-0.9,0-1.6,0.7-1.9,1.5c-0.1,0.2-0.1,0.5-0.1,0.8v5.4h-1.6v-5.3c0-1.4-0.6-2.4-1.8-2.4c-1,0-1.7,0.8-2,1.6
				c-0.1,0.2-0.1,0.5-0.1,0.8v5.3h-1.6V102.6z"/>
			<path class="st7" d="M154.8,109.1l-0.1-1.1h-0.1c-0.5,0.7-1.4,1.3-2.7,1.3c-1.8,0-2.7-1.3-2.7-2.5c0-2.1,1.9-3.3,5.3-3.3v-0.2
				c0-0.7-0.2-2-2-2c-0.8,0-1.7,0.3-2.3,0.7l-0.4-1.1c0.7-0.5,1.8-0.8,2.9-0.8c2.7,0,3.4,1.8,3.4,3.6v3.3c0,0.8,0,1.5,0.1,2.1H154.8
				z M154.6,104.6c-1.7,0-3.7,0.3-3.7,2c0,1,0.7,1.5,1.5,1.5c1.1,0,1.9-0.7,2.1-1.5c0.1-0.2,0.1-0.3,0.1-0.5V104.6z"/>
			<path class="st7" d="M164.4,97.8c0,0.5-0.4,1-1,1c-0.6,0-1-0.4-1-1c0-0.6,0.4-1,1-1C164,96.8,164.4,97.2,164.4,97.8z
				 M162.6,109.1v-8.8h1.6v8.8H162.6z"/>
			<path class="st7" d="M166.9,102.6c0-0.9,0-1.7-0.1-2.4h1.4l0.1,1.5h0c0.4-0.8,1.5-1.7,2.9-1.7c1.2,0,3.1,0.7,3.1,3.8v5.3h-1.6
				V104c0-1.4-0.5-2.6-2-2.6c-1.1,0-1.9,0.7-2.1,1.6c-0.1,0.2-0.1,0.5-0.1,0.7v5.3h-1.6V102.6z"/>
			<path class="st7" d="M182.5,96.8v12.3h-1.6V96.8H182.5z"/>
			<path class="st7" d="M185.4,102.6c0-0.9,0-1.7-0.1-2.4h1.4l0.1,1.5h0c0.4-0.8,1.5-1.7,2.9-1.7c1.2,0,3.1,0.7,3.1,3.8v5.3h-1.6
				V104c0-1.4-0.5-2.6-2-2.6c-1.1,0-1.9,0.7-2.1,1.6c-0.1,0.2-0.1,0.5-0.1,0.7v5.3h-1.6V102.6z"/>
			<path class="st7" d="M197.4,97.7v2.5h2.3v1.2h-2.3v4.8c0,1.1,0.3,1.7,1.2,1.7c0.4,0,0.7-0.1,0.9-0.1l0.1,1.2
				c-0.3,0.1-0.8,0.2-1.4,0.2c-0.7,0-1.3-0.2-1.7-0.7c-0.5-0.5-0.6-1.3-0.6-2.3v-4.8h-1.4v-1.2h1.4v-2.1L197.4,97.7z"/>
			<path class="st7" d="M202.2,104.9c0,2.2,1.4,3.1,3,3.1c1.1,0,1.8-0.2,2.4-0.5l0.3,1.1c-0.6,0.3-1.5,0.5-2.9,0.5
				c-2.7,0-4.3-1.8-4.3-4.4c0-2.7,1.6-4.8,4.1-4.8c2.9,0,3.6,2.5,3.6,4.2c0,0.3,0,0.6-0.1,0.7H202.2z M206.9,103.8
				c0-1-0.4-2.6-2.2-2.6c-1.6,0-2.3,1.5-2.5,2.6H206.9z"/>
			<path class="st7" d="M210.5,103c0-1,0-1.9-0.1-2.8h1.4l0.1,1.7h0.1c0.4-1.2,1.4-1.9,2.4-1.9c0.2,0,0.3,0,0.5,0.1v1.5
				c-0.2,0-0.3-0.1-0.5-0.1c-1.1,0-1.9,0.9-2.1,2.1c0,0.2-0.1,0.5-0.1,0.7v4.7h-1.6V103z"/>
			<path class="st7" d="M221.2,109.1l-0.1-1.1H221c-0.5,0.7-1.4,1.3-2.7,1.3c-1.8,0-2.7-1.3-2.7-2.5c0-2.1,1.9-3.3,5.3-3.3v-0.2
				c0-0.7-0.2-2-2-2c-0.8,0-1.7,0.3-2.3,0.7l-0.4-1.1c0.7-0.5,1.8-0.8,2.9-0.8c2.7,0,3.4,1.8,3.4,3.6v3.3c0,0.8,0,1.5,0.1,2.1H221.2
				z M221,104.6c-1.7,0-3.7,0.3-3.7,2c0,1,0.7,1.5,1.5,1.5c1.1,0,1.9-0.7,2.1-1.5c0.1-0.2,0.1-0.3,0.1-0.5V104.6z"/>
			<path class="st7" d="M231.4,108.7c-0.4,0.2-1.3,0.5-2.5,0.5c-2.7,0-4.4-1.8-4.4-4.5c0-2.7,1.9-4.7,4.7-4.7c0.9,0,1.8,0.2,2.2,0.5
				l-0.4,1.2c-0.4-0.2-1-0.4-1.9-0.4c-2,0-3.1,1.5-3.1,3.3c0,2,1.3,3.3,3.1,3.3c0.9,0,1.5-0.2,2-0.4L231.4,108.7z"/>
			<path class="st7" d="M235.4,97.7v2.5h2.3v1.2h-2.3v4.8c0,1.1,0.3,1.7,1.2,1.7c0.4,0,0.7-0.1,0.9-0.1l0.1,1.2
				c-0.3,0.1-0.8,0.2-1.4,0.2c-0.7,0-1.3-0.2-1.7-0.7c-0.5-0.5-0.6-1.3-0.6-2.3v-4.8h-1.4v-1.2h1.4v-2.1L235.4,97.7z"/>
			<path class="st7" d="M241.3,97.8c0,0.5-0.4,1-1,1c-0.6,0-1-0.4-1-1c0-0.6,0.4-1,1-1C241,96.8,241.3,97.2,241.3,97.8z
				 M239.5,109.1v-8.8h1.6v8.8H239.5z"/>
			<path class="st7" d="M244.4,100.2l1.7,5c0.3,0.8,0.5,1.5,0.7,2.3h0.1c0.2-0.7,0.5-1.5,0.7-2.3l1.7-5h1.7l-3.5,8.8h-1.5l-3.4-8.8
				H244.4z"/>
			<path class="st7" d="M253.3,104.9c0,2.2,1.4,3.1,3,3.1c1.1,0,1.8-0.2,2.4-0.5l0.3,1.1c-0.6,0.3-1.5,0.5-2.9,0.5
				c-2.7,0-4.3-1.8-4.3-4.4c0-2.7,1.6-4.8,4.1-4.8c2.9,0,3.6,2.5,3.6,4.2c0,0.3,0,0.6-0.1,0.7H253.3z M258,103.8
				c0-1-0.4-2.6-2.2-2.6c-1.6,0-2.3,1.5-2.5,2.6H258z"/>
			<path class="st7" d="M70.1,125.5c-0.1-1.7-0.2-3.8-0.2-5.3h-0.1c-0.4,1.4-0.9,3-1.5,4.7l-2.2,6H65l-2-5.8
				c-0.6-1.7-1.1-3.3-1.4-4.8h0c0,1.5-0.1,3.6-0.2,5.4l-0.3,5.3h-1.5l0.9-12.3h2l2.1,5.9c0.5,1.5,0.9,2.9,1.2,4.1h0.1
				c0.3-1.2,0.7-2.6,1.3-4.1l2.2-5.9h2l0.8,12.3h-1.5L70.1,125.5z"/>
			<path class="st7" d="M75.4,126.8c0,2.2,1.4,3.1,3,3.1c1.1,0,1.8-0.2,2.4-0.5l0.3,1.1c-0.6,0.3-1.5,0.5-2.9,0.5
				c-2.7,0-4.3-1.8-4.3-4.4c0-2.7,1.6-4.8,4.1-4.8c2.9,0,3.6,2.5,3.6,4.2c0,0.3,0,0.6-0.1,0.7H75.4z M80.1,125.7
				c0-1-0.4-2.6-2.2-2.6c-1.6,0-2.3,1.5-2.5,2.6H80.1z"/>
			<path class="st7" d="M91.2,118v10.7c0,0.8,0,1.7,0.1,2.3h-1.4l-0.1-1.5h0c-0.5,1-1.6,1.7-3,1.7c-2.1,0-3.8-1.8-3.8-4.5
				c0-2.9,1.8-4.7,4-4.7c1.3,0,2.3,0.6,2.7,1.3h0V118H91.2z M89.6,125.7c0-0.2,0-0.5-0.1-0.7c-0.2-1-1.1-1.9-2.3-1.9
				c-1.7,0-2.6,1.5-2.6,3.4c0,1.8,0.9,3.3,2.6,3.3c1.1,0,2.1-0.7,2.4-1.9c0.1-0.2,0.1-0.4,0.1-0.7V125.7z"/>
			<path class="st7" d="M95.7,119.6c0,0.5-0.4,1-1,1c-0.6,0-1-0.4-1-1c0-0.6,0.4-1,1-1C95.3,118.6,95.7,119.1,95.7,119.6z
				 M93.9,130.9v-8.8h1.6v8.8H93.9z"/>
			<path class="st7" d="M103,130.9l-0.1-1.1h-0.1c-0.5,0.7-1.4,1.3-2.7,1.3c-1.8,0-2.7-1.3-2.7-2.5c0-2.1,1.9-3.3,5.3-3.3v-0.2
				c0-0.7-0.2-2-2-2c-0.8,0-1.7,0.3-2.3,0.7l-0.4-1.1c0.7-0.5,1.8-0.8,2.9-0.8c2.7,0,3.4,1.8,3.4,3.6v3.3c0,0.8,0,1.5,0.1,2.1H103z
				 M102.8,126.4c-1.7,0-3.7,0.3-3.7,2c0,1,0.7,1.5,1.5,1.5c1.1,0,1.9-0.7,2.1-1.5c0.1-0.2,0.1-0.3,0.1-0.5V126.4z"/>
			<path class="st7" d="M110.8,118.8c1-0.1,2.1-0.3,3.4-0.3c2.3,0,3.9,0.5,5,1.5c1.1,1,1.7,2.4,1.7,4.4c0,2-0.6,3.6-1.8,4.8
				c-1.1,1.1-3,1.8-5.4,1.8c-1.1,0-2.1-0.1-2.9-0.1V118.8z M112.4,129.7c0.4,0.1,1,0.1,1.6,0.1c3.4,0,5.2-1.9,5.2-5.2
				c0-2.9-1.6-4.7-5-4.7c-0.8,0-1.4,0.1-1.9,0.2V129.7z"/>
			<path class="st7" d="M123.9,126.8c0,2.2,1.4,3.1,3,3.1c1.1,0,1.8-0.2,2.4-0.5l0.3,1.1c-0.6,0.3-1.5,0.5-2.9,0.5
				c-2.7,0-4.3-1.8-4.3-4.4c0-2.7,1.6-4.8,4.1-4.8c2.9,0,3.6,2.5,3.6,4.2c0,0.3,0,0.6-0.1,0.7H123.9z M128.6,125.7
				c0-1-0.4-2.6-2.2-2.6c-1.6,0-2.3,1.5-2.5,2.6H128.6z"/>
			<path class="st7" d="M131.9,129.3c0.5,0.3,1.3,0.6,2.1,0.6c1.2,0,1.7-0.6,1.7-1.3c0-0.8-0.5-1.2-1.6-1.6
				c-1.6-0.6-2.3-1.4-2.3-2.5c0-1.4,1.1-2.6,3-2.6c0.9,0,1.7,0.3,2.2,0.5l-0.4,1.2c-0.3-0.2-1-0.5-1.8-0.5c-0.9,0-1.5,0.5-1.5,1.2
				c0,0.7,0.5,1.1,1.7,1.5c1.5,0.6,2.3,1.3,2.3,2.7c0,1.5-1.2,2.6-3.3,2.6c-1,0-1.9-0.2-2.5-0.6L131.9,129.3z"/>
			<path class="st7" d="M141.1,119.6c0,0.5-0.4,1-1,1c-0.6,0-1-0.4-1-1c0-0.6,0.4-1,1-1C140.7,118.6,141.1,119.1,141.1,119.6z
				 M139.3,130.9v-8.8h1.6v8.8H139.3z"/>
			<path class="st7" d="M151.2,122.1c0,0.6-0.1,1.3-0.1,2.4v5.1c0,2-0.4,3.3-1.3,4c-0.9,0.8-2.1,1.1-3.2,1.1c-1.1,0-2.2-0.3-2.9-0.7
				l0.4-1.2c0.6,0.4,1.5,0.7,2.6,0.7c1.6,0,2.8-0.9,2.8-3.1v-1h0c-0.5,0.8-1.4,1.5-2.8,1.5c-2.2,0-3.8-1.9-3.8-4.3
				c0-3,1.9-4.7,4-4.7c1.5,0,2.4,0.8,2.8,1.5h0l0.1-1.3H151.2z M149.5,125.6c0-0.3,0-0.5-0.1-0.7c-0.3-0.9-1.1-1.7-2.2-1.7
				c-1.5,0-2.6,1.3-2.6,3.3c0,1.7,0.9,3.2,2.6,3.2c1,0,1.9-0.6,2.2-1.6c0.1-0.3,0.1-0.6,0.1-0.9V125.6z"/>
			<path class="st7" d="M153.7,124.5c0-0.9,0-1.7-0.1-2.4h1.4l0.1,1.5h0c0.4-0.8,1.5-1.7,2.9-1.7c1.2,0,3.1,0.7,3.1,3.8v5.3h-1.6
				v-5.1c0-1.4-0.5-2.6-2-2.6c-1.1,0-1.9,0.7-2.1,1.6c-0.1,0.2-0.1,0.5-0.1,0.7v5.3h-1.6V124.5z"/>
			<path class="st7" d="M172.5,130.9l-0.1-1.1h-0.1c-0.5,0.7-1.4,1.3-2.7,1.3c-1.8,0-2.7-1.3-2.7-2.5c0-2.1,1.9-3.3,5.3-3.3v-0.2
				c0-0.7-0.2-2-2-2c-0.8,0-1.7,0.3-2.3,0.7l-0.4-1.1c0.7-0.5,1.8-0.8,2.9-0.8c2.7,0,3.4,1.8,3.4,3.6v3.3c0,0.8,0,1.5,0.1,2.1H172.5
				z M172.3,126.4c-1.7,0-3.7,0.3-3.7,2c0,1,0.7,1.5,1.5,1.5c1.1,0,1.9-0.7,2.1-1.5c0.1-0.2,0.1-0.3,0.1-0.5V126.4z"/>
			<path class="st7" d="M178.3,119.6v2.5h2.3v1.2h-2.3v4.8c0,1.1,0.3,1.7,1.2,1.7c0.4,0,0.7-0.1,0.9-0.1l0.1,1.2
				c-0.3,0.1-0.8,0.2-1.4,0.2c-0.7,0-1.3-0.2-1.7-0.7c-0.5-0.5-0.6-1.3-0.6-2.3v-4.8h-1.4v-1.2h1.4V120L178.3,119.6z"/>
			<path class="st7" d="M186.3,118.7h6.6v1.3h-5v4.1h4.6v1.3h-4.6v5.6h-1.6V118.7z"/>
			<path class="st7" d="M199.2,130.9l-0.1-1.1H199c-0.5,0.7-1.4,1.3-2.7,1.3c-1.8,0-2.7-1.3-2.7-2.5c0-2.1,1.9-3.3,5.3-3.3v-0.2
				c0-0.7-0.2-2-2-2c-0.8,0-1.7,0.3-2.3,0.7l-0.4-1.1c0.7-0.5,1.8-0.8,2.9-0.8c2.7,0,3.4,1.8,3.4,3.6v3.3c0,0.8,0,1.5,0.1,2.1H199.2
				z M199,126.4c-1.7,0-3.7,0.3-3.7,2c0,1,0.7,1.5,1.5,1.5c1.1,0,1.9-0.7,2.1-1.5c0.1-0.2,0.1-0.3,0.1-0.5V126.4z"/>
			<path class="st7" d="M203.1,124.5c0-0.9,0-1.7-0.1-2.4h1.4l0.1,1.5h0c0.4-0.8,1.5-1.7,2.9-1.7c1.2,0,3.1,0.7,3.1,3.8v5.3H209
				v-5.1c0-1.4-0.5-2.6-2-2.6c-1.1,0-1.9,0.7-2.1,1.6c-0.1,0.2-0.1,0.5-0.1,0.7v5.3h-1.6V124.5z"/>
			<path class="st7" d="M213,129.3c0.5,0.3,1.3,0.6,2.1,0.6c1.2,0,1.7-0.6,1.7-1.3c0-0.8-0.5-1.2-1.6-1.6c-1.6-0.6-2.3-1.4-2.3-2.5
				c0-1.4,1.1-2.6,3-2.6c0.9,0,1.7,0.3,2.2,0.5l-0.4,1.2c-0.3-0.2-1-0.5-1.8-0.5c-0.9,0-1.5,0.5-1.5,1.2c0,0.7,0.5,1.1,1.7,1.5
				c1.5,0.6,2.3,1.3,2.3,2.7c0,1.5-1.2,2.6-3.3,2.6c-1,0-1.9-0.2-2.5-0.6L213,129.3z"/>
			<path class="st7" d="M220.4,118h1.6v5.5h0c0.3-0.5,0.7-0.9,1.1-1.1c0.5-0.3,1-0.5,1.6-0.5c1.2,0,3.1,0.7,3.1,3.8v5.2h-1.6v-5.1
				c0-1.4-0.5-2.6-2-2.6c-1,0-1.9,0.7-2.1,1.6c-0.1,0.2-0.1,0.5-0.1,0.8v5.3h-1.6V118z"/>
			<path class="st7" d="M235.4,130.9l-0.1-1.1h-0.1c-0.5,0.7-1.4,1.3-2.7,1.3c-1.8,0-2.7-1.3-2.7-2.5c0-2.1,1.9-3.3,5.3-3.3v-0.2
				c0-0.7-0.2-2-2-2c-0.8,0-1.7,0.3-2.3,0.7l-0.4-1.1c0.7-0.5,1.8-0.8,2.9-0.8c2.7,0,3.4,1.8,3.4,3.6v3.3c0,0.8,0,1.5,0.1,2.1H235.4
				z M235.2,126.4c-1.7,0-3.7,0.3-3.7,2c0,1,0.7,1.5,1.5,1.5c1.1,0,1.9-0.7,2.1-1.5c0.1-0.2,0.1-0.3,0.1-0.5V126.4z"/>
			<path class="st7" d="M239.8,122.1l1.2,4.5c0.3,1,0.5,1.9,0.7,2.8h0.1c0.2-0.9,0.5-1.8,0.8-2.8l1.4-4.5h1.3l1.4,4.4
				c0.3,1.1,0.6,2,0.8,2.9h0.1c0.1-0.9,0.4-1.8,0.7-2.9l1.3-4.4h1.6l-2.8,8.8h-1.5l-1.3-4.2c-0.3-1-0.6-1.9-0.8-2.9h0
				c-0.2,1.1-0.5,2-0.8,2.9l-1.4,4.2h-1.5l-2.7-8.8H239.8z"/>
			<path class="st7" d="M253.3,126.8c0,2.2,1.4,3.1,3,3.1c1.1,0,1.8-0.2,2.4-0.5l0.3,1.1c-0.6,0.3-1.5,0.5-2.9,0.5
				c-2.7,0-4.3-1.8-4.3-4.4c0-2.7,1.6-4.8,4.1-4.8c2.9,0,3.6,2.5,3.6,4.2c0,0.3,0,0.6-0.1,0.7H253.3z M258,125.7
				c0-1-0.4-2.6-2.2-2.6c-1.6,0-2.3,1.5-2.5,2.6H258z"/>
			<path class="st7" d="M112.4,152.4c-0.6,0.3-1.7,0.6-3.2,0.6c-3.5,0-6.1-2.2-6.1-6.2c0-3.8,2.6-6.5,6.4-6.5c1.5,0,2.5,0.3,2.9,0.5
				l-0.4,1.3c-0.6-0.3-1.5-0.5-2.5-0.5c-2.9,0-4.8,1.8-4.8,5.1c0,3,1.7,4.9,4.7,4.9c1,0,1.9-0.2,2.6-0.5L112.4,152.4z"/>
			<path class="st7" d="M122.1,148.3c0,3.3-2.3,4.7-4.4,4.7c-2.4,0-4.2-1.7-4.2-4.5c0-3,1.9-4.7,4.4-4.7
				C120.4,143.8,122.1,145.6,122.1,148.3z M115.1,148.4c0,1.9,1.1,3.4,2.7,3.4c1.5,0,2.7-1.4,2.7-3.4c0-1.5-0.7-3.4-2.6-3.4
				C115.9,145,115.1,146.7,115.1,148.4z"/>
			<path class="st7" d="M124.1,139.9h1.6v12.9h-1.6V139.9z"/>
			<path class="st7" d="M128.4,139.9h1.6v12.9h-1.6V139.9z"/>
			<path class="st7" d="M133.6,148.7c0,2.2,1.4,3.1,3,3.1c1.1,0,1.8-0.2,2.4-0.5l0.3,1.1c-0.6,0.3-1.5,0.5-2.9,0.5
				c-2.7,0-4.3-1.8-4.3-4.4c0-2.7,1.6-4.8,4.1-4.8c2.9,0,3.6,2.5,3.6,4.2c0,0.3,0,0.6-0.1,0.7H133.6z M138.3,147.5
				c0-1-0.4-2.6-2.2-2.6c-1.6,0-2.3,1.5-2.5,2.6H138.3z"/>
			<path class="st7" d="M149.5,144c0,0.6-0.1,1.3-0.1,2.4v5.1c0,2-0.4,3.3-1.3,4c-0.9,0.8-2.1,1.1-3.2,1.1c-1.1,0-2.2-0.3-2.9-0.7
				l0.4-1.2c0.6,0.4,1.5,0.7,2.6,0.7c1.6,0,2.8-0.9,2.8-3.1v-1h0c-0.5,0.8-1.4,1.5-2.8,1.5c-2.2,0-3.8-1.9-3.8-4.3
				c0-3,1.9-4.7,4-4.7c1.5,0,2.4,0.8,2.8,1.5h0l0.1-1.3H149.5z M147.8,147.5c0-0.3,0-0.5-0.1-0.7c-0.3-0.9-1.1-1.7-2.2-1.7
				c-1.5,0-2.6,1.3-2.6,3.3c0,1.7,0.9,3.2,2.6,3.2c1,0,1.9-0.6,2.2-1.6c0.1-0.3,0.1-0.6,0.1-0.9V147.5z"/>
			<path class="st7" d="M152.9,148.7c0,2.2,1.4,3.1,3,3.1c1.1,0,1.8-0.2,2.4-0.5l0.3,1.1c-0.6,0.3-1.5,0.5-2.9,0.5
				c-2.7,0-4.3-1.8-4.3-4.4c0-2.7,1.6-4.8,4.1-4.8c2.9,0,3.6,2.5,3.6,4.2c0,0.3,0,0.6-0.1,0.7H152.9z M157.6,147.5
				c0-1-0.4-2.6-2.2-2.6c-1.6,0-2.3,1.5-2.5,2.6H157.6z"/>
			<path class="st7" d="M159.9,155c0.4-1.1,0.9-3,1.1-4.4l1.8-0.2c-0.4,1.5-1.2,3.6-1.7,4.4L159.9,155z"/>
			<path class="st7" d="M168.7,140.5h1.6v10.9h5.2v1.3h-6.8V140.5z"/>
			<path class="st7" d="M184.9,148.3c0,3.3-2.3,4.7-4.4,4.7c-2.4,0-4.2-1.7-4.2-4.5c0-3,1.9-4.7,4.4-4.7
				C183.2,143.8,184.9,145.6,184.9,148.3z M177.9,148.4c0,1.9,1.1,3.4,2.7,3.4c1.5,0,2.7-1.4,2.7-3.4c0-1.5-0.7-3.4-2.6-3.4
				C178.7,145,177.9,146.7,177.9,148.4z"/>
			<path class="st7" d="M186.9,146.4c0-0.9,0-1.7-0.1-2.4h1.4l0.1,1.5h0c0.4-0.8,1.5-1.7,2.9-1.7c1.2,0,3.1,0.7,3.1,3.8v5.3h-1.6
				v-5.1c0-1.4-0.5-2.6-2-2.6c-1.1,0-1.9,0.7-2.1,1.6c-0.1,0.2-0.1,0.5-0.1,0.7v5.3h-1.6V146.4z"/>
			<path class="st7" d="M204.7,139.9v10.7c0,0.8,0,1.7,0.1,2.3h-1.4l-0.1-1.5h0c-0.5,1-1.6,1.7-3,1.7c-2.1,0-3.8-1.8-3.8-4.5
				c0-2.9,1.8-4.7,4-4.7c1.3,0,2.3,0.6,2.7,1.3h0v-5.3H204.7z M203.1,147.6c0-0.2,0-0.5-0.1-0.7c-0.2-1-1.1-1.9-2.3-1.9
				c-1.7,0-2.6,1.5-2.6,3.4c0,1.8,0.9,3.3,2.6,3.3c1.1,0,2.1-0.7,2.4-1.9c0.1-0.2,0.1-0.4,0.1-0.7V147.6z"/>
			<path class="st7" d="M215.3,148.3c0,3.3-2.3,4.7-4.4,4.7c-2.4,0-4.2-1.7-4.2-4.5c0-3,1.9-4.7,4.4-4.7
				C213.6,143.8,215.3,145.6,215.3,148.3z M208.3,148.4c0,1.9,1.1,3.4,2.7,3.4c1.5,0,2.7-1.4,2.7-3.4c0-1.5-0.7-3.4-2.6-3.4
				C209.1,145,208.3,146.7,208.3,148.4z"/>
			<path class="st7" d="M217.3,146.4c0-0.9,0-1.7-0.1-2.4h1.4l0.1,1.5h0c0.4-0.8,1.5-1.7,2.9-1.7c1.2,0,3.1,0.7,3.1,3.8v5.3h-1.6
				v-5.1c0-1.4-0.5-2.6-2-2.6c-1.1,0-1.9,0.7-2.1,1.6c-0.1,0.2-0.1,0.5-0.1,0.7v5.3h-1.6V146.4z"/>
			<path class="st7" d="M226.4,155c0.4-1.1,0.9-3,1.1-4.4l1.8-0.2c-0.4,1.5-1.2,3.6-1.7,4.4L226.4,155z"/>
			<path class="st7" d="M245.6,146.5c0,4.2-2.6,6.5-5.7,6.5c-3.2,0-5.5-2.5-5.5-6.2c0-3.9,2.4-6.5,5.7-6.5
				C243.5,140.3,245.6,142.9,245.6,146.5z M236.1,146.7c0,2.6,1.4,5,3.9,5c2.5,0,3.9-2.3,3.9-5.1c0-2.4-1.3-5-3.9-5
				C237.4,141.6,236.1,144,236.1,146.7z"/>
			<path class="st7" d="M247.6,146.4c0-0.9,0-1.7-0.1-2.4h1.4l0.1,1.5h0c0.4-0.8,1.5-1.7,2.9-1.7c1.2,0,3.1,0.7,3.1,3.8v5.3h-1.6
				v-5.1c0-1.4-0.5-2.6-2-2.6c-1.1,0-1.9,0.7-2.1,1.6c-0.1,0.2-0.1,0.5-0.1,0.7v5.3h-1.6V146.4z"/>
			<path class="st7" d="M257.4,151.8c0-0.7,0.5-1.1,1.1-1.1s1.1,0.5,1.1,1.1c0,0.7-0.4,1.1-1.1,1.1
				C257.8,153,257.4,152.5,257.4,151.8z"/>
		</g>
	</g>
</g>
<g>
	<path class="st6" d="M56.7,70.6v-28h2.2v28H56.7z"/>
	<path class="st6" d="M63,42.6h2.6l6.6,21.2h0.1V42.6h2.2v28h-2.2l-7.1-22.4h-0.1v22.4H63V42.6z"/>
	<path class="st6" d="M87.3,44.8h-3.9v25.8h-2.2V44.8h-3.9v-2.2h10V44.8z"/>
	<path class="st6" d="M92.3,44.8v10.7h5v2.2h-5v10.7h7.1v2.2h-9.3v-28h9v2.2H92.3z"/>
	<path class="st6" d="M112.9,70.6h-2.2v-9.3c0-2-1.6-3.6-3.6-3.6h-2.6v12.9h-2.2v-28h4.8c3.2,0,5.8,2.6,5.8,5.8v3.4
		c0,1.9-1,3.7-2.4,4.7c1.5,1.1,2.4,2.8,2.4,4.7V70.6z M107.1,55.5c2,0,3.6-1.6,3.6-3.6v-3.4c0-2-1.6-3.6-3.6-3.6h-2.6v10.7H107.1z"
		/>
	<path class="st6" d="M127.3,70.6h-2.2l-1.1-7.2h-5.7l-1.1,7.2h-2.2l4.3-28h3.6L127.3,70.6z M118.7,61.3h5L121.2,45h-0.1L118.7,61.3
		z"/>
	<path class="st6" d="M138.3,52v-4.4c0-1.8-1.5-3.2-3.2-3.2s-3.2,1.5-3.2,3.2v18c0,1.8,1.5,3.2,3.2,3.2s3.2-1.5,3.2-3.2v-3.8h2.2
		v3.8c0,3-2.4,5.4-5.4,5.4c-3,0-5.4-2.4-5.4-5.4v-18c0-3,2.4-5.4,5.4-5.4c3,0,5.4,2.4,5.4,5.4v4.1L138.3,52z"/>
	<path class="st6" d="M152.6,44.8h-3.9v25.8h-2.2V44.8h-3.9v-2.2h10V44.8z"/>
	<path class="st6" d="M155.5,70.6v-28h2.2v28H155.5z"/>
	<path class="st6" d="M170.3,42.6h2.2l-4.3,28h-3.6l-4.3-28h2.2l3.9,25.6h0.1L170.3,42.6z"/>
	<path class="st6" d="M177.2,44.8v10.7h5v2.2h-5v10.7h7.1v2.2h-9.3v-28h9v2.2H177.2z"/>
	<path class="st6" d="M201.9,70.6h-2.4L195,47.1h-0.1v23.5h-2.2v-28h3.2l4.6,24.7h0.1l4.6-24.7h3.3v28h-2.2V46.9h-0.1L201.9,70.6z"
		/>
	<path class="st6" d="M214.9,44.8v10.7h5v2.2h-5v10.7h7.1v2.2h-9.3v-28h9v2.2H214.9z"/>
	<path class="st6" d="M235.8,64.8c0,3.2-2.6,5.8-5.8,5.8h-5v-28h5c3.2,0,5.8,2.6,5.8,5.8V64.8z M233.6,48.4c0-2-1.6-3.6-3.6-3.6
		h-2.8v23.7h2.8c2,0,3.6-1.6,3.6-3.7V48.4z"/>
	<path class="st6" d="M239.6,70.6v-28h2.2v28H239.6z"/>
	<path class="st6" d="M256.6,70.6h-2.2l-1.1-7.2h-5.7l-1.1,7.2h-2.2l4.3-28h3.6L256.6,70.6z M248,61.3h5L250.5,45h-0.1L248,61.3z"/>
</g>
<rect id="XMLID_1_" x="54.6" y="77.6" class="st8" width="205.6" height="6.4"/>
</svg>
