<?xml version="1.0" encoding="utf-8"?>
<!-- Generator: Adobe Illustrator 22.0.0, SVG Export Plug-In . SVG Version: 6.00 Build 0)  -->
<svg version="1.1" id="Layer_1" xmlns="http://www.w3.org/2000/svg" xmlns:xlink="http://www.w3.org/1999/xlink" x="0px" y="0px"
	 viewBox="0 0 451.6 221.2" style="enable-background:new 0 0 451.6 221.2;" xml:space="preserve">
<style type="text/css">
	.st0{enable-background:new    ;}
	.st1{fill:#DA635A;}
	.st2{fill:#DD5361;}
	.st3{fill:#FF6B68;}
	.st4{clip-path:url(#SVGID_2_);}
	.st5{fill:#E6E7E8;}
	.st6{fill:#EC1C24;}
	.st7{fill:#FBE6EF;}
	.st8{fill:url(#SVGID_3_);}
	.st9{fill:#726658;}
	.st10{fill:#DED9D7;}
</style>
<g>
	<g class="st0">
		<path class="st1" d="M204.4,52.2h-18.6v-2.8l7.5-7.5c2.3-2.3,3.8-3.9,4.5-4.9s1.3-1.9,1.6-2.9c0.4-0.9,0.5-1.9,0.5-3
			c0-1.5-0.5-2.7-1.4-3.6s-2.2-1.3-3.8-1.3c-1.2,0-2.3,0.2-3.3,0.6c-1.1,0.4-2.2,1.1-3.5,2.1l-1.7-2.2c2.6-2.2,5.5-3.3,8.5-3.3
			c2.7,0,4.7,0.7,6.3,2c1.5,1.4,2.3,3.2,2.3,5.5c0,1.8-0.5,3.6-1.5,5.3c-1,1.8-2.9,4-5.7,6.7l-6.2,6.1v0.2h14.6v3H204.4z"/>
		<path class="st1" d="M227.2,37.9c0,4.9-0.8,8.6-2.3,11s-3.9,3.6-7.1,3.6c-3,0-5.4-1.2-7-3.7s-2.4-6.1-2.4-10.9
			c0-4.9,0.8-8.6,2.3-11s3.9-3.6,7-3.6s5.4,1.2,7,3.7S227.2,33.2,227.2,37.9z M211.8,37.9c0,4.1,0.5,7.1,1.5,9s2.5,2.8,4.6,2.8
			s3.7-1,4.7-2.9s1.4-4.9,1.4-9s-0.5-7-1.4-8.9c-1-1.9-2.5-2.8-4.7-2.8c-2.1,0-3.7,0.9-4.6,2.8C212.2,30.8,211.8,33.8,211.8,37.9z"
			/>
		<path class="st1" d="M243.1,52.2H240V32c0-1.7,0.1-3.3,0.2-4.8c-0.3,0.3-0.6,0.6-0.9,0.9c-0.3,0.3-1.9,1.6-4.6,3.8l-1.7-2.2
			l7.5-5.8h2.7L243.1,52.2L243.1,52.2z"/>
		<path class="st1" d="M272.5,52.2h-18.6v-2.8l7.5-7.5c2.3-2.3,3.8-3.9,4.5-4.9s1.3-1.9,1.6-2.9c0.4-0.9,0.5-1.9,0.5-3
			c0-1.5-0.5-2.7-1.4-3.6s-2.2-1.3-3.8-1.3c-1.2,0-2.3,0.2-3.3,0.6c-1.1,0.4-2.2,1.1-3.5,2.1l-1.7-2.2c2.6-2.2,5.5-3.3,8.5-3.3
			c2.7,0,4.7,0.7,6.3,2c1.5,1.4,2.3,3.2,2.3,5.5c0,1.8-0.5,3.6-1.5,5.3c-1,1.8-2.9,4-5.7,6.7L258,49v0.2h14.6v3H272.5z"/>
	</g>
	<g id="XMLID_329_">
		<path id="XMLID_280_" class="st2" d="M100.7,73.3h229.7c5.7,0,11.1,2.8,14.3,7.6c3.9,5.8,10.5,9.5,18,9.3
			c10.9-0.3,19.9-9.2,20.4-20.1c0.5-12-9.1-21.9-21-21.9c-7.1,0-13.4,3.5-17.2,9c-3.4,4.8-8.7,7.9-14.5,7.9H100.7V73.3z"/>
	</g>
	<path class="st2" d="M103.2,26.8c-23.4-23.4-61.3-23.4-84.7,0s-23.4,61.3,0,84.7c12.6,12.6,29.3,18.4,45.7,17.4
		c14.2-0.8,28.1-6.6,38.9-17.4s16.6-24.8,17.4-39C121.6,56.1,115.8,39.4,103.2,26.8z M89.1,97.3c-15.6,15.6-40.8,15.6-56.4,0
		s-15.6-40.8,0-56.4s40.8-15.6,56.4,0C104.6,56.5,104.6,81.8,89.1,97.3z"/>
	<g class="st0">
		<path class="st1" d="M47.5,56.9c0-4,3.2-7.2,7.2-7.2s7.2,3.2,7.2,7.2v24.9c0,4-3.2,7.2-7.2,7.2s-7.2-3.2-7.2-7.2V56.9z M50.5,81.9
			c0,2.3,1.9,4.2,4.2,4.2s4.2-1.9,4.2-4.2v-25c0-2.3-1.9-4.2-4.2-4.2s-4.2,1.9-4.2,4.2V81.9z"/>
		<path class="st1" d="M67.6,88.5V50.6l2.9-0.3v38.2H67.6z"/>
	</g>
</g>
<g id="canada_1_">
	<g>
		<g>
			<path class="st3" d="M440.8,53.3c-4-22.6-36.6-22.6-40.7,0c-0.4,2-0.5,4.1-0.5,6.2c0,14.3,8.6,26.6,20.9,32
				c12.3-5.4,20.9-17.7,20.9-32C441.3,57.4,441.1,55.3,440.8,53.3z"/>
		</g>
		<g>
			<g>
				<g>
					<defs>
						<path id="SVGID_1_" d="M436.8,57.1c0,8.4-6.3,15.3-14.5,16.2c-0.6,0.1-1.2,0.1-1.9,0.1c-9,0-16.3-7.3-16.3-16.3
							s7.3-16.3,16.3-16.3c0.6,0,1.3,0,1.9,0.1C430.5,41.8,436.8,48.7,436.8,57.1z"/>
					</defs>
					<clipPath id="SVGID_2_">
						<use xlink:href="#SVGID_1_"  style="overflow:visible;"/>
					</clipPath>
					<g class="st4">
						<g>
							<path class="st5" d="M444.2,71.3c0,1.2-1,2.2-2.2,2.2h-42.9c-1.2,0-2.2-1-2.2-2.2V42.6c0-1.2,1-2.2,2.2-2.2H442
								c1.2,0,2.2,1,2.2,2.2V71.3z"/>
							<path class="st6" d="M399.1,40.4c-1.2,0-2.2,1-2.2,2.2v28.7c0,1.2,1,2.2,2.2,2.2h9.9V40.4H399.1z"/>
							<path class="st6" d="M444.2,71.3V42.6c0-1.2-1-2.2-2.2-2.2h-9.9v33.1h9.9C443.2,73.5,444.2,72.5,444.2,71.3z"/>
							<g>
								<path class="st7" d="M419.9,47.5c0,0-1.5,3-1.6,3.2c-0.3-0.1-2.1-1.1-2.1-1.1l0.1,0.4c1.4,4.7,1,5.1,0.9,5.2
									c-0.3,0.1-1.3-1-2.2-2.4l-0.3-0.5v0.6c0,0.5-0.1,0.8-0.4,1c-0.8,0.6-2.6-0.1-2.7-0.1l-0.4-0.1l0.2,0.3
									c0.9,1.8,0.9,2.6,0.6,2.9c-0.3,0.4-0.8,0.4-0.9,0.4l-0.1,0.3c3.6,1.8,4.4,3.2,4.5,4.1c0,0.8-0.6,1.3-0.6,1.3l0.1,0.3
									c0,0,4.1-0.9,4.5-1c0,0.4-0.3,4.6-0.3,4.6L420,67l0.8-0.1c0,0-0.3-4.3-0.3-4.7c0.4,0.1,4.5,1,4.5,1l0.1-0.3
									c0,0-0.7-0.5-0.6-1.3c0-0.8,0.9-2.2,4.5-4.1l-0.1-0.3c0,0-0.6,0-0.9-0.4c-0.2-0.4-0.3-1.2,0.6-2.9l0.2-0.4l-0.4,0.1
									c0,0-1.8,0.7-2.7,0.1c-0.3-0.2-0.4-0.5-0.4-1v-0.6l-0.3,0.5c-0.9,1.4-1.9,2.6-2.2,2.4c-0.1,0-0.5-0.5,0.9-5.2l0.1-0.4
									c0,0-1.8,1-2.1,1.1c-0.1-0.3-1.8-3.5-1.8-3.5L419.9,47.5z"/>
								<path class="st6" d="M428.9,57.5c0,0-2.4,0.2-0.4-3.6c0,0-3.3,1.2-3.3-1.1c0,0-4.6,7.3-1.6-2.9l-1.9,1l-1.7-3.4l-1.7,3.4
									l-1.9-1c3,10.1-1.6,2.9-1.6,2.9c0,2.3-3.3,1.1-3.3,1.1c2,3.8-0.4,3.6-0.4,3.6c7,3.6,3.9,5.6,3.9,5.6l4.7-1l-0.3,4.7l0.6,0.1
									l0.6-0.1l-0.3-4.7l4.7,1C425.1,63.1,421.9,61,428.9,57.5z"/>
							</g>
						</g>
						
							<radialGradient id="SVGID_3_" cx="-587.4349" cy="2399.939" r="8.0788" gradientTransform="matrix(1.0148 0 0 1.0148 1016.6523 -2361.958)" gradientUnits="userSpaceOnUse">
							<stop  offset="0" style="stop-color:#DDDFE0"/>
							<stop  offset="1" style="stop-color:#FFFFFF"/>
						</radialGradient>
						<polygon class="st8" points="408.9,73.5 432.1,73.5 432.1,73.5 						"/>
					</g>
				</g>
			</g>
		</g>
	</g>
</g>
<g>
	<g id="XMLID_299_">
		<g>
			<g>
				<path class="st9" d="M242,166.3l-1.3,3.9h-1.6l4.2-12.3h1.9l4.2,12.3h-1.7l-1.3-3.9H242z M246.1,165.1l-1.2-3.5
					c-0.3-0.8-0.5-1.5-0.6-2.2h0c-0.2,0.7-0.4,1.5-0.6,2.2l-1.2,3.6H246.1z"/>
				<path class="st9" d="M251.1,164.1c0-1,0-1.9-0.1-2.8h1.4l0.1,1.7h0.1c0.4-1.2,1.4-1.9,2.4-1.9c0.2,0,0.3,0,0.5,0.1v1.5
					c-0.2,0-0.3-0.1-0.5-0.1c-1.1,0-1.9,0.9-2.1,2.1c0,0.2-0.1,0.5-0.1,0.7v4.7h-1.6V164.1z"/>
				<path class="st9" d="M259.4,158.8v2.5h2.3v1.2h-2.3v4.8c0,1.1,0.3,1.7,1.2,1.7c0.4,0,0.7-0.1,0.9-0.1l0.1,1.2
					c-0.3,0.1-0.8,0.2-1.4,0.2c-0.7,0-1.3-0.2-1.7-0.7c-0.5-0.5-0.6-1.3-0.6-2.3v-4.8h-1.4v-1.2h1.4v-2.1L259.4,158.8z"/>
				<path class="st9" d="M267.5,157.9h6.6v1.3h-5v4.1h4.6v1.3H269v5.6h-1.6V157.9z"/>
				<path class="st9" d="M283,167.8c0,0.9,0,1.7,0.1,2.4h-1.4l-0.1-1.4h0c-0.4,0.7-1.3,1.6-2.9,1.6c-1.4,0-3-0.8-3-3.9v-5.2h1.6v4.9
					c0,1.7,0.5,2.8,2,2.8c1.1,0,1.8-0.7,2.1-1.5c0.1-0.2,0.1-0.5,0.1-0.8v-5.4h1.6V167.8z"/>
				<path class="st9" d="M285.7,163.7c0-0.9,0-1.7-0.1-2.4h1.4l0.1,1.5h0c0.4-0.8,1.5-1.7,2.9-1.7c1.2,0,3.1,0.7,3.1,3.8v5.3h-1.6
					v-5.1c0-1.4-0.5-2.6-2-2.6c-1.1,0-1.9,0.7-2.1,1.6c-0.1,0.2-0.1,0.5-0.1,0.7v5.3h-1.6V163.7z"/>
				<path class="st9" d="M303.4,157.2v10.7c0,0.8,0,1.7,0.1,2.3H302l-0.1-1.5h0c-0.5,1-1.6,1.7-3,1.7c-2.1,0-3.8-1.8-3.8-4.5
					c0-2.9,1.8-4.7,4-4.7c1.3,0,2.3,0.6,2.7,1.3h0v-5.3H303.4z M301.8,164.9c0-0.2,0-0.5-0.1-0.7c-0.2-1-1.1-1.9-2.3-1.9
					c-1.7,0-2.6,1.5-2.6,3.4c0,1.8,0.9,3.3,2.6,3.3c1.1,0,2.1-0.7,2.4-1.9c0.1-0.2,0.1-0.4,0.1-0.7V164.9z"/>
				<path class="st9" d="M310.9,170.2l-0.1-1.1h-0.1c-0.5,0.7-1.4,1.3-2.7,1.3c-1.8,0-2.7-1.3-2.7-2.5c0-2.1,1.9-3.3,5.3-3.3v-0.2
					c0-0.7-0.2-2-2-2c-0.8,0-1.7,0.3-2.3,0.7l-0.4-1.1c0.7-0.5,1.8-0.8,2.9-0.8c2.7,0,3.4,1.8,3.4,3.6v3.3c0,0.8,0,1.5,0.1,2.1
					H310.9z M310.7,165.7c-1.7,0-3.7,0.3-3.7,2c0,1,0.7,1.5,1.5,1.5c1.1,0,1.9-0.7,2.1-1.5c0.1-0.2,0.1-0.3,0.1-0.5V165.7z"/>
				<path class="st9" d="M314.8,163.7c0-0.9,0-1.7-0.1-2.4h1.4l0.1,1.4h0.1c0.5-0.8,1.3-1.6,2.8-1.6c1.2,0,2.1,0.7,2.5,1.8h0
					c0.3-0.5,0.6-0.9,1-1.1c0.5-0.4,1.1-0.6,1.9-0.6c1.2,0,2.9,0.8,2.9,3.8v5.2h-1.6v-5c0-1.7-0.6-2.7-1.9-2.7
					c-0.9,0-1.6,0.7-1.9,1.5c-0.1,0.2-0.1,0.5-0.1,0.8v5.4h-1.6v-5.3c0-1.4-0.6-2.4-1.8-2.4c-1,0-1.7,0.8-2,1.6
					c-0.1,0.2-0.1,0.5-0.1,0.8v5.3h-1.6V163.7z"/>
				<path class="st9" d="M330.9,166.1c0,2.2,1.4,3.1,3,3.1c1.1,0,1.8-0.2,2.4-0.5l0.3,1.1c-0.6,0.3-1.5,0.5-2.9,0.5
					c-2.7,0-4.3-1.8-4.3-4.4c0-2.7,1.6-4.8,4.1-4.8c2.9,0,3.6,2.5,3.6,4.2c0,0.3,0,0.6-0.1,0.7H330.9z M335.6,164.9
					c0-1-0.4-2.6-2.2-2.6c-1.6,0-2.3,1.5-2.5,2.6H335.6z"/>
				<path class="st9" d="M339.2,163.7c0-0.9,0-1.7-0.1-2.4h1.4l0.1,1.5h0c0.4-0.8,1.5-1.7,2.9-1.7c1.2,0,3.1,0.7,3.1,3.8v5.3h-1.6
					v-5.1c0-1.4-0.5-2.6-2-2.6c-1.1,0-1.9,0.7-2.1,1.6c-0.1,0.2-0.1,0.5-0.1,0.7v5.3h-1.6V163.7z"/>
				<path class="st9" d="M351.1,158.8v2.5h2.3v1.2h-2.3v4.8c0,1.1,0.3,1.7,1.2,1.7c0.4,0,0.7-0.1,0.9-0.1l0.1,1.2
					c-0.3,0.1-0.8,0.2-1.4,0.2c-0.7,0-1.3-0.2-1.7-0.7c-0.5-0.5-0.6-1.3-0.6-2.3v-4.8h-1.4v-1.2h1.4v-2.1L351.1,158.8z"/>
				<path class="st9" d="M360.1,170.2l-0.1-1.1h-0.1c-0.5,0.7-1.4,1.3-2.7,1.3c-1.8,0-2.7-1.3-2.7-2.5c0-2.1,1.9-3.3,5.3-3.3v-0.2
					c0-0.7-0.2-2-2-2c-0.8,0-1.7,0.3-2.3,0.7l-0.4-1.1c0.7-0.5,1.8-0.8,2.9-0.8c2.7,0,3.4,1.8,3.4,3.6v3.3c0,0.8,0,1.5,0.1,2.1
					H360.1z M359.9,165.7c-1.7,0-3.7,0.3-3.7,2c0,1,0.7,1.5,1.5,1.5c1.1,0,1.9-0.7,2.1-1.5c0.1-0.2,0.1-0.3,0.1-0.5V165.7z"/>
				<path class="st9" d="M364,157.2h1.6v12.9H364V157.2z"/>
				<path class="st9" d="M368.1,168.5c0.5,0.3,1.3,0.6,2.1,0.6c1.2,0,1.7-0.6,1.7-1.3c0-0.8-0.5-1.2-1.6-1.6
					c-1.6-0.6-2.3-1.4-2.3-2.5c0-1.4,1.1-2.6,3-2.6c0.9,0,1.7,0.3,2.2,0.5l-0.4,1.2c-0.3-0.2-1-0.5-1.8-0.5c-0.9,0-1.5,0.5-1.5,1.2
					c0,0.7,0.5,1.1,1.7,1.5c1.5,0.6,2.3,1.3,2.3,2.7c0,1.5-1.2,2.6-3.3,2.6c-1,0-1.9-0.2-2.5-0.6L368.1,168.5z"/>
				<path class="st9" d="M248.6,191.6c-0.6,0.3-1.7,0.6-3.2,0.6c-3.5,0-6.1-2.2-6.1-6.2c0-3.8,2.6-6.5,6.4-6.5
					c1.5,0,2.5,0.3,2.9,0.5l-0.4,1.3c-0.6-0.3-1.5-0.5-2.5-0.5c-2.9,0-4.8,1.8-4.8,5.1c0,3,1.7,4.9,4.7,4.9c1,0,1.9-0.2,2.6-0.5
					L248.6,191.6z"/>
				<path class="st9" d="M251.3,187.9c0,2.2,1.4,3.1,3,3.1c1.1,0,1.8-0.2,2.4-0.5l0.3,1.1c-0.6,0.3-1.5,0.5-2.9,0.5
					c-2.7,0-4.3-1.8-4.3-4.4c0-2.7,1.6-4.8,4.1-4.8c2.9,0,3.6,2.5,3.6,4.2c0,0.3,0,0.6-0.1,0.7H251.3z M256,186.8
					c0-1-0.4-2.6-2.2-2.6c-1.6,0-2.3,1.5-2.5,2.6H256z"/>
				<path class="st9" d="M259.5,186c0-1,0-1.9-0.1-2.8h1.4l0.1,1.7h0.1c0.4-1.2,1.4-1.9,2.4-1.9c0.2,0,0.3,0,0.5,0.1v1.5
					c-0.2,0-0.3-0.1-0.5-0.1c-1.1,0-1.9,0.9-2.1,2.1c0,0.2-0.1,0.5-0.1,0.7v4.7h-1.6V186z"/>
				<path class="st9" d="M267.8,180.7v2.5h2.3v1.2h-2.3v4.8c0,1.1,0.3,1.7,1.2,1.7c0.4,0,0.7-0.1,0.9-0.1l0.1,1.2
					c-0.3,0.1-0.8,0.2-1.4,0.2c-0.7,0-1.3-0.2-1.7-0.7c-0.5-0.5-0.6-1.3-0.6-2.3v-4.8h-1.4v-1.2h1.4v-2.1L267.8,180.7z"/>
				<path class="st9" d="M273.7,180.7c0,0.5-0.4,1-1,1c-0.6,0-1-0.4-1-1c0-0.6,0.4-1,1-1C273.3,179.7,273.7,180.2,273.7,180.7z
					 M271.9,192v-8.8h1.6v8.8H271.9z"/>
				<path class="st9" d="M276.4,192v-7.6h-1.2v-1.2h1.2v-0.5c0-2.3,1.4-3.8,3.8-3.8c0.8,0,1.8,0.3,2.2,0.6l-0.5,1.2
					c-0.4-0.3-1.1-0.5-1.9-0.5c-1.7,0-2.2,1.2-2.2,2.6v0.4h5.1v8.8h-1.6v-7.6h-3.5v7.6H276.4z"/>
				<path class="st9" d="M292,191.7c-0.4,0.2-1.3,0.5-2.5,0.5c-2.7,0-4.4-1.8-4.4-4.5c0-2.7,1.9-4.7,4.7-4.7c0.9,0,1.8,0.2,2.2,0.5
					l-0.4,1.2c-0.4-0.2-1-0.4-1.9-0.4c-2,0-3.1,1.5-3.1,3.3c0,2,1.3,3.3,3.1,3.3c0.9,0,1.5-0.2,2-0.4L292,191.7z"/>
				<path class="st9" d="M298.8,192l-0.1-1.1h-0.1c-0.5,0.7-1.4,1.3-2.7,1.3c-1.8,0-2.7-1.3-2.7-2.5c0-2.1,1.9-3.3,5.3-3.3v-0.2
					c0-0.7-0.2-2-2-2c-0.8,0-1.7,0.3-2.3,0.7l-0.4-1.1c0.7-0.5,1.8-0.8,2.9-0.8c2.7,0,3.4,1.8,3.4,3.6v3.3c0,0.8,0,1.5,0.1,2.1
					H298.8z M298.5,187.5c-1.7,0-3.7,0.3-3.7,2c0,1,0.7,1.5,1.5,1.5c1.1,0,1.9-0.7,2.1-1.5c0.1-0.2,0.1-0.3,0.1-0.5V187.5z"/>
				<path class="st9" d="M304.5,180.7v2.5h2.3v1.2h-2.3v4.8c0,1.1,0.3,1.7,1.2,1.7c0.4,0,0.7-0.1,0.9-0.1l0.1,1.2
					c-0.3,0.1-0.8,0.2-1.4,0.2c-0.7,0-1.3-0.2-1.7-0.7c-0.5-0.5-0.6-1.3-0.6-2.3v-4.8h-1.4v-1.2h1.4v-2.1L304.5,180.7z"/>
				<path class="st9" d="M309.4,187.9c0,2.2,1.4,3.1,3,3.1c1.1,0,1.8-0.2,2.4-0.5l0.3,1.1c-0.6,0.3-1.5,0.5-2.9,0.5
					c-2.7,0-4.3-1.8-4.3-4.4c0-2.7,1.6-4.8,4.1-4.8c2.9,0,3.6,2.5,3.6,4.2c0,0.3,0,0.6-0.1,0.7H309.4z M314.1,186.8
					c0-1-0.4-2.6-2.2-2.6c-1.6,0-2.3,1.5-2.5,2.6H314.1z"/>
				<path class="st9" d="M326.4,192l-0.1-1.1h-0.1c-0.5,0.7-1.4,1.3-2.7,1.3c-1.8,0-2.7-1.3-2.7-2.5c0-2.1,1.9-3.3,5.3-3.3v-0.2
					c0-0.7-0.2-2-2-2c-0.8,0-1.7,0.3-2.3,0.7l-0.4-1.1c0.7-0.5,1.8-0.8,2.9-0.8c2.7,0,3.4,1.8,3.4,3.6v3.3c0,0.8,0,1.5,0.1,2.1
					H326.4z M326.2,187.5c-1.7,0-3.7,0.3-3.7,2c0,1,0.7,1.5,1.5,1.5c1.1,0,1.9-0.7,2.1-1.5c0.1-0.2,0.1-0.3,0.1-0.5V187.5z"/>
				<path class="st9" d="M332.1,180.7v2.5h2.3v1.2h-2.3v4.8c0,1.1,0.3,1.7,1.2,1.7c0.4,0,0.7-0.1,0.9-0.1l0.1,1.2
					c-0.3,0.1-0.8,0.2-1.4,0.2c-0.7,0-1.3-0.2-1.7-0.7c-0.5-0.5-0.6-1.3-0.6-2.3v-4.8h-1.4v-1.2h1.4v-2.1L332.1,180.7z"/>
				<path class="st9" d="M339.9,190.1c0.7,0.4,1.7,0.8,2.8,0.8c1.6,0,2.6-0.9,2.6-2.1c0-1.1-0.7-1.8-2.3-2.4c-2-0.7-3.2-1.7-3.2-3.5
					c0-1.9,1.6-3.3,4-3.3c1.3,0,2.2,0.3,2.7,0.6l-0.4,1.3c-0.4-0.2-1.2-0.6-2.3-0.6c-1.7,0-2.3,1-2.3,1.8c0,1.1,0.7,1.7,2.4,2.4
					c2.1,0.8,3.1,1.8,3.1,3.6c0,1.9-1.4,3.5-4.3,3.5c-1.2,0-2.5-0.3-3.1-0.8L339.9,190.1z"/>
				<path class="st9" d="M349.1,179.1h1.6v5.5h0c0.3-0.5,0.7-0.9,1.1-1.1c0.5-0.3,1-0.5,1.6-0.5c1.2,0,3.1,0.7,3.1,3.8v5.2H355V187
					c0-1.4-0.5-2.6-2-2.6c-1,0-1.9,0.7-2.1,1.6c-0.1,0.2-0.1,0.5-0.1,0.8v5.3h-1.6V179.1z"/>
				<path class="st9" d="M360.1,187.9c0,2.2,1.4,3.1,3,3.1c1.1,0,1.8-0.2,2.4-0.5l0.3,1.1c-0.6,0.3-1.5,0.5-2.9,0.5
					c-2.7,0-4.3-1.8-4.3-4.4c0-2.7,1.6-4.8,4.1-4.8c2.9,0,3.6,2.5,3.6,4.2c0,0.3,0,0.6-0.1,0.7H360.1z M364.8,186.8
					c0-1-0.4-2.6-2.2-2.6c-1.6,0-2.3,1.5-2.5,2.6H364.8z"/>
				<path class="st9" d="M368.3,186c0-1,0-1.9-0.1-2.8h1.4l0.1,1.7h0.1c0.4-1.2,1.4-1.9,2.4-1.9c0.2,0,0.3,0,0.5,0.1v1.5
					c-0.2,0-0.3-0.1-0.5-0.1c-1.1,0-1.9,0.9-2.1,2.1c0,0.2-0.1,0.5-0.1,0.7v4.7h-1.6V186z"/>
				<path class="st9" d="M376.2,180.7c0,0.5-0.4,1-1,1c-0.6,0-1-0.4-1-1c0-0.6,0.4-1,1-1C375.8,179.7,376.2,180.2,376.2,180.7z
					 M374.4,192v-8.8h1.6v8.8H374.4z"/>
				<path class="st9" d="M386.2,179.1v10.7c0,0.8,0,1.7,0.1,2.3h-1.4l-0.1-1.5h0c-0.5,1-1.6,1.7-3,1.7c-2.1,0-3.8-1.8-3.8-4.5
					c0-2.9,1.8-4.7,4-4.7c1.3,0,2.3,0.6,2.7,1.3h0v-5.3H386.2z M384.6,186.8c0-0.2,0-0.5-0.1-0.7c-0.2-1-1.1-1.9-2.3-1.9
					c-1.7,0-2.6,1.5-2.6,3.4c0,1.8,0.9,3.3,2.6,3.3c1.1,0,2.1-0.7,2.4-1.9c0.1-0.2,0.1-0.4,0.1-0.7V186.8z"/>
				<path class="st9" d="M393.8,192l-0.1-1.1h-0.1c-0.5,0.7-1.4,1.3-2.7,1.3c-1.8,0-2.7-1.3-2.7-2.5c0-2.1,1.9-3.3,5.3-3.3v-0.2
					c0-0.7-0.2-2-2-2c-0.8,0-1.7,0.3-2.3,0.7l-0.4-1.1c0.7-0.5,1.8-0.8,2.9-0.8c2.7,0,3.4,1.8,3.4,3.6v3.3c0,0.8,0,1.5,0.1,2.1
					H393.8z M393.6,187.5c-1.7,0-3.7,0.3-3.7,2c0,1,0.7,1.5,1.5,1.5c1.1,0,1.9-0.7,2.1-1.5c0.1-0.2,0.1-0.3,0.1-0.5V187.5z"/>
				<path class="st9" d="M397.7,185.6c0-0.9,0-1.7-0.1-2.4h1.4l0.1,1.5h0c0.4-0.8,1.5-1.7,2.9-1.7c1.2,0,3.1,0.7,3.1,3.8v5.3h-1.6
					V187c0-1.4-0.5-2.6-2-2.6c-1.1,0-1.9,0.7-2.1,1.6c-0.1,0.2-0.1,0.5-0.1,0.7v5.3h-1.6V185.6z"/>
				<path class="st9" d="M248.6,213.5c-0.6,0.3-1.7,0.6-3.2,0.6c-3.5,0-6.1-2.2-6.1-6.2c0-3.8,2.6-6.5,6.4-6.5
					c1.5,0,2.5,0.3,2.9,0.5l-0.4,1.3c-0.6-0.3-1.5-0.5-2.5-0.5c-2.9,0-4.8,1.8-4.8,5.1c0,3,1.7,4.9,4.7,4.9c1,0,1.9-0.2,2.6-0.5
					L248.6,213.5z"/>
				<path class="st9" d="M258.4,209.4c0,3.3-2.3,4.7-4.4,4.7c-2.4,0-4.2-1.7-4.2-4.5c0-3,1.9-4.7,4.4-4.7
					C256.6,204.9,258.4,206.7,258.4,209.4z M251.4,209.5c0,1.9,1.1,3.4,2.7,3.4c1.5,0,2.7-1.4,2.7-3.4c0-1.5-0.7-3.4-2.6-3.4
					S251.4,207.8,251.4,209.5z"/>
				<path class="st9" d="M260.4,201h1.6v12.9h-1.6V201z"/>
				<path class="st9" d="M264.7,201h1.6v12.9h-1.6V201z"/>
				<path class="st9" d="M269.9,209.8c0,2.2,1.4,3.1,3,3.1c1.1,0,1.8-0.2,2.4-0.5l0.3,1.1c-0.6,0.3-1.5,0.5-2.9,0.5
					c-2.7,0-4.3-1.8-4.3-4.4c0-2.7,1.6-4.8,4.1-4.8c2.9,0,3.6,2.5,3.6,4.2c0,0.3,0,0.6-0.1,0.7H269.9z M274.6,208.6
					c0-1-0.4-2.6-2.2-2.6c-1.6,0-2.3,1.5-2.5,2.6H274.6z"/>
				<path class="st9" d="M285.7,205.1c0,0.6-0.1,1.3-0.1,2.4v5.1c0,2-0.4,3.3-1.3,4c-0.9,0.8-2.1,1.1-3.2,1.1
					c-1.1,0-2.2-0.3-2.9-0.7l0.4-1.2c0.6,0.4,1.5,0.7,2.6,0.7c1.6,0,2.8-0.9,2.8-3.1v-1h0c-0.5,0.8-1.4,1.5-2.8,1.5
					c-2.2,0-3.8-1.9-3.8-4.3c0-3,1.9-4.7,4-4.7c1.5,0,2.4,0.8,2.8,1.5h0l0.1-1.3H285.7z M284,208.6c0-0.3,0-0.5-0.1-0.7
					c-0.3-0.9-1.1-1.7-2.2-1.7c-1.5,0-2.6,1.3-2.6,3.3c0,1.7,0.9,3.2,2.6,3.2c1,0,1.9-0.6,2.2-1.6c0.1-0.3,0.1-0.6,0.1-0.9V208.6z"
					/>
				<path class="st9" d="M289.2,209.8c0,2.2,1.4,3.1,3,3.1c1.1,0,1.8-0.2,2.4-0.5l0.3,1.1c-0.6,0.3-1.5,0.5-2.9,0.5
					c-2.7,0-4.3-1.8-4.3-4.4c0-2.7,1.6-4.8,4.1-4.8c2.9,0,3.6,2.5,3.6,4.2c0,0.3,0,0.6-0.1,0.7H289.2z M293.9,208.6
					c0-1-0.4-2.6-2.2-2.6c-1.6,0-2.3,1.5-2.5,2.6H293.9z"/>
				<path class="st9" d="M296.2,216.1c0.4-1.1,0.9-3,1.1-4.4l1.8-0.2c-0.4,1.5-1.2,3.6-1.7,4.4L296.2,216.1z"/>
				<path class="st9" d="M315.4,207.6c0,4.2-2.6,6.5-5.7,6.5c-3.2,0-5.5-2.5-5.5-6.2c0-3.9,2.4-6.5,5.7-6.5
					C313.2,201.4,315.4,204,315.4,207.6z M305.9,207.8c0,2.6,1.4,5,3.9,5c2.5,0,3.9-2.3,3.9-5.1c0-2.4-1.3-5-3.9-5
					C307.2,202.7,305.9,205.1,305.9,207.8z"/>
				<path class="st9" d="M322.3,213.9l-0.1-1.1h-0.1c-0.5,0.7-1.4,1.3-2.7,1.3c-1.8,0-2.7-1.3-2.7-2.5c0-2.1,1.9-3.3,5.3-3.3v-0.2
					c0-0.7-0.2-2-2-2c-0.8,0-1.7,0.3-2.3,0.7l-0.4-1.1c0.7-0.5,1.8-0.8,2.9-0.8c2.7,0,3.4,1.8,3.4,3.6v3.3c0,0.8,0,1.5,0.1,2.1
					H322.3z M322,209.4c-1.7,0-3.7,0.3-3.7,2c0,1,0.7,1.5,1.5,1.5c1.1,0,1.9-0.7,2.1-1.5c0.1-0.2,0.1-0.3,0.1-0.5V209.4z"/>
				<path class="st9" d="M327.8,209.1L327.8,209.1c0.3-0.3,0.6-0.7,0.8-1l2.6-3h1.9l-3.4,3.6l3.9,5.2h-1.9l-3-4.2l-0.8,0.9v3.3h-1.6
					V201h1.6V209.1z"/>
				<path class="st9" d="M335.6,205.1l1.7,5c0.3,0.8,0.5,1.5,0.7,2.3h0.1c0.2-0.7,0.5-1.5,0.7-2.3l1.7-5h1.7l-3.5,8.8h-1.5l-3.4-8.8
					H335.6z"/>
				<path class="st9" d="M345.5,202.6c0,0.5-0.4,1-1,1c-0.6,0-1-0.4-1-1c0-0.6,0.4-1,1-1C345.1,201.6,345.5,202,345.5,202.6z
					 M343.7,213.9v-8.8h1.6v8.8H343.7z"/>
				<path class="st9" d="M348,201h1.6v12.9H348V201z"/>
				<path class="st9" d="M352.3,201h1.6v12.9h-1.6V201z"/>
				<path class="st9" d="M357.5,209.8c0,2.2,1.4,3.1,3,3.1c1.1,0,1.8-0.2,2.4-0.5l0.3,1.1c-0.6,0.3-1.5,0.5-2.9,0.5
					c-2.7,0-4.3-1.8-4.3-4.4c0-2.7,1.6-4.8,4.1-4.8c2.9,0,3.6,2.5,3.6,4.2c0,0.3,0,0.6-0.1,0.7H357.5z M362.2,208.6
					c0-1-0.4-2.6-2.2-2.6c-1.6,0-2.3,1.5-2.5,2.6H362.2z"/>
				<path class="st9" d="M364.5,216.1c0.4-1.1,0.9-3,1.1-4.4l1.8-0.2c-0.4,1.5-1.2,3.6-1.7,4.4L364.5,216.1z"/>
				<path class="st9" d="M383.7,207.6c0,4.2-2.6,6.5-5.7,6.5c-3.2,0-5.5-2.5-5.5-6.2c0-3.9,2.4-6.5,5.7-6.5
					C381.5,201.4,383.7,204,383.7,207.6z M374.1,207.8c0,2.6,1.4,5,3.9,5c2.5,0,3.9-2.3,3.9-5.1c0-2.4-1.3-5-3.9-5
					C375.5,202.7,374.1,205.1,374.1,207.8z"/>
				<path class="st9" d="M385.7,207.5c0-0.9,0-1.7-0.1-2.4h1.4l0.1,1.5h0c0.4-0.8,1.5-1.7,2.9-1.7c1.2,0,3.1,0.7,3.1,3.8v5.3h-1.6
					v-5.1c0-1.4-0.5-2.6-2-2.6c-1.1,0-1.9,0.7-2.1,1.6c-0.1,0.2-0.1,0.5-0.1,0.7v5.3h-1.6V207.5z"/>
				<path class="st9" d="M395.4,213c0-0.7,0.5-1.1,1.1-1.1c0.6,0,1.1,0.5,1.1,1.1c0,0.7-0.4,1.1-1.1,1.1
					C395.8,214.1,395.4,213.6,395.4,213z"/>
			</g>
		</g>
	</g>
	<g>
		<path class="st2" d="M251.4,131.7h-2.2l-1.1-7.2h-5.7l-1.1,7.2h-2.2l4.3-28h3.7L251.4,131.7z M242.8,122.4h5l-2.4-16.3h-0.1
			L242.8,122.4z"/>
		<path class="st2" d="M264.6,131.7h-2.2v-9.3c0-2-1.6-3.6-3.7-3.6h-2.6v12.9H254v-28h4.8c3.2,0,5.8,2.6,5.8,5.8v3.4
			c0,1.9-1,3.7-2.4,4.7c1.5,1.1,2.4,2.8,2.4,4.7V131.7z M258.8,116.6c2,0,3.7-1.6,3.7-3.6v-3.4c0-2-1.6-3.6-3.7-3.6h-2.6v10.7H258.8
			z"/>
		<path class="st2" d="M276.6,105.9h-3.9v25.8h-2.2v-25.8h-3.9v-2.2h10V105.9z"/>
		<path class="st2" d="M286.6,105.9v10.7h5v2.2h-5v12.9h-2.2v-28h9v2.2H286.6z"/>
		<path class="st2" d="M307.1,103.7v23c0,3-2.4,5.4-5.4,5.4c-3,0-5.4-2.4-5.4-5.4v-23h2.2v23c0,1.8,1.5,3.2,3.2,3.2
			c1.8,0,3.2-1.5,3.2-3.2v-23H307.1z"/>
		<path class="st2" d="M311.2,103.7h2.6l6.6,21.2h0.1v-21.2h2.2v28h-2.2l-7-22.4h-0.1v22.4h-2.2V103.7z"/>
		<path class="st2" d="M337.6,125.9c0,3.2-2.6,5.8-5.8,5.8h-5v-28h5c3.2,0,5.8,2.6,5.8,5.8V125.9z M335.4,109.5c0-2-1.6-3.6-3.6-3.6
			h-2.8v23.7h2.8c2,0,3.6-1.6,3.6-3.7V109.5z"/>
		<path class="st2" d="M351.9,131.7h-2.2l-1.1-7.2H343l-1.1,7.2h-2.2l4.3-28h3.7L351.9,131.7z M343.3,122.4h5l-2.4-16.3h-0.1
			L343.3,122.4z"/>
		<path class="st2" d="M363.7,131.7h-2.4l-4.4-23.5h-0.1v23.5h-2.2v-28h3.2l4.6,24.7h0.1l4.6-24.7h3.3v28h-2.2V108h-0.1L363.7,131.7
			z"/>
		<path class="st2" d="M376.7,105.9v10.7h5v2.2h-5v10.7h7.1v2.2h-9.3v-28h9v2.2H376.7z"/>
		<path class="st2" d="M386.8,103.7h2.6l6.6,21.2h0.1v-21.2h2.2v28h-2.2l-7-22.4h-0.1v22.4h-2.2V103.7z"/>
		<path class="st2" d="M411,105.9h-3.9v25.8H405v-25.8h-3.9v-2.2h10V105.9z"/>
		<path class="st2" d="M423.6,131.7h-2.2l-1.1-7.2h-5.7l-1.1,7.2h-2.2l4.3-28h3.7L423.6,131.7z M415,122.4h5l-2.4-16.3h-0.1
			L415,122.4z"/>
		<path class="st2" d="M435.1,129.6v2.2h-8.9v-28h2.2v25.8H435.1z"/>
		<path class="st2" d="M438.5,114c0,0-1.2-1.5-1.2-3.5v-1.9c0-3,2.4-5.4,5.4-5.4s5.4,2.4,5.4,5.4v3.5l-2.2,0.2v-3.7
			c0-1.8-1.5-3.2-3.2-3.2s-3.2,1.5-3.2,3.2v1.9c0,1.2,0.7,2.1,0.7,2.1l6.6,7.8c0,0,1.3,1.5,1.3,3.6v2.7c0,3-2.4,5.4-5.4,5.4
			s-5.4-2.4-5.4-5.4v-4.1l2.2-0.2v4.4c0,1.8,1.5,3.2,3.2,3.2s3.2-1.5,3.2-3.2V124c0-1.2-0.8-2.2-0.8-2.2L438.5,114z"/>
	</g>
	<rect id="XMLID_290_" x="237" y="138.7" class="st10" width="212" height="6.4"/>
</g>
</svg>
