<?xml version="1.0" encoding="utf-8"?>
<!-- Generator: Adobe Illustrator 22.0.0, SVG Export Plug-In . SVG Version: 6.00 Build 0)  -->
<svg version="1.1" id="Layer_1" xmlns="http://www.w3.org/2000/svg" xmlns:xlink="http://www.w3.org/1999/xlink" x="0px" y="0px"
	 viewBox="0 0 442.1 215.5" style="enable-background:new 0 0 442.1 215.5;" xml:space="preserve">
<style type="text/css">
	.st0{fill:#C7C004;}
	.st1{fill:#FCFF26;}
	.st2{clip-path:url(#SVGID_2_);}
	.st3{fill:#00AA5B;}
	.st4{fill:#F9D10B;}
	.st5{fill:#005E9E;}
	.st6{fill:#FFFFFF;}
	.st7{fill:#00A460;}
	.st8{fill:#726658;}
	.st9{fill:#DED9D7;}
</style>
<g>
	<g>
		<g id="XMLID_350_">
			<path id="XMLID_281_" class="st0" d="M100.7,64.8h229.7c5.7,0,11.1,2.8,14.3,7.6c3.9,5.8,10.5,9.5,18,9.3
				c10.9-0.3,19.9-9.2,20.4-20.1c0.5-12-9.1-21.9-21-21.9c-7.1,0-13.4,3.5-17.2,9c-3.4,4.8-8.7,7.9-14.5,7.9H100.7V64.8z"/>
		</g>
		<path class="st0" d="M103.2,18.4C79.8-5,41.9-5,18.5,18.4s-23.4,61.3,0,84.7c12.6,12.6,29.3,18.4,45.7,17.4
			c14.2-0.8,28.1-6.6,38.9-17.4s16.6-24.8,17.4-39C121.6,47.6,115.8,30.9,103.2,18.4z M89,88.9c-15.6,15.6-40.8,15.6-56.4,0
			s-15.6-40.8,0-56.4s40.8-15.6,56.4,0S104.6,73.3,89,88.9z"/>
	</g>
	<g>
		<path class="st0" d="M41.7,48.5c0-4,3.2-7.2,7.2-7.2s7.2,3.2,7.2,7.2v24.9c0,4-3.2,7.2-7.2,7.2s-7.2-3.2-7.2-7.2V48.5z M44.6,73.4
			c0,2.3,1.9,4.2,4.2,4.2s4.2-1.9,4.2-4.2V48.5c0-2.3-1.9-4.2-4.2-4.2s-4.2,1.9-4.2,4.2V73.4z"/>
		<path class="st0" d="M68,59.4c2.4,0,4.4-2,4.4-4.4v-6.4c0-2.4-2-4.4-4.4-4.4s-4.4,2-4.4,4.4v3.7l-2.9,0.3v-4
			c0-4.1,3.3-7.4,7.4-7.4s7.4,3.3,7.4,7.4V55c0,2.4-1.7,5.1-3.5,5.9c1.8,0.8,3.5,3.5,3.5,5.9v6.4c0,4.1-3.3,7.4-7.4,7.4
			s-7.4-3.3-7.4-7.4v-3.7l2.9-0.3v4c0,2.4,2,4.4,4.4,4.4s4.4-2,4.4-4.4v-6.4c0-2.4-2-4.4-4.4-4.4h-0.8v-2.9L68,59.4L68,59.4z"/>
	</g>
	<g>
		<path class="st0" d="M203.4,45.7h-18.6v-2.8l7.5-7.5c2.3-2.3,3.8-3.9,4.5-4.9s1.3-1.9,1.6-2.9c0.4-0.9,0.5-1.9,0.5-3
			c0-1.5-0.5-2.7-1.4-3.6s-2.2-1.3-3.8-1.3c-1.2,0-2.3,0.2-3.3,0.6c-1.1,0.4-2.2,1.1-3.5,2.1l-1.7-2.2c2.6-2.2,5.5-3.3,8.5-3.3
			c2.7,0,4.7,0.7,6.3,2c1.5,1.4,2.3,3.2,2.3,5.5c0,1.8-0.5,3.6-1.5,5.3s-2.9,4-5.7,6.7l-6.2,6.1v0.2h14.6v3
			C203.5,45.7,203.4,45.7,203.4,45.7z"/>
		<path class="st0" d="M226.2,31.5c0,4.9-0.8,8.6-2.3,11s-3.9,3.6-7.1,3.6c-3,0-5.4-1.2-7-3.7s-2.4-6.1-2.4-10.9
			c0-4.9,0.8-8.6,2.3-11s3.9-3.6,7-3.6s5.4,1.2,7,3.7S226.2,26.8,226.2,31.5z M210.7,31.5c0,4.1,0.5,7.1,1.5,9s2.5,2.8,4.6,2.8
			s3.7-1,4.7-2.9s1.4-4.9,1.4-9s-0.5-7-1.4-8.9c-1-1.9-2.5-2.8-4.7-2.8c-2.1,0-3.7,0.9-4.6,2.8C211.2,24.4,210.7,27.4,210.7,31.5z"
			/>
		<path class="st0" d="M242,45.7h-3.1V25.5c0-1.7,0.1-3.3,0.2-4.8c-0.3,0.3-0.6,0.6-0.9,0.9c-0.3,0.3-1.9,1.6-4.6,3.8l-1.7-2.2
			l7.5-5.8h2.7L242,45.7L242,45.7z"/>
		<path class="st0" d="M272.8,39.2h-4.2v6.5h-3.1v-6.5h-13.8v-2.8l13.4-19.2h3.4v19h4.2v3H272.8z M265.5,36.3v-9.4
			c0-1.8,0.1-3.9,0.2-6.3h-0.2c-0.6,1.2-1.2,2.3-1.7,3.1l-8.9,12.6H265.5z"/>
	</g>
</g>
<g>
	<g>
		<path class="st1" d="M439,46.4c-4-22.6-36.6-22.6-40.7,0c-0.4,2-0.5,4.1-0.5,6.2c0,14.3,8.6,26.6,20.9,32
			c12.3-5.4,20.9-17.7,20.9-32C439.6,50.5,439.4,48.4,439,46.4z"/>
	</g>
	<g>
		<g>
			<defs>
				<path id="SVGID_1_" d="M435,50.2c0,8.4-6.3,15.3-14.5,16.2c-0.6,0.1-1.2,0.1-1.9,0.1c-9,0-16.3-7.3-16.3-16.3
					s7.3-16.3,16.3-16.3c0.6,0,1.3,0,1.9,0.1C428.7,34.9,435,41.8,435,50.2z"/>
			</defs>
			<clipPath id="SVGID_2_">
				<use xlink:href="#SVGID_1_"  style="overflow:visible;"/>
			</clipPath>
			<g class="st2">
				<path class="st3" d="M441.9,64.4c0,1.2-1,2.2-2.2,2.2h-42.4c-1.2,0-2.2-1-2.2-2.2V36.1c0-1.2,1-2.2,2.2-2.2h42.4
					c1.2,0,2.2,1,2.2,2.2V64.4z"/>
				<g>
					<polygon class="st4" points="418.6,62.2 399.3,50.3 418.6,38.3 437.8,50.3 					"/>
					<path class="st5" d="M426.6,50.3c0,4.4-3.6,8-8,8s-8-3.6-8-8s3.6-8,8-8C423,42.2,426.6,45.8,426.6,50.3z"/>
					<path class="st6" d="M415.9,47.4c-1.9-0.3-3.5-0.2-4.5-0.1c-0.3,0.5-0.5,1-0.6,1.6c0.8-0.1,2.6-0.3,5,0
						c2.6,0.4,6.5,1.5,10.3,4.5c0.2-0.5,0.3-1.1,0.3-1.6C422.5,48.8,418.6,47.7,415.9,47.4z"/>
					<g>
						<path class="st7" d="M412.7,47.9c0,0.2-0.1,0.3-0.2,0.3s-0.2-0.1-0.2-0.3s0.1-0.3,0.2-0.3C412.6,47.6,412.7,47.8,412.7,47.9z
							 M412.8,47.9c0-0.1-0.1-0.4-0.3-0.3c-0.2,0-0.3,0.2-0.3,0.4c0,0.1,0.1,0.3,0.3,0.3C412.7,48.3,412.8,48.1,412.8,47.9z"/>
						<path class="st7" d="M413,47.7h0.2c0,0,0.1,0,0.1,0.1s-0.1,0.1-0.1,0.1H413V47.7z M413,48h0.2c0.1,0,0.1,0.1,0.1,0.1
							s0,0.1,0,0.2h0.1l0,0c0,0,0,0,0-0.1v-0.1c0-0.1,0-0.1-0.1-0.1c0.1,0,0.1-0.1,0.1-0.2c0-0.1-0.1-0.2-0.2-0.2h-0.3v0.7h0.1
							L413,48z"/>
						<path class="st7" d="M413.7,47.7h0.2c0.1,0,0.2,0.1,0.2,0.3s-0.1,0.3-0.2,0.3h-0.2V47.7z M413.6,48.3h0.3
							c0.2,0,0.3-0.2,0.3-0.3c0-0.2-0.1-0.3-0.3-0.3h-0.3V48.3z"/>
						<path class="st7" d="M414.7,48.3h-0.5v-0.7h0.5v0.1h-0.4v0.2h0.4V48h-0.4v0.2L414.7,48.3L414.7,48.3z"/>
						<path class="st7" d="M415.4,48.4V48c0,0,0-0.1,0-0.2l0,0l-0.2,0.5h-0.1l-0.1-0.6l0,0c0,0.1,0,0.1,0,0.2v0.4h-0.1l0.1-0.7h0.1
							l0.1,0.6l0,0l0.3-0.5h0.1L415.4,48.4L415.4,48.4z"/>
						<path class="st7" d="M417.9,48.8l-0.5-0.1l0.2-0.7l0.5,0.1v0.1l-0.4-0.1v0.2l0.4,0.1v0.1l-0.4-0.1v0.2L417.9,48.8L417.9,48.8z
							"/>
						<path class="st7" d="M419.8,48.8l0.2,0.1c0.1,0,0.1,0.1,0.1,0.2c0,0.1-0.1,0.1-0.2,0.1l-0.2-0.1L419.8,48.8z M419.7,49.1
							l0.2,0.1c0.1,0,0.2,0,0.3-0.1c0-0.1,0-0.2-0.1-0.2l-0.3-0.1l-0.2,0.6h0.1V49.1z"/>
						<path class="st7" d="M420.4,49l0.2,0.1c0,0,0.1,0.1,0.1,0.2c0,0.1-0.1,0.1-0.2,0.1l-0.2-0.1L420.4,49z M420.3,49.3l0.2,0.1
							c0.1,0,0.1,0.1,0.1,0.1s0,0.1,0,0.2h0.1l0,0c0,0,0,0,0-0.1v-0.1c0-0.1,0-0.1,0-0.1s0.1,0,0.1-0.1c0.1-0.1,0-0.2-0.1-0.3
							l-0.3-0.1l-0.2,0.6h0.1L420.3,49.3z"/>
						<path class="st7" d="M421.3,49.6c-0.1,0.1-0.2,0.2-0.3,0.2c-0.1-0.1-0.2-0.2-0.1-0.3s0.2-0.2,0.3-0.2
							C421.4,49.4,421.4,49.5,421.3,49.6z M421.4,49.7c0.1-0.1,0.1-0.4-0.2-0.5c-0.2-0.1-0.4,0.1-0.4,0.2c-0.1,0.1-0.1,0.4,0.2,0.4
							C421.2,50,421.4,49.8,421.4,49.7z"/>
						<path class="st7" d="M421.8,49.8l0.3,0.1l-0.2,0.3h-0.1v-0.1c-0.1,0-0.2,0-0.2,0c-0.1,0-0.1-0.1-0.1-0.2c-0.1-0.1,0-0.2,0-0.3
							c0.1-0.2,0.2-0.3,0.4-0.2c0.1,0.1,0.2,0.2,0.2,0.3H422c0-0.1-0.1-0.2-0.1-0.2c-0.1,0-0.2,0-0.3,0.2c-0.1,0.1-0.1,0.3,0.1,0.3
							h0.1C421.9,50,421.9,49.9,421.8,49.8L421.8,49.8L421.8,49.8z"/>
						<path class="st7" d="M422.4,49.8l0.2,0.1c0,0,0.1,0.1,0.1,0.2c0,0.1-0.1,0.1-0.2,0l-0.2-0.1L422.4,49.8z M422.3,50.1l0.2,0.1
							c0.1,0.1,0.1,0.1,0.1,0.2c0,0-0.1,0.1-0.1,0.2l0.1,0.1l0,0c0,0,0,0,0-0.1l0.1-0.1c0-0.1,0-0.1,0-0.1s0.1,0,0.2-0.1
							s0-0.2-0.1-0.3l-0.3-0.1l-0.3,0.6h0.1L422.3,50.1z"/>
						<path class="st7" d="M423.1,50.9l-0.4-0.2L423,50l0.4,0.2v0.1l-0.4-0.2l-0.1,0.2l0.3,0.2v0.1l-0.3-0.2l-0.1,0.2L423.1,50.9
							L423.1,50.9z"/>
						<path class="st7" d="M423.8,50.7c0-0.1,0-0.2-0.1-0.2s-0.1-0.1-0.2,0c0,0.1,0,0.1,0,0.1L423.8,50.7c0,0.1,0,0.2-0.1,0.3
							s-0.2,0.1-0.3,0c-0.1-0.1-0.1-0.1-0.2-0.2c0-0.1,0-0.1,0-0.2h0.1c-0.1,0.1,0,0.2,0.1,0.2s0.1,0.1,0.2,0c0-0.1,0-0.1-0.1-0.2
							l-0.1-0.1c0,0-0.1-0.1-0.1-0.2c0.1-0.1,0.2-0.1,0.3-0.1C423.9,50.6,423.9,50.7,423.8,50.7L423.8,50.7z"/>
						<path class="st7" d="M424.3,51.1c0-0.1,0-0.2-0.1-0.2c0,0-0.1-0.1-0.2,0V51L424.3,51.1c0,0.1,0,0.2-0.1,0.3s-0.2,0.1-0.3,0
							c-0.1-0.1-0.1-0.1-0.1-0.2c0-0.1,0-0.1,0-0.2h0.1c-0.1,0.1,0,0.2,0.1,0.2S424.2,51.3,424.3,51.1c-0.1,0-0.1,0-0.2-0.1l-0.1,0
							c0,0-0.1-0.1,0-0.2c0.1-0.1,0.2-0.1,0.3-0.1C424.5,50.9,424.4,51,424.3,51.1L424.3,51.1z"/>
						<path class="st7" d="M424.9,51.6c-0.1,0.1-0.2,0.2-0.3,0.1c-0.1-0.1-0.1-0.2-0.1-0.4c0.1-0.1,0.2-0.2,0.3-0.1
							C424.9,51.3,425,51.4,424.9,51.6z M424.9,51.6c0.1-0.1,0.1-0.3-0.1-0.5c-0.2-0.1-0.4,0-0.5,0.1s-0.1,0.3,0.1,0.5
							C424.7,51.9,424.9,51.7,424.9,51.6z"/>
					</g>
					<g>
						<polygon class="st6" points="420.7,45.1 420.8,45.4 421.2,45.4 420.9,45.6 421,45.9 420.7,45.7 420.4,45.9 420.5,45.6 
							420.3,45.4 420.6,45.4 						"/>
						<polygon class="st6" points="415.2,48.8 415.3,49.1 415.5,49.1 415.3,49.2 415.4,49.4 415.2,49.3 415,49.4 415.1,49.2 
							414.9,49.1 415.1,49.1 						"/>
						<polygon class="st6" points="411.8,47 411.9,47.3 412.2,47.3 411.9,47.5 412,47.8 411.8,47.6 411.5,47.8 411.6,47.5 
							411.4,47.3 411.7,47.3 						"/>
						<polygon class="st6" points="413.2,49.9 413.3,50.1 413.6,50.1 413.3,50.3 413.4,50.6 413.2,50.4 413,50.6 413.1,50.3 
							412.8,50.1 413.1,50.1 						"/>
						<polygon class="st6" points="412.5,50.3 412.7,50.6 413,50.6 412.7,50.9 412.8,51.2 412.5,51 412.2,51.2 412.3,50.9 412,50.6 
							412.4,50.6 						"/>
						<polygon class="st6" points="411.7,51.2 411.7,51.4 411.9,51.4 411.8,51.5 411.8,51.7 411.7,51.6 411.5,51.7 411.6,51.5 
							411.4,51.4 411.6,51.4 						"/>
						<polygon class="st6" points="414.1,51.2 414.2,51.4 414.4,51.4 414.2,51.6 414.3,51.8 414.1,51.7 413.9,51.8 414,51.6 
							413.8,51.4 414,51.4 						"/>
						<polygon class="st6" points="414,52.1 414,52.3 414.3,52.3 414.1,52.5 414.1,52.7 413.9,52.6 413.8,52.7 413.8,52.5 
							413.6,52.3 413.9,52.3 						"/>
						<polygon class="st6" points="415,52.8 415.1,53.1 415.5,53.1 415.2,53.3 415.3,53.7 415,53.5 414.8,53.7 414.9,53.3 
							414.6,53.1 414.9,53.1 						"/>
						<polygon class="st6" points="418.4,52 418.5,52.4 418.9,52.4 418.6,52.6 418.7,53 418.4,52.7 418.1,53 418.2,52.6 417.9,52.4 
							418.3,52.4 						"/>
						<polygon class="st6" points="418,51.2 418,51.3 418.2,51.3 418.1,51.4 418.1,51.5 418,51.4 417.9,51.5 417.9,51.4 417.8,51.3 
							418,51.3 						"/>
						<polygon class="st6" points="417.4,50.6 417.4,50.9 417.6,50.9 417.5,51 417.5,51.2 417.4,51.1 417.2,51.2 417.3,51 
							417.1,50.8 417.3,50.9 						"/>
						<polygon class="st6" points="418.5,49.8 418.6,50 418.9,50 418.7,50.2 418.7,50.4 418.5,50.3 418.3,50.4 418.4,50.2 418.2,50 
							418.4,50 						"/>
						<polygon class="st6" points="420.3,47.9 420.4,48.2 420.6,48.2 420.4,48.3 420.5,48.5 420.3,48.4 420.1,48.5 420.2,48.3 
							420,48.2 420.2,48.2 						"/>
						<polygon class="st6" points="419.3,50.6 419.4,50.8 419.7,50.8 419.4,51 419.5,51.3 419.3,51.1 419.1,51.3 419.2,51 
							418.9,50.8 419.2,50.8 						"/>
						<polygon class="st6" points="420.2,52.8 420.3,53.2 420.7,53.2 420.4,53.4 420.5,53.8 420.2,53.6 419.9,53.8 420,53.4 
							419.7,53.2 420.1,53.2 						"/>
						<polygon class="st6" points="420.8,54.1 420.9,54.4 421.2,54.4 421,54.6 421.1,54.9 420.8,54.7 420.6,54.9 420.7,54.6 
							420.4,54.4 420.7,54.4 						"/>
						<polygon class="st6" points="421.5,53.2 421.6,53.4 421.8,53.4 421.6,53.6 421.7,53.8 421.5,53.7 421.3,53.8 421.4,53.6 
							421.2,53.4 421.4,53.4 						"/>
						<polygon class="st6" points="422.5,52.6 422.6,52.9 422.9,52.9 422.6,53.1 422.7,53.3 422.5,53.2 422.2,53.4 422.3,53.1 
							422.1,52.9 422.4,52.9 						"/>
						<polygon class="st6" points="422.5,53.9 422.6,54.1 422.8,54.1 422.6,54.3 422.7,54.5 422.5,54.4 422.3,54.5 422.4,54.3 
							422.2,54.1 422.4,54.1 						"/>
						<polygon class="st6" points="422.5,54.7 422.5,54.9 422.7,54.9 422.6,55 422.6,55.2 422.5,55.1 422.3,55.2 422.4,55 
							422.2,54.9 422.4,54.9 						"/>
						<polygon class="st6" points="423.3,52.9 423.4,53.2 423.7,53.2 423.4,53.4 423.5,53.7 423.3,53.6 423,53.7 423.1,53.4 
							422.8,53.2 423.2,53.2 						"/>
						<polygon class="st6" points="424.2,52.8 424.3,53.1 424.5,53.1 424.3,53.2 424.4,53.4 424.2,53.3 424,53.4 424.1,53.2 
							423.9,53.1 424.1,53.1 						"/>
						<polygon class="st6" points="424.6,52.2 424.6,52.4 424.8,52.4 424.6,52.5 424.7,52.7 424.6,52.6 424.4,52.7 424.5,52.5 
							424.3,52.4 424.5,52.4 						"/>
						<polygon class="st6" points="424.1,51.1 424.2,51.3 424.4,51.3 424.2,51.4 424.3,51.6 424.1,51.5 423.9,51.6 424,51.5 
							423.8,51.3 424,51.3 						"/>
						<polygon class="st6" points="425.3,51 425.4,51.3 425.8,51.3 425.5,51.5 425.6,51.9 425.3,51.7 425,51.9 425.1,51.5 
							424.8,51.3 425.2,51.3 						"/>
						<polygon class="st6" points="418.5,54.9 418.6,55.1 418.8,55.1 418.6,55.3 418.7,55.5 418.5,55.3 418.3,55.5 418.4,55.3 
							418.2,55.1 418.5,55.1 						"/>
					</g>
				</g>
			</g>
		</g>
	</g>
</g>
<g id="XMLID_305_">
	<g>
		<g>
			<path class="st8" d="M270.1,155.2h-4.5l-0.5,3c0.3,0,0.5-0.1,1-0.1c0.9,0,1.8,0.2,2.6,0.6c0.9,0.5,1.7,1.5,1.7,3
				c0,2.3-1.8,4-4.4,4c-1.3,0-2.4-0.4-3-0.7l0.4-1.2c0.5,0.3,1.5,0.7,2.5,0.7c1.5,0,2.8-1,2.8-2.6c0-1.5-1-2.6-3.4-2.6
				c-0.7,0-1.2,0.1-1.6,0.1l0.8-5.7h5.7V155.2z"/>
			<path class="st8" d="M276.8,159.2c0-0.9,0-1.7-0.1-2.4h1.4l0.1,1.4h0.1c0.5-0.8,1.3-1.6,2.8-1.6c1.2,0,2.1,0.7,2.5,1.8h0
				c0.3-0.5,0.6-0.9,1-1.1c0.5-0.4,1.1-0.6,1.9-0.6c1.2,0,2.9,0.8,2.9,3.8v5.2h-1.6v-5c0-1.7-0.6-2.7-1.9-2.7
				c-0.9,0-1.6,0.7-1.9,1.5c-0.1,0.2-0.1,0.5-0.1,0.8v5.4h-1.6v-5.3c0-1.4-0.6-2.4-1.8-2.4c-1,0-1.7,0.8-2,1.6
				c-0.1,0.2-0.1,0.5-0.1,0.8v5.3h-1.6V159.2z"/>
			<path class="st8" d="M300,161.2c0,3.3-2.3,4.7-4.4,4.7c-2.4,0-4.2-1.7-4.2-4.5c0-3,1.9-4.7,4.4-4.7
				C298.3,156.7,300,158.5,300,161.2z M293,161.3c0,1.9,1.1,3.4,2.7,3.4c1.5,0,2.7-1.4,2.7-3.4c0-1.5-0.7-3.4-2.6-3.4
				S293,159.6,293,161.3z"/>
			<path class="st8" d="M302,159.2c0-0.9,0-1.7-0.1-2.4h1.4l0.1,1.5h0c0.4-0.8,1.5-1.7,2.9-1.7c1.2,0,3.1,0.7,3.1,3.8v5.3h-1.6v-5.1
				c0-1.4-0.5-2.6-2-2.6c-1.1,0-1.9,0.7-2.1,1.6c-0.1,0.2-0.1,0.5-0.1,0.7v5.3H302V159.2z"/>
			<path class="st8" d="M314,154.3v2.5h2.3v1.2H314v4.8c0,1.1,0.3,1.7,1.2,1.7c0.4,0,0.7-0.1,0.9-0.1l0.1,1.2
				c-0.3,0.1-0.8,0.2-1.4,0.2c-0.7,0-1.3-0.2-1.7-0.7c-0.5-0.5-0.6-1.3-0.6-2.3v-4.8H311v-1.2h1.4v-2.1L314,154.3z"/>
			<path class="st8" d="M318.1,152.7h1.6v5.5h0c0.3-0.5,0.7-0.9,1.1-1.1c0.5-0.3,1-0.5,1.6-0.5c1.2,0,3.1,0.7,3.1,3.8v5.2H324v-5.1
				c0-1.4-0.5-2.6-2-2.6c-1,0-1.9,0.7-2.1,1.6c-0.1,0.2-0.1,0.5-0.1,0.8v5.3h-1.6V152.7z"/>
			<path class="st8" d="M336.9,165.7l-0.1-1.1h-0.1c-0.5,0.7-1.4,1.3-2.7,1.3c-1.8,0-2.7-1.3-2.7-2.5c0-2.1,1.9-3.3,5.3-3.3v-0.2
				c0-0.7-0.2-2-2-2c-0.8,0-1.7,0.3-2.3,0.7l-0.4-1.1c0.7-0.5,1.8-0.8,2.9-0.8c2.7,0,3.4,1.8,3.4,3.6v3.3c0,0.8,0,1.5,0.1,2.1H336.9
				z M336.7,161.2c-1.7,0-3.7,0.3-3.7,2c0,1,0.7,1.5,1.5,1.5c1.1,0,1.9-0.7,2.1-1.5c0.1-0.2,0.1-0.3,0.1-0.5V161.2z"/>
			<path class="st8" d="M340.6,164c0.5,0.3,1.3,0.6,2.1,0.6c1.2,0,1.7-0.6,1.7-1.3c0-0.8-0.5-1.2-1.6-1.6c-1.6-0.6-2.3-1.4-2.3-2.5
				c0-1.4,1.1-2.6,3-2.6c0.9,0,1.7,0.3,2.2,0.5l-0.4,1.2c-0.3-0.2-1-0.5-1.8-0.5c-0.9,0-1.5,0.5-1.5,1.2c0,0.7,0.5,1.1,1.7,1.5
				c1.5,0.6,2.3,1.3,2.3,2.7c0,1.5-1.2,2.6-3.3,2.6c-1,0-1.9-0.2-2.5-0.6L340.6,164z"/>
			<path class="st8" d="M361.3,165.1c-0.7,0.3-2.1,0.7-3.8,0.7c-1.9,0-3.4-0.5-4.6-1.6c-1.1-1-1.7-2.7-1.7-4.6
				c0-3.7,2.5-6.3,6.6-6.3c1.4,0,2.5,0.3,3.1,0.6l-0.4,1.3c-0.7-0.3-1.5-0.5-2.7-0.5c-3,0-4.9,1.9-4.9,4.9c0,3.1,1.9,5,4.7,5
				c1,0,1.7-0.1,2.1-0.3v-3.7h-2.5v-1.3h4V165.1z"/>
			<path class="st8" d="M363.7,159.6c0-1,0-1.9-0.1-2.8h1.4l0.1,1.7h0.1c0.4-1.2,1.4-1.9,2.4-1.9c0.2,0,0.3,0,0.5,0.1v1.5
				c-0.2,0-0.3-0.1-0.5-0.1c-1.1,0-1.9,0.9-2.1,2.1c0,0.2-0.1,0.5-0.1,0.7v4.7h-1.6V159.6z"/>
			<path class="st8" d="M374.4,165.7l-0.1-1.1h-0.1c-0.5,0.7-1.4,1.3-2.7,1.3c-1.8,0-2.7-1.3-2.7-2.5c0-2.1,1.9-3.3,5.3-3.3v-0.2
				c0-0.7-0.2-2-2-2c-0.8,0-1.7,0.3-2.3,0.7l-0.4-1.1c0.7-0.5,1.8-0.8,2.9-0.8c2.7,0,3.4,1.8,3.4,3.6v3.3c0,0.8,0,1.5,0.1,2.1H374.4
				z M374.2,161.2c-1.7,0-3.7,0.3-3.7,2c0,1,0.7,1.5,1.5,1.5c1.1,0,1.9-0.7,2.1-1.5c0.1-0.2,0.1-0.3,0.1-0.5V161.2z"/>
			<path class="st8" d="M378.3,159.7c0-1.1,0-2-0.1-2.9h1.4l0.1,1.5h0c0.7-1.1,1.7-1.7,3.1-1.7c2.1,0,3.7,1.8,3.7,4.5
				c0,3.2-1.9,4.7-4,4.7c-1.2,0-2.2-0.5-2.7-1.4h0v4.8h-1.6V159.7z M379.9,162.1c0,0.2,0,0.5,0.1,0.7c0.3,1.1,1.3,1.9,2.4,1.9
				c1.7,0,2.7-1.4,2.7-3.4c0-1.8-0.9-3.3-2.6-3.3c-1.1,0-2.1,0.8-2.4,2c-0.1,0.2-0.1,0.4-0.1,0.7V162.1z"/>
			<path class="st8" d="M388.7,152.7h1.6v5.5h0c0.3-0.5,0.7-0.9,1.1-1.1c0.5-0.3,1-0.5,1.6-0.5c1.2,0,3.1,0.7,3.1,3.8v5.2h-1.6v-5.1
				c0-1.4-0.5-2.6-2-2.6c-1,0-1.9,0.7-2.1,1.6c-0.1,0.2-0.1,0.5-0.1,0.8v5.3h-1.6V152.7z"/>
			<path class="st8" d="M400.6,154.4c0,0.5-0.4,1-1,1c-0.6,0-1-0.4-1-1c0-0.6,0.4-1,1-1C400.2,153.4,400.6,153.8,400.6,154.4z
				 M398.8,165.7v-8.8h1.6v8.8H398.8z"/>
			<path class="st8" d="M409.3,165.3c-0.4,0.2-1.3,0.5-2.5,0.5c-2.7,0-4.4-1.8-4.4-4.5c0-2.7,1.9-4.7,4.7-4.7c0.9,0,1.8,0.2,2.2,0.5
				l-0.4,1.2c-0.4-0.2-1-0.4-1.9-0.4c-2,0-3.1,1.5-3.1,3.3c0,2,1.3,3.3,3.1,3.3c0.9,0,1.5-0.2,2-0.4L409.3,165.3z"/>
			<path class="st8" d="M263.6,175.4c1-0.1,2.1-0.3,3.4-0.3c2.3,0,3.9,0.5,5,1.5c1.1,1,1.7,2.4,1.7,4.4c0,2-0.6,3.6-1.8,4.8
				c-1.1,1.1-3,1.8-5.4,1.8c-1.1,0-2.1-0.1-2.9-0.1V175.4z M265.2,186.3c0.4,0.1,1,0.1,1.6,0.1c3.4,0,5.2-1.9,5.2-5.2
				c0-2.9-1.6-4.7-5-4.7c-0.8,0-1.4,0.1-1.9,0.2V186.3z"/>
			<path class="st8" d="M276.7,183.4c0,2.2,1.4,3.1,3,3.1c1.1,0,1.8-0.2,2.4-0.5l0.3,1.1c-0.6,0.3-1.5,0.5-2.9,0.5
				c-2.7,0-4.3-1.8-4.3-4.4c0-2.7,1.6-4.8,4.1-4.8c2.9,0,3.6,2.5,3.6,4.2c0,0.3,0,0.6-0.1,0.7H276.7z M281.4,182.3
				c0-1-0.4-2.6-2.2-2.6c-1.6,0-2.3,1.5-2.5,2.6H281.4z"/>
			<path class="st8" d="M284.7,185.9c0.5,0.3,1.3,0.6,2.1,0.6c1.2,0,1.7-0.6,1.7-1.3c0-0.8-0.5-1.2-1.6-1.6
				c-1.6-0.6-2.3-1.4-2.3-2.5c0-1.4,1.1-2.6,3-2.6c0.9,0,1.7,0.3,2.2,0.5l-0.4,1.2c-0.3-0.2-1-0.5-1.8-0.5c-0.9,0-1.5,0.5-1.5,1.2
				c0,0.7,0.5,1.1,1.7,1.5c1.5,0.6,2.3,1.3,2.3,2.7c0,1.5-1.2,2.6-3.3,2.6c-1,0-1.9-0.2-2.5-0.6L284.7,185.9z"/>
			<path class="st8" d="M293.9,176.2c0,0.5-0.4,1-1,1c-0.6,0-1-0.4-1-1c0-0.6,0.4-1,1-1C293.5,175.2,293.9,175.7,293.9,176.2z
				 M292.1,187.5v-8.8h1.6v8.8H292.1z"/>
			<path class="st8" d="M304,178.7c0,0.6-0.1,1.3-0.1,2.4v5.1c0,2-0.4,3.3-1.3,4c-0.9,0.8-2.1,1.1-3.2,1.1c-1.1,0-2.2-0.3-2.9-0.7
				l0.4-1.2c0.6,0.4,1.5,0.7,2.6,0.7c1.6,0,2.8-0.9,2.8-3.1v-1h0c-0.5,0.8-1.4,1.5-2.8,1.5c-2.2,0-3.8-1.9-3.8-4.3
				c0-3,1.9-4.7,4-4.7c1.5,0,2.4,0.8,2.8,1.5h0l0.1-1.3H304z M302.3,182.2c0-0.3,0-0.5-0.1-0.7c-0.3-0.9-1.1-1.7-2.2-1.7
				c-1.5,0-2.6,1.3-2.6,3.3c0,1.7,0.9,3.2,2.6,3.2c1,0,1.9-0.6,2.2-1.6c0.1-0.3,0.1-0.6,0.1-0.9V182.2z"/>
			<path class="st8" d="M306.5,181.1c0-0.9,0-1.7-0.1-2.4h1.4l0.1,1.5h0c0.4-0.8,1.5-1.7,2.9-1.7c1.2,0,3.1,0.7,3.1,3.8v5.3h-1.6
				v-5.1c0-1.4-0.5-2.6-2-2.6c-1.1,0-1.9,0.7-2.1,1.6c-0.1,0.2-0.1,0.5-0.1,0.7v5.3h-1.6V181.1z"/>
			<path class="st8" d="M317.5,183.4c0,2.2,1.4,3.1,3,3.1c1.1,0,1.8-0.2,2.4-0.5l0.3,1.1c-0.6,0.3-1.5,0.5-2.9,0.5
				c-2.7,0-4.3-1.8-4.3-4.4c0-2.7,1.6-4.8,4.1-4.8c2.9,0,3.6,2.5,3.6,4.2c0,0.3,0,0.6-0.1,0.7H317.5z M322.2,182.3
				c0-1-0.4-2.6-2.2-2.6c-1.6,0-2.3,1.5-2.5,2.6H322.2z"/>
			<path class="st8" d="M325.7,181.5c0-1,0-1.9-0.1-2.8h1.4l0.1,1.7h0.1c0.4-1.2,1.4-1.9,2.4-1.9c0.2,0,0.3,0,0.5,0.1v1.5
				c-0.2,0-0.3-0.1-0.5-0.1c-1.1,0-1.9,0.9-2.1,2.1c0,0.2-0.1,0.5-0.1,0.7v4.7h-1.6V181.5z"/>
			<path class="st8" d="M340.4,187.5l-0.1-1.1h-0.1c-0.5,0.7-1.4,1.3-2.7,1.3c-1.8,0-2.7-1.3-2.7-2.5c0-2.1,1.9-3.3,5.3-3.3v-0.2
				c0-0.7-0.2-2-2-2c-0.8,0-1.7,0.3-2.3,0.7l-0.4-1.1c0.7-0.5,1.8-0.8,2.9-0.8c2.7,0,3.4,1.8,3.4,3.6v3.3c0,0.8,0,1.5,0.1,2.1H340.4
				z M340.2,183c-1.7,0-3.7,0.3-3.7,2c0,1,0.7,1.5,1.5,1.5c1.1,0,1.9-0.7,2.1-1.5c0.1-0.2,0.1-0.3,0.1-0.5V183z"/>
			<path class="st8" d="M346.2,176.2v2.5h2.3v1.2h-2.3v4.8c0,1.1,0.3,1.7,1.2,1.7c0.4,0,0.7-0.1,0.9-0.1l0.1,1.2
				c-0.3,0.1-0.8,0.2-1.4,0.2c-0.7,0-1.3-0.2-1.7-0.7c-0.5-0.5-0.6-1.3-0.6-2.3v-4.8h-1.4v-1.2h1.4v-2.1L346.2,176.2z"/>
			<path class="st8" d="M354.2,175.4c0.8-0.1,1.8-0.2,3-0.2c1.6,0,2.7,0.4,3.4,1c0.7,0.6,1.1,1.5,1.1,2.6c0,1.1-0.3,2-0.9,2.6
				c-0.8,0.9-2.2,1.3-3.8,1.3c-0.5,0-0.9,0-1.3-0.1v4.9h-1.6V175.4z M355.8,181.3c0.3,0.1,0.8,0.1,1.3,0.1c1.9,0,3.1-0.9,3.1-2.6
				c0-1.6-1.1-2.4-2.9-2.4c-0.7,0-1.2,0.1-1.5,0.1V181.3z"/>
			<path class="st8" d="M371.4,183.1c0,3.3-2.3,4.7-4.4,4.7c-2.4,0-4.2-1.7-4.2-4.5c0-3,1.9-4.7,4.4-4.7
				C369.6,178.5,371.4,180.4,371.4,183.1z M364.4,183.1c0,1.9,1.1,3.4,2.7,3.4c1.5,0,2.7-1.4,2.7-3.4c0-1.5-0.7-3.4-2.6-3.4
				S364.4,181.5,364.4,183.1z"/>
			<path class="st8" d="M374.3,183.4c0,2.2,1.4,3.1,3,3.1c1.1,0,1.8-0.2,2.4-0.5l0.3,1.1c-0.6,0.3-1.5,0.5-2.9,0.5
				c-2.7,0-4.3-1.8-4.3-4.4c0-2.7,1.6-4.8,4.1-4.8c2.9,0,3.6,2.5,3.6,4.2c0,0.3,0,0.6-0.1,0.7H374.3z M379,182.3
				c0-1-0.4-2.6-2.2-2.6c-1.6,0-2.3,1.5-2.5,2.6H379z"/>
			<path class="st8" d="M384.3,176.2c0,0.5-0.4,1-1,1c-0.6,0-1-0.4-1-1c0-0.6,0.4-1,1-1C383.9,175.2,384.3,175.7,384.3,176.2z
				 M382.5,187.5v-8.8h1.6v8.8H382.5z"/>
			<path class="st8" d="M386.8,181.5c0-1,0-1.9-0.1-2.8h1.4l0.1,1.7h0.1c0.4-1.2,1.4-1.9,2.4-1.9c0.2,0,0.3,0,0.5,0.1v1.5
				c-0.2,0-0.3-0.1-0.5-0.1c-1.1,0-1.9,0.9-2.1,2.1c0,0.2-0.1,0.5-0.1,0.7v4.7h-1.6V181.5z"/>
			<path class="st8" d="M397.5,187.5l-0.1-1.1h-0.1c-0.5,0.7-1.4,1.3-2.7,1.3c-1.8,0-2.7-1.3-2.7-2.5c0-2.1,1.9-3.3,5.3-3.3v-0.2
				c0-0.7-0.2-2-2-2c-0.8,0-1.7,0.3-2.3,0.7l-0.4-1.1c0.7-0.5,1.8-0.8,2.9-0.8c2.7,0,3.4,1.8,3.4,3.6v3.3c0,0.8,0,1.5,0.1,2.1H397.5
				z M397.3,183c-1.7,0-3.7,0.3-3.7,2c0,1,0.7,1.5,1.5,1.5c1.1,0,1.9-0.7,2.1-1.5c0.1-0.2,0.1-0.3,0.1-0.5V183z"/>
			<path class="st8" d="M265.2,197.1v12.3h-1.6v-12.3H265.2z"/>
			<path class="st8" d="M268.1,203c0-0.9,0-1.7-0.1-2.4h1.4l0.1,1.5h0c0.4-0.8,1.5-1.7,2.9-1.7c1.2,0,3.1,0.7,3.1,3.8v5.3H274v-5.1
				c0-1.4-0.5-2.6-2-2.6c-1.1,0-1.9,0.7-2.1,1.6c-0.1,0.2-0.1,0.5-0.1,0.7v5.3h-1.6V203z"/>
			<path class="st8" d="M280.1,198.1v2.5h2.3v1.2h-2.3v4.8c0,1.1,0.3,1.7,1.2,1.7c0.4,0,0.7-0.1,0.9-0.1l0.1,1.2
				c-0.3,0.1-0.8,0.2-1.4,0.2c-0.7,0-1.3-0.2-1.7-0.7c-0.5-0.5-0.6-1.3-0.6-2.3v-4.8h-1.4v-1.2h1.4v-2.1L280.1,198.1z"/>
			<path class="st8" d="M285,205.3c0,2.2,1.4,3.1,3,3.1c1.1,0,1.8-0.2,2.4-0.5l0.3,1.1c-0.6,0.3-1.5,0.5-2.9,0.5
				c-2.7,0-4.3-1.8-4.3-4.4c0-2.7,1.6-4.8,4.1-4.8c2.9,0,3.6,2.5,3.6,4.2c0,0.3,0,0.6-0.1,0.7H285z M289.7,204.1
				c0-1-0.4-2.6-2.2-2.6c-1.6,0-2.3,1.5-2.5,2.6H289.7z"/>
			<path class="st8" d="M293.2,203.3c0-1,0-1.9-0.1-2.8h1.4l0.1,1.7h0.1c0.4-1.2,1.4-1.9,2.4-1.9c0.2,0,0.3,0,0.5,0.1v1.5
				c-0.2,0-0.3-0.1-0.5-0.1c-1.1,0-1.9,0.9-2.1,2.1c0,0.2-0.1,0.5-0.1,0.7v4.7h-1.6V203.3z"/>
			<path class="st8" d="M301,198.1c0,0.5-0.4,1-1,1c-0.6,0-1-0.4-1-1c0-0.6,0.4-1,1-1C300.6,197.1,301,197.5,301,198.1z
				 M299.2,209.4v-8.8h1.6v8.8H299.2z"/>
			<path class="st8" d="M311.5,204.9c0,3.3-2.3,4.7-4.4,4.7c-2.4,0-4.2-1.7-4.2-4.5c0-3,1.9-4.7,4.4-4.7
				C309.8,200.4,311.5,202.2,311.5,204.9z M304.5,205c0,1.9,1.1,3.4,2.7,3.4c1.5,0,2.7-1.4,2.7-3.4c0-1.5-0.7-3.4-2.6-3.4
				S304.5,203.3,304.5,205z"/>
			<path class="st8" d="M313.5,203.3c0-1,0-1.9-0.1-2.8h1.4l0.1,1.7h0.1c0.4-1.2,1.4-1.9,2.4-1.9c0.2,0,0.3,0,0.5,0.1v1.5
				c-0.2,0-0.3-0.1-0.5-0.1c-1.1,0-1.9,0.9-2.1,2.1c0,0.2-0.1,0.5-0.1,0.7v4.7h-1.6V203.3z"/>
			<path class="st8" d="M323.4,197.3c1-0.1,2.1-0.3,3.4-0.3c2.3,0,3.9,0.5,5,1.5c1.1,1,1.7,2.4,1.7,4.4c0,2-0.6,3.6-1.8,4.8
				c-1.1,1.1-3,1.8-5.4,1.8c-1.1,0-2.1-0.1-2.9-0.1V197.3z M325,208.1c0.4,0.1,1,0.1,1.6,0.1c3.4,0,5.2-1.9,5.2-5.2
				c0-2.9-1.6-4.7-5-4.7c-0.8,0-1.4,0.1-1.9,0.2V208.1z"/>
			<path class="st8" d="M336.4,205.3c0,2.2,1.4,3.1,3,3.1c1.1,0,1.8-0.2,2.4-0.5l0.3,1.1c-0.6,0.3-1.5,0.5-2.9,0.5
				c-2.7,0-4.3-1.8-4.3-4.4c0-2.7,1.6-4.8,4.1-4.8c2.9,0,3.6,2.5,3.6,4.2c0,0.3,0,0.6-0.1,0.7H336.4z M341.1,204.1
				c0-1-0.4-2.6-2.2-2.6c-1.6,0-2.3,1.5-2.5,2.6H341.1z"/>
			<path class="st8" d="M344.4,207.8c0.5,0.3,1.3,0.6,2.1,0.6c1.2,0,1.7-0.6,1.7-1.3c0-0.8-0.5-1.2-1.6-1.6
				c-1.6-0.6-2.3-1.4-2.3-2.5c0-1.4,1.1-2.6,3-2.6c0.9,0,1.7,0.3,2.2,0.5l-0.4,1.2c-0.3-0.2-1-0.5-1.8-0.5c-0.9,0-1.5,0.5-1.5,1.2
				c0,0.7,0.5,1.1,1.7,1.5c1.5,0.6,2.3,1.3,2.3,2.7c0,1.5-1.2,2.6-3.3,2.6c-1,0-1.9-0.2-2.5-0.6L344.4,207.8z"/>
			<path class="st8" d="M353.7,198.1c0,0.5-0.4,1-1,1c-0.6,0-1-0.4-1-1c0-0.6,0.4-1,1-1C353.3,197.1,353.7,197.5,353.7,198.1z
				 M351.9,209.4v-8.8h1.6v8.8H351.9z"/>
			<path class="st8" d="M363.7,200.6c0,0.6-0.1,1.3-0.1,2.4v5.1c0,2-0.4,3.3-1.3,4c-0.9,0.8-2.1,1.1-3.2,1.1c-1.1,0-2.2-0.3-2.9-0.7
				l0.4-1.2c0.6,0.4,1.5,0.7,2.6,0.7c1.6,0,2.8-0.9,2.8-3.1v-1h0c-0.5,0.8-1.4,1.5-2.8,1.5c-2.2,0-3.8-1.9-3.8-4.3
				c0-3,1.9-4.7,4-4.7c1.5,0,2.4,0.8,2.8,1.5h0l0.1-1.3H363.7z M362.1,204.1c0-0.3,0-0.5-0.1-0.7c-0.3-0.9-1.1-1.7-2.2-1.7
				c-1.5,0-2.6,1.3-2.6,3.3c0,1.7,0.9,3.2,2.6,3.2c1,0,1.9-0.6,2.2-1.6c0.1-0.3,0.1-0.6,0.1-0.9V204.1z"/>
			<path class="st8" d="M366.2,203c0-0.9,0-1.7-0.1-2.4h1.4l0.1,1.5h0c0.4-0.8,1.5-1.7,2.9-1.7c1.2,0,3.1,0.7,3.1,3.8v5.3h-1.6v-5.1
				c0-1.4-0.5-2.6-2-2.6c-1.1,0-1.9,0.7-2.1,1.6c-0.1,0.2-0.1,0.5-0.1,0.7v5.3h-1.6V203z"/>
			<path class="st8" d="M375.9,208.5c0-0.7,0.5-1.1,1.1-1.1c0.6,0,1.1,0.5,1.1,1.1c0,0.7-0.4,1.1-1.1,1.1
				C376.4,209.6,375.9,209.1,375.9,208.5z"/>
		</g>
	</g>
</g>
<g>
	<path class="st0" d="M264.3,127.2v-28h2.2v28H264.3z"/>
	<path class="st0" d="M270.6,99.2h2.6l6.6,21.2h0.1V99.2h2.2v28h-2.2l-7-22.4h-0.1v22.4h-2.2V99.2z"/>
	<path class="st0" d="M294.9,101.4H291v25.8h-2.2v-25.8h-3.9v-2.2h10V101.4z"/>
	<path class="st0" d="M299.9,101.4v10.7h5v2.2h-5v10.7h7.1v2.2h-9.3v-28h9v2.2H299.9z"/>
	<path class="st0" d="M320.6,127.2h-2.2v-9.3c0-2-1.6-3.6-3.7-3.6h-2.6v12.9H310v-28h4.8c3.2,0,5.8,2.6,5.8,5.8v3.4
		c0,1.9-1,3.7-2.4,4.7c1.5,1.1,2.4,2.8,2.4,4.7V127.2z M314.8,112.1c2,0,3.7-1.6,3.7-3.6V105c0-2-1.6-3.6-3.7-3.6h-2.6v10.7H314.8z"
		/>
	<path class="st0" d="M324.3,127.2v-28h2.2v28H324.3z"/>
	<path class="st0" d="M330.3,104.2c0-3,2.4-5.4,5.4-5.4s5.4,2.4,5.4,5.4v18c0,3-2.4,5.4-5.4,5.4s-5.4-2.4-5.4-5.4V104.2z
		 M332.5,122.2c0,1.8,1.5,3.2,3.2,3.2s3.2-1.5,3.2-3.2v-18c0-1.8-1.5-3.2-3.2-3.2s-3.2,1.5-3.2,3.2V122.2z"/>
	<path class="st0" d="M355.6,127.2h-2.2v-9.3c0-2-1.6-3.6-3.7-3.6h-2.6v12.9h-2.2v-28h4.8c3.2,0,5.8,2.6,5.8,5.8v3.4
		c0,1.9-1,3.7-2.4,4.7c1.5,1.1,2.4,2.8,2.4,4.7V127.2z M349.8,112.1c2,0,3.7-1.6,3.7-3.6V105c0-2-1.6-3.6-3.7-3.6h-2.6v10.7H349.8z"
		/>
	<path class="st0" d="M375.6,121.4c0,3.2-2.6,5.8-5.8,5.8h-5v-28h5c3.2,0,5.8,2.6,5.8,5.8V121.4z M373.4,105c0-2-1.6-3.6-3.6-3.6
		H367v23.7h2.8c2,0,3.6-1.6,3.6-3.7V105z"/>
	<path class="st0" d="M381.6,101.4v10.7h5v2.2h-5v10.7h7.1v2.2h-9.3v-28h9v2.2H381.6z"/>
	<path class="st0" d="M392.3,109.5c0,0-1.2-1.5-1.2-3.5v-1.9c0-3,2.4-5.4,5.4-5.4s5.4,2.4,5.4,5.4v3.5l-2.2,0.2v-3.7
		c0-1.8-1.5-3.2-3.2-3.2s-3.2,1.5-3.2,3.2v1.9c0,1.2,0.7,2.1,0.7,2.1l6.6,7.8c0,0,1.3,1.5,1.3,3.6v2.7c0,3-2.4,5.4-5.4,5.4
		s-5.4-2.4-5.4-5.4v-4.1l2.2-0.2v4.4c0,1.8,1.5,3.2,3.2,3.2s3.2-1.5,3.2-3.2v-2.7c0-1.2-0.8-2.2-0.8-2.2L392.3,109.5z"/>
	<path class="st0" d="M405.3,127.2v-28h2.2v28H405.3z"/>
	<path class="st0" d="M416.8,112.9h5.4v14.8l-1.8-0.4v-1c-1,0.8-2.2,1.3-3.6,1.3c-3,0-5.4-2.4-5.4-5.4v-18c0-3,2.4-5.4,5.4-5.4
		s5.4,2.4,5.4,5.4v3.3l-2.2,0.2v-3.6c0-1.8-1.5-3.2-3.2-3.2s-3.2,1.5-3.2,3.2v18c0,1.8,1.5,3.2,3.2,3.2s3.2-1.5,3.2-3.2V115h-3.2
		V112.9z"/>
	<path class="st0" d="M425.9,99.2h2.6l6.6,21.2h0.1V99.2h2.2v28h-2.2l-7-22.4h-0.1v22.4h-2.2V99.2z"/>
</g>
<rect id="XMLID_303_" x="262.2" y="134.2" class="st9" width="176.3" height="6.4"/>
</svg>
