<?xml version="1.0" encoding="utf-8"?>
<!-- Generator: Adobe Illustrator 22.0.0, SVG Export Plug-In . SVG Version: 6.00 Build 0)  -->
<svg version="1.1" id="Layer_1" xmlns="http://www.w3.org/2000/svg" xmlns:xlink="http://www.w3.org/1999/xlink" x="0px" y="0px"
	 viewBox="0 0 438.5 210.4" style="enable-background:new 0 0 438.5 210.4;" xml:space="preserve">
<style type="text/css">
	.st0{fill:#DD5361;}
	.st1{fill:#726658;}
	.st2{fill:#DED9D7;}
	.st3{fill:#FCFF26;}
	.st4{clip-path:url(#SVGID_2_);}
	.st5{fill:#00AA5B;}
	.st6{fill:#F9D10B;}
	.st7{fill:#005E9E;}
	.st8{fill:#FFFFFF;}
	.st9{fill:#00A460;}
</style>
<g>
	<g>
		<path class="st0" d="M165.8,45.4h-16.4V43l6.6-6.6c2-2,3.3-3.5,4-4.3c0.6-0.9,1.1-1.7,1.4-2.5c0.3-0.8,0.5-1.7,0.5-2.6
			c0-1.3-0.4-2.4-1.2-3.2c-0.8-0.8-1.9-1.2-3.4-1.2c-1,0-2,0.2-2.9,0.5s-2,1-3.1,1.9l-1.5-1.9c2.3-1.9,4.8-2.9,7.5-2.9
			c2.3,0,4.2,0.6,5.5,1.8s2,2.8,2,4.8c0,1.6-0.4,3.2-1.3,4.7c-0.9,1.5-2.6,3.5-5,5.9l-5.5,5.3v0.1h12.9v2.6H165.8z"/>
		<path class="st0" d="M185.9,32.8c0,4.3-0.7,7.5-2,9.7c-1.4,2.1-3.4,3.2-6.2,3.2c-2.7,0-4.7-1.1-6.1-3.3s-2.1-5.4-2.1-9.6
			c0-4.4,0.7-7.6,2-9.7c1.4-2.1,3.4-3.2,6.2-3.2c2.7,0,4.8,1.1,6.2,3.3C185.2,25.5,185.9,28.7,185.9,32.8z M172.2,32.8
			c0,3.6,0.4,6.3,1.3,7.9c0.9,1.7,2.2,2.5,4.1,2.5c1.9,0,3.3-0.8,4.1-2.5s1.3-4.3,1.3-7.9s-0.4-6.2-1.3-7.9
			c-0.8-1.7-2.2-2.5-4.1-2.5c-1.9,0-3.2,0.8-4.1,2.5C172.7,26.6,172.2,29.2,172.2,32.8z"/>
		<path class="st0" d="M199.9,45.4h-2.8V27.6c0-1.5,0-2.9,0.1-4.2c-0.2,0.2-0.5,0.5-0.8,0.8s-1.7,1.4-4.1,3.3l-1.5-1.9l6.6-5.1h2.4
			v24.9H199.9z"/>
		<path class="st0" d="M209.7,34.7c0-4.9,1-8.6,2.9-11s4.7-3.6,8.5-3.6c1.3,0,2.3,0.1,3,0.3v2.4c-0.9-0.3-1.9-0.4-3-0.4
			c-2.7,0-4.7,0.8-6.1,2.5c-1.4,1.7-2.2,4.3-2.3,7.9h0.2c1.3-2,3.2-2.9,5.9-2.9c2.2,0,4,0.7,5.3,2c1.3,1.4,1.9,3.2,1.9,5.5
			c0,2.6-0.7,4.6-2.1,6.1c-1.4,1.5-3.3,2.2-5.8,2.2c-2.6,0-4.6-1-6.2-2.9C210.4,40.9,209.7,38.2,209.7,34.7z M218,43.3
			c1.6,0,2.9-0.5,3.8-1.5c0.9-1,1.3-2.5,1.3-4.4c0-1.7-0.4-3-1.2-3.9s-2.1-1.4-3.7-1.4c-1,0-2,0.2-2.8,0.6c-0.9,0.4-1.5,1-2,1.7
			s-0.8,1.5-0.8,2.3c0,1.2,0.2,2.3,0.7,3.3s1.1,1.8,1.9,2.4C216,43,217,43.3,218,43.3z"/>
		<path class="st0" d="M240.2,20.4l-9.3,25H228l9.3-25C237.3,20.4,240.2,20.4,240.2,20.4z"/>
		<path class="st0" d="M258.7,45.4h-16.4V43l6.6-6.6c2-2,3.3-3.5,4-4.3c0.6-0.9,1.1-1.7,1.4-2.5c0.3-0.8,0.5-1.7,0.5-2.6
			c0-1.3-0.4-2.4-1.2-3.2c-0.8-0.8-1.9-1.2-3.4-1.2c-1,0-2,0.2-2.9,0.5s-2,1-3.1,1.9l-1.5-1.9c2.3-1.9,4.8-2.9,7.5-2.9
			c2.3,0,4.2,0.6,5.5,1.8s2,2.8,2,4.8c0,1.6-0.4,3.2-1.3,4.7s-2.6,3.5-5,5.9l-5.5,5.3v0.1h12.9v2.6H258.7z"/>
		<path class="st0" d="M278.8,32.8c0,4.3-0.7,7.5-2,9.7c-1.4,2.1-3.4,3.2-6.2,3.2c-2.7,0-4.7-1.1-6.1-3.3s-2.1-5.4-2.1-9.6
			c0-4.4,0.7-7.6,2-9.7c1.4-2.1,3.4-3.2,6.2-3.2c2.7,0,4.8,1.1,6.2,3.3C278.1,25.5,278.8,28.7,278.8,32.8z M265.1,32.8
			c0,3.6,0.4,6.3,1.3,7.9c0.9,1.7,2.2,2.5,4.1,2.5s3.3-0.8,4.1-2.5c0.8-1.7,1.3-4.3,1.3-7.9s-0.4-6.2-1.3-7.9
			c-0.8-1.7-2.2-2.5-4.1-2.5s-3.2,0.8-4.1,2.5C265.6,26.6,265.1,29.2,265.1,32.8z"/>
		<path class="st0" d="M292.8,45.4H290V27.6c0-1.5,0-2.9,0.1-4.2c-0.2,0.2-0.5,0.5-0.8,0.8s-1.7,1.4-4.1,3.3l-1.5-1.9l6.6-5.1h2.4
			L292.8,45.4L292.8,45.4z"/>
		<path class="st0" d="M305.4,45.4L315.8,23h-13.6v-2.6h16.6v2.3l-10.2,22.7H305.4z"/>
	</g>
	<g>
		<g id="XMLID_352_">
			<path id="XMLID_283_" class="st0" d="M100.7,64.8h229.7c5.7,0,11.1,2.8,14.3,7.6c3.9,5.8,10.5,9.5,18,9.3
				c10.9-0.3,19.9-9.2,20.4-20.1c0.5-12-9.1-21.9-21-21.9c-7.1,0-13.4,3.5-17.2,9c-3.4,4.8-8.7,7.9-14.5,7.9H100.7V64.8z"/>
		</g>
		<path class="st0" d="M103.2,18.4C79.8-5,41.9-5,18.5,18.4s-23.4,61.3,0,84.7c12.6,12.6,29.3,18.4,45.7,17.4
			c14.2-0.8,28.1-6.6,38.9-17.4s16.6-24.8,17.4-39C121.6,47.6,115.8,30.9,103.2,18.4z M89,88.9c-15.6,15.6-40.8,15.6-56.4,0
			s-15.6-40.8,0-56.4s40.8-15.6,56.4,0S104.6,73.3,89,88.9z"/>
	</g>
	<g>
		<path class="st0" d="M41.8,48.5c0-4,3.2-7.2,7.2-7.2s7.2,3.2,7.2,7.2v24.9c0,4-3.2,7.2-7.2,7.2s-7.2-3.2-7.2-7.2V48.5z M44.7,73.4
			c0,2.3,1.9,4.2,4.2,4.2s4.2-1.9,4.2-4.2V48.5c0-2.3-1.9-4.2-4.2-4.2s-4.2,1.9-4.2,4.2V73.4z"/>
		<path class="st0" d="M64,44.8v12.6c1.2-0.9,2.8-1.4,4.4-1.4c4.1,0,7.4,3.3,7.4,7.4v9.9c0,4.1-3.3,7.4-7.4,7.4S61,77.4,61,73.3
			v-3.5l2.9-0.3v3.8c0,2.4,2,4.4,4.4,4.4s4.4-2,4.4-4.4v-9.9c0-2.4-2-4.4-4.4-4.4c-2.1,0-4,1.6-4.4,3.7l-3-0.6V41.9h13.6v2.9
			C74.5,44.8,64,44.8,64,44.8z"/>
	</g>
</g>
<g id="XMLID_312_">
	<g>
		<g>
			<path class="st1" d="M239.3,154.9L239.3,154.9l-2.1,1.1l-0.3-1.2l2.6-1.4h1.4v11.8h-1.5V154.9z"/>
			<path class="st1" d="M250.1,156.5l1.9,5.2c0.2,0.6,0.4,1.3,0.6,1.8h0c0.2-0.5,0.3-1.2,0.6-1.8l1.7-5.2h1.7l-2.4,6.3
				c-1.1,3-1.9,4.6-3,5.5c-0.8,0.7-1.6,1-2,1l-0.4-1.3c0.4-0.1,0.9-0.4,1.4-0.8c0.4-0.3,1-1,1.3-1.8c0.1-0.2,0.1-0.3,0.1-0.4
				c0-0.1,0-0.2-0.1-0.4l-3.3-8.1H250.1z"/>
			<path class="st1" d="M258.8,161.2c0,2.2,1.4,3.1,3,3.1c1.1,0,1.8-0.2,2.4-0.5l0.3,1.1c-0.6,0.3-1.5,0.5-2.9,0.5
				c-2.7,0-4.3-1.8-4.3-4.4c0-2.7,1.6-4.8,4.1-4.8c2.9,0,3.6,2.5,3.6,4.2c0,0.3,0,0.6-0.1,0.7H258.8z M263.5,160
				c0-1-0.4-2.6-2.2-2.6c-1.6,0-2.3,1.5-2.5,2.6H263.5z"/>
			<path class="st1" d="M272,165.3l-0.1-1.1h-0.1c-0.5,0.7-1.4,1.3-2.7,1.3c-1.8,0-2.7-1.3-2.7-2.5c0-2.1,1.9-3.3,5.3-3.3v-0.2
				c0-0.7-0.2-2-2-2c-0.8,0-1.7,0.3-2.3,0.7L267,157c0.7-0.5,1.8-0.8,2.9-0.8c2.7,0,3.4,1.8,3.4,3.6v3.3c0,0.8,0,1.5,0.1,2.1H272z
				 M271.7,160.8c-1.7,0-3.7,0.3-3.7,2c0,1,0.7,1.5,1.5,1.5c1.1,0,1.9-0.7,2.1-1.5c0.1-0.2,0.1-0.3,0.1-0.5V160.8z"/>
			<path class="st1" d="M275.8,159.2c0-1,0-1.9-0.1-2.8h1.4l0.1,1.7h0.1c0.4-1.2,1.4-1.9,2.4-1.9c0.2,0,0.3,0,0.5,0.1v1.5
				c-0.2,0-0.3-0.1-0.5-0.1c-1.1,0-1.9,0.9-2.1,2.1c0,0.2-0.1,0.5-0.1,0.7v4.7h-1.6V159.2z"/>
			<path class="st1" d="M293.6,160.8c0,3.3-2.3,4.7-4.4,4.7c-2.4,0-4.2-1.8-4.2-4.5c0-3,1.9-4.7,4.4-4.7
				C291.9,156.3,293.6,158.1,293.6,160.8z M286.7,160.9c0,1.9,1.1,3.4,2.7,3.4c1.5,0,2.7-1.4,2.7-3.4c0-1.5-0.7-3.4-2.6-3.4
				S286.7,159.2,286.7,160.9z"/>
			<path class="st1" d="M295.7,158.8c0-0.9,0-1.7-0.1-2.4h1.4l0.1,1.5h0c0.4-0.8,1.5-1.7,2.9-1.7c1.2,0,3.1,0.7,3.1,3.8v5.3h-1.6
				v-5.1c0-1.4-0.5-2.6-2-2.6c-1.1,0-1.9,0.7-2.1,1.6c-0.1,0.2-0.1,0.5-0.1,0.7v5.3h-1.6V158.8z"/>
			<path class="st1" d="M314.5,165.3l-0.1-1.1h-0.1c-0.5,0.7-1.4,1.3-2.7,1.3c-1.8,0-2.7-1.3-2.7-2.5c0-2.1,1.9-3.3,5.3-3.3v-0.2
				c0-0.7-0.2-2-2-2c-0.8,0-1.7,0.3-2.3,0.7l-0.4-1.1c0.7-0.5,1.8-0.8,2.9-0.8c2.7,0,3.4,1.8,3.4,3.6v3.3c0,0.8,0,1.5,0.1,2.1H314.5
				z M314.3,160.8c-1.7,0-3.7,0.3-3.7,2c0,1,0.7,1.5,1.5,1.5c1.1,0,1.9-0.7,2.1-1.5c0.1-0.2,0.1-0.3,0.1-0.5V160.8z"/>
			<path class="st1" d="M323.9,154.3h-3.7V153h9.1v1.3h-3.8v10.9h-1.6V154.3z"/>
			<path class="st1" d="M329.8,159.2c0-1,0-1.9-0.1-2.8h1.4l0.1,1.7h0.1c0.4-1.2,1.4-1.9,2.4-1.9c0.2,0,0.3,0,0.5,0.1v1.5
				c-0.2,0-0.3-0.1-0.5-0.1c-1.1,0-1.9,0.9-2.1,2.1c0,0.2-0.1,0.5-0.1,0.7v4.7h-1.6V159.2z"/>
			<path class="st1" d="M340.5,165.3l-0.1-1.1h-0.1c-0.5,0.7-1.4,1.3-2.7,1.3c-1.8,0-2.7-1.3-2.7-2.5c0-2.1,1.9-3.3,5.3-3.3v-0.2
				c0-0.7-0.2-2-2-2c-0.8,0-1.7,0.3-2.3,0.7l-0.4-1.1c0.7-0.5,1.8-0.8,2.9-0.8c2.7,0,3.4,1.8,3.4,3.6v3.3c0,0.8,0,1.5,0.1,2.1H340.5
				z M340.3,160.8c-1.7,0-3.7,0.3-3.7,2c0,1,0.7,1.5,1.5,1.5c1.1,0,1.9-0.7,2.1-1.5c0.1-0.2,0.1-0.3,0.1-0.5V160.8z"/>
			<path class="st1" d="M352,152.3V163c0,0.8,0,1.7,0.1,2.3h-1.4l-0.1-1.5h0c-0.5,1-1.6,1.7-3,1.7c-2.1,0-3.8-1.8-3.8-4.5
				c0-2.9,1.8-4.7,4-4.7c1.3,0,2.3,0.6,2.7,1.3h0v-5.3H352z M350.4,160c0-0.2,0-0.5-0.1-0.7c-0.2-1-1.1-1.9-2.3-1.9
				c-1.7,0-2.6,1.5-2.6,3.4c0,1.8,0.9,3.3,2.6,3.3c1.1,0,2.1-0.7,2.4-1.9c0.1-0.2,0.1-0.4,0.1-0.7V160z"/>
			<path class="st1" d="M355.6,161.2c0,2.2,1.4,3.1,3,3.1c1.1,0,1.8-0.2,2.4-0.5l0.3,1.1c-0.6,0.3-1.5,0.5-2.9,0.5
				c-2.7,0-4.3-1.8-4.3-4.4c0-2.7,1.6-4.8,4.1-4.8c2.9,0,3.6,2.5,3.6,4.2c0,0.3,0,0.6-0.1,0.7H355.6z M360.3,160
				c0-1-0.4-2.6-2.2-2.6c-1.6,0-2.3,1.5-2.5,2.6H360.3z"/>
			<path class="st1" d="M246.7,181.7c-0.1-1.7-0.2-3.8-0.2-5.3h-0.1c-0.4,1.4-0.9,3-1.5,4.7l-2.2,6h-1.2l-2-5.8
				c-0.6-1.7-1.1-3.3-1.4-4.8h0c0,1.5-0.1,3.6-0.2,5.4l-0.3,5.3h-1.5l0.9-12.3h2l2.1,5.9c0.5,1.5,0.9,2.9,1.2,4.1h0.1
				c0.3-1.2,0.7-2.6,1.3-4.1l2.2-5.9h2l0.8,12.3H247L246.7,181.7z"/>
			<path class="st1" d="M256,187.1l-0.1-1.1h-0.1c-0.5,0.7-1.4,1.3-2.7,1.3c-1.8,0-2.7-1.3-2.7-2.5c0-2.1,1.9-3.3,5.3-3.3v-0.2
				c0-0.7-0.2-2-2-2c-0.8,0-1.7,0.3-2.3,0.7l-0.4-1.1c0.7-0.5,1.8-0.8,2.9-0.8c2.7,0,3.4,1.8,3.4,3.6v3.3c0,0.8,0,1.5,0.1,2.1H256z
				 M255.7,182.6c-1.7,0-3.7,0.3-3.7,2c0,1,0.7,1.5,1.5,1.5c1.1,0,1.9-0.7,2.1-1.5c0.1-0.2,0.1-0.3,0.1-0.5V182.6z"/>
			<path class="st1" d="M259.9,181.1c0-1,0-1.9-0.1-2.8h1.4l0.1,1.7h0.1c0.4-1.2,1.4-1.9,2.4-1.9c0.2,0,0.3,0,0.5,0.1v1.5
				c-0.2,0-0.3-0.1-0.5-0.1c-1.1,0-1.9,0.9-2.1,2.1c0,0.2-0.1,0.5-0.1,0.7v4.7h-1.6V181.1z"/>
			<path class="st1" d="M267.5,182.4L267.5,182.4c0.3-0.3,0.6-0.7,0.8-1l2.6-3h1.9l-3.4,3.6l3.9,5.2h-1.9l-3-4.2l-0.8,0.9v3.3h-1.6
				v-12.9h1.6V182.4z"/>
			<path class="st1" d="M275.3,183c0,2.2,1.4,3.1,3,3.1c1.1,0,1.8-0.2,2.4-0.5l0.3,1.1c-0.6,0.3-1.5,0.5-2.9,0.5
				c-2.7,0-4.3-1.8-4.3-4.4s1.6-4.8,4.1-4.8c2.9,0,3.6,2.5,3.6,4.2c0,0.3,0,0.6-0.1,0.7H275.3z M280,181.9c0-1-0.4-2.6-2.2-2.6
				c-1.6,0-2.3,1.5-2.5,2.6H280z"/>
			<path class="st1" d="M285.5,175.8v2.5h2.3v1.2h-2.3v4.8c0,1.1,0.3,1.7,1.2,1.7c0.4,0,0.7-0.1,0.9-0.1l0.1,1.2
				c-0.3,0.1-0.8,0.2-1.4,0.2c-0.7,0-1.3-0.2-1.7-0.7c-0.5-0.5-0.6-1.3-0.6-2.3v-4.8h-1.4v-1.2h1.4v-2.1L285.5,175.8z"/>
			<path class="st1" d="M291.4,175.8c0,0.5-0.4,1-1,1c-0.6,0-1-0.4-1-1c0-0.6,0.4-1,1-1C291,174.8,291.4,175.3,291.4,175.8z
				 M289.6,187.1v-8.8h1.6v8.8H289.6z"/>
			<path class="st1" d="M293.9,180.7c0-0.9,0-1.7-0.1-2.4h1.4l0.1,1.5h0c0.4-0.8,1.5-1.7,2.9-1.7c1.2,0,3.1,0.7,3.1,3.8v5.3h-1.6
				v-5.1c0-1.4-0.5-2.6-2-2.6c-1.1,0-1.9,0.7-2.1,1.6c-0.1,0.2-0.1,0.5-0.1,0.7v5.3h-1.6V180.7z"/>
			<path class="st1" d="M311.6,178.3c0,0.6-0.1,1.3-0.1,2.4v5.1c0,2-0.4,3.3-1.3,4c-0.9,0.8-2.1,1.1-3.2,1.1c-1.1,0-2.2-0.3-2.9-0.7
				l0.4-1.2c0.6,0.4,1.5,0.7,2.6,0.7c1.6,0,2.8-0.9,2.8-3.1v-1h0c-0.5,0.8-1.4,1.5-2.8,1.5c-2.2,0-3.8-1.9-3.8-4.3
				c0-3,1.9-4.7,4-4.7c1.5,0,2.4,0.8,2.8,1.5h0l0.1-1.3H311.6z M309.9,181.8c0-0.3,0-0.5-0.1-0.7c-0.3-0.9-1.1-1.7-2.2-1.7
				c-1.5,0-2.6,1.3-2.6,3.3c0,1.7,0.9,3.2,2.6,3.2c1,0,1.9-0.6,2.2-1.6c0.1-0.3,0.1-0.6,0.1-0.9V181.8z"/>
			<path class="st1" d="M326.7,186.7c-0.6,0.3-1.7,0.6-3.2,0.6c-3.5,0-6.1-2.2-6.1-6.2c0-3.8,2.6-6.4,6.4-6.4c1.5,0,2.5,0.3,2.9,0.5
				l-0.4,1.3c-0.6-0.3-1.5-0.5-2.5-0.5c-2.9,0-4.8,1.8-4.8,5.1c0,3,1.7,4.9,4.7,4.9c1,0,1.9-0.2,2.6-0.5L326.7,186.7z"/>
			<path class="st1" d="M336.4,182.7c0,3.3-2.3,4.7-4.4,4.7c-2.4,0-4.2-1.7-4.2-4.5c0-3,1.9-4.7,4.4-4.7
				C334.7,178.1,336.4,180,336.4,182.7z M329.4,182.7c0,1.9,1.1,3.4,2.7,3.4c1.5,0,2.7-1.4,2.7-3.4c0-1.5-0.7-3.4-2.6-3.4
				S329.4,181.1,329.4,182.7z"/>
			<path class="st1" d="M342.4,181.6v1.2h-4.5v-1.2H342.4z"/>
			<path class="st1" d="M352.6,182.7c0,3.3-2.3,4.7-4.4,4.7c-2.4,0-4.2-1.7-4.2-4.5c0-3,1.9-4.7,4.4-4.7
				C350.9,178.1,352.6,180,352.6,182.7z M345.6,182.7c0,1.9,1.1,3.4,2.7,3.4c1.5,0,2.7-1.4,2.7-3.4c0-1.5-0.7-3.4-2.6-3.4
				S345.6,181.1,345.6,182.7z"/>
			<path class="st1" d="M354.6,181.2c0-1.1,0-2-0.1-2.9h1.4l0.1,1.5h0c0.7-1.1,1.7-1.7,3.1-1.7c2.1,0,3.7,1.8,3.7,4.5
				c0,3.2-1.9,4.7-4,4.7c-1.2,0-2.2-0.5-2.7-1.4h0v4.8h-1.6V181.2z M356.2,183.5c0,0.2,0,0.5,0.1,0.7c0.3,1.1,1.3,1.9,2.4,1.9
				c1.7,0,2.7-1.4,2.7-3.4c0-1.8-0.9-3.3-2.6-3.3c-1.1,0-2.1,0.8-2.4,2c-0.1,0.2-0.1,0.4-0.1,0.7V183.5z"/>
			<path class="st1" d="M373.7,187.1l-0.1-1.1h-0.1c-0.5,0.7-1.4,1.3-2.7,1.3c-1.8,0-2.7-1.3-2.7-2.5c0-2.1,1.9-3.3,5.3-3.3v-0.2
				c0-0.7-0.2-2-2-2c-0.8,0-1.7,0.3-2.3,0.7l-0.4-1.1c0.7-0.5,1.8-0.8,2.9-0.8c2.7,0,3.4,1.8,3.4,3.6v3.3c0,0.8,0,1.5,0.1,2.1H373.7
				z M373.5,182.6c-1.7,0-3.7,0.3-3.7,2c0,1,0.7,1.5,1.5,1.5c1.1,0,1.9-0.7,2.1-1.5c0.1-0.2,0.1-0.3,0.1-0.5V182.6z"/>
			<path class="st1" d="M379.5,175.8v2.5h2.3v1.2h-2.3v4.8c0,1.1,0.3,1.7,1.2,1.7c0.4,0,0.7-0.1,0.9-0.1l0.1,1.2
				c-0.3,0.1-0.8,0.2-1.4,0.2c-0.7,0-1.3-0.2-1.7-0.7c-0.5-0.5-0.6-1.3-0.6-2.3v-4.8h-1.4v-1.2h1.4v-2.1L379.5,175.8z"/>
			<path class="st1" d="M238,196.7v5.1h5.9v-5.1h1.6V209h-1.6v-5.8H238v5.8h-1.6v-12.3H238z"/>
			<path class="st1" d="M253.1,209l-0.1-1.1h-0.1c-0.5,0.7-1.4,1.3-2.7,1.3c-1.8,0-2.7-1.3-2.7-2.5c0-2.1,1.9-3.3,5.3-3.3v-0.2
				c0-0.7-0.2-2-2-2c-0.8,0-1.7,0.3-2.3,0.7l-0.4-1.1c0.7-0.5,1.8-0.8,2.9-0.8c2.7,0,3.4,1.8,3.4,3.6v3.3c0,0.8,0,1.5,0.1,2.1H253.1
				z M252.9,204.5c-1.7,0-3.7,0.3-3.7,2c0,1,0.7,1.5,1.5,1.5c1.1,0,1.9-0.7,2.1-1.5c0.1-0.2,0.1-0.3,0.1-0.5V204.5z"/>
			<path class="st1" d="M256.8,207.4c0.5,0.3,1.3,0.6,2.1,0.6c1.2,0,1.7-0.6,1.7-1.3c0-0.8-0.5-1.2-1.6-1.6
				c-1.6-0.6-2.3-1.4-2.3-2.5c0-1.4,1.1-2.6,3-2.6c0.9,0,1.7,0.3,2.2,0.5l-0.4,1.2c-0.3-0.2-1-0.5-1.8-0.5c-0.9,0-1.5,0.5-1.5,1.2
				c0,0.7,0.5,1.1,1.7,1.5c1.5,0.6,2.3,1.3,2.3,2.7c0,1.5-1.2,2.6-3.3,2.6c-1,0-1.9-0.2-2.5-0.6L256.8,207.4z"/>
			<path class="st1" d="M264.1,209c0-0.6,0.1-1.5,0.1-2.3v-10.7h1.6v5.5h0c0.6-1,1.6-1.6,3-1.6c2.2,0,3.7,1.8,3.7,4.5
				c0,3.2-2,4.7-4,4.7c-1.3,0-2.3-0.5-3-1.7h-0.1l-0.1,1.5H264.1z M265.8,205.5c0,0.2,0,0.4,0.1,0.6c0.3,1.1,1.2,1.9,2.4,1.9
				c1.7,0,2.7-1.4,2.7-3.4c0-1.8-0.9-3.3-2.6-3.3c-1.1,0-2.1,0.7-2.4,2c0,0.2-0.1,0.4-0.1,0.7V205.5z"/>
			<path class="st1" d="M274.6,202.9c0-1,0-1.9-0.1-2.8h1.4l0.1,1.7h0.1c0.4-1.2,1.4-1.9,2.4-1.9c0.2,0,0.3,0,0.5,0.1v1.5
				c-0.2,0-0.3-0.1-0.5-0.1c-1.1,0-1.9,0.9-2.1,2.1c0,0.2-0.1,0.5-0.1,0.7v4.7h-1.6V202.9z"/>
			<path class="st1" d="M288.3,204.5c0,3.3-2.3,4.7-4.4,4.7c-2.4,0-4.2-1.7-4.2-4.5c0-3,1.9-4.7,4.4-4.7
				C286.6,200,288.3,201.8,288.3,204.5z M281.3,204.6c0,1.9,1.1,3.4,2.7,3.4c1.5,0,2.7-1.4,2.7-3.4c0-1.5-0.7-3.4-2.6-3.4
				S281.3,202.9,281.3,204.6z"/>
			<path class="st1" d="M289.5,208.1c0-0.7,0.5-1.1,1.1-1.1c0.6,0,1.1,0.5,1.1,1.1c0,0.7-0.4,1.1-1.1,1.1
				C290,209.2,289.5,208.7,289.5,208.1z"/>
		</g>
	</g>
</g>
<g>
	<path class="st0" d="M245.7,101h-3.9v25.8h-2.2V101h-3.9v-2.2h10V101z"/>
	<path class="st0" d="M259.2,126.8H257v-9.3c0-2-1.6-3.7-3.7-3.7h-2.6v12.9h-2.2v-28h4.8c3.2,0,5.8,2.6,5.8,5.8v3.4
		c0,1.9-1,3.7-2.4,4.7c1.5,1.1,2.4,2.8,2.4,4.7V126.8z M253.4,111.7c2,0,3.7-1.6,3.7-3.7v-3.4c0-2-1.6-3.7-3.7-3.7h-2.6v10.7H253.4z
		"/>
	<path class="st0" d="M273.5,126.8h-2.2l-1.1-7.2h-5.7l-1.1,7.2h-2.2l4.3-28h3.7L273.5,126.8z M264.9,117.5h5l-2.4-16.3h-0.1
		L264.9,117.5z"/>
	<path class="st0" d="M286.9,121c0,3.2-2.6,5.8-5.8,5.8h-5v-28h5c3.2,0,5.8,2.6,5.8,5.8V121z M284.8,104.6c0-2-1.6-3.7-3.6-3.7h-2.8
		v23.7h2.8c2,0,3.6-1.6,3.6-3.7V104.6z"/>
	<path class="st0" d="M292.9,101v10.7h5v2.2h-5v10.7h7.1v2.2h-9.3v-28h9v2.2H292.9z"/>
	<path class="st0" d="M317.6,126.8h-2.4l-4.4-23.5h-0.1v23.5h-2.2v-28h3.2l4.6,24.7h0.1l4.6-24.7h3.3v28h-2.2v-23.7h-0.1
		L317.6,126.8z"/>
	<path class="st0" d="M339.1,126.8H337l-1.1-7.2h-5.7l-1.1,7.2h-2.2l4.3-28h3.7L339.1,126.8z M330.5,117.5h5l-2.4-16.3H333
		L330.5,117.5z"/>
	<path class="st0" d="M352.3,126.8h-2.2v-9.3c0-2-1.6-3.7-3.7-3.7h-2.6v12.9h-2.2v-28h4.8c3.2,0,5.8,2.6,5.8,5.8v3.4
		c0,1.9-1,3.7-2.4,4.7c1.5,1.1,2.4,2.8,2.4,4.7V126.8z M346.5,111.7c2,0,3.7-1.6,3.7-3.7v-3.4c0-2-1.6-3.7-3.7-3.7h-2.6v10.7H346.5z
		"/>
	<path class="st0" d="M356,98.8h2.2v12.9h2.1l4.7-12.9h2.2l-5.1,14l5.1,14h-2.2l-4.7-12.9h-2.1v12.9H356V98.8z"/>
	<path class="st0" d="M371.9,101v10.7h5v2.2h-5v10.7h7.1v2.2h-9.3v-28h9v2.2H371.9z"/>
	<path class="st0" d="M390.6,101h-3.9v25.8h-2.2V101h-3.9v-2.2h10V101z"/>
	<path class="st0" d="M393.5,126.8v-28h2.2v28H393.5z"/>
	<path class="st0" d="M399.8,98.8h2.6L409,120h0.1V98.8h2.2v28h-2.2l-7-22.4h-0.1v22.4h-2.2V98.8z"/>
	<path class="st0" d="M420.5,112.5h5.4v14.8l-1.8-0.4v-1c-1,0.8-2.2,1.3-3.6,1.3c-3,0-5.4-2.4-5.4-5.4v-18c0-3,2.4-5.4,5.4-5.4
		s5.4,2.4,5.4,5.4v3.3l-2.2,0.2v-3.6c0-1.8-1.5-3.2-3.2-3.2s-3.2,1.5-3.2,3.2v18c0,1.8,1.5,3.2,3.2,3.2s3.2-1.5,3.2-3.2v-7.2h-3.2
		V112.5z"/>
</g>
<rect id="XMLID_309_" x="235" y="133.8" class="st2" width="196.3" height="6.4"/>
<g>
	<g>
		<path class="st3" d="M435.7,44.5c-4-22.6-36.6-22.6-40.7,0c-0.4,2-0.5,4.1-0.5,6.2c0,14.3,8.6,26.6,20.9,32
			c12.3-5.4,20.9-17.7,20.9-32C436.3,48.6,436.1,46.5,435.7,44.5z"/>
	</g>
	<g>
		<defs>
			<path id="SVGID_1_" d="M431.7,48.3c0,8.4-6.3,15.3-14.5,16.2c-0.6,0.1-1.2,0.1-1.9,0.1c-9,0-16.3-7.3-16.3-16.3
				c0-9,7.3-16.3,16.3-16.3c0.6,0,1.3,0,1.9,0.1C425.4,33,431.7,39.9,431.7,48.3z"/>
		</defs>
		<clipPath id="SVGID_2_">
			<use xlink:href="#SVGID_1_"  style="overflow:visible;"/>
		</clipPath>
		<g class="st4">
			<path class="st5" d="M438.6,62.5c0,1.2-1,2.2-2.2,2.2h-42.4c-1.2,0-2.2-1-2.2-2.2V34.2c0-1.2,1-2.2,2.2-2.2h42.4
				c1.2,0,2.2,1,2.2,2.2V62.5z"/>
			<g>
				<polygon class="st6" points="415.3,60.3 396.1,48.3 415.3,36.4 434.5,48.3 				"/>
				<path class="st7" d="M423.3,48.3c0,4.4-3.6,8-8,8c-4.4,0-8-3.6-8-8c0-4.4,3.6-8,8-8C419.7,40.3,423.3,43.9,423.3,48.3z"/>
				<path class="st8" d="M412.6,45.4c-1.9-0.3-3.5-0.2-4.5-0.1c-0.3,0.5-0.5,1-0.6,1.6c0.8-0.1,2.6-0.3,5,0
					c2.6,0.4,6.5,1.5,10.3,4.5c0.2-0.5,0.3-1.1,0.3-1.6C419.2,46.9,415.3,45.8,412.6,45.4z"/>
				<g>
					<path class="st9" d="M409.4,46c0,0.2-0.1,0.3-0.2,0.3c-0.1,0-0.2-0.1-0.2-0.3c0-0.2,0.1-0.3,0.2-0.3
						C409.3,45.7,409.4,45.8,409.4,46z M409.5,46c0-0.1-0.1-0.4-0.3-0.3c-0.2,0-0.3,0.2-0.3,0.4c0,0.1,0.1,0.3,0.3,0.3
						C409.4,46.4,409.5,46.1,409.5,46z"/>
					<path class="st9" d="M409.7,45.7l0.2,0c0,0,0.1,0,0.1,0.1c0,0.1-0.1,0.1-0.1,0.1l-0.2,0L409.7,45.7z M409.7,46h0.2
						c0.1,0,0.1,0.1,0.1,0.1c0,0,0,0.1,0,0.2l0.1,0l0,0c0,0,0,0,0-0.1l0-0.1c0-0.1,0-0.1-0.1-0.1c0.1,0,0.1-0.1,0.1-0.2
						c0-0.1-0.1-0.2-0.2-0.2l-0.3,0l0,0.7l0.1,0L409.7,46z"/>
					<path class="st9" d="M410.4,45.7l0.2,0c0.1,0,0.2,0.1,0.2,0.3c0,0.2-0.1,0.3-0.2,0.3l-0.2,0L410.4,45.7z M410.3,46.3l0.3,0
						c0.2,0,0.3-0.2,0.3-0.3c0-0.2-0.1-0.3-0.3-0.3l-0.3,0L410.3,46.3z"/>
					<path class="st9" d="M411.4,46.4l-0.5,0l0-0.7l0.5,0l0,0.1l-0.4,0l0,0.2l0.4,0l0,0.1l-0.4,0l0,0.2L411.4,46.4L411.4,46.4z"/>
					<path class="st9" d="M412.1,46.5l0-0.4c0,0,0-0.1,0-0.2l0,0l-0.2,0.5l-0.1,0l-0.1-0.6l0,0c0,0.1,0,0.1,0,0.2l0,0.4l-0.1,0
						l0.1-0.7l0.1,0l0.1,0.6l0,0l0.3-0.5l0.1,0L412.1,46.5L412.1,46.5z"/>
					<path class="st9" d="M414.6,46.9l-0.5-0.1l0.2-0.7l0.5,0.1l0,0.1l-0.4-0.1l0,0.2l0.4,0.1l0,0.1l-0.4-0.1l0,0.2L414.6,46.9
						L414.6,46.9z"/>
					<path class="st9" d="M416.5,46.9l0.2,0.1c0.1,0,0.1,0.1,0.1,0.2c0,0.1-0.1,0.1-0.2,0.1l-0.2-0.1L416.5,46.9z M416.4,47.2
						l0.2,0.1c0.1,0,0.2,0,0.3-0.1c0-0.1,0-0.2-0.1-0.2l-0.3-0.1l-0.2,0.6l0.1,0L416.4,47.2z"/>
					<path class="st9" d="M417.1,47.1l0.2,0.1c0,0,0.1,0.1,0.1,0.2c0,0.1-0.1,0.1-0.2,0.1l-0.2-0.1L417.1,47.1z M417,47.4l0.2,0.1
						c0.1,0,0.1,0.1,0.1,0.1c0,0,0,0.1,0,0.2l0.1,0l0,0c0,0,0,0,0-0.1l0-0.1c0-0.1,0-0.1,0-0.1c0,0,0.1,0,0.1-0.1
						c0.1-0.1,0-0.2-0.1-0.3l-0.3-0.1l-0.2,0.6l0.1,0L417,47.4z"/>
					<path class="st9" d="M418,47.7c-0.1,0.1-0.2,0.2-0.3,0.2c-0.1-0.1-0.2-0.2-0.1-0.3c0.1-0.1,0.2-0.2,0.3-0.2
						C418.1,47.4,418.1,47.6,418,47.7z M418.1,47.8c0.1-0.1,0.1-0.4-0.2-0.5c-0.2-0.1-0.4,0.1-0.4,0.2c-0.1,0.1-0.1,0.4,0.2,0.4
						C417.9,48.1,418.1,47.9,418.1,47.8z"/>
					<path class="st9" d="M418.5,47.9l0.3,0.1l-0.2,0.3l-0.1,0l0-0.1c-0.1,0-0.2,0-0.2,0c-0.1,0-0.1-0.1-0.1-0.2
						c-0.1-0.1,0-0.2,0-0.3c0.1-0.2,0.2-0.3,0.4-0.2c0.1,0.1,0.2,0.2,0.2,0.3l-0.1,0c0-0.1-0.1-0.2-0.1-0.2c-0.1,0-0.2,0-0.3,0.2
						c-0.1,0.1-0.1,0.3,0.1,0.3c0,0,0.1,0,0.1,0c0.1,0,0.1-0.1,0.1-0.1L418.5,47.9L418.5,47.9z"/>
					<path class="st9" d="M419.1,47.9l0.2,0.1c0,0,0.1,0.1,0.1,0.2c0,0.1-0.1,0.1-0.2,0l-0.2-0.1L419.1,47.9z M419,48.2l0.2,0.1
						c0.1,0.1,0.1,0.1,0.1,0.2c0,0-0.1,0.1-0.1,0.2l0.1,0.1l0,0c0,0,0,0,0-0.1l0.1-0.1c0-0.1,0-0.1,0-0.1c0,0,0.1,0,0.2-0.1
						c0.1-0.1,0-0.2-0.1-0.3l-0.3-0.1l-0.3,0.6l0.1,0L419,48.2z"/>
					<path class="st9" d="M419.8,49l-0.4-0.2l0.3-0.6l0.4,0.2l0,0.1l-0.4-0.2l-0.1,0.2l0.3,0.2l0,0.1l-0.3-0.2l-0.1,0.2L419.8,49
						L419.8,49z"/>
					<path class="st9" d="M420.5,48.8c0-0.1,0-0.2-0.1-0.2c-0.1,0-0.1-0.1-0.2,0c0,0.1,0,0.1,0,0.1L420.5,48.8c0,0.1,0,0.2-0.1,0.3
						c-0.1,0.1-0.2,0.1-0.3,0C420,49.1,420,49,420,49c0-0.1,0-0.1,0-0.2l0.1,0c-0.1,0.1,0,0.2,0.1,0.2c0.1,0,0.1,0.1,0.2,0
						c0-0.1,0-0.1-0.1-0.2l-0.1-0.1c0,0-0.1-0.1-0.1-0.2c0.1-0.1,0.2-0.1,0.3-0.1C420.6,48.6,420.6,48.8,420.5,48.8L420.5,48.8z"/>
					<path class="st9" d="M421,49.1c0-0.1,0-0.2-0.1-0.2c0,0-0.1-0.1-0.2,0c0,0,0,0.1,0,0.1L421,49.1c0,0.1,0,0.2-0.1,0.3
						c-0.1,0.1-0.2,0.1-0.3,0c-0.1-0.1-0.1-0.1-0.1-0.2c0-0.1,0-0.1,0-0.2l0.1,0c-0.1,0.1,0,0.2,0.1,0.2c0.1,0,0.2,0.1,0.2,0
						c0-0.1,0-0.1-0.1-0.2l-0.1-0.1c0,0-0.1-0.1,0-0.2c0.1-0.1,0.2-0.1,0.3-0.1C421.2,49,421.1,49.1,421,49.1L421,49.1z"/>
					<path class="st9" d="M421.6,49.7c-0.1,0.1-0.2,0.2-0.3,0.1c-0.1-0.1-0.1-0.2-0.1-0.4c0.1-0.1,0.2-0.2,0.3-0.1
						C421.7,49.4,421.7,49.5,421.6,49.7z M421.7,49.7c0.1-0.1,0.1-0.3-0.1-0.5c-0.2-0.1-0.4,0-0.5,0.1c-0.1,0.1-0.1,0.3,0.1,0.5
						C421.4,50,421.6,49.8,421.7,49.7z"/>
				</g>
				<g>
					<polygon class="st8" points="417.4,43.1 417.5,43.5 417.9,43.5 417.6,43.7 417.7,44 417.4,43.8 417.2,44 417.3,43.7 417,43.5 
						417.3,43.5 					"/>
					<polygon class="st8" points="411.9,46.9 412,47.1 412.2,47.1 412,47.3 412.1,47.5 411.9,47.4 411.7,47.5 411.8,47.3 
						411.6,47.1 411.9,47.1 					"/>
					<polygon class="st8" points="408.5,45 408.6,45.4 408.9,45.3 408.7,45.5 408.7,45.8 408.5,45.7 408.2,45.8 408.3,45.5 
						408.1,45.4 408.4,45.4 					"/>
					<polygon class="st8" points="409.9,48 410,48.2 410.3,48.2 410.1,48.4 410.1,48.7 409.9,48.5 409.7,48.7 409.8,48.4 
						409.6,48.2 409.8,48.2 					"/>
					<polygon class="st8" points="409.2,48.3 409.4,48.7 409.7,48.7 409.4,48.9 409.6,49.3 409.2,49.1 408.9,49.3 409.1,48.9 
						408.7,48.7 409.1,48.7 					"/>
					<polygon class="st8" points="408.4,49.3 408.4,49.5 408.6,49.5 408.5,49.6 408.6,49.8 408.4,49.7 408.2,49.8 408.3,49.6 
						408.1,49.5 408.3,49.5 					"/>
					<polygon class="st8" points="410.8,49.2 410.9,49.5 411.2,49.5 410.9,49.6 411,49.9 410.8,49.7 410.6,49.9 410.7,49.6 
						410.5,49.5 410.7,49.5 					"/>
					<polygon class="st8" points="410.7,50.2 410.7,50.4 411,50.4 410.8,50.6 410.9,50.8 410.7,50.7 410.5,50.8 410.6,50.6 
						410.4,50.4 410.6,50.4 					"/>
					<polygon class="st8" points="411.7,50.9 411.8,51.2 412.2,51.2 411.9,51.4 412,51.7 411.7,51.5 411.5,51.7 411.6,51.4 
						411.3,51.2 411.6,51.2 					"/>
					<polygon class="st8" points="415.1,50.1 415.3,50.5 415.6,50.5 415.3,50.7 415.4,51.1 415.1,50.8 414.8,51 414.9,50.7 
						414.6,50.5 415,50.5 					"/>
					<polygon class="st8" points="414.7,49.3 414.8,49.4 414.9,49.4 414.8,49.5 414.8,49.6 414.7,49.5 414.6,49.6 414.7,49.5 
						414.6,49.4 414.7,49.4 					"/>
					<polygon class="st8" points="414.1,48.7 414.1,48.9 414.4,48.9 414.2,49.1 414.3,49.3 414.1,49.1 413.9,49.3 414,49.1 
						413.8,48.9 414,48.9 					"/>
					<polygon class="st8" points="415.2,47.8 415.3,48.1 415.6,48.1 415.4,48.3 415.4,48.5 415.2,48.4 415,48.5 415.1,48.3 
						414.9,48.1 415.1,48.1 					"/>
					<polygon class="st8" points="417,46 417.1,46.2 417.3,46.2 417.2,46.4 417.2,46.6 417,46.5 416.8,46.6 416.9,46.4 416.7,46.2 
						417,46.2 					"/>
					<polygon class="st8" points="416,48.7 416.1,48.9 416.4,48.9 416.1,49.1 416.2,49.4 416,49.2 415.8,49.4 415.9,49.1 
						415.6,48.9 415.9,48.9 					"/>
					<polygon class="st8" points="416.9,50.9 417,51.3 417.4,51.3 417.1,51.5 417.2,51.9 416.9,51.6 416.6,51.9 416.7,51.5 
						416.4,51.3 416.8,51.3 					"/>
					<polygon class="st8" points="417.5,52.2 417.6,52.5 417.9,52.5 417.7,52.7 417.8,53 417.5,52.8 417.3,53 417.4,52.7 
						417.1,52.5 417.4,52.5 					"/>
					<polygon class="st8" points="418.2,51.3 418.3,51.5 418.6,51.5 418.3,51.7 418.4,51.9 418.2,51.8 418,51.9 418.1,51.7 
						417.9,51.5 418.1,51.5 					"/>
					<polygon class="st8" points="419.2,50.7 419.3,51 419.6,51 419.3,51.2 419.4,51.4 419.2,51.3 418.9,51.4 419,51.2 418.8,51 
						419.1,51 					"/>
					<polygon class="st8" points="419.2,52 419.3,52.2 419.5,52.2 419.3,52.3 419.4,52.6 419.2,52.4 419,52.6 419.1,52.4 
						418.9,52.2 419.1,52.2 					"/>
					<polygon class="st8" points="419.2,52.8 419.2,53 419.5,53 419.3,53.1 419.4,53.3 419.2,53.2 419,53.3 419.1,53.1 418.9,53 
						419.1,53 					"/>
					<polygon class="st8" points="420,51 420.1,51.3 420.4,51.3 420.2,51.5 420.3,51.8 420,51.6 419.7,51.8 419.8,51.5 419.6,51.3 
						419.9,51.3 					"/>
					<polygon class="st8" points="420.9,50.9 421,51.1 421.2,51.1 421,51.3 421.1,51.5 420.9,51.3 420.7,51.5 420.8,51.3 
						420.6,51.1 420.8,51.1 					"/>
					<polygon class="st8" points="421.3,50.3 421.3,50.5 421.5,50.5 421.4,50.6 421.4,50.7 421.3,50.6 421.1,50.7 421.2,50.6 
						421,50.5 421.2,50.5 					"/>
					<polygon class="st8" points="420.8,49.2 420.9,49.4 421.1,49.4 420.9,49.5 421,49.7 420.8,49.6 420.7,49.7 420.7,49.5 
						420.6,49.4 420.8,49.4 					"/>
					<polygon class="st8" points="422,49.1 422.1,49.4 422.5,49.4 422.2,49.6 422.3,49.9 422,49.7 421.7,49.9 421.8,49.6 
						421.6,49.4 421.9,49.4 					"/>
					<polygon class="st8" points="415.2,53 415.3,53.2 415.5,53.2 415.3,53.3 415.4,53.6 415.2,53.4 415.1,53.6 415.1,53.3 
						414.9,53.2 415.2,53.2 					"/>
				</g>
			</g>
		</g>
	</g>
</g>
</svg>
