<?xml version="1.0" encoding="utf-8"?>
<!-- Generator: Adobe Illustrator 22.0.0, SVG Export Plug-In . SVG Version: 6.00 Build 0)  -->
<svg version="1.1" id="Layer_1" xmlns="http://www.w3.org/2000/svg" xmlns:xlink="http://www.w3.org/1999/xlink" x="0px" y="0px"
	 viewBox="0 0 623.4 185.6" style="enable-background:new 0 0 623.4 185.6;" xml:space="preserve">
<style type="text/css">
	.st0{fill:#726658;}
	.st1{fill:#51C0C0;}
	.st2{fill:#DED9D7;}
	.st3{fill:#FCFF26;}
	.st4{clip-path:url(#SVGID_2_);}
	.st5{fill:#00AA5B;}
	.st6{fill:#F9D10B;}
	.st7{fill:#005E9E;}
	.st8{fill:#FFFFFF;}
	.st9{fill:#00A460;}
</style>
<g id="XMLID_327_">
	<g>
		<g>
			<path class="st0" d="M53.8,109.4c0.3,0,0.7,0,1.3-0.1c0.9-0.1,1.8-0.5,2.5-1.1c0.8-0.7,1.3-1.7,1.6-3.2h-0.1
				c-0.7,0.8-1.6,1.3-2.8,1.3c-2.1,0-3.5-1.6-3.5-3.6c0-2.2,1.6-4.2,4-4.2c2.4,0,3.9,2,3.9,5c0,2.6-0.9,4.4-2,5.6
				c-0.9,0.9-2.2,1.4-3.4,1.6c-0.6,0.1-1.1,0.1-1.5,0.1V109.4z M54.4,102.6c0,1.5,0.9,2.5,2.3,2.5c1.1,0,1.9-0.5,2.3-1.2
				c0.1-0.1,0.1-0.3,0.1-0.6c0-2-0.7-3.6-2.4-3.6C55.4,99.7,54.4,100.9,54.4,102.6z"/>
			<path class="st0" d="M66.6,104.1c0-0.9,0-1.7-0.1-2.4h1.4l0.1,1.4h0.1c0.5-0.8,1.3-1.6,2.8-1.6c1.2,0,2.1,0.7,2.5,1.8h0
				c0.3-0.5,0.6-0.9,1-1.1c0.5-0.4,1.1-0.6,1.9-0.6c1.2,0,2.9,0.8,2.9,3.8v5.2h-1.6v-5c0-1.7-0.6-2.7-1.9-2.7
				c-0.9,0-1.6,0.7-1.9,1.5c-0.1,0.2-0.1,0.5-0.1,0.8v5.4h-1.6v-5.3c0-1.4-0.6-2.4-1.8-2.4c-1,0-1.7,0.8-2,1.6
				c-0.1,0.2-0.1,0.5-0.1,0.8v5.3h-1.6V104.1z"/>
			<path class="st0" d="M89.8,106c0,3.3-2.3,4.7-4.4,4.7c-2.4,0-4.2-1.7-4.2-4.5c0-3,1.9-4.7,4.4-4.7
				C88.1,101.5,89.8,103.3,89.8,106z M82.8,106.1c0,1.9,1.1,3.4,2.7,3.4c1.5,0,2.7-1.4,2.7-3.4c0-1.5-0.7-3.4-2.6-3.4
				C83.6,102.7,82.8,104.4,82.8,106.1z"/>
			<path class="st0" d="M91.8,104.1c0-0.9,0-1.7-0.1-2.4h1.4l0.1,1.5h0c0.4-0.8,1.5-1.7,2.9-1.7c1.2,0,3.1,0.7,3.1,3.8v5.3h-1.6
				v-5.1c0-1.4-0.5-2.6-2-2.6c-1.1,0-1.9,0.7-2.1,1.6c-0.1,0.2-0.1,0.5-0.1,0.7v5.3h-1.6V104.1z"/>
			<path class="st0" d="M103.8,99.2v2.5h2.3v1.2h-2.3v4.8c0,1.1,0.3,1.7,1.2,1.7c0.4,0,0.7-0.1,0.9-0.1l0.1,1.2
				c-0.3,0.1-0.8,0.2-1.4,0.2c-0.7,0-1.3-0.2-1.7-0.7c-0.5-0.5-0.6-1.3-0.6-2.3v-4.8h-1.4v-1.2h1.4v-2.1L103.8,99.2z"/>
			<path class="st0" d="M107.9,97.6h1.6v5.5h0c0.3-0.5,0.7-0.9,1.1-1.1c0.5-0.3,1-0.5,1.6-0.5c1.2,0,3.1,0.7,3.1,3.8v5.2h-1.6v-5.1
				c0-1.4-0.5-2.6-2-2.6c-1,0-1.9,0.7-2.1,1.6c-0.1,0.2-0.1,0.5-0.1,0.8v5.3h-1.6V97.6z"/>
			<path class="st0" d="M117.8,108.9c0.5,0.3,1.3,0.6,2.1,0.6c1.2,0,1.7-0.6,1.7-1.3c0-0.8-0.5-1.2-1.6-1.6
				c-1.6-0.6-2.3-1.4-2.3-2.5c0-1.4,1.1-2.6,3-2.6c0.9,0,1.7,0.3,2.2,0.5l-0.4,1.2c-0.3-0.2-1-0.5-1.8-0.5c-0.9,0-1.5,0.5-1.5,1.2
				c0,0.7,0.5,1.1,1.7,1.5c1.5,0.6,2.3,1.3,2.3,2.7c0,1.5-1.2,2.6-3.3,2.6c-1,0-1.9-0.2-2.5-0.6L117.8,108.9z"/>
			<path class="st0" d="M134,110.5l-0.1-1.1h-0.1c-0.5,0.7-1.4,1.3-2.7,1.3c-1.8,0-2.7-1.3-2.7-2.5c0-2.1,1.9-3.3,5.3-3.3v-0.2
				c0-0.7-0.2-2-2-2c-0.8,0-1.7,0.3-2.3,0.7l-0.4-1.1c0.7-0.5,1.8-0.8,2.9-0.8c2.7,0,3.4,1.8,3.4,3.6v3.3c0,0.8,0,1.5,0.1,2.1H134z
				 M133.7,106c-1.7,0-3.7,0.3-3.7,2c0,1,0.7,1.5,1.5,1.5c1.1,0,1.9-0.7,2.1-1.5c0.1-0.2,0.1-0.3,0.1-0.5V106z"/>
			<path class="st0" d="M137.6,108.9c0.5,0.3,1.3,0.6,2.1,0.6c1.2,0,1.7-0.6,1.7-1.3c0-0.8-0.5-1.2-1.6-1.6
				c-1.6-0.6-2.3-1.4-2.3-2.5c0-1.4,1.1-2.6,3-2.6c0.9,0,1.7,0.3,2.2,0.5l-0.4,1.2c-0.3-0.2-1-0.5-1.8-0.5c-0.9,0-1.5,0.5-1.5,1.2
				c0,0.7,0.5,1.1,1.7,1.5c1.5,0.6,2.3,1.3,2.3,2.7c0,1.5-1.2,2.6-3.3,2.6c-1,0-1.9-0.2-2.5-0.6L137.6,108.9z"/>
			<path class="st0" d="M158.3,110c-0.7,0.3-2.1,0.7-3.8,0.7c-1.9,0-3.4-0.5-4.6-1.6c-1.1-1-1.7-2.7-1.7-4.6c0-3.7,2.5-6.3,6.6-6.3
				c1.4,0,2.5,0.3,3.1,0.6l-0.4,1.3c-0.7-0.3-1.5-0.5-2.7-0.5c-3,0-4.9,1.9-4.9,4.9c0,3.1,1.9,5,4.7,5c1,0,1.7-0.1,2.1-0.3v-3.7
				h-2.5v-1.3h4V110z"/>
			<path class="st0" d="M160.7,104.4c0-1,0-1.9-0.1-2.8h1.4l0.1,1.7h0.1c0.4-1.2,1.4-1.9,2.4-1.9c0.2,0,0.3,0,0.5,0.1v1.5
				c-0.2,0-0.3-0.1-0.5-0.1c-1.1,0-1.9,0.9-2.1,2.1c0,0.2-0.1,0.5-0.1,0.7v4.7h-1.6V104.4z"/>
			<path class="st0" d="M171.5,110.5l-0.1-1.1h-0.1c-0.5,0.7-1.4,1.3-2.7,1.3c-1.8,0-2.7-1.3-2.7-2.5c0-2.1,1.9-3.3,5.3-3.3v-0.2
				c0-0.7-0.2-2-2-2c-0.8,0-1.7,0.3-2.3,0.7l-0.4-1.1c0.7-0.5,1.8-0.8,2.9-0.8c2.7,0,3.4,1.8,3.4,3.6v3.3c0,0.8,0,1.5,0.1,2.1H171.5
				z M171.2,106c-1.7,0-3.7,0.3-3.7,2c0,1,0.7,1.5,1.5,1.5c1.1,0,1.9-0.7,2.1-1.5c0.1-0.2,0.1-0.3,0.1-0.5V106z"/>
			<path class="st0" d="M175.4,104.6c0-1.1,0-2-0.1-2.9h1.4l0.1,1.5h0c0.7-1.1,1.7-1.7,3.1-1.7c2.1,0,3.7,1.8,3.7,4.5
				c0,3.2-1.9,4.7-4,4.7c-1.2,0-2.2-0.5-2.7-1.4h0v4.8h-1.6V104.6z M176.9,106.9c0,0.2,0,0.5,0.1,0.7c0.3,1.1,1.3,1.9,2.4,1.9
				c1.7,0,2.7-1.4,2.7-3.4c0-1.8-0.9-3.3-2.6-3.3c-1.1,0-2.1,0.8-2.4,2c-0.1,0.2-0.1,0.4-0.1,0.7V106.9z"/>
			<path class="st0" d="M185.7,97.6h1.6v5.5h0c0.3-0.5,0.7-0.9,1.1-1.1c0.5-0.3,1-0.5,1.6-0.5c1.2,0,3.1,0.7,3.1,3.8v5.2h-1.6v-5.1
				c0-1.4-0.5-2.6-2-2.6c-1,0-1.9,0.7-2.1,1.6c-0.1,0.2-0.1,0.5-0.1,0.8v5.3h-1.6V97.6z"/>
			<path class="st0" d="M197.6,99.2c0,0.5-0.4,1-1,1c-0.6,0-1-0.4-1-1c0-0.6,0.4-1,1-1C197.2,98.2,197.6,98.6,197.6,99.2z
				 M195.8,110.5v-8.8h1.6v8.8H195.8z"/>
			<path class="st0" d="M206.4,110.2c-0.4,0.2-1.3,0.5-2.5,0.5c-2.7,0-4.4-1.8-4.4-4.5c0-2.7,1.9-4.7,4.7-4.7c0.9,0,1.8,0.2,2.2,0.5
				l-0.4,1.2c-0.4-0.2-1-0.4-1.9-0.4c-2,0-3.1,1.5-3.1,3.3c0,2,1.3,3.3,3.1,3.3c0.9,0,1.5-0.2,2-0.4L206.4,110.2z"/>
			<path class="st0" d="M69.6,120.3c1-0.1,2.1-0.3,3.4-0.3c2.3,0,3.9,0.5,5,1.5c1.1,1,1.7,2.4,1.7,4.4c0,2-0.6,3.6-1.8,4.8
				c-1.1,1.1-3,1.8-5.4,1.8c-1.1,0-2.1-0.1-2.9-0.1V120.3z M71.2,131.1c0.4,0.1,1,0.1,1.6,0.1c3.4,0,5.2-1.9,5.2-5.2
				c0-2.9-1.6-4.7-5-4.7c-0.8,0-1.4,0.1-1.9,0.2V131.1z"/>
			<path class="st0" d="M82.7,128.3c0,2.2,1.4,3.1,3,3.1c1.1,0,1.8-0.2,2.4-0.5l0.3,1.1c-0.6,0.3-1.5,0.5-2.9,0.5
				c-2.7,0-4.3-1.8-4.3-4.4c0-2.7,1.6-4.8,4.1-4.8c2.9,0,3.6,2.5,3.6,4.2c0,0.3,0,0.6-0.1,0.7H82.7z M87.4,127.1
				c0-1-0.4-2.6-2.2-2.6c-1.6,0-2.3,1.5-2.5,2.6H87.4z"/>
			<path class="st0" d="M90.7,130.7c0.5,0.3,1.3,0.6,2.1,0.6c1.2,0,1.7-0.6,1.7-1.3c0-0.8-0.5-1.2-1.6-1.6c-1.6-0.6-2.3-1.4-2.3-2.5
				c0-1.4,1.1-2.6,3-2.6c0.9,0,1.7,0.3,2.2,0.5l-0.4,1.2c-0.3-0.2-1-0.5-1.8-0.5c-0.9,0-1.5,0.5-1.5,1.2c0,0.7,0.5,1.1,1.7,1.5
				c1.5,0.6,2.3,1.3,2.3,2.7c0,1.5-1.2,2.6-3.3,2.6c-1,0-1.9-0.2-2.5-0.6L90.7,130.7z"/>
			<path class="st0" d="M99.9,121.1c0,0.5-0.4,1-1,1c-0.6,0-1-0.4-1-1c0-0.6,0.4-1,1-1C99.5,120.1,99.9,120.5,99.9,121.1z
				 M98.1,132.4v-8.8h1.6v8.8H98.1z"/>
			<path class="st0" d="M110,123.6c0,0.6-0.1,1.3-0.1,2.4v5.1c0,2-0.4,3.3-1.3,4c-0.9,0.8-2.1,1.1-3.2,1.1c-1.1,0-2.2-0.3-2.9-0.7
				l0.4-1.2c0.6,0.4,1.5,0.7,2.6,0.7c1.6,0,2.8-0.9,2.8-3.1v-1h0c-0.5,0.8-1.4,1.5-2.8,1.5c-2.2,0-3.8-1.9-3.8-4.3
				c0-3,1.9-4.7,4-4.7c1.5,0,2.4,0.8,2.8,1.5h0l0.1-1.3H110z M108.3,127c0-0.3,0-0.5-0.1-0.7c-0.3-0.9-1.1-1.7-2.2-1.7
				c-1.5,0-2.6,1.3-2.6,3.3c0,1.7,0.9,3.2,2.6,3.2c1,0,1.9-0.6,2.2-1.6c0.1-0.3,0.1-0.6,0.1-0.9V127z"/>
			<path class="st0" d="M112.5,125.9c0-0.9,0-1.7-0.1-2.4h1.4l0.1,1.5h0c0.4-0.8,1.5-1.7,2.9-1.7c1.2,0,3.1,0.7,3.1,3.8v5.3h-1.6
				v-5.1c0-1.4-0.5-2.6-2-2.6c-1.1,0-1.9,0.7-2.1,1.6c-0.1,0.2-0.1,0.5-0.1,0.7v5.3h-1.6V125.9z"/>
			<path class="st0" d="M123.5,128.3c0,2.2,1.4,3.1,3,3.1c1.1,0,1.8-0.2,2.4-0.5l0.3,1.1c-0.6,0.3-1.5,0.5-2.9,0.5
				c-2.7,0-4.3-1.8-4.3-4.4c0-2.7,1.6-4.8,4.1-4.8c2.9,0,3.6,2.5,3.6,4.2c0,0.3,0,0.6-0.1,0.7H123.5z M128.2,127.1
				c0-1-0.4-2.6-2.2-2.6c-1.6,0-2.3,1.5-2.5,2.6H128.2z"/>
			<path class="st0" d="M131.7,126.3c0-1,0-1.9-0.1-2.8h1.4l0.1,1.7h0.1c0.4-1.2,1.4-1.9,2.4-1.9c0.2,0,0.3,0,0.5,0.1v1.5
				c-0.2,0-0.3-0.1-0.5-0.1c-1.1,0-1.9,0.9-2.1,2.1c0,0.2-0.1,0.5-0.1,0.7v4.7h-1.6V126.3z"/>
			<path class="st0" d="M146.4,132.4l-0.1-1.1h-0.1c-0.5,0.7-1.4,1.3-2.7,1.3c-1.8,0-2.7-1.3-2.7-2.5c0-2.1,1.9-3.3,5.3-3.3v-0.2
				c0-0.7-0.2-2-2-2c-0.8,0-1.7,0.3-2.3,0.7l-0.4-1.1c0.7-0.5,1.8-0.8,2.9-0.8c2.7,0,3.4,1.8,3.4,3.6v3.3c0,0.8,0,1.5,0.1,2.1H146.4
				z M146.2,127.9c-1.7,0-3.7,0.3-3.7,2c0,1,0.7,1.5,1.5,1.5c1.1,0,1.9-0.7,2.1-1.5c0.1-0.2,0.1-0.3,0.1-0.5V127.9z"/>
			<path class="st0" d="M152.2,121v2.5h2.3v1.2h-2.3v4.8c0,1.1,0.3,1.7,1.2,1.7c0.4,0,0.7-0.1,0.9-0.1l0.1,1.2
				c-0.3,0.1-0.8,0.2-1.4,0.2c-0.7,0-1.3-0.2-1.7-0.7c-0.5-0.5-0.6-1.3-0.6-2.3v-4.8h-1.4v-1.2h1.4v-2.1L152.2,121z"/>
			<path class="st0" d="M170.7,126.1c0,4.2-2.6,6.5-5.7,6.5c-3.2,0-5.5-2.5-5.5-6.2c0-3.9,2.4-6.5,5.7-6.5
				C168.5,119.9,170.7,122.5,170.7,126.1z M161.1,126.3c0,2.6,1.4,5,3.9,5c2.5,0,3.9-2.3,3.9-5.1c0-2.4-1.3-5-3.9-5
				C162.5,121.2,161.1,123.6,161.1,126.3z"/>
			<path class="st0" d="M180.1,130c0,0.9,0,1.7,0.1,2.4h-1.4l-0.1-1.4h0c-0.4,0.7-1.3,1.6-2.9,1.6c-1.4,0-3-0.8-3-3.9v-5.2h1.6v4.9
				c0,1.7,0.5,2.8,2,2.8c1.1,0,1.8-0.7,2.1-1.5c0.1-0.2,0.1-0.5,0.1-0.8v-5.4h1.6V130z"/>
			<path class="st0" d="M184.7,121v2.5h2.3v1.2h-2.3v4.8c0,1.1,0.3,1.7,1.2,1.7c0.4,0,0.7-0.1,0.9-0.1l0.1,1.2
				c-0.3,0.1-0.8,0.2-1.4,0.2c-0.7,0-1.3-0.2-1.7-0.7c-0.5-0.5-0.6-1.3-0.6-2.3v-4.8h-1.4v-1.2h1.4v-2.1L184.7,121z"/>
			<path class="st0" d="M188.8,119.4h1.6v12.9h-1.6V119.4z"/>
			<path class="st0" d="M194,128.3c0,2.2,1.4,3.1,3,3.1c1.1,0,1.8-0.2,2.4-0.5l0.3,1.1c-0.6,0.3-1.5,0.5-2.9,0.5
				c-2.7,0-4.3-1.8-4.3-4.4c0-2.7,1.6-4.8,4.1-4.8c2.9,0,3.6,2.5,3.6,4.2c0,0.3,0,0.6-0.1,0.7H194z M198.7,127.1
				c0-1-0.4-2.6-2.2-2.6c-1.6,0-2.3,1.5-2.5,2.6H198.7z"/>
			<path class="st0" d="M204.2,121v2.5h2.3v1.2h-2.3v4.8c0,1.1,0.3,1.7,1.2,1.7c0.4,0,0.7-0.1,0.9-0.1l0.1,1.2
				c-0.3,0.1-0.8,0.2-1.4,0.2c-0.7,0-1.3-0.2-1.7-0.7c-0.5-0.5-0.6-1.3-0.6-2.3v-4.8h-1.4v-1.2h1.4v-2.1L204.2,121z"/>
			<path class="st0" d="M143.1,142h1.6v10.9h5.2v1.3h-6.8V142z"/>
			<path class="st0" d="M153.4,142.9c0,0.5-0.4,1-1,1c-0.6,0-1-0.4-1-1c0-0.6,0.4-1,1-1C153,141.9,153.4,142.4,153.4,142.9z
				 M151.6,154.2v-8.8h1.6v8.8H151.6z"/>
			<path class="st0" d="M155.9,147.8c0-0.9,0-1.7-0.1-2.4h1.4l0.1,1.5h0c0.4-0.8,1.5-1.7,2.9-1.7c1.2,0,3.1,0.7,3.1,3.8v5.3h-1.6
				v-5.1c0-1.4-0.5-2.6-2-2.6c-1.1,0-1.9,0.7-2.1,1.6c-0.1,0.2-0.1,0.5-0.1,0.7v5.3h-1.6V147.8z"/>
			<path class="st0" d="M173.6,145.4c0,0.6-0.1,1.3-0.1,2.4v5.1c0,2-0.4,3.3-1.3,4c-0.9,0.8-2.1,1.1-3.2,1.1c-1.1,0-2.2-0.3-2.9-0.7
				l0.4-1.2c0.6,0.4,1.5,0.7,2.6,0.7c1.6,0,2.8-0.9,2.8-3.1v-1h0c-0.5,0.8-1.4,1.5-2.8,1.5c-2.2,0-3.8-1.9-3.8-4.3
				c0-3,1.9-4.7,4-4.7c1.5,0,2.4,0.8,2.8,1.5h0l0.1-1.3H173.6z M171.9,148.9c0-0.3,0-0.5-0.1-0.7c-0.3-0.9-1.1-1.7-2.2-1.7
				c-1.5,0-2.6,1.3-2.6,3.3c0,1.7,0.9,3.2,2.6,3.2c1,0,1.9-0.6,2.2-1.6c0.1-0.3,0.1-0.6,0.1-0.9V148.9z"/>
			<path class="st0" d="M177,150.1c0,2.2,1.4,3.1,3,3.1c1.1,0,1.8-0.2,2.4-0.5l0.3,1.1c-0.6,0.3-1.5,0.5-2.9,0.5
				c-2.7,0-4.3-1.8-4.3-4.4c0-2.7,1.6-4.8,4.1-4.8c2.9,0,3.6,2.5,3.6,4.2c0,0.3,0,0.6-0.1,0.7H177z M181.7,149c0-1-0.4-2.6-2.2-2.6
				c-1.6,0-2.3,1.5-2.5,2.6H181.7z"/>
			<path class="st0" d="M185.3,148.2c0-1,0-1.9-0.1-2.8h1.4l0.1,1.7h0.1c0.4-1.2,1.4-1.9,2.4-1.9c0.2,0,0.3,0,0.5,0.1v1.5
				c-0.2,0-0.3-0.1-0.5-0.1c-1.1,0-1.9,0.9-2.1,2.1c0,0.2-0.1,0.5-0.1,0.7v4.7h-1.6V148.2z"/>
			<path class="st0" d="M193.1,142.9c0,0.5-0.4,1-1,1c-0.6,0-1-0.4-1-1c0-0.6,0.4-1,1-1C192.7,141.9,193.1,142.4,193.1,142.9z
				 M191.3,154.2v-8.8h1.6v8.8H191.3z"/>
			<path class="st0" d="M196.5,150.1c0,2.2,1.4,3.1,3,3.1c1.1,0,1.8-0.2,2.4-0.5l0.3,1.1c-0.6,0.3-1.5,0.5-2.9,0.5
				c-2.7,0-4.3-1.8-4.3-4.4c0-2.7,1.6-4.8,4.1-4.8c2.9,0,3.6,2.5,3.6,4.2c0,0.3,0,0.6-0.1,0.7H196.5z M201.2,149
				c0-1-0.4-2.6-2.2-2.6c-1.6,0-2.3,1.5-2.5,2.6H201.2z"/>
			<path class="st0" d="M204.1,153.3c0-0.7,0.5-1.1,1.1-1.1s1.1,0.5,1.1,1.1c0,0.7-0.4,1.1-1.1,1.1
				C204.5,154.4,204.1,153.9,204.1,153.3z"/>
		</g>
	</g>
</g>
<g>
	<path class="st1" d="M60,54.4c0,0-1.2-1.5-1.2-3.5V49c0-3,2.4-5.4,5.4-5.4c3,0,5.4,2.4,5.4,5.4v3.5l-2.2,0.2V49
		c0-1.8-1.5-3.2-3.2-3.2c-1.8,0-3.2,1.5-3.2,3.2v1.9c0,1.2,0.7,2.1,0.7,2.1l6.6,7.8c0,0,1.3,1.5,1.3,3.6v2.7c0,3-2.4,5.4-5.4,5.4
		c-3,0-5.4-2.4-5.4-5.4V63l2.2-0.2v4.4c0,1.8,1.5,3.2,3.2,3.2c1.8,0,3.2-1.5,3.2-3.2v-2.7c0-1.2-0.8-2.2-0.8-2.2L60,54.4z"/>
	<path class="st1" d="M72.8,49c0-3,2.4-5.4,5.4-5.4c3,0,5.4,2.4,5.4,5.4v18c0,3-2.4,5.4-5.4,5.4c-3,0-5.4-2.4-5.4-5.4V49z M75,67.1
		c0,1.8,1.5,3.2,3.2,3.2s3.2-1.5,3.2-3.2V49c0-1.8-1.5-3.2-3.2-3.2S75,47.2,75,49V67.1z"/>
	<path class="st1" d="M96,53.4V49c0-1.8-1.5-3.2-3.2-3.2s-3.2,1.5-3.2,3.2v18c0,1.8,1.5,3.2,3.2,3.2s3.2-1.5,3.2-3.2v-3.8h2.2v3.8
		c0,3-2.4,5.4-5.4,5.4c-3,0-5.4-2.4-5.4-5.4V49c0-3,2.4-5.4,5.4-5.4c3,0,5.4,2.4,5.4,5.4v4.1L96,53.4z"/>
	<path class="st1" d="M101.6,72V44h2.2v28H101.6z"/>
	<path class="st1" d="M118.6,72h-2.2l-1.1-7.2h-5.7l-1.1,7.2h-2.2l4.3-28h3.6L118.6,72z M109.9,62.7h5l-2.4-16.3h-0.1L109.9,62.7z"
		/>
	<path class="st1" d="M130.1,69.9V72h-8.9V44h2.2v25.8H130.1z"/>
	<path class="st1" d="M147,72h-2.4l-4.4-23.5H140V72h-2.2V44h3.2l4.6,24.7h0.1l4.6-24.7h3.3v28h-2.2V48.4h-0.1L147,72z"/>
	<path class="st1" d="M160,46.2v10.7h5v2.2h-5v10.7h7.1V72h-9.3V44h9v2.2H160z"/>
	<path class="st1" d="M180.9,66.2c0,3.2-2.6,5.8-5.8,5.8h-5V44h5c3.2,0,5.8,2.6,5.8,5.8V66.2z M178.7,49.8c0-2-1.6-3.6-3.6-3.6h-2.8
		v23.7h2.8c2,0,3.6-1.6,3.6-3.7V49.8z"/>
	<path class="st1" d="M184.7,72V44h2.2v28H184.7z"/>
	<path class="st1" d="M201.7,72h-2.2l-1.1-7.2h-5.7l-1.1,7.2h-2.2l4.3-28h3.6L201.7,72z M193.1,62.7h5l-2.4-16.3h-0.1L193.1,62.7z"
		/>
</g>
<rect id="XMLID_323_" x="54.4" y="79" class="st2" width="152.6" height="6.4"/>
<g>
	<g>
		<path class="st1" d="M368.6,44.6H350v-2.8l7.5-7.5c2.3-2.3,3.8-3.9,4.5-4.9c0.7-1,1.3-1.9,1.6-2.9c0.4-0.9,0.5-1.9,0.5-3
			c0-1.5-0.5-2.7-1.4-3.6c-0.9-0.9-2.2-1.3-3.8-1.3c-1.2,0-2.3,0.2-3.3,0.6c-1.1,0.4-2.2,1.1-3.5,2.1l-1.7-2.2
			c2.6-2.2,5.5-3.3,8.5-3.3c2.7,0,4.7,0.7,6.3,2c1.5,1.4,2.3,3.2,2.3,5.5c0,1.8-0.5,3.6-1.5,5.3s-2.9,4-5.7,6.7l-6.2,6.1v0.2h14.6
			V44.6z"/>
		<path class="st1" d="M391.4,30.4c0,4.9-0.8,8.6-2.3,11c-1.5,2.4-3.9,3.6-7.1,3.6c-3,0-5.4-1.2-7-3.7s-2.4-6.1-2.4-10.9
			c0-4.9,0.8-8.6,2.3-11c1.5-2.4,3.9-3.6,7-3.6c3.1,0,5.4,1.2,7,3.7S391.4,25.7,391.4,30.4z M376,30.4c0,4.1,0.5,7.1,1.5,9
			c1,1.9,2.5,2.8,4.6,2.8c2.1,0,3.7-1,4.7-2.9c1-1.9,1.4-4.9,1.4-9s-0.5-7-1.4-8.9c-1-1.9-2.5-2.8-4.7-2.8c-2.1,0-3.7,0.9-4.6,2.8
			C376.4,23.3,376,26.3,376,30.4z"/>
		<path class="st1" d="M407.3,44.6h-3.1V24.4c0-1.7,0.1-3.3,0.2-4.8c-0.3,0.3-0.6,0.6-0.9,0.9c-0.3,0.3-1.9,1.6-4.6,3.8l-1.7-2.2
			l7.5-5.8h2.7V44.6z"/>
		<path class="st1" d="M426.9,27.3c3,0,5.3,0.7,7,2.2c1.7,1.5,2.6,3.5,2.6,6.1c0,2.9-0.9,5.2-2.8,6.9c-1.9,1.7-4.4,2.5-7.7,2.5
			c-3.2,0-5.6-0.5-7.3-1.5v-3.1c0.9,0.6,2,1,3.4,1.4c1.3,0.3,2.7,0.5,4,0.5c2.3,0,4-0.5,5.3-1.6s1.9-2.6,1.9-4.7
			c0-4-2.4-5.9-7.3-5.9c-1.2,0-2.9,0.2-4.9,0.6l-1.7-1.1l1.1-13.3h14.1v3h-11.3l-0.7,8.5C423.9,27.5,425.4,27.3,426.9,27.3z"/>
	</g>
	<g>
		<g id="XMLID_351_">
			<path id="XMLID_282_" class="st1" d="M523.2,56.5H293.5c-5.7,0-11.1-2.8-14.3-7.6c-3.9-5.8-10.5-9.5-18-9.3
				c-10.9,0.3-19.9,9.2-20.4,20.1c-0.5,12,9.1,21.9,21,21.9c7.1,0,13.4-3.5,17.2-9c3.4-4.8,8.7-7.9,14.5-7.9h229.7V56.5z"/>
		</g>
		<path class="st1" d="M605.7,18.3c-23.4-23.4-61.3-23.4-84.7,0c-23.4,23.4-23.4,61.3,0,84.7c12.6,12.6,29.3,18.4,45.7,17.4
			c14.2-0.8,28.1-6.6,38.9-17.4c10.8-10.8,16.6-24.8,17.4-39C624.1,47.6,618.2,30.8,605.7,18.3z M591.5,88.8
			c-15.6,15.6-40.8,15.6-56.4,0c-15.6-15.6-15.6-40.8,0-56.4c15.6-15.6,40.8-15.6,56.4,0C607.1,48,607.1,73.2,591.5,88.8z"/>
	</g>
	<g>
		<path class="st1" d="M545.4,48.1c0-4,3.2-7.2,7.2-7.2s7.2,3.2,7.2,7.2v24.9c0,4-3.2,7.2-7.2,7.2s-7.2-3.2-7.2-7.2V48.1z
			 M548.3,73.1c0,2.3,1.9,4.2,4.2,4.2s4.2-1.9,4.2-4.2V48.1c0-2.3-1.9-4.2-4.2-4.2s-4.2,1.9-4.2,4.2V73.1z"/>
		<path class="st1" d="M578,41.5v26.4h2.4v2.9H578v8.8H575v-8.8h-11.4v-2.9L575,41.5H578z M575,67.9V48.3l-8.5,19.6H575z"/>
	</g>
</g>
<g>
	<g>
		<path class="st3" d="M41.6,47.1C37.6,24.5,5,24.5,1,47.1c-0.4,2-0.5,4.1-0.5,6.2c0,14.3,8.6,26.6,20.9,32
			c12.3-5.4,20.9-17.7,20.9-32C42.2,51.1,42,49.1,41.6,47.1z"/>
	</g>
	<g>
		<defs>
			<path id="SVGID_1_" d="M37.7,50.9c0,8.4-6.3,15.3-14.5,16.2c-0.6,0.1-1.2,0.1-1.9,0.1c-9,0-16.3-7.3-16.3-16.3
				c0-9,7.3-16.3,16.3-16.3c0.6,0,1.3,0,1.9,0.1C31.3,35.5,37.7,42.5,37.7,50.9z"/>
		</defs>
		<clipPath id="SVGID_2_">
			<use xlink:href="#SVGID_1_"  style="overflow:visible;"/>
		</clipPath>
		<g class="st4">
			<path class="st5" d="M44.6,65.1c0,1.2-1,2.2-2.2,2.2H0c-1.2,0-2.2-1-2.2-2.2V36.8c0-1.2,1-2.2,2.2-2.2h42.4c1.2,0,2.2,1,2.2,2.2
				V65.1z"/>
			<g>
				<polygon class="st6" points="21.2,62.9 2,50.9 21.2,39 40.4,50.9 				"/>
				<path class="st7" d="M29.2,50.9c0,4.4-3.6,8-8,8c-4.4,0-8-3.6-8-8c0-4.4,3.6-8,8-8C25.6,42.9,29.2,46.5,29.2,50.9z"/>
				<path class="st8" d="M18.5,48c-1.9-0.3-3.5-0.2-4.5-0.1c-0.3,0.5-0.5,1-0.6,1.6c0.8-0.1,2.6-0.3,5,0c2.6,0.4,6.5,1.5,10.3,4.5
					c0.2-0.5,0.3-1.1,0.3-1.6C25.1,49.5,21.3,48.4,18.5,48z"/>
				<g>
					<path class="st9" d="M15.3,48.6c0,0.2-0.1,0.3-0.2,0.3c-0.1,0-0.2-0.1-0.2-0.3c0-0.2,0.1-0.3,0.2-0.3
						C15.2,48.3,15.3,48.4,15.3,48.6z M15.4,48.6c0-0.1-0.1-0.4-0.3-0.3c-0.2,0-0.3,0.2-0.3,0.4c0,0.1,0.1,0.3,0.3,0.3
						C15.3,48.9,15.4,48.7,15.4,48.6z"/>
					<path class="st9" d="M15.6,48.3l0.2,0c0,0,0.1,0,0.1,0.1c0,0.1-0.1,0.1-0.1,0.1l-0.2,0L15.6,48.3z M15.6,48.6h0.2
						c0.1,0,0.1,0.1,0.1,0.1c0,0,0,0.1,0,0.2l0.1,0l0,0c0,0,0,0,0-0.1l0-0.1c0-0.1,0-0.1-0.1-0.1c0.1,0,0.1-0.1,0.1-0.2
						c0-0.1-0.1-0.2-0.2-0.2l-0.3,0l0,0.7l0.1,0L15.6,48.6z"/>
					<path class="st9" d="M16.3,48.3l0.2,0c0.1,0,0.2,0.1,0.2,0.3c0,0.2-0.1,0.3-0.2,0.3l-0.2,0L16.3,48.3z M16.2,48.9l0.3,0
						c0.2,0,0.3-0.2,0.3-0.3c0-0.2-0.1-0.3-0.3-0.3l-0.3,0L16.2,48.9z"/>
					<path class="st9" d="M17.4,49l-0.5,0l0-0.7l0.5,0l0,0.1l-0.4,0l0,0.2l0.4,0l0,0.1l-0.4,0l0,0.2L17.4,49L17.4,49z"/>
					<path class="st9" d="M18,49l0-0.4c0,0,0-0.1,0-0.2l0,0L17.8,49l-0.1,0l-0.1-0.6l0,0c0,0.1,0,0.1,0,0.2l0,0.4l-0.1,0l0.1-0.7
						l0.1,0l0.1,0.6l0,0l0.3-0.5l0.1,0L18,49L18,49z"/>
					<path class="st9" d="M20.5,49.5l-0.5-0.1l0.2-0.7l0.5,0.1l0,0.1l-0.4-0.1l0,0.2l0.4,0.1l0,0.1l-0.4-0.1l0,0.2L20.5,49.5
						L20.5,49.5z"/>
					<path class="st9" d="M22.5,49.4l0.2,0.1c0.1,0,0.1,0.1,0.1,0.2c0,0.1-0.1,0.1-0.2,0.1l-0.2-0.1L22.5,49.4z M22.4,49.7l0.2,0.1
						c0.1,0,0.2,0,0.3-0.1c0-0.1,0-0.2-0.1-0.2l-0.3-0.1L22.2,50l0.1,0L22.4,49.7z"/>
					<path class="st9" d="M23.1,49.7l0.2,0.1c0,0,0.1,0.1,0.1,0.2c0,0.1-0.1,0.1-0.2,0.1L23,49.9L23.1,49.7z M22.9,49.9l0.2,0.1
						c0.1,0,0.1,0.1,0.1,0.1c0,0,0,0.1,0,0.2l0.1,0l0,0c0,0,0,0,0-0.1l0-0.1c0-0.1,0-0.1,0-0.1c0,0,0.1,0,0.1-0.1
						c0.1-0.1,0-0.2-0.1-0.3L23,49.6l-0.2,0.6l0.1,0L22.9,49.9z"/>
					<path class="st9" d="M24,50.3c-0.1,0.1-0.2,0.2-0.3,0.2c-0.1-0.1-0.2-0.2-0.1-0.3c0.1-0.1,0.2-0.2,0.3-0.2
						C24,50,24,50.2,24,50.3z M24.1,50.3c0.1-0.1,0.1-0.4-0.2-0.5c-0.2-0.1-0.4,0.1-0.4,0.2c-0.1,0.1-0.1,0.4,0.2,0.4
						C23.9,50.6,24,50.5,24.1,50.3z"/>
					<path class="st9" d="M24.4,50.5l0.3,0.1l-0.2,0.3l-0.1,0l0-0.1c-0.1,0-0.2,0-0.2,0c-0.1,0-0.1-0.1-0.1-0.2
						c-0.1-0.1,0-0.2,0-0.3c0.1-0.2,0.2-0.3,0.4-0.2c0.1,0.1,0.2,0.2,0.2,0.3l-0.1,0c0-0.1-0.1-0.2-0.1-0.2c-0.1,0-0.2,0-0.3,0.2
						c-0.1,0.1-0.1,0.3,0.1,0.3c0,0,0.1,0,0.1,0c0.1,0,0.1-0.1,0.1-0.1L24.4,50.5L24.4,50.5z"/>
					<path class="st9" d="M25,50.5l0.2,0.1c0,0,0.1,0.1,0.1,0.2c0,0.1-0.1,0.1-0.2,0l-0.2-0.1L25,50.5z M24.9,50.8l0.2,0.1
						c0.1,0.1,0.1,0.1,0.1,0.2c0,0-0.1,0.1-0.1,0.2l0.1,0.1l0,0c0,0,0,0,0-0.1l0.1-0.1c0-0.1,0-0.1,0-0.1c0,0,0.1,0,0.2-0.1
						c0.1-0.1,0-0.2-0.1-0.3L25,50.4L24.7,51l0.1,0L24.9,50.8z"/>
					<path class="st9" d="M25.7,51.5l-0.4-0.2l0.3-0.6l0.4,0.2l0,0.1l-0.4-0.2L25.5,51l0.3,0.2l0,0.1l-0.3-0.2l-0.1,0.2L25.7,51.5
						L25.7,51.5z"/>
					<path class="st9" d="M26.4,51.4c0-0.1,0-0.2-0.1-0.2c-0.1,0-0.1-0.1-0.2,0c0,0.1,0,0.1,0,0.1L26.4,51.4c0,0.1,0,0.2-0.1,0.3
						c-0.1,0.1-0.2,0.1-0.3,0c-0.1-0.1-0.1-0.1-0.2-0.2c0-0.1,0-0.1,0-0.2l0.1,0c-0.1,0.1,0,0.2,0.1,0.2c0.1,0,0.1,0.1,0.2,0
						c0-0.1,0-0.1-0.1-0.2l-0.1-0.1c0,0-0.1-0.1-0.1-0.2c0.1-0.1,0.2-0.1,0.3-0.1C26.6,51.2,26.5,51.4,26.4,51.4L26.4,51.4z"/>
					<path class="st9" d="M26.9,51.7c0-0.1,0-0.2-0.1-0.2c0,0-0.1-0.1-0.2,0c0,0,0,0.1,0,0.1L26.9,51.7c0,0.1,0,0.2-0.1,0.3
						c-0.1,0.1-0.2,0.1-0.3,0c-0.1-0.1-0.1-0.1-0.1-0.2c0-0.1,0-0.1,0-0.2l0.1,0c-0.1,0.1,0,0.2,0.1,0.2c0.1,0,0.2,0.1,0.2,0
						c0-0.1,0-0.1-0.1-0.2l-0.1-0.1c0,0-0.1-0.1,0-0.2c0.1-0.1,0.2-0.1,0.3-0.1C27.1,51.6,27.1,51.7,26.9,51.7L26.9,51.7z"/>
					<path class="st9" d="M27.5,52.2c-0.1,0.1-0.2,0.2-0.3,0.1C27,52.3,27,52.1,27.1,52c0.1-0.1,0.2-0.2,0.3-0.1
						C27.6,52,27.6,52.1,27.5,52.2z M27.6,52.3c0.1-0.1,0.1-0.3-0.1-0.5c-0.2-0.1-0.4,0-0.5,0.1c-0.1,0.1-0.1,0.3,0.1,0.5
						C27.3,52.5,27.5,52.4,27.6,52.3z"/>
				</g>
				<g>
					<polygon class="st8" points="23.4,45.7 23.5,46.1 23.8,46.1 23.5,46.3 23.6,46.6 23.4,46.4 23.1,46.6 23.2,46.3 22.9,46.1 
						23.3,46.1 					"/>
					<polygon class="st8" points="17.8,49.5 17.9,49.7 18.1,49.7 18,49.9 18,50.1 17.8,49.9 17.7,50.1 17.7,49.9 17.5,49.7 
						17.8,49.7 					"/>
					<polygon class="st8" points="14.4,47.6 14.5,47.9 14.8,47.9 14.6,48.1 14.7,48.4 14.4,48.2 14.2,48.4 14.3,48.1 14,47.9 
						14.3,47.9 					"/>
					<polygon class="st8" points="15.8,50.5 15.9,50.8 16.2,50.8 16,51 16.1,51.2 15.8,51.1 15.6,51.2 15.7,51 15.5,50.8 15.8,50.8 
											"/>
					<polygon class="st8" points="15.2,50.9 15.3,51.3 15.7,51.3 15.4,51.5 15.5,51.9 15.2,51.7 14.9,51.9 15,51.5 14.7,51.3 
						15,51.3 					"/>
					<polygon class="st8" points="14.3,51.9 14.4,52.1 14.6,52.1 14.4,52.2 14.5,52.4 14.3,52.3 14.2,52.4 14.2,52.2 14.1,52.1 
						14.3,52.1 					"/>
					<polygon class="st8" points="16.7,51.8 16.8,52.1 17.1,52.1 16.9,52.2 17,52.5 16.7,52.3 16.5,52.5 16.6,52.2 16.4,52.1 
						16.7,52.1 					"/>
					<polygon class="st8" points="16.6,52.8 16.7,53 16.9,53 16.7,53.2 16.8,53.4 16.6,53.2 16.4,53.4 16.5,53.2 16.3,53 16.5,53 
											"/>
					<polygon class="st8" points="17.7,53.5 17.8,53.8 18.1,53.8 17.8,54 17.9,54.3 17.7,54.1 17.4,54.3 17.5,54 17.2,53.8 
						17.6,53.8 					"/>
					<polygon class="st8" points="21.1,52.7 21.2,53.1 21.5,53.1 21.2,53.3 21.4,53.6 21.1,53.4 20.8,53.6 20.9,53.3 20.6,53.1 
						20.9,53.1 					"/>
					<polygon class="st8" points="20.6,51.9 20.7,52 20.8,52 20.7,52.1 20.8,52.2 20.6,52.1 20.5,52.2 20.6,52.1 20.5,52 20.6,52 
											"/>
					<polygon class="st8" points="20,51.3 20.1,51.5 20.3,51.5 20.1,51.6 20.2,51.8 20,51.7 19.8,51.8 19.9,51.6 19.7,51.5 
						19.9,51.5 					"/>
					<polygon class="st8" points="21.2,50.4 21.2,50.7 21.5,50.7 21.3,50.9 21.4,51.1 21.2,51 20.9,51.1 21,50.8 20.8,50.7 
						21.1,50.7 					"/>
					<polygon class="st8" points="23,48.6 23,48.8 23.3,48.8 23.1,49 23.1,49.2 23,49.1 22.8,49.2 22.8,49 22.7,48.8 22.9,48.8 
											"/>
					<polygon class="st8" points="21.9,51.2 22,51.5 22.3,51.5 22.1,51.7 22.2,52 21.9,51.8 21.7,52 21.8,51.7 21.6,51.5 21.8,51.5 
											"/>
					<polygon class="st8" points="22.8,53.5 22.9,53.8 23.4,53.8 23,54.1 23.2,54.5 22.8,54.2 22.5,54.5 22.6,54.1 22.3,53.8 
						22.7,53.8 					"/>
					<polygon class="st8" points="23.5,54.8 23.6,55.1 23.9,55.1 23.6,55.2 23.7,55.5 23.5,55.4 23.2,55.5 23.3,55.2 23.1,55.1 
						23.4,55.1 					"/>
					<polygon class="st8" points="24.1,53.9 24.2,54.1 24.5,54.1 24.3,54.3 24.4,54.5 24.1,54.4 23.9,54.5 24,54.3 23.8,54.1 
						24.1,54.1 					"/>
					<polygon class="st8" points="25.1,53.3 25.2,53.6 25.5,53.6 25.3,53.7 25.3,54 25.1,53.8 24.9,54 25,53.7 24.7,53.6 25,53.6 
											"/>
					<polygon class="st8" points="25.1,54.6 25.2,54.8 25.4,54.8 25.3,54.9 25.3,55.2 25.1,55 24.9,55.2 25,54.9 24.8,54.8 
						25.1,54.8 					"/>
					<polygon class="st8" points="25.1,55.4 25.2,55.6 25.4,55.6 25.2,55.7 25.3,55.9 25.1,55.8 25,55.9 25,55.7 24.8,55.6 25,55.6 
											"/>
					<polygon class="st8" points="25.9,53.6 26,53.9 26.3,53.9 26.1,54.1 26.2,54.4 25.9,54.2 25.7,54.4 25.8,54.1 25.5,53.9 
						25.8,53.9 					"/>
					<polygon class="st8" points="26.8,53.5 26.9,53.7 27.1,53.7 27,53.8 27,54.1 26.8,53.9 26.7,54.1 26.7,53.8 26.5,53.7 
						26.8,53.7 					"/>
					<polygon class="st8" points="27.2,52.9 27.2,53.1 27.4,53.1 27.3,53.2 27.3,53.3 27.2,53.2 27.1,53.3 27.1,53.2 27,53.1 
						27.1,53.1 					"/>
					<polygon class="st8" points="26.7,51.8 26.8,52 27,52 26.8,52.1 26.9,52.3 26.7,52.2 26.6,52.3 26.6,52.1 26.5,52 26.7,52 
											"/>
					<polygon class="st8" points="27.9,51.7 28.1,52 28.4,52 28.1,52.2 28.2,52.5 27.9,52.3 27.7,52.5 27.8,52.2 27.5,52 27.8,52 
											"/>
					<polygon class="st8" points="21.2,55.6 21.2,55.8 21.4,55.8 21.3,55.9 21.3,56.1 21.1,56 21,56.1 21,55.9 20.9,55.8 21.1,55.8 
											"/>
				</g>
			</g>
		</g>
	</g>
</g>
</svg>
