<?xml version="1.0" encoding="utf-8"?>
<!-- Generator: Adobe Illustrator 22.0.0, SVG Export Plug-In . SVG Version: 6.00 Build 0)  -->
<svg version="1.1" id="Layer_1" xmlns="http://www.w3.org/2000/svg" xmlns:xlink="http://www.w3.org/1999/xlink" x="0px" y="0px"
	 viewBox="0 0 670 185.6" style="enable-background:new 0 0 670 185.6;" xml:space="preserve">
<style type="text/css">
	.st0{enable-background:new    ;}
	.st1{fill:#DA635A;}
	.st2{fill:#DD5361;}
	.st3{fill:#FF6B68;}
	.st4{clip-path:url(#SVGID_2_);}
	.st5{fill:#E6E7E8;}
	.st6{fill:#EC1C24;}
	.st7{fill:#FBE6EF;}
	.st8{fill:url(#SVGID_3_);}
	.st9{fill:#726658;}
	.st10{fill:#DED9D7;}
</style>
<g>
	<g class="st0">
		<path class="st1" d="M204.4,52.2h-18.6v-2.8l7.5-7.5c2.3-2.3,3.8-3.9,4.5-4.9s1.3-1.9,1.6-2.9c0.4-0.9,0.5-1.9,0.5-3
			c0-1.5-0.5-2.7-1.4-3.6s-2.2-1.3-3.8-1.3c-1.2,0-2.3,0.2-3.3,0.6c-1.1,0.4-2.2,1.1-3.5,2.1l-1.7-2.2c2.6-2.2,5.5-3.3,8.5-3.3
			c2.7,0,4.7,0.7,6.3,2c1.5,1.4,2.3,3.2,2.3,5.5c0,1.8-0.5,3.6-1.5,5.3c-1,1.8-2.9,4-5.7,6.7l-6.2,6.1v0.2h14.6v3H204.4z"/>
		<path class="st1" d="M227.2,37.9c0,4.9-0.8,8.6-2.3,11s-3.9,3.6-7.1,3.6c-3,0-5.4-1.2-7-3.7s-2.4-6.1-2.4-10.9
			c0-4.9,0.8-8.6,2.3-11s3.9-3.6,7-3.6s5.4,1.2,7,3.7S227.2,33.2,227.2,37.9z M211.8,37.9c0,4.1,0.5,7.1,1.5,9s2.5,2.8,4.6,2.8
			s3.7-1,4.7-2.9s1.4-4.9,1.4-9s-0.5-7-1.4-8.9c-1-1.9-2.5-2.8-4.7-2.8c-2.1,0-3.7,0.9-4.6,2.8C212.2,30.8,211.8,33.8,211.8,37.9z"
			/>
		<path class="st1" d="M243.1,52.2H240V32c0-1.7,0.1-3.3,0.2-4.8c-0.3,0.3-0.6,0.6-0.9,0.9c-0.3,0.3-1.9,1.6-4.6,3.8l-1.7-2.2
			l7.5-5.8h2.7L243.1,52.2L243.1,52.2z"/>
		<path class="st1" d="M272.5,52.2h-18.6v-2.8l7.5-7.5c2.3-2.3,3.8-3.9,4.5-4.9s1.3-1.9,1.6-2.9c0.4-0.9,0.5-1.9,0.5-3
			c0-1.5-0.5-2.7-1.4-3.6s-2.2-1.3-3.8-1.3c-1.2,0-2.3,0.2-3.3,0.6c-1.1,0.4-2.2,1.1-3.5,2.1l-1.7-2.2c2.6-2.2,5.5-3.3,8.5-3.3
			c2.7,0,4.7,0.7,6.3,2c1.5,1.4,2.3,3.2,2.3,5.5c0,1.8-0.5,3.6-1.5,5.3c-1,1.8-2.9,4-5.7,6.7L258,49v0.2h14.6v3H272.5z"/>
	</g>
	<g id="XMLID_329_">
		<path id="XMLID_280_" class="st2" d="M100.7,73.3h229.7c5.7,0,11.1,2.8,14.3,7.6c3.9,5.8,10.5,9.5,18,9.3
			c10.9-0.3,19.9-9.2,20.4-20.1c0.5-12-9.1-21.9-21-21.9c-7.1,0-13.4,3.5-17.2,9c-3.4,4.8-8.7,7.9-14.5,7.9H100.7V73.3z"/>
	</g>
	<path class="st2" d="M103.2,26.8c-23.4-23.4-61.3-23.4-84.7,0s-23.4,61.3,0,84.7c12.6,12.6,29.3,18.4,45.7,17.4
		c14.2-0.8,28.1-6.6,38.9-17.4s16.6-24.8,17.4-39C121.6,56.1,115.8,39.4,103.2,26.8z M89.1,97.3c-15.6,15.6-40.8,15.6-56.4,0
		s-15.6-40.8,0-56.4s40.8-15.6,56.4,0C104.6,56.5,104.6,81.8,89.1,97.3z"/>
	<g class="st0">
		<path class="st1" d="M47.5,56.9c0-4,3.2-7.2,7.2-7.2s7.2,3.2,7.2,7.2v24.9c0,4-3.2,7.2-7.2,7.2s-7.2-3.2-7.2-7.2V56.9z M50.5,81.9
			c0,2.3,1.9,4.2,4.2,4.2s4.2-1.9,4.2-4.2v-25c0-2.3-1.9-4.2-4.2-4.2s-4.2,1.9-4.2,4.2V81.9z"/>
		<path class="st1" d="M67.6,88.5V50.6l2.9-0.3v38.2H67.6z"/>
	</g>
</g>
<g id="canada_1_">
	<g>
		<g>
			<path class="st3" d="M668.4,55.3c-4-22.6-36.6-22.6-40.7,0c-0.4,2-0.5,4.1-0.5,6.2c0,14.3,8.6,26.6,20.9,32
				c12.3-5.4,20.9-17.7,20.9-32C668.9,59.4,668.7,57.3,668.4,55.3z"/>
		</g>
		<g>
			<g>
				<g>
					<defs>
						<path id="SVGID_1_" d="M664.4,59.1c0,8.4-6.3,15.3-14.5,16.2c-0.6,0.1-1.2,0.1-1.9,0.1c-9,0-16.3-7.3-16.3-16.3
							S639,42.8,648,42.8c0.6,0,1.3,0,1.9,0.1C658.1,43.8,664.4,50.7,664.4,59.1z"/>
					</defs>
					<clipPath id="SVGID_2_">
						<use xlink:href="#SVGID_1_"  style="overflow:visible;"/>
					</clipPath>
					<g class="st4">
						<g>
							<path class="st5" d="M671.8,73.3c0,1.2-1,2.2-2.2,2.2h-42.9c-1.2,0-2.2-1-2.2-2.2V44.6c0-1.2,1-2.2,2.2-2.2h42.9
								c1.2,0,2.2,1,2.2,2.2V73.3z"/>
							<path class="st6" d="M626.7,42.4c-1.2,0-2.2,1-2.2,2.2v28.7c0,1.2,1,2.2,2.2,2.2h9.9V42.4H626.7z"/>
							<path class="st6" d="M671.8,73.3V44.6c0-1.2-1-2.2-2.2-2.2h-9.9v33.1h9.9C670.8,75.5,671.8,74.5,671.8,73.3z"/>
							<g>
								<path class="st7" d="M647.5,49.5c0,0-1.5,3-1.6,3.2c-0.3-0.1-2.1-1.1-2.1-1.1l0.1,0.4c1.4,4.7,1,5.1,0.9,5.2
									c-0.3,0.1-1.3-1-2.2-2.4l-0.3-0.5v0.6c0,0.5-0.1,0.8-0.4,1c-0.8,0.6-2.6-0.1-2.7-0.1l-0.4-0.1L639,56
									c0.9,1.8,0.9,2.6,0.6,2.9c-0.3,0.4-0.8,0.4-0.9,0.4l-0.1,0.3c3.6,1.8,4.4,3.2,4.5,4.1c0,0.8-0.6,1.3-0.6,1.3l0.1,0.3
									c0,0,4.1-0.9,4.5-1c0,0.4-0.3,4.6-0.3,4.6l0.8,0.1l0.8-0.1c0,0-0.3-4.3-0.3-4.7c0.4,0.1,4.5,1,4.5,1l0.1-0.3
									c0,0-0.7-0.5-0.6-1.3c0-0.8,0.9-2.2,4.5-4.1l-0.1-0.3c0,0-0.6,0-0.9-0.4c-0.2-0.4-0.3-1.2,0.6-2.9l0.2-0.4l-0.4,0.1
									c0,0-1.8,0.7-2.7,0.1c-0.3-0.2-0.4-0.5-0.4-1v-0.6l-0.3,0.5c-0.9,1.4-1.9,2.6-2.2,2.4c-0.1,0-0.5-0.5,0.9-5.2l0.1-0.4
									c0,0-1.8,1-2.1,1.1c-0.1-0.3-1.8-3.5-1.8-3.5L647.5,49.5z"/>
								<path class="st6" d="M656.5,59.5c0,0-2.4,0.2-0.4-3.6c0,0-3.3,1.2-3.3-1.1c0,0-4.6,7.3-1.6-2.9l-1.9,1l-1.7-3.4l-1.7,3.4
									l-1.9-1c3,10.1-1.6,2.9-1.6,2.9c0,2.3-3.3,1.1-3.3,1.1c2,3.8-0.4,3.6-0.4,3.6c7,3.6,3.9,5.6,3.9,5.6l4.7-1l-0.3,4.7l0.6,0.1
									l0.6-0.1l-0.3-4.7l4.7,1C652.7,65.1,649.5,63,656.5,59.5z"/>
							</g>
						</g>
						
							<radialGradient id="SVGID_3_" cx="-370.8961" cy="3036.9805" r="8.0788" gradientTransform="matrix(1.0148 0 0 1.0148 1024.5111 -3006.4275)" gradientUnits="userSpaceOnUse">
							<stop  offset="0" style="stop-color:#DDDFE0"/>
							<stop  offset="1" style="stop-color:#FFFFFF"/>
						</radialGradient>
						<polygon class="st8" points="636.5,75.5 659.7,75.5 659.7,75.5 						"/>
					</g>
				</g>
			</g>
		</g>
	</g>
</g>
<g id="XMLID_2_">
	<g>
		<g>
			<path class="st9" d="M406,118.3l-1.3,3.9h-1.6l4.2-12.3h1.9l4.2,12.3h-1.7l-1.3-3.9H406z M410.1,117l-1.2-3.5
				c-0.3-0.8-0.5-1.5-0.6-2.2h0c-0.2,0.7-0.4,1.5-0.6,2.2l-1.2,3.6H410.1z"/>
			<path class="st9" d="M415.1,116.1c0-1,0-1.9-0.1-2.8h1.4l0.1,1.7h0.1c0.4-1.2,1.4-1.9,2.4-1.9c0.2,0,0.3,0,0.5,0.1v1.5
				c-0.2,0-0.3-0.1-0.5-0.1c-1.1,0-1.9,0.9-2.1,2.1c0,0.2-0.1,0.5-0.1,0.7v4.7h-1.6V116.1z"/>
			<path class="st9" d="M423.4,110.8v2.5h2.3v1.2h-2.3v4.8c0,1.1,0.3,1.7,1.2,1.7c0.4,0,0.7-0.1,0.9-0.1l0.1,1.2
				c-0.3,0.1-0.8,0.2-1.4,0.2c-0.7,0-1.3-0.2-1.7-0.7c-0.5-0.5-0.6-1.3-0.6-2.3v-4.8h-1.4v-1.2h1.4v-2.1L423.4,110.8z"/>
			<path class="st9" d="M431.5,109.9h6.6v1.3h-5v4.1h4.6v1.3H433v5.6h-1.6V109.9z"/>
			<path class="st9" d="M447,119.7c0,0.9,0,1.7,0.1,2.4h-1.4l-0.1-1.4h0c-0.4,0.7-1.3,1.6-2.9,1.6c-1.4,0-3-0.8-3-3.9v-5.2h1.6v4.9
				c0,1.7,0.5,2.8,2,2.8c1.1,0,1.8-0.7,2.1-1.5c0.1-0.2,0.1-0.5,0.1-0.8v-5.4h1.6V119.7z"/>
			<path class="st9" d="M449.7,115.7c0-0.9,0-1.7-0.1-2.4h1.4l0.1,1.5h0c0.4-0.8,1.5-1.7,2.9-1.7c1.2,0,3.1,0.7,3.1,3.8v5.3h-1.6
				V117c0-1.4-0.5-2.6-2-2.6c-1.1,0-1.9,0.7-2.1,1.6c-0.1,0.2-0.1,0.5-0.1,0.7v5.3h-1.6V115.7z"/>
			<path class="st9" d="M467.4,109.2v10.7c0,0.8,0,1.7,0.1,2.3H466l-0.1-1.5h0c-0.5,1-1.6,1.7-3,1.7c-2.1,0-3.8-1.8-3.8-4.5
				c0-2.9,1.8-4.7,4-4.7c1.3,0,2.3,0.6,2.7,1.3h0v-5.3H467.4z M465.8,116.9c0-0.2,0-0.5-0.1-0.7c-0.2-1-1.1-1.9-2.3-1.9
				c-1.7,0-2.6,1.5-2.6,3.4c0,1.8,0.9,3.3,2.6,3.3c1.1,0,2.1-0.7,2.4-1.9c0.1-0.2,0.1-0.4,0.1-0.7V116.9z"/>
			<path class="st9" d="M474.9,122.1l-0.1-1.1h-0.1c-0.5,0.7-1.4,1.3-2.7,1.3c-1.8,0-2.7-1.3-2.7-2.5c0-2.1,1.9-3.3,5.3-3.3v-0.2
				c0-0.7-0.2-2-2-2c-0.8,0-1.7,0.3-2.3,0.7l-0.4-1.1c0.7-0.5,1.8-0.8,2.9-0.8c2.7,0,3.4,1.8,3.4,3.6v3.3c0,0.8,0,1.5,0.1,2.1H474.9
				z M474.7,117.6c-1.7,0-3.7,0.3-3.7,2c0,1,0.7,1.5,1.5,1.5c1.1,0,1.9-0.7,2.1-1.5c0.1-0.2,0.1-0.3,0.1-0.5V117.6z"/>
			<path class="st9" d="M478.8,115.7c0-0.9,0-1.7-0.1-2.4h1.4l0.1,1.4h0.1c0.5-0.8,1.3-1.6,2.8-1.6c1.2,0,2.1,0.7,2.5,1.8h0
				c0.3-0.5,0.6-0.9,1-1.1c0.5-0.4,1.1-0.6,1.9-0.6c1.2,0,2.9,0.8,2.9,3.8v5.2h-1.6v-5c0-1.7-0.6-2.7-1.9-2.7
				c-0.9,0-1.6,0.7-1.9,1.5c-0.1,0.2-0.1,0.5-0.1,0.8v5.4h-1.6v-5.3c0-1.4-0.6-2.4-1.8-2.4c-1,0-1.7,0.8-2,1.6
				c-0.1,0.2-0.1,0.5-0.1,0.8v5.3h-1.6V115.7z"/>
			<path class="st9" d="M494.9,118c0,2.2,1.4,3.1,3,3.1c1.1,0,1.8-0.2,2.4-0.5l0.3,1.1c-0.6,0.3-1.5,0.5-2.9,0.5
				c-2.7,0-4.3-1.8-4.3-4.4c0-2.7,1.6-4.8,4.1-4.8c2.9,0,3.6,2.5,3.6,4.2c0,0.3,0,0.6-0.1,0.7H494.9z M499.6,116.9
				c0-1-0.4-2.6-2.2-2.6c-1.6,0-2.3,1.5-2.5,2.6H499.6z"/>
			<path class="st9" d="M503.2,115.7c0-0.9,0-1.7-0.1-2.4h1.4l0.1,1.5h0c0.4-0.8,1.5-1.7,2.9-1.7c1.2,0,3.1,0.7,3.1,3.8v5.3h-1.6
				V117c0-1.4-0.5-2.6-2-2.6c-1.1,0-1.9,0.7-2.1,1.6c-0.1,0.2-0.1,0.5-0.1,0.7v5.3h-1.6V115.7z"/>
			<path class="st9" d="M515.1,110.8v2.5h2.3v1.2h-2.3v4.8c0,1.1,0.3,1.7,1.2,1.7c0.4,0,0.7-0.1,0.9-0.1l0.1,1.2
				c-0.3,0.1-0.8,0.2-1.4,0.2c-0.7,0-1.3-0.2-1.7-0.7c-0.5-0.5-0.6-1.3-0.6-2.3v-4.8h-1.4v-1.2h1.4v-2.1L515.1,110.8z"/>
			<path class="st9" d="M524.1,122.1L524,121h-0.1c-0.5,0.7-1.4,1.3-2.7,1.3c-1.8,0-2.7-1.3-2.7-2.5c0-2.1,1.9-3.3,5.3-3.3v-0.2
				c0-0.7-0.2-2-2-2c-0.8,0-1.7,0.3-2.3,0.7l-0.4-1.1c0.7-0.5,1.8-0.8,2.9-0.8c2.7,0,3.4,1.8,3.4,3.6v3.3c0,0.8,0,1.5,0.1,2.1H524.1
				z M523.9,117.6c-1.7,0-3.7,0.3-3.7,2c0,1,0.7,1.5,1.5,1.5c1.1,0,1.9-0.7,2.1-1.5c0.1-0.2,0.1-0.3,0.1-0.5V117.6z"/>
			<path class="st9" d="M528,109.2h1.6v12.9H528V109.2z"/>
			<path class="st9" d="M532.1,120.5c0.5,0.3,1.3,0.6,2.1,0.6c1.2,0,1.7-0.6,1.7-1.3c0-0.8-0.5-1.2-1.6-1.6
				c-1.6-0.6-2.3-1.4-2.3-2.5c0-1.4,1.1-2.6,3-2.6c0.9,0,1.7,0.3,2.2,0.5l-0.4,1.2c-0.3-0.2-1-0.5-1.8-0.5c-0.9,0-1.5,0.5-1.5,1.2
				c0,0.7,0.5,1.1,1.7,1.5c1.5,0.6,2.3,1.3,2.3,2.7c0,1.5-1.2,2.6-3.3,2.6c-1,0-1.9-0.2-2.5-0.6L532.1,120.5z"/>
			<path class="st9" d="M412.6,143.6c-0.6,0.3-1.7,0.6-3.2,0.6c-3.5,0-6.1-2.2-6.1-6.2c0-3.8,2.6-6.5,6.4-6.5c1.5,0,2.5,0.3,2.9,0.5
				l-0.4,1.3c-0.6-0.3-1.5-0.5-2.5-0.5c-2.9,0-4.8,1.8-4.8,5.1c0,3,1.7,4.9,4.7,4.9c1,0,1.9-0.2,2.6-0.5L412.6,143.6z"/>
			<path class="st9" d="M415.3,139.9c0,2.2,1.4,3.1,3,3.1c1.1,0,1.8-0.2,2.4-0.5l0.3,1.1c-0.6,0.3-1.5,0.5-2.9,0.5
				c-2.7,0-4.3-1.8-4.3-4.4c0-2.7,1.6-4.8,4.1-4.8c2.9,0,3.6,2.5,3.6,4.2c0,0.3,0,0.6-0.1,0.7H415.3z M420,138.7
				c0-1-0.4-2.6-2.2-2.6c-1.6,0-2.3,1.5-2.5,2.6H420z"/>
			<path class="st9" d="M423.5,137.9c0-1,0-1.9-0.1-2.8h1.4l0.1,1.7h0.1c0.4-1.2,1.4-1.9,2.4-1.9c0.2,0,0.3,0,0.5,0.1v1.5
				c-0.2,0-0.3-0.1-0.5-0.1c-1.1,0-1.9,0.9-2.1,2.1c0,0.2-0.1,0.5-0.1,0.7v4.7h-1.6V137.9z"/>
			<path class="st9" d="M431.8,132.6v2.5h2.3v1.2h-2.3v4.8c0,1.1,0.3,1.7,1.2,1.7c0.4,0,0.7-0.1,0.9-0.1l0.1,1.2
				c-0.3,0.1-0.8,0.2-1.4,0.2c-0.7,0-1.3-0.2-1.7-0.7c-0.5-0.5-0.6-1.3-0.6-2.3v-4.8h-1.4v-1.2h1.4v-2.1L431.8,132.6z"/>
			<path class="st9" d="M437.7,132.7c0,0.5-0.4,1-1,1c-0.6,0-1-0.4-1-1c0-0.6,0.4-1,1-1C437.3,131.7,437.7,132.1,437.7,132.7z
				 M435.9,144v-8.8h1.6v8.8H435.9z"/>
			<path class="st9" d="M440.4,144v-7.6h-1.2v-1.2h1.2v-0.5c0-2.3,1.4-3.8,3.8-3.8c0.8,0,1.8,0.3,2.2,0.6l-0.5,1.2
				c-0.4-0.3-1.1-0.5-1.9-0.5c-1.7,0-2.2,1.2-2.2,2.6v0.4h5.1v8.8h-1.6v-7.6h-3.5v7.6H440.4z"/>
			<path class="st9" d="M456,143.7c-0.4,0.2-1.3,0.5-2.5,0.5c-2.7,0-4.4-1.8-4.4-4.5c0-2.7,1.9-4.7,4.7-4.7c0.9,0,1.8,0.2,2.2,0.5
				l-0.4,1.2c-0.4-0.2-1-0.4-1.9-0.4c-2,0-3.1,1.5-3.1,3.3c0,2,1.3,3.3,3.1,3.3c0.9,0,1.5-0.2,2-0.4L456,143.7z"/>
			<path class="st9" d="M462.8,144l-0.1-1.1h-0.1c-0.5,0.7-1.4,1.3-2.7,1.3c-1.8,0-2.7-1.3-2.7-2.5c0-2.1,1.9-3.3,5.3-3.3v-0.2
				c0-0.7-0.2-2-2-2c-0.8,0-1.7,0.3-2.3,0.7l-0.4-1.1c0.7-0.5,1.8-0.8,2.9-0.8c2.7,0,3.4,1.8,3.4,3.6v3.3c0,0.8,0,1.5,0.1,2.1H462.8
				z M462.5,139.5c-1.7,0-3.7,0.3-3.7,2c0,1,0.7,1.5,1.5,1.5c1.1,0,1.9-0.7,2.1-1.5c0.1-0.2,0.1-0.3,0.1-0.5V139.5z"/>
			<path class="st9" d="M468.5,132.6v2.5h2.3v1.2h-2.3v4.8c0,1.1,0.3,1.7,1.2,1.7c0.4,0,0.7-0.1,0.9-0.1l0.1,1.2
				c-0.3,0.1-0.8,0.2-1.4,0.2c-0.7,0-1.3-0.2-1.7-0.7c-0.5-0.5-0.6-1.3-0.6-2.3v-4.8h-1.4v-1.2h1.4v-2.1L468.5,132.6z"/>
			<path class="st9" d="M473.4,139.9c0,2.2,1.4,3.1,3,3.1c1.1,0,1.8-0.2,2.4-0.5l0.3,1.1c-0.6,0.3-1.5,0.5-2.9,0.5
				c-2.7,0-4.3-1.8-4.3-4.4c0-2.7,1.6-4.8,4.1-4.8c2.9,0,3.6,2.5,3.6,4.2c0,0.3,0,0.6-0.1,0.7H473.4z M478.1,138.7
				c0-1-0.4-2.6-2.2-2.6c-1.6,0-2.3,1.5-2.5,2.6H478.1z"/>
			<path class="st9" d="M490.4,144l-0.1-1.1h-0.1c-0.5,0.7-1.4,1.3-2.7,1.3c-1.8,0-2.7-1.3-2.7-2.5c0-2.1,1.9-3.3,5.3-3.3v-0.2
				c0-0.7-0.2-2-2-2c-0.8,0-1.7,0.3-2.3,0.7l-0.4-1.1c0.7-0.5,1.8-0.8,2.9-0.8c2.7,0,3.4,1.8,3.4,3.6v3.3c0,0.8,0,1.5,0.1,2.1H490.4
				z M490.2,139.5c-1.7,0-3.7,0.3-3.7,2c0,1,0.7,1.5,1.5,1.5c1.1,0,1.9-0.7,2.1-1.5c0.1-0.2,0.1-0.3,0.1-0.5V139.5z"/>
			<path class="st9" d="M496.1,132.6v2.5h2.3v1.2h-2.3v4.8c0,1.1,0.3,1.7,1.2,1.7c0.4,0,0.7-0.1,0.9-0.1l0.1,1.2
				c-0.3,0.1-0.8,0.2-1.4,0.2c-0.7,0-1.3-0.2-1.7-0.7c-0.5-0.5-0.6-1.3-0.6-2.3v-4.8h-1.4v-1.2h1.4v-2.1L496.1,132.6z"/>
			<path class="st9" d="M503.9,142.1c0.7,0.4,1.7,0.8,2.8,0.8c1.6,0,2.6-0.9,2.6-2.1c0-1.1-0.7-1.8-2.3-2.4c-2-0.7-3.2-1.7-3.2-3.5
				c0-1.9,1.6-3.3,4-3.3c1.3,0,2.2,0.3,2.7,0.6l-0.4,1.3c-0.4-0.2-1.2-0.6-2.3-0.6c-1.7,0-2.3,1-2.3,1.8c0,1.1,0.7,1.7,2.4,2.4
				c2.1,0.8,3.1,1.8,3.1,3.6c0,1.9-1.4,3.5-4.3,3.5c-1.2,0-2.5-0.3-3.1-0.8L503.9,142.1z"/>
			<path class="st9" d="M513.1,131.1h1.6v5.5h0c0.3-0.5,0.7-0.9,1.1-1.1c0.5-0.3,1-0.5,1.6-0.5c1.2,0,3.1,0.7,3.1,3.8v5.2H519v-5.1
				c0-1.4-0.5-2.6-2-2.6c-1,0-1.9,0.7-2.1,1.6c-0.1,0.2-0.1,0.5-0.1,0.8v5.3h-1.6V131.1z"/>
			<path class="st9" d="M524.1,139.9c0,2.2,1.4,3.1,3,3.1c1.1,0,1.8-0.2,2.4-0.5l0.3,1.1c-0.6,0.3-1.5,0.5-2.9,0.5
				c-2.7,0-4.3-1.8-4.3-4.4c0-2.7,1.6-4.8,4.1-4.8c2.9,0,3.6,2.5,3.6,4.2c0,0.3,0,0.6-0.1,0.7H524.1z M528.8,138.7
				c0-1-0.4-2.6-2.2-2.6c-1.6,0-2.3,1.5-2.5,2.6H528.8z"/>
			<path class="st9" d="M532.3,137.9c0-1,0-1.9-0.1-2.8h1.4l0.1,1.7h0.1c0.4-1.2,1.4-1.9,2.4-1.9c0.2,0,0.3,0,0.5,0.1v1.5
				c-0.2,0-0.3-0.1-0.5-0.1c-1.1,0-1.9,0.9-2.1,2.1c0,0.2-0.1,0.5-0.1,0.7v4.7h-1.6V137.9z"/>
			<path class="st9" d="M540.2,132.7c0,0.5-0.4,1-1,1c-0.6,0-1-0.4-1-1c0-0.6,0.4-1,1-1C539.8,131.7,540.2,132.1,540.2,132.7z
				 M538.4,144v-8.8h1.6v8.8H538.4z"/>
			<path class="st9" d="M550.2,131.1v10.7c0,0.8,0,1.7,0.1,2.3h-1.4l-0.1-1.5h0c-0.5,1-1.6,1.7-3,1.7c-2.1,0-3.8-1.8-3.8-4.5
				c0-2.9,1.8-4.7,4-4.7c1.3,0,2.3,0.6,2.7,1.3h0v-5.3H550.2z M548.6,138.8c0-0.2,0-0.5-0.1-0.7c-0.2-1-1.1-1.9-2.3-1.9
				c-1.7,0-2.6,1.5-2.6,3.4c0,1.8,0.9,3.3,2.6,3.3c1.1,0,2.1-0.7,2.4-1.9c0.1-0.2,0.1-0.4,0.1-0.7V138.8z"/>
			<path class="st9" d="M557.8,144l-0.1-1.1h-0.1c-0.5,0.7-1.4,1.3-2.7,1.3c-1.8,0-2.7-1.3-2.7-2.5c0-2.1,1.9-3.3,5.3-3.3v-0.2
				c0-0.7-0.2-2-2-2c-0.8,0-1.7,0.3-2.3,0.7l-0.4-1.1c0.7-0.5,1.8-0.8,2.9-0.8c2.7,0,3.4,1.8,3.4,3.6v3.3c0,0.8,0,1.5,0.1,2.1H557.8
				z M557.6,139.5c-1.7,0-3.7,0.3-3.7,2c0,1,0.7,1.5,1.5,1.5c1.1,0,1.9-0.7,2.1-1.5c0.1-0.2,0.1-0.3,0.1-0.5V139.5z"/>
			<path class="st9" d="M561.7,137.6c0-0.9,0-1.7-0.1-2.4h1.4l0.1,1.5h0c0.4-0.8,1.5-1.7,2.9-1.7c1.2,0,3.1,0.7,3.1,3.8v5.3h-1.6
				v-5.1c0-1.4-0.5-2.6-2-2.6c-1.1,0-1.9,0.7-2.1,1.6c-0.1,0.2-0.1,0.5-0.1,0.7v5.3h-1.6V137.6z"/>
			<path class="st9" d="M412.6,165.5c-0.6,0.3-1.7,0.6-3.2,0.6c-3.5,0-6.1-2.2-6.1-6.2c0-3.8,2.6-6.5,6.4-6.5c1.5,0,2.5,0.3,2.9,0.5
				l-0.4,1.3c-0.6-0.3-1.5-0.5-2.5-0.5c-2.9,0-4.8,1.8-4.8,5.1c0,3,1.7,4.9,4.7,4.9c1,0,1.9-0.2,2.6-0.5L412.6,165.5z"/>
			<path class="st9" d="M422.4,161.4c0,3.3-2.3,4.7-4.4,4.7c-2.4,0-4.2-1.7-4.2-4.5c0-3,1.9-4.7,4.4-4.7
				C420.6,156.8,422.4,158.7,422.4,161.4z M415.4,161.5c0,1.9,1.1,3.4,2.7,3.4c1.5,0,2.7-1.4,2.7-3.4c0-1.5-0.7-3.4-2.6-3.4
				S415.4,159.8,415.4,161.5z"/>
			<path class="st9" d="M424.4,152.9h1.6v12.9h-1.6V152.9z"/>
			<path class="st9" d="M428.7,152.9h1.6v12.9h-1.6V152.9z"/>
			<path class="st9" d="M433.9,161.7c0,2.2,1.4,3.1,3,3.1c1.1,0,1.8-0.2,2.4-0.5l0.3,1.1c-0.6,0.3-1.5,0.5-2.9,0.5
				c-2.7,0-4.3-1.8-4.3-4.4c0-2.7,1.6-4.8,4.1-4.8c2.9,0,3.6,2.5,3.6,4.2c0,0.3,0,0.6-0.1,0.7H433.9z M438.6,160.6
				c0-1-0.4-2.6-2.2-2.6c-1.6,0-2.3,1.5-2.5,2.6H438.6z"/>
			<path class="st9" d="M449.7,157c0,0.6-0.1,1.3-0.1,2.4v5.1c0,2-0.4,3.3-1.3,4c-0.9,0.8-2.1,1.1-3.2,1.1c-1.1,0-2.2-0.3-2.9-0.7
				l0.4-1.2c0.6,0.4,1.5,0.7,2.6,0.7c1.6,0,2.8-0.9,2.8-3.1v-1h0c-0.5,0.8-1.4,1.5-2.8,1.5c-2.2,0-3.8-1.9-3.8-4.3
				c0-3,1.9-4.7,4-4.7c1.5,0,2.4,0.8,2.8,1.5h0l0.1-1.3H449.7z M448,160.5c0-0.3,0-0.5-0.1-0.7c-0.3-0.9-1.1-1.7-2.2-1.7
				c-1.5,0-2.6,1.3-2.6,3.3c0,1.7,0.9,3.2,2.6,3.2c1,0,1.9-0.6,2.2-1.6c0.1-0.3,0.1-0.6,0.1-0.9V160.5z"/>
			<path class="st9" d="M453.2,161.7c0,2.2,1.4,3.1,3,3.1c1.1,0,1.8-0.2,2.4-0.5l0.3,1.1c-0.6,0.3-1.5,0.5-2.9,0.5
				c-2.7,0-4.3-1.8-4.3-4.4c0-2.7,1.6-4.8,4.1-4.8c2.9,0,3.6,2.5,3.6,4.2c0,0.3,0,0.6-0.1,0.7H453.2z M457.9,160.6
				c0-1-0.4-2.6-2.2-2.6c-1.6,0-2.3,1.5-2.5,2.6H457.9z"/>
			<path class="st9" d="M460.2,168.1c0.4-1.1,0.9-3,1.1-4.4l1.8-0.2c-0.4,1.5-1.2,3.6-1.7,4.4L460.2,168.1z"/>
			<path class="st9" d="M479.4,159.6c0,4.2-2.6,6.5-5.7,6.5c-3.2,0-5.5-2.5-5.5-6.2c0-3.9,2.4-6.5,5.7-6.5
				C477.2,153.4,479.4,155.9,479.4,159.6z M469.9,159.8c0,2.6,1.4,5,3.9,5c2.5,0,3.9-2.3,3.9-5.1c0-2.4-1.3-5-3.9-5
				C471.2,154.7,469.9,157.1,469.9,159.8z"/>
			<path class="st9" d="M486.3,165.9l-0.1-1.1h-0.1c-0.5,0.7-1.4,1.3-2.7,1.3c-1.8,0-2.7-1.3-2.7-2.5c0-2.1,1.9-3.3,5.3-3.3v-0.2
				c0-0.7-0.2-2-2-2c-0.8,0-1.7,0.3-2.3,0.7l-0.4-1.1c0.7-0.5,1.8-0.8,2.9-0.8c2.7,0,3.4,1.8,3.4,3.6v3.3c0,0.8,0,1.5,0.1,2.1H486.3
				z M486,161.4c-1.7,0-3.7,0.3-3.7,2c0,1,0.7,1.5,1.5,1.5c1.1,0,1.9-0.7,2.1-1.5c0.1-0.2,0.1-0.3,0.1-0.5V161.4z"/>
			<path class="st9" d="M491.8,161.1L491.8,161.1c0.3-0.3,0.6-0.7,0.8-1l2.6-3h1.9l-3.4,3.6l3.9,5.2h-1.9l-3-4.2l-0.8,0.9v3.3h-1.6
				v-12.9h1.6V161.1z"/>
			<path class="st9" d="M499.6,157l1.7,5c0.3,0.8,0.5,1.5,0.7,2.3h0.1c0.2-0.7,0.5-1.5,0.7-2.3l1.7-5h1.7l-3.5,8.8h-1.5l-3.4-8.8
				H499.6z"/>
			<path class="st9" d="M509.5,154.6c0,0.5-0.4,1-1,1c-0.6,0-1-0.4-1-1c0-0.6,0.4-1,1-1C509.1,153.6,509.5,154,509.5,154.6z
				 M507.7,165.9V157h1.6v8.8H507.7z"/>
			<path class="st9" d="M512,152.9h1.6v12.9H512V152.9z"/>
			<path class="st9" d="M516.3,152.9h1.6v12.9h-1.6V152.9z"/>
			<path class="st9" d="M521.5,161.7c0,2.2,1.4,3.1,3,3.1c1.1,0,1.8-0.2,2.4-0.5l0.3,1.1c-0.6,0.3-1.5,0.5-2.9,0.5
				c-2.7,0-4.3-1.8-4.3-4.4c0-2.7,1.6-4.8,4.1-4.8c2.9,0,3.6,2.5,3.6,4.2c0,0.3,0,0.6-0.1,0.7H521.5z M526.2,160.6
				c0-1-0.4-2.6-2.2-2.6c-1.6,0-2.3,1.5-2.5,2.6H526.2z"/>
			<path class="st9" d="M528.5,168.1c0.4-1.1,0.9-3,1.1-4.4l1.8-0.2c-0.4,1.5-1.2,3.6-1.7,4.4L528.5,168.1z"/>
			<path class="st9" d="M547.7,159.6c0,4.2-2.6,6.5-5.7,6.5c-3.2,0-5.5-2.5-5.5-6.2c0-3.9,2.4-6.5,5.7-6.5
				C545.5,153.4,547.7,155.9,547.7,159.6z M538.1,159.8c0,2.6,1.4,5,3.9,5c2.5,0,3.9-2.3,3.9-5.1c0-2.4-1.3-5-3.9-5
				C539.5,154.7,538.1,157.1,538.1,159.8z"/>
			<path class="st9" d="M549.7,159.4c0-0.9,0-1.7-0.1-2.4h1.4l0.1,1.5h0c0.4-0.8,1.5-1.7,2.9-1.7c1.2,0,3.1,0.7,3.1,3.8v5.3h-1.6
				v-5.1c0-1.4-0.5-2.6-2-2.6c-1.1,0-1.9,0.7-2.1,1.6c-0.1,0.2-0.1,0.5-0.1,0.7v5.3h-1.6V159.4z"/>
			<path class="st9" d="M559.4,164.9c0-0.7,0.5-1.1,1.1-1.1c0.6,0,1.1,0.5,1.1,1.1c0,0.7-0.4,1.1-1.1,1.1
				C559.8,166.1,559.4,165.6,559.4,164.9z"/>
		</g>
	</g>
</g>
<g>
	<path class="st2" d="M415.4,83.7h-2.2l-1.1-7.2h-5.7l-1.1,7.2h-2.2l4.3-28h3.7L415.4,83.7z M406.8,74.3h5l-2.4-16.3h-0.1
		L406.8,74.3z"/>
	<path class="st2" d="M428.6,83.7h-2.2v-9.3c0-2-1.6-3.6-3.7-3.6h-2.6v12.9H418v-28h4.8c3.2,0,5.8,2.6,5.8,5.8v3.4
		c0,1.9-1,3.7-2.4,4.7c1.5,1.1,2.4,2.8,2.4,4.7V83.7z M422.8,68.6c2,0,3.7-1.6,3.7-3.6v-3.4c0-2-1.6-3.6-3.7-3.6h-2.6v10.7H422.8z"
		/>
	<path class="st2" d="M440.6,57.8h-3.9v25.8h-2.2V57.8h-3.9v-2.2h10V57.8z"/>
	<path class="st2" d="M450.6,57.8v10.7h5v2.2h-5v12.9h-2.2v-28h9v2.2H450.6z"/>
	<path class="st2" d="M471.1,55.7v23c0,3-2.4,5.4-5.4,5.4c-3,0-5.4-2.4-5.4-5.4v-23h2.2v23c0,1.8,1.5,3.2,3.2,3.2
		c1.8,0,3.2-1.5,3.2-3.2v-23H471.1z"/>
	<path class="st2" d="M475.2,55.7h2.6l6.6,21.2h0.1V55.7h2.2v28h-2.2l-7-22.4h-0.1v22.4h-2.2V55.7z"/>
	<path class="st2" d="M501.6,77.9c0,3.2-2.6,5.8-5.8,5.8h-5v-28h5c3.2,0,5.8,2.6,5.8,5.8V77.9z M499.4,61.5c0-2-1.6-3.6-3.6-3.6
		h-2.8v23.7h2.8c2,0,3.6-1.6,3.6-3.7V61.5z"/>
	<path class="st2" d="M515.9,83.7h-2.2l-1.1-7.2H507l-1.1,7.2h-2.2l4.3-28h3.7L515.9,83.7z M507.3,74.3h5l-2.4-16.3h-0.1L507.3,74.3
		z"/>
	<path class="st2" d="M527.7,83.7h-2.4l-4.4-23.5h-0.1v23.5h-2.2v-28h3.2l4.6,24.7h0.1l4.6-24.7h3.3v28h-2.2V60h-0.1L527.7,83.7z"/>
	<path class="st2" d="M540.7,57.8v10.7h5v2.2h-5v10.7h7.1v2.2h-9.3v-28h9v2.2H540.7z"/>
	<path class="st2" d="M550.8,55.7h2.6l6.6,21.2h0.1V55.7h2.2v28h-2.2l-7-22.4h-0.1v22.4h-2.2V55.7z"/>
	<path class="st2" d="M575,57.8h-3.9v25.8H569V57.8h-3.9v-2.2h10V57.8z"/>
	<path class="st2" d="M587.6,83.7h-2.2l-1.1-7.2h-5.7l-1.1,7.2h-2.2l4.3-28h3.7L587.6,83.7z M579,74.3h5l-2.4-16.3h-0.1L579,74.3z"
		/>
	<path class="st2" d="M599.1,81.5v2.2h-8.9v-28h2.2v25.8H599.1z"/>
	<path class="st2" d="M602.5,66c0,0-1.2-1.5-1.2-3.5v-1.9c0-3,2.4-5.4,5.4-5.4s5.4,2.4,5.4,5.4v3.5l-2.2,0.2v-3.7
		c0-1.8-1.5-3.2-3.2-3.2s-3.2,1.5-3.2,3.2v1.9c0,1.2,0.7,2.1,0.7,2.1l6.6,7.8c0,0,1.3,1.5,1.3,3.6v2.7c0,3-2.4,5.4-5.4,5.4
		s-5.4-2.4-5.4-5.4v-4.1l2.2-0.2v4.4c0,1.8,1.5,3.2,3.2,3.2s3.2-1.5,3.2-3.2V76c0-1.2-0.8-2.2-0.8-2.2L602.5,66z"/>
</g>
<rect id="XMLID_1_" x="401" y="90.6" class="st10" width="212" height="6.4"/>
</svg>
