<?xml version="1.0" encoding="utf-8"?>
<!-- Generator: Adobe Illustrator 22.0.0, SVG Export Plug-In . SVG Version: 6.00 Build 0)  -->
<svg version="1.1" id="Layer_1" xmlns="http://www.w3.org/2000/svg" xmlns:xlink="http://www.w3.org/1999/xlink" x="0px" y="0px"
	 viewBox="0 0 366.4 172.6" style="enable-background:new 0 0 366.4 172.6;" xml:space="preserve">
<style type="text/css">
	.st0{fill:#C7C004;}
</style>
<g>
	<g>
		<path class="st0" d="M66.3,6.4v165.1H53.5V95.1H15.4v76.3H2.7V6.4h12.7v76.1h38.2V6.4H66.3z"/>
		<path class="st0" d="M103.4,19.1v63.4H133v13h-29.6v63.4h42.1v12.7H90.7V6.4h52.8v12.7H103.4z"/>
		<path class="st0" d="M215.5,158.7v12.7h-52.6V6.4h12.7v152.4L215.5,158.7L215.5,158.7z"/>
		<path class="st0" d="M284.7,158.7v12.7h-52.6V6.4h12.7v152.4L284.7,158.7L284.7,158.7z"/>
		<path class="st0" d="M300.1,35.7c0-17.6,14.2-31.8,31.8-31.8c17.6,0,31.8,14.2,31.8,31.8v106.4c0,17.6-14.2,31.8-31.8,31.8
			c-17.6,0-31.8-14.2-31.8-31.8V35.7z M312.8,142.1c0,10.5,8.6,19.1,19.1,19.1s19.1-8.6,19.1-19.1V35.7c0-10.5-8.6-19.1-19.1-19.1
			s-19.1,8.6-19.1,19.1V142.1z"/>
	</g>
</g>
</svg>
