<?xml version="1.0" encoding="utf-8"?>
<!-- Generator: Adobe Illustrator 22.0.0, SVG Export Plug-In . SVG Version: 6.00 Build 0)  -->
<svg version="1.1" id="Layer_1" xmlns="http://www.w3.org/2000/svg" xmlns:xlink="http://www.w3.org/1999/xlink" x="0px" y="0px"
	 viewBox="0 0 146.2 193.9" style="enable-background:new 0 0 146.2 193.9;" xml:space="preserve">
<style type="text/css">
	.st0{fill:#FDED32;}
	.st1{fill:#E87F28;}
	.st2{fill:#88B9D3;}
</style>
<g>
	<path class="st0" d="M135.2,101.1c-6.9,15.1-6.9,32.5-0.2,47.7l0.5,1.1l-48.4,21.1l-0.5-1.2c-6.7-15.3-19.7-26.9-35.6-32.2
		c-18-6-33.4-19.3-41.6-38C-5.7,64.7,10.3,24.3,45.1,9.1c34.9-15.2,75.5,0.7,90.7,35.6C144,63.4,143.1,83.9,135.2,101.1z"/>
	<path class="st1" d="M85.2,59.8L55,73c-9,3.9-13.1,14.4-9.1,23.3c2.9,6.6,10.5,9.5,17,6.7c3-1.3,6.4,0.1,7.7,3l20.7,47.6
		c2.9,6.6,10.5,9.5,17,6.7l4.3-1.9c6.6-2.9,9.5-10.5,6.7-17L98.7,93.8c-1.3-3,0.1-6.4,3-7.7c6.6-2.9,9.5-10.5,6.7-17
		C104.7,60,94.2,55.9,85.2,59.8z M99,79.5c-6.6,2.9-9.5,10.5-6.7,17l20.7,47.6c1.3,3-0.1,6.4-3,7.7l-4.3,1.9c-3,1.3-6.4-0.1-7.7-3
		l-20.7-47.6c-2.9-6.6-10.5-9.5-17-6.7c-3,1.3-6.4-0.1-7.7-3c-2.4-5.4,0.1-11.6,5.5-14l30.3-13.2c5.4-2.4,11.6,0.1,14,5.5
		C103.3,74.7,102,78.2,99,79.5z"/>
	<path class="st2" d="M141.7,142c1.7,3.8,0.6,8.3-2.4,10.9l0.1,0.4c5.2,12-0.3,25.9-12.2,31.1l-9.5,4.2c-12,5.2-25.9-0.3-31-12.2
		l-0.1-0.4c-4,0.4-8-1.8-9.7-5.6c-2.1-4.8,0.1-10.3,4.9-12.4l47.6-20.7C134.1,135.1,139.7,137.3,141.7,142z"/>
</g>
</svg>
