<?xml version="1.0" encoding="utf-8"?>
<!-- Generator: Adobe Illustrator 22.0.0, SVG Export Plug-In . SVG Version: 6.00 Build 0)  -->
<svg version="1.1" id="Layer_1" xmlns="http://www.w3.org/2000/svg" xmlns:xlink="http://www.w3.org/1999/xlink" x="0px" y="0px"
	 viewBox="0 0 113.2 96.9" style="enable-background:new 0 0 113.2 96.9;" xml:space="preserve">
<style type="text/css">
	.st0{fill:#293D7C;}
	.st1{fill:#FFAE7D;}
</style>
<g>
	<path class="st0" d="M2.3,86.9l13.2,0V42.6H2.3V86.9z"/>
	<path class="st1" d="M65,89.5v-5.3c0-3,2.4-5.4,5.4-5.4h1.2c0.2,0,0.4-0.2,0.4-0.4s-0.2-0.4-0.4-0.4c-3,0-5.4-2.4-5.4-5.4v-5.3
		c0-3,2.4-5.4,5.4-5.4c0.2,0,0.4-0.2,0.4-0.4c0-0.2-0.2-0.4-0.4-0.4c-3,0-5.4-2.4-5.4-5.4v-5.3c0-3,2.4-5.4,5.4-5.4
		c0.2,0,0.4-0.2,0.4-0.4c0-0.2-0.2-0.4-0.4-0.4h-2.4c-3,0-5.4-2.4-5.4-5.4v-5.3c0-2.6,1.9-4.8,4.4-5.3V8c0-3.2-2.6-5.7-5.7-5.7
		l-8.9,0c-3.2,0-6.1,2.6-6.5,5.7l-3.6,26.4c-0.4,3.1-2.7,5.7-5,5.7v49.8H65C65,89.7,65,89.6,65,89.5z"/>
	<path class="st1" d="M70.3,95.2c-3.2,0-5.7-2.6-5.7-5.7v-5.3c0-3.2,2.6-5.7,5.7-5.7h31.2c3.2,0,5.7,2.6,5.7,5.7v5.3
		c0,3.2-2.6,5.7-5.7,5.7H70.3z"/>
	<path class="st0" d="M17,96.1c-1.1,0-1.9-0.9-1.9-1.9V35.3c0-1.1,0.9-1.9,1.9-1.9h19.9c1.1,0,1.9,0.9,1.9,1.9v58.9
		c0,1.1-0.9,1.9-1.9,1.9L17,96.1L17,96.1z"/>
	<g>
		<path class="st1" d="M69.2,44.9c-3.2,0-5.7-2.6-5.7-5.7v-5.3c0-3.2,2.6-5.7,5.7-5.7h32.3c3.2,0,5.7,2.6,5.7,5.7v5.3
			c0,3.2-2.6,5.7-5.7,5.7L69.2,44.9L69.2,44.9z"/>
		<path class="st1" d="M71.6,61.7c-3.2,0-5.7-2.6-5.7-5.7v-5.3c0-3.2,2.6-5.7,5.7-5.7h31.3c3.2,0,5.7,2.6,5.7,5.7v5.3
			c0,3.2-2.6,5.7-5.7,5.7L71.6,61.7L71.6,61.7z"/>
		<path class="st1" d="M71.6,78.4c-3.2,0-5.7-2.6-5.7-5.7v-5.3c0-3.2,2.6-5.7,5.7-5.7h31.3c3.2,0,5.7,2.6,5.7,5.7v5.3
			c0,3.2-2.6,5.7-5.7,5.7H71.6z"/>
	</g>
</g>
</svg>
