<?xml version="1.0" encoding="utf-8"?>
<!-- Generator: Adobe Illustrator 22.0.0, SVG Export Plug-In . SVG Version: 6.00 Build 0)  -->
<svg version="1.1" id="Layer_1" xmlns="http://www.w3.org/2000/svg" xmlns:xlink="http://www.w3.org/1999/xlink" x="0px" y="0px"
	 viewBox="0 0 241.2 194.9" style="enable-background:new 0 0 241.2 194.9;" xml:space="preserve">
<style type="text/css">
	.st0{fill:#00867C;}
	.st1{fill:#DCDCDC;}
	.st2{fill:#FE5845;}
</style>
<g>
	<path class="st0" d="M202,51.8l-16.8,6.9l25.9,63.2l16.8-6.9c4.3-1.8,6.4-6.7,4.6-11L213,56.4C211.2,52.1,206.3,50,202,51.8z"/>
	<polygon class="st1" points="96.3,91.6 124.6,160.7 205,172.8 145.2,26.6 	"/>
	<path class="st2" d="M233.9,175.4c0.9,2.1-0.2,4.6-2.3,5.5l-16.8,6.9c-2.1,0.9-4.6-0.2-5.5-2.3l-70-170.9c-0.9-2.1,0.2-4.6,2.3-5.5
		l16.8-6.9c2.1-0.9,4.6,0.2,5.5,2.3L233.9,175.4z"/>
	<path class="st1" d="M27.7,126.2l-18.1,7.4c-2.1,0.9-3.2,3.4-2.3,5.5l20.5,50.1c0.9,2.1,3.4,3.2,5.5,2.3l18.1-7.4L27.7,126.2z"/>
	<path class="st2" d="M125.5,160.7c0.9,2.1-0.2,4.6-2.3,5.5l-64.7,26.5c-2.1,0.9-4.6-0.2-5.5-2.3l-28.6-69.8
		c-0.9-2.1,0.2-4.6,2.3-5.5l64.7-26.5c2.1-0.9,4.6,0.2,5.5,2.3L125.5,160.7z"/>
</g>
</svg>
