<?xml version="1.0" encoding="utf-8"?>
<!-- Generator: Adobe Illustrator 22.0.0, SVG Export Plug-In . SVG Version: 6.00 Build 0)  -->
<svg version="1.1" xmlns="http://www.w3.org/2000/svg" xmlns:xlink="http://www.w3.org/1999/xlink" x="0px" y="0px"
	 viewBox="0 0 719.1 172.6" style="enable-background:new 0 0 719.1 172.6;" xml:space="preserve">
<style type="text/css">
	.st0{fill:#C7C004;}
	.st1{fill:#2D2D2D;}
</style>
<g id="hello">
	<g>
		<path class="st0" d="M67.9,6.4v165.1H55.1V95.1H17v76.3H4.3V6.4H17v76.1h38.2V6.4H67.9z"/>
		<path class="st0" d="M105,19.1v63.4h29.6v13H105v63.4h42.1v12.7H92.3V6.4h52.8v12.7H105z"/>
		<path class="st0" d="M217.1,158.7v12.7h-52.6V6.4h12.7v152.4L217.1,158.7L217.1,158.7z"/>
		<path class="st0" d="M286.3,158.7v12.7h-52.6V6.4h12.7v152.4L286.3,158.7L286.3,158.7z"/>
		<path class="st0" d="M301.7,35.7c0-17.6,14.2-31.8,31.8-31.8c17.6,0,31.8,14.2,31.8,31.8v106.4c0,17.6-14.2,31.8-31.8,31.8
			c-17.6,0-31.8-14.2-31.8-31.8V35.7z M314.4,142.1c0,10.5,8.6,19.1,19.1,19.1s19.1-8.6,19.1-19.1V35.7c0-10.5-8.6-19.1-19.1-19.1
			s-19.1,8.6-19.1,19.1V142.1z"/>
	</g>
</g>
<g id="name">
	<g>
		<g>
			<path class="st1" d="M445.9,143H411l-12,30.4h-6.6L426.9,87h3.8l33.9,86.3h-6.8L445.9,143z M413.2,137.6H444l-11.7-31
				c-1-2.4-2.2-5.8-3.5-10.1c-1.1,3.8-2.2,7.2-3.5,10.2L413.2,137.6z"/>
			<path class="st1" d="M539.3,173.4h-6.1L482.3,97h-0.5c0.5,9.1,0.7,16,0.7,20.6v55.8h-5.8v-86h6l50.9,76.2h0.4
				c-0.4-7.1-0.5-13.8-0.5-20.1V87.4h5.8L539.3,173.4L539.3,173.4z"/>
			<path class="st1" d="M626.2,173.4h-6.1L569.2,97h-0.5c0.5,9.1,0.7,16,0.7,20.6v55.8h-5.8v-86h6l50.9,76.2h0.4
				c-0.4-7.1-0.5-13.8-0.5-20.1V87.4h5.8L626.2,173.4L626.2,173.4z"/>
			<path class="st1" d="M692,143h-35l-12,30.4h-6.6L673,87h3.8l33.9,86.3h-6.8L692,143z M659.2,137.6H690l-11.7-31
				c-1-2.4-2.2-5.8-3.5-10.1c-1.1,3.8-2.2,7.2-3.5,10.2L659.2,137.6z"/>
		</g>
		<g>
			<path class="st1" d="M417.4,55.3l-16-39.7h-0.2c0.2,2.4,0.2,4.9,0.2,7.5v32.3h-2.9v-43h4.7l15.2,37.9h0.2l15.2-37.9h4.5v43h-3
				V22.7c0-2.3,0.1-4.6,0.4-7.1h-0.2l-16.1,39.7C419.4,55.3,417.4,55.3,417.4,55.3z"/>
			<path class="st1" d="M460.3,35.8l12.6-23.5h3.2l-14.3,26.4v16.6h-3.1V38.9l-14.4-26.6h3.4L460.3,35.8z"/>
			<path class="st1" d="M529.2,55.3h-3l-25.5-38.2h-0.2c0.2,4.6,0.4,8,0.4,10.3v27.9H498v-43h3l25.5,38.1h0.2
				c-0.2-3.5-0.3-6.9-0.3-10.1V12.2h2.9v43.1H529.2z"/>
			<path class="st1" d="M562.1,40.1h-17.5l-6,15.2h-3.3l17.3-43.2h1.9l17,43.2h-3.4L562.1,40.1z M545.7,37.4h15.4l-5.9-15.5
				c-0.5-1.2-1.1-2.9-1.8-5.1c-0.5,1.9-1.1,3.6-1.7,5.1L545.7,37.4z"/>
			<path class="st1" d="M596.5,55.3l-16-39.7h-0.2c0.2,2.4,0.2,4.9,0.2,7.5v32.3h-2.9v-43h4.7l15.2,37.9h0.2l15.2-37.9h4.5v43h-3
				V22.7c0-2.3,0.1-4.6,0.4-7.1h-0.2l-16.1,39.7C598.5,55.3,596.5,55.3,596.5,55.3z"/>
			<path class="st1" d="M653.1,55.3h-23.5v-43h23.5V15h-20.5v16.3H652V34h-19.4v18.5h20.5V55.3z"/>
			<path class="st1" d="M678.5,55.3v-43h3v43H678.5z"/>
			<path class="st1" d="M717.4,44.2c0,3.6-1.3,6.4-4,8.5c-2.6,2.1-6.1,3.1-10.5,3.1c-5.3,0-9.3-0.6-12.1-1.7v-3
				c3.1,1.3,7.1,2,11.9,2c3.5,0,6.3-0.8,8.4-2.4s3.1-3.7,3.1-6.4c0-1.6-0.3-3-1-4c-0.7-1.1-1.8-2-3.4-2.9c-1.5-0.9-3.8-1.8-6.8-2.9
				c-4.4-1.5-7.4-3.1-9.1-4.9c-1.7-1.8-2.5-4.1-2.5-7c0-3.2,1.3-5.8,3.8-7.9c2.5-2,5.8-3,9.7-3c4,0,7.8,0.8,11.4,2.3l-1.1,2.6
				c-3.6-1.5-7-2.2-10.2-2.2s-5.7,0.7-7.6,2.2c-1.9,1.5-2.8,3.5-2.8,6c0,1.6,0.3,2.9,0.9,3.9c0.6,1,1.5,1.9,2.8,2.8
				c1.3,0.8,3.6,1.8,6.8,2.9c3.4,1.2,5.9,2.3,7.6,3.4c1.7,1.1,2.9,2.3,3.7,3.7C717.1,40.5,717.4,42.2,717.4,44.2z"/>
		</g>
	</g>
</g>
</svg>
