<?xml version="1.0" encoding="utf-8"?>
<!-- Generator: Adobe Illustrator 22.0.0, SVG Export Plug-In . SVG Version: 6.00 Build 0)  -->
<svg version="1.1" id="Layer_1" xmlns="http://www.w3.org/2000/svg" xmlns:xlink="http://www.w3.org/1999/xlink" x="0px" y="0px"
	 viewBox="0 0 146.2 189.9" style="enable-background:new 0 0 146.2 189.9;" xml:space="preserve">
<style type="text/css">
	.st0{fill:#B9783D;}
	.st1{fill:#80391B;}
	.st2{fill:#FF5A5F;}
	.st3{fill:#6E96DC;}
	.st4{fill:#3CAF96;}
	.st5{fill:#9BB9C3;}
	.st6{fill:#FFF5AF;}
</style>
<g>
	<path class="st0" d="M122.3,61.3l-1.2,37.3l-0.9,27.7l-1,30.9c-0.2,5.6-4.9,10-10.5,9.9c-0.5,0-1-0.1-1.5-0.2
		c-0.3,0.4-0.7,0.7-1.1,1l0,0c-4.4,3.5-10.8,2.7-14.3-1.7L32.5,90.8c-3.3-4.1-2.5-10.2,1.6-13.4l1-0.8c4.1-3.3,10.2-2.5,13.4,1.6
		l23.1,29.4l9.8,12.5l-17-51.8c-1.6-5,1.1-10.4,6.1-12.1l1.2-0.4c5-1.6,10.4,1.1,12.1,6.1l11.6,35.5l4.8,14.6l1.7-51.3
		c0.2-5.3,4.6-9.4,9.9-9.2l1.3,0C118.4,51.7,122.5,56.1,122.3,61.3z"/>
	<path class="st1" d="M77.8,12.7l0.5,13l-0.1,16.7c-2.9,0.2-6.7,1-10.8,2.3c-4.1,1.3-7.6,2.9-10.1,4.5l-9.8-13.3l-6.8-11.1
		c-1.5-2-1.5-4.8,0-6.8c3.8-5,8.3-7.7,14.7-9.8c6.4-2.1,12.1-2.7,18.2-1C76.2,7.9,77.8,10.2,77.8,12.7z M114.9,5.5
		c0-0.2-0.1-0.4-0.2-0.6c-0.5-0.8-0.2-1.7-0.8-1L99.2,25.1c-1.6,2.2-3.7,3.9-4.2,6.4c-1.2,5.8,0.3,12,4.6,16.6l0,0
		c3.7,4,8.8,6,13.9,5.9c4.4-0.1,8.8-1.8,12.3-5l0,0c2.5-2.3,4.4-5.1,5.1-8.2c0.9-3.8,0.6-7.1-0.4-10.2
		C127.2,20,114.7,14.5,114.9,5.5z M4.6,38.8c0.4,8.6,2.8,20.2,8.5,29.3c1.1,1.8,2.2,3.4,3.3,4.8c6.9,8.8,12.3,8.3,22.5,9.5
		c1.2-10.2,3-15.4-3.9-24.1c-1.1-1.5-2.4-3-4-4.5C23.1,46.3,14,41.8,4.6,38.8z"/>
	<path class="st2" d="M78.4,12.5l-0.1,14.1c-1.7,0.3-3.3-0.5-4.2-1.9l-2.6-8.1c-0.7-2.1-3-3.3-5.1-2.6l-0.3,0.1
		c-2.1,0.7-3.3,3-2.6,5.1l0.2,0.7c0.2,1.8-0.9,3.6-2.8,4.2l-0.3,0.1c-1.8,0.6-3.8-0.2-4.7-1.8l-0.2-0.7c-0.7-2.1-3-3.3-5.1-2.6
		l-0.3,0.1c-2.1,0.7-3.3,3-2.6,5.1l2.6,8.1c0.2,1.7-0.7,3.3-2.2,4l-8.4-11.4c-1.5-2-1.5-4.8,0-6.8c3.8-5,9.2-8.9,15.6-11
		s13-2.1,19-0.4C76.8,7.7,78.4,10,78.4,12.5z"/>
	<path class="st3" d="M130.8,31.6c-0.7,0.9-1.8,1.5-3.1,1.4l0,0c-1.8-0.1-3.2-1.4-3.5-3l0-0.8c0.1-2.1-1.5-3.8-3.6-3.8l0,0
		c-2.1-0.1-3.8,1.5-3.8,3.6l-0.3,10.7c-0.4,1.7-1.9,2.9-3.7,2.8c-1.8-0.1-3.2-1.4-3.5-3l0.3-10.7c0.1-2.1-1.5-3.8-3.6-3.8
		c-2.1-0.1-3.8,1.5-3.8,3.6l-0.1,3.3c-0.4,1.7-1.9,2.9-3.7,2.8c-1.6-0.1-2.9-1.1-3.4-2.5c0.5-2.7,1.6-5.3,3.3-7.7l15.2-21.1
		c0.6-0.8,1.8-0.7,2.3,0.1c0.1,0.2,0.2,0.4,0.2,0.6C115.7,13.3,127.9,20.4,130.8,31.6z"/>
	<path class="st4" d="M25.6,59.2L21,53.3c-1.3-1.7-3.8-2-5.4-0.7c-1.7,1.3-2,3.8-0.7,5.4l4.7,5.9c0.8,1.6,0.4,3.6-1.1,4.7
		c-1.6,1.2-3.8,1.1-5.2-0.4C7.6,59.3,2.7,46.3,3.7,37.6l0,0c8.7,1,20.2,8.9,27.7,16.6c1.1,1.7,0.7,3.9-0.9,5.1
		C29,60.4,27,60.4,25.6,59.2z"/>
	<path class="st5" d="M128.5,95.2l16,67.9c-9,8.1-20.5,12.4-32.7,16.4s-24,7.3-36.1,6.1l-27.3-64.2c-0.8-1.8,0.2-3.8,2-4.4l74-24.2
		C126.1,92.3,128,93.4,128.5,95.2z"/>
	<path class="st6" d="M122.7,50.8L122.7,50.8c0,0.3,0,0.5,0,0.8l0,0L122,71.9l0,0l0,0.3l-20.4-0.7l0.2-6.9l0.4-13.8l0,0
		c0-0.3,0-0.5,0-0.8l0,0c0-1.4,4.6-2.4,10.3-2.2C118.2,48.1,122.7,49.4,122.7,50.8z M54.1,85.2l-12.6-16l0,0
		c-0.2-0.2-0.3-0.4-0.5-0.6l0,0c-0.9-1.1-5.2,0.8-9.6,4.3s-7.3,7.2-6.4,8.3l0,0c0.2,0.2,0.3,0.4,0.5,0.6l0,0L34,92.6l4.3,5.4
		l16-12.6L54.1,85.2L54.1,85.2z M77.9,39.6c-2.9,0.2-7,1-11.3,2.4c-4.3,1.4-8,3.1-10.5,4.8c-0.6,0.4-0.7,1.1-0.4,1.7l5.3,9.6
		l4.2,12.5l2.2,6.6l19.4-6.4l-0.1-0.3l-6-18.9l-1.4-10.8C79.1,40,78.5,39.5,77.9,39.6z"/>
</g>
</svg>
